<svg xmlns="http://www.w3.org/2000/svg" width="32" height="32" viewBox="0 0 32 32">
  <g id="CARDANO_-_ADA" data-name="CARDANO - ADA" transform="translate(-1013 -116)">
    <g id="Group_2954" data-name="Group 2954" transform="translate(1013 116)">
      <g id="Group_1257" data-name="Group 1257">
        <g id="Group_1255" data-name="Group 1255">
          <g id="Rectangle_2252" data-name="Rectangle 2252" fill="#fff" stroke="#0033ad" stroke-width="1">
            <rect width="32" height="32" rx="8" stroke="none"/>
            <rect x="0.5" y="0.5" width="31" height="31" rx="7.5" fill="none"/>
          </g>
        </g>
      </g>
      <g id="Layer_2_1_" transform="translate(5.059 5)">
        <g id="Layer_1-2">
          <path id="Path_3722" data-name="Path 3722" d="M102.76,149.565a1.549,1.549,0,0,0,1.46,1.632h.092a1.549,1.549,0,1,0-1.552-1.632Z" transform="translate(-96.772 -138.642)" fill="#0033ad"/>
          <path id="Path_3723" data-name="Path 3723" d="M.52,165.483a.5.5,0,1,0,.472.527.5.5,0,0,0-.472-.527Z" transform="translate(0.008 -154.958)" fill="#0033ad"/>
          <path id="Path_3724" data-name="Path 3724" d="M90.066,10.887a.5.5,0,0,0-.454-.9.5.5,0,0,0,.454.9Z" transform="translate(-84.108 -9.328)" fill="#0033ad"/>
          <path id="Path_3725" data-name="Path 3725" d="M109.688,47.731a.772.772,0,1,0-1.037-.343A.774.774,0,0,0,109.688,47.731Z" transform="translate(-102.221 -43.431)" fill="#0033ad"/>
          <path id="Path_3726" data-name="Path 3726" d="M36.166,82.891a.638.638,0,1,0-.184-.883h0A.635.635,0,0,0,36.166,82.891Z" transform="translate(-33.675 -76.52)" fill="#0033ad"/>
          <path id="Path_3727" data-name="Path 3727" d="M43.4,160.98a.774.774,0,1,0,.73.816h0A.774.774,0,0,0,43.4,160.98Z" transform="translate(-39.967 -150.731)" fill="#0033ad"/>
          <path id="Path_3728" data-name="Path 3728" d="M36.633,244.651a.639.639,0,1,0,.859.282h0a.642.642,0,0,0-.859-.282Z" transform="translate(-34.056 -229.02)" fill="#0033ad"/>
          <path id="Path_3729" data-name="Path 3729" d="M84.676,109.333a.908.908,0,1,0-.264-1.257.9.9,0,0,0,.264,1.257Z" transform="translate(-79.338 -100.805)" fill="#0033ad"/>
          <path id="Path_3730" data-name="Path 3730" d="M241.121,47.359a.775.775,0,1,0-.221-1.073h0a.766.766,0,0,0,.221,1.073Z" transform="translate(-226.691 -43.12)" fill="#0033ad"/>
          <path id="Path_3731" data-name="Path 3731" d="M268.852,10.476a.5.5,0,1,0-.147-.7.517.517,0,0,0,.147.7Z" transform="translate(-252.9 -8.966)" fill="#0033ad"/>
          <path id="Path_3732" data-name="Path 3732" d="M223.392,147.86a1.548,1.548,0,1,0-.172,3.091h.086a1.547,1.547,0,0,0,.086-3.091Z" transform="translate(-208.84 -138.416)" fill="#0033ad"/>
          <path id="Path_3733" data-name="Path 3733" d="M132.544,98.629a1.55,1.55,0,1,0,.687-2.085,1.552,1.552,0,0,0-.687,2.085Z" transform="translate(-124.666 -90.222)" fill="#0033ad"/>
          <path id="Path_3734" data-name="Path 3734" d="M318.757,82.366a.638.638,0,1,0-.865-.282.649.649,0,0,0,.865.282Z" transform="translate(-299.333 -75.997)" fill="#0033ad"/>
          <path id="Path_3735" data-name="Path 3735" d="M261.315,107.351a.909.909,0,1,0,1.221.4A.91.91,0,0,0,261.315,107.351Z" transform="translate(-245.572 -100.425)" fill="#0033ad"/>
          <path id="Path_3736" data-name="Path 3736" d="M177.287,1.262a.646.646,0,0,0,.675-.6.639.639,0,0,0-1.276-.08.648.648,0,0,0,.6.681Z" transform="translate(-166.348 0.015)" fill="#0033ad"/>
          <path id="Path_3737" data-name="Path 3737" d="M173.242,58.289a.909.909,0,1,0-.859-.957.9.9,0,0,0,.859.957Z" transform="translate(-162.308 -52.875)" fill="#0033ad"/>
          <path id="Path_3738" data-name="Path 3738" d="M85.831,211.336a.909.909,0,1,0-1.221-.4A.91.91,0,0,0,85.831,211.336Z" transform="translate(-79.574 -196.262)" fill="#0033ad"/>
          <path id="Path_3739" data-name="Path 3739" d="M192.135,97.1a1.548,1.548,0,1,0,1.294-.7A1.544,1.544,0,0,0,192.135,97.1Z" transform="translate(-180.705 -90.244)" fill="#0033ad"/>
          <path id="Path_3740" data-name="Path 3740" d="M195.01,200.331a1.548,1.548,0,1,0-.687,2.079h0a1.541,1.541,0,0,0,.693-2.067C195.016,200.337,195.016,200.337,195.01,200.331Z" transform="translate(-180.888 -186.739)" fill="#0033ad"/>
          <path id="Path_3741" data-name="Path 3741" d="M262.469,209.312a.908.908,0,1,0,.264,1.257.9.9,0,0,0-.264-1.257Z" transform="translate(-245.807 -195.84)" fill="#0033ad"/>
          <path id="Path_3742" data-name="Path 3742" d="M308.726,161.2a.774.774,0,1,0-.816.73h0A.779.779,0,0,0,308.726,161.2Z" transform="translate(-289.339 -150.169)" fill="#0033ad"/>
          <path id="Path_3743" data-name="Path 3743" d="M359.22,164.683a.5.5,0,1,0,.472.527A.5.5,0,0,0,359.22,164.683Z" transform="translate(-337.692 -154.208)" fill="#0033ad"/>
          <path id="Path_3744" data-name="Path 3744" d="M319.307,244.123a.638.638,0,1,0,.184.883.635.635,0,0,0-.184-.883Z" transform="translate(-299.797 -228.494)" fill="#0033ad"/>
          <path id="Path_3745" data-name="Path 3745" d="M90.728,320.635a.5.5,0,1,0,.141.693h0A.492.492,0,0,0,90.728,320.635Z" transform="translate(-84.686 -300.145)" fill="#0033ad"/>
          <path id="Path_3746" data-name="Path 3746" d="M269.613,320.253a.5.5,0,1,0,.454.9.5.5,0,0,0-.454-.9Z" transform="translate(-253.571 -299.812)" fill="#0033ad"/>
          <path id="Path_3747" data-name="Path 3747" d="M135.388,201.982a1.551,1.551,0,1,0-2.147.448,1.556,1.556,0,0,0,2.147-.448Z" transform="translate(-124.818 -186.838)" fill="#0033ad"/>
          <path id="Path_3748" data-name="Path 3748" d="M110.139,275.465a.775.775,0,1,0,.221,1.073h0A.768.768,0,0,0,110.139,275.465Z" transform="translate(-102.569 -257.704)" fill="#0033ad"/>
          <path id="Path_3749" data-name="Path 3749" d="M177.051,325.686a.639.639,0,1,0,.6.681.646.646,0,0,0-.6-.681Z" transform="translate(-166.056 -304.963)" fill="#0033ad"/>
          <path id="Path_3750" data-name="Path 3750" d="M172.831,260.374a.909.909,0,1,0,.859.957.9.9,0,0,0-.859-.957Z" transform="translate(-161.828 -243.789)" fill="#0033ad"/>
          <path id="Path_3751" data-name="Path 3751" d="M241.728,275.11a.775.775,0,1,0,1.049.343.775.775,0,0,0-1.049-.343Z" transform="translate(-227.195 -257.41)" fill="#0033ad"/>
        </g>
      </g>
    </g>
  </g>
</svg>
