<?xml version="1.0" encoding="UTF-8"?>
<!DOCTYPE svg PUBLIC "-//W3C//DTD SVG 1.1//EN" "http://www.w3.org/Graphics/SVG/1.1/DTD/svg11.dtd">
<svg xmlns="http://www.w3.org/2000/svg" version="1.1" width="135px" height="135px" style="shape-rendering:geometricPrecision; text-rendering:geometricPrecision; image-rendering:optimizeQuality; fill-rule:evenodd; clip-rule:evenodd" xmlns:xlink="http://www.w3.org/1999/xlink">
<g><path style="opacity:0.994" fill="#2176bc" d="M 23.5,-0.5 C 52.5,-0.5 81.5,-0.5 110.5,-0.5C 122.167,3.83333 130.167,11.8333 134.5,23.5C 134.5,52.1667 134.5,80.8333 134.5,109.5C 132.735,115.022 129.902,120.022 126,124.5C 120.986,128.752 115.486,132.085 109.5,134.5C 81.1667,134.5 52.8333,134.5 24.5,134.5C 15.4326,131.269 8.2659,125.602 3,117.5C 1.9066,114.691 0.739932,112.024 -0.5,109.5C -0.5,80.8333 -0.5,52.1667 -0.5,23.5C 3.83333,11.8333 11.8333,3.83333 23.5,-0.5 Z"/></g>
<g><path style="opacity:1" fill="#fdfdfe" d="M 26.5,3.5 C 53.5021,3.33336 80.5021,3.50003 107.5,4C 119.026,7.52622 126.526,15.0262 130,26.5C 130.667,53.1667 130.667,79.8333 130,106.5C 126.627,119.873 118.127,127.706 104.5,130C 78.8333,130.667 53.1667,130.667 27.5,130C 15,126.833 7.16667,119 4,106.5C 3.33333,79.8333 3.33333,53.1667 4,26.5C 7.68399,14.9837 15.184,7.31707 26.5,3.5 Z"/></g>
<g><path style="opacity:1" fill="#414140" d="M 64.5,22.5 C 65.8734,22.3433 67.2068,22.51 68.5,23C 72.6667,27.1667 76.8333,31.3333 81,35.5C 80.6941,40.0717 78.3607,43.405 74,45.5C 71.5528,42.9677 68.8861,40.6343 66,38.5C 63.6506,41.0168 61.1506,43.3501 58.5,45.5C 55.5,43.1667 52.8333,40.5 50.5,37.5C 55.1884,32.4797 59.8551,27.4797 64.5,22.5 Z"/></g>
<g><path style="opacity:1" fill="#2277bc" d="M 83.5,38.5 C 87.2976,41.7961 90.9643,45.2961 94.5,49C 88.5968,54.7346 82.9302,60.5679 77.5,66.5C 82.485,71.9853 87.6516,77.3187 93,82.5C 93.6667,83.1667 93.6667,83.8333 93,84.5C 90.3953,88.0597 87.2286,91.0597 83.5,93.5C 77.8454,87.6792 72.0121,82.0125 66,76.5C 60.5541,81.9459 55.0541,87.4459 49.5,93C 45.2027,90.8916 41.536,87.7249 38.5,83.5C 44.0125,77.4879 49.6792,71.6546 55.5,66C 49.8333,60.3333 44.1667,54.6667 38.5,49C 41.713,45.4506 45.213,42.2839 49,39.5C 54.9303,44.4266 60.597,49.7599 66,55.5C 72.3103,50.3568 78.1437,44.6901 83.5,38.5 Z"/></g>
<g><path style="opacity:1" fill="#40403f" d="M 73.5,86.5 C 76.6306,89.1288 79.6306,91.9621 82.5,95C 77,100.5 71.5,106 66,111.5C 60.6516,106.319 55.485,100.985 50.5,95.5C 52.8333,92.5 55.5,89.8333 58.5,87.5C 61.1667,89.5 63.8333,91.5 66.5,93.5C 69.1878,91.4789 71.5211,89.1456 73.5,86.5 Z"/></g>
</svg>
