<?xml version="1.0" encoding="UTF-8"?>
<!DOCTYPE svg PUBLIC "-//W3C//DTD SVG 1.1//EN" "http://www.w3.org/Graphics/SVG/1.1/DTD/svg11.dtd">
<svg xmlns="http://www.w3.org/2000/svg" version="1.1" width="135px" height="135px" style="shape-rendering:geometricPrecision; text-rendering:geometricPrecision; image-rendering:optimizeQuality; fill-rule:evenodd; clip-rule:evenodd" xmlns:xlink="http://www.w3.org/1999/xlink">
<g><path style="opacity:0.989" fill="#10156b" d="M 23.5,-0.5 C 52.5,-0.5 81.5,-0.5 110.5,-0.5C 121.771,3.77136 129.771,11.438 134.5,22.5C 134.5,52.5 134.5,82.5 134.5,112.5C 130.167,122.833 122.833,130.167 112.5,134.5C 82.5,134.5 52.5,134.5 22.5,134.5C 11.438,129.771 3.77136,121.771 -0.5,110.5C -0.5,81.5 -0.5,52.5 -0.5,23.5C -0.166667,23.5 0.166667,23.5 0.5,23.5C 2.75049,20.0012 4.75049,16.3346 6.5,12.5C 8.83333,10.8333 10.8333,8.83333 12.5,6.5C 16.3346,4.75049 20.0012,2.75049 23.5,0.5C 23.5,0.166667 23.5,-0.166667 23.5,-0.5 Z"/></g>
<g><path style="opacity:0.533" fill="#5614e1" d="M 23.5,0.5 C 20.0012,2.75049 16.3346,4.75049 12.5,6.5C 15.4,3.21446 19.0666,1.21446 23.5,0.5 Z"/></g>
<g><path style="opacity:1" fill="#fdfdfd" d="M 27.5,4.5 C 54.1687,4.33336 80.8354,4.50003 107.5,5C 119,8.5 126.5,16 130,27.5C 130.667,54.1667 130.667,80.8333 130,107.5C 126.5,119 119,126.5 107.5,130C 80.8333,130.667 54.1667,130.667 27.5,130C 16,126.5 8.5,119 5,107.5C 4.33333,80.8333 4.33333,54.1667 5,27.5C 8.68399,15.9837 16.184,8.31707 27.5,4.5 Z"/></g>
<g><path style="opacity:0.843" fill="#5f15ef" d="M 12.5,6.5 C 10.8333,8.83333 8.83333,10.8333 6.5,12.5C 7.5,9.5 9.5,7.5 12.5,6.5 Z"/></g>
<g><path style="opacity:0.608" fill="#5614e2" d="M 6.5,12.5 C 4.75049,16.3346 2.75049,20.0012 0.5,23.5C 1.21446,19.0666 3.21446,15.4 6.5,12.5 Z"/></g>
<g><path style="opacity:1" fill="#3b3672" d="M 71.5,32.5 C 70.085,31.7106 68.585,31.0439 67,30.5C 65.4198,31.8002 63.9198,33.1336 62.5,34.5C 63.7787,31.2372 65.4453,28.2372 67.5,25.5C 69.11,27.7254 70.4434,30.0587 71.5,32.5 Z"/></g>
<g><path style="opacity:1" fill="#070e63" d="M 71.5,32.5 C 73.4586,36.1419 75.4586,39.8085 77.5,43.5C 78.1074,47.9511 78.4408,52.4511 78.5,57C 78.4898,61.229 77.8232,65.0623 76.5,68.5C 71.1007,68.309 65.7674,68.809 60.5,70C 59.6266,71.045 58.6266,71.8783 57.5,72.5C 56.5064,63.3483 56.1731,54.015 56.5,44.5C 57.9689,40.9036 59.9689,37.5703 62.5,34.5C 63.9198,33.1336 65.4198,31.8002 67,30.5C 68.585,31.0439 70.085,31.7106 71.5,32.5 Z"/></g>
<g><path style="opacity:1" fill="#4e4d8a" d="M 56.5,44.5 C 56.1731,54.015 56.5064,63.3483 57.5,72.5C 57.5,72.8333 57.5,73.1667 57.5,73.5C 56.1729,69.049 55.5063,64.2157 55.5,59C 55.5007,53.9881 55.8341,49.1547 56.5,44.5 Z"/></g>
<g><path style="opacity:1" fill="#464783" d="M 77.5,43.5 C 78.9063,43.9731 79.573,44.9731 79.5,46.5C 79.5,54.1667 79.5,61.8333 79.5,69.5C 78.209,69.7373 77.209,69.404 76.5,68.5C 77.8232,65.0623 78.4898,61.229 78.5,57C 78.4408,52.4511 78.1074,47.9511 77.5,43.5 Z"/></g>
<g><path style="opacity:1" fill="#7778a8" d="M 46.5,96.5 C 46.6665,85.495 46.4998,74.495 46,63.5C 45.6174,64.056 45.1174,64.3893 44.5,64.5C 44.4148,63.0047 45.0815,62.0047 46.5,61.5C 47.8243,73.3266 47.8243,84.9933 46.5,96.5 Z"/></g>
<g><path style="opacity:1" fill="#7779a8" d="M 90.5,64.5 C 89.8826,64.3893 89.3826,64.056 89,63.5C 88.5002,74.495 88.3335,85.495 88.5,96.5C 87.1757,84.9933 87.1757,73.3266 88.5,61.5C 89.9185,62.0047 90.5852,63.0047 90.5,64.5 Z"/></g>
<g><path style="opacity:1" fill="#c9c9db" d="M 79.5,46.5 C 80.4924,54.3159 80.8257,62.3159 80.5,70.5C 74.1579,70.3338 67.8246,70.5005 61.5,71C 60.5291,72.4813 59.1958,73.3146 57.5,73.5C 57.5,73.1667 57.5,72.8333 57.5,72.5C 58.6266,71.8783 59.6266,71.045 60.5,70C 65.7674,68.809 71.1007,68.309 76.5,68.5C 77.209,69.404 78.209,69.7373 79.5,69.5C 79.5,61.8333 79.5,54.1667 79.5,46.5 Z"/></g>
<g><path style="opacity:1" fill="#070d61" d="M 43.5,67.5 C 45.4722,76.4401 46.1389,85.7734 45.5,95.5C 39.8333,95.5 34.1667,95.5 28.5,95.5C 28.5,94.5 28.5,93.5 28.5,92.5C 29.8699,92.1435 30.8699,91.3102 31.5,90C 33.9639,86.1225 35.9639,81.9558 37.5,77.5C 39.5071,74.1494 41.5071,70.8161 43.5,67.5 Z"/></g>
<g><path style="opacity:1" fill="#2f2f71" d="M 46.5,96.5 C 39.8002,96.83 33.1335,96.4967 26.5,95.5C 26.9424,94.2613 27.6091,93.2613 28.5,92.5C 28.5,93.5 28.5,94.5 28.5,95.5C 34.1667,95.5 39.8333,95.5 45.5,95.5C 46.1389,85.7734 45.4722,76.4401 43.5,67.5C 44.1098,66.609 44.4431,65.609 44.5,64.5C 45.1174,64.3893 45.6174,64.056 46,63.5C 46.4998,74.495 46.6665,85.495 46.5,96.5 Z"/></g>
<g><path style="opacity:1" fill="#312f71" d="M 90.5,64.5 C 92.7664,68.0337 94.7664,71.7004 96.5,75.5C 95.2921,74.7659 93.9587,74.4326 92.5,74.5C 92.9492,72.0225 92.2825,70.0225 90.5,68.5C 89.5018,77.4754 89.1685,86.4754 89.5,95.5C 95.1667,95.5 100.833,95.5 106.5,95.5C 106.5,94.5 106.5,93.5 106.5,92.5C 107.391,93.2613 108.058,94.2613 108.5,95.5C 101.866,96.4967 95.1998,96.83 88.5,96.5C 88.3335,85.495 88.5002,74.495 89,63.5C 89.3826,64.056 89.8826,64.3893 90.5,64.5 Z"/></g>
<g><path style="opacity:1" fill="#0e1063" d="M 96.5,75.5 C 100.069,80.9618 103.402,86.6285 106.5,92.5C 106.5,93.5 106.5,94.5 106.5,95.5C 100.833,95.5 95.1667,95.5 89.5,95.5C 89.1685,86.4754 89.5018,77.4754 90.5,68.5C 92.2825,70.0225 92.9492,72.0225 92.5,74.5C 93.9587,74.4326 95.2921,74.7659 96.5,75.5 Z"/></g>
<g><path style="opacity:1" fill="#7c7da9" d="M 78.5,78.5 C 73.4769,77.3097 68.4769,77.3097 63.5,78.5C 63.6107,77.8826 63.944,77.3826 64.5,77C 68.8333,76.3333 73.1667,76.3333 77.5,77C 78.056,77.3826 78.3893,77.8826 78.5,78.5 Z"/></g>
<g><path style="opacity:1" fill="#070d62" d="M 78.5,78.5 C 78.5,84.1667 78.5,89.8333 78.5,95.5C 71.1667,95.5 63.8333,95.5 56.5,95.5C 56.1906,91.2953 56.8572,87.2953 58.5,83.5C 59.1667,80.8333 60.8333,79.1667 63.5,78.5C 68.4769,77.3097 73.4769,77.3097 78.5,78.5 Z"/></g>
<g><path style="opacity:1" fill="#5e5a8e" d="M 37.5,77.5 C 35.9639,81.9558 33.9639,86.1225 31.5,90C 30.8699,91.3102 29.8699,92.1435 28.5,92.5C 29.9123,90.0024 31.0789,87.3358 32,84.5C 33.8755,82.0181 35.7088,79.6848 37.5,77.5 Z"/></g>
<g><path style="opacity:1" fill="#7272a0" d="M 58.5,83.5 C 56.8572,87.2953 56.1906,91.2953 56.5,95.5C 55.3592,92.3601 55.1925,89.0267 56,85.5C 56.4169,84.244 57.2502,83.5774 58.5,83.5 Z"/></g>
<g><path style="opacity:1" fill="#42437f" d="M 78.5,78.5 C 79.4896,84.31 79.8229,90.31 79.5,96.5C 71.6484,96.8254 63.9818,96.492 56.5,95.5C 63.8333,95.5 71.1667,95.5 78.5,95.5C 78.5,89.8333 78.5,84.1667 78.5,78.5 Z"/></g>
</svg>
