<?xml version="1.0" encoding="UTF-8"?>
<!DOCTYPE svg PUBLIC "-//W3C//DTD SVG 1.1//EN" "http://www.w3.org/Graphics/SVG/1.1/DTD/svg11.dtd">
<svg xmlns="http://www.w3.org/2000/svg" version="1.1" width="135px" height="135px" style="shape-rendering:geometricPrecision; text-rendering:geometricPrecision; image-rendering:optimizeQuality; fill-rule:evenodd; clip-rule:evenodd" xmlns:xlink="http://www.w3.org/1999/xlink">
<g><path style="opacity:0.94" fill="#6a19ff" d="M 23.5,-0.5 C 52.5,-0.5 81.5,-0.5 110.5,-0.5C 122.167,3.83333 130.167,11.8333 134.5,23.5C 134.5,52.5 134.5,81.5 134.5,110.5C 129.656,122.597 120.989,130.597 108.5,134.5C 80.8333,134.5 53.1667,134.5 25.5,134.5C 12.9677,130.586 4.30105,122.586 -0.5,110.5C -0.5,81.5 -0.5,52.5 -0.5,23.5C 3.83333,11.8333 11.8333,3.83333 23.5,-0.5 Z"/></g>
<g><path style="opacity:1" fill="#fdfdfe" d="M 25.5,3.5 C 52.5021,3.33336 79.5021,3.50003 106.5,4C 118.183,7.01843 126.016,14.1851 130,25.5C 130.667,52.5 130.667,79.5 130,106.5C 126.648,119.85 118.148,127.683 104.5,130C 79.1667,130.667 53.8333,130.667 28.5,130C 14.9872,127.154 6.82049,118.987 4,105.5C 3.33333,78.8333 3.33333,52.1667 4,25.5C 7.9933,15.0073 15.16,7.67396 25.5,3.5 Z"/></g>
<g><path style="opacity:1" fill="#6a1afe" d="M 61.5,26.5 C 88.9582,25.9614 104.291,39.2948 107.5,66.5C 104.833,91.1667 91.1667,104.833 66.5,107.5C 47.4454,105.929 34.6121,96.2627 28,78.5C 23.3727,50.7141 34.5394,33.3808 61.5,26.5 Z"/></g>
<g><path style="opacity:1" fill="#f6f0ff" d="M 63.5,41.5 C 64.2389,41.369 64.9056,41.5357 65.5,42C 59.2174,46.8701 58.0508,52.7034 62,59.5C 65.8333,62 69.6667,64.5 73.5,67C 80.6171,75.2237 79.9505,82.7237 71.5,89.5C 71.1667,89.3333 70.8333,89.1667 70.5,89C 76.6187,83.2149 76.952,77.2149 71.5,71C 64.4567,68.6214 59.29,64.1214 56,57.5C 55.005,50.4916 57.505,45.1582 63.5,41.5 Z"/></g>
<g><path style="opacity:1" fill="#ae81ff" d="M 69.5,41.5 C 75.9682,44.436 78.8015,49.436 78,56.5C 77.5883,58.9969 76.4216,60.9969 74.5,62.5C 72.1147,61.1866 71.9481,59.5199 74,57.5C 74.6667,54.5 74.6667,51.5 74,48.5C 72.2502,46.2657 70.7502,43.9324 69.5,41.5 Z"/></g>
<g><path style="opacity:1" fill="#b084ff" d="M 59.5,69.5 C 60.5862,69.62 61.2528,70.2867 61.5,71.5C 58.1659,78.6584 59.4993,84.8251 65.5,90C 60.7938,89.2951 57.9605,86.4618 57,81.5C 56.0347,77.067 56.868,73.067 59.5,69.5 Z"/></g>
</svg>
