<?xml version="1.0" encoding="UTF-8"?>
<!DOCTYPE svg PUBLIC "-//W3C//DTD SVG 1.1//EN" "http://www.w3.org/Graphics/SVG/1.1/DTD/svg11.dtd">
<svg xmlns="http://www.w3.org/2000/svg" version="1.1" width="135px" height="135px" style="shape-rendering:geometricPrecision; text-rendering:geometricPrecision; image-rendering:optimizeQuality; fill-rule:evenodd; clip-rule:evenodd" xmlns:xlink="http://www.w3.org/1999/xlink">
<g><path style="opacity:0.969" fill="#134976" d="M 23.5,-0.5 C 25.1667,-0.5 26.8333,-0.5 28.5,-0.5C 25.4172,1.02463 22.0839,2.02463 18.5,2.5C 20.0725,1.31271 21.7392,0.312714 23.5,-0.5 Z"/></g>
<g><path style="opacity:0.98" fill="#090b0c" d="M 28.5,-0.5 C 53.8333,-0.5 79.1667,-0.5 104.5,-0.5C 107.273,0.657188 110.273,1.32385 113.5,1.5C 123.532,5.53198 130.532,12.532 134.5,22.5C 134.5,52.5 134.5,82.5 134.5,112.5C 130.103,123.23 122.436,130.563 111.5,134.5C 82.1667,134.5 52.8333,134.5 23.5,134.5C 11.4067,130.074 3.40671,121.74 -0.5,109.5C -0.5,82.5 -0.5,55.5 -0.5,28.5C 1.02463,25.4172 2.02463,22.0839 2.5,18.5C 2.32842,17.5084 2.66175,16.8417 3.5,16.5C 4.90632,16.0269 5.57298,15.0269 5.5,13.5C 8.5,11.1667 11.1667,8.5 13.5,5.5C 15.0269,5.57298 16.0269,4.90632 16.5,3.5C 16.8417,2.66175 17.5084,2.32842 18.5,2.5C 22.0839,2.02463 25.4172,1.02463 28.5,-0.5 Z"/></g>
<g><path style="opacity:0.867" fill="#0f4066" d="M 104.5,-0.5 C 106.5,-0.5 108.5,-0.5 110.5,-0.5C 111.5,0.166667 112.5,0.833333 113.5,1.5C 110.273,1.32385 107.273,0.657188 104.5,-0.5 Z"/></g>
<g><path style="opacity:0.941" fill="#155b92" d="M 16.5,3.5 C 16.0269,4.90632 15.0269,5.57298 13.5,5.5C 13.9731,4.09368 14.9731,3.42702 16.5,3.5 Z"/></g>
<g><path style="opacity:1" fill="#fcfcfc" d="M 27.5,3.5 C 53.5021,3.33336 79.5021,3.50003 105.5,4C 118.995,6.48502 127.495,14.3184 131,27.5C 131.667,53.1667 131.667,78.8333 131,104.5C 128.693,118.139 120.859,126.639 107.5,130C 80.1667,130.667 52.8333,130.667 25.5,130C 13.2698,125.77 6.10317,117.27 4,104.5C 3.33333,78.8333 3.33333,53.1667 4,27.5C 5.39231,21.7863 8.05898,16.7863 12,12.5C 16.5995,8.37379 21.7662,5.37379 27.5,3.5 Z"/></g>
<g><path style="opacity:0.941" fill="#14598f" d="M 13.5,5.5 C 11.1667,8.5 8.5,11.1667 5.5,13.5C 7.16667,9.83333 9.83333,7.16667 13.5,5.5 Z"/></g>
<g><path style="opacity:0.565" fill="#1763a0" d="M 5.5,13.5 C 5.57298,15.0269 4.90632,16.0269 3.5,16.5C 3.42702,14.9731 4.09368,13.9731 5.5,13.5 Z"/></g>
<g><path style="opacity:0.969" fill="#134d7b" d="M 2.5,18.5 C 2.02463,22.0839 1.02463,25.4172 -0.5,28.5C -0.5,26.8333 -0.5,25.1667 -0.5,23.5C 0.312714,21.7392 1.31271,20.0725 2.5,18.5 Z"/></g>
<g><path style="opacity:1" fill="#b2b2b2" d="M 74.5,26.5 C 69.7697,26.2834 65.1031,26.6167 60.5,27.5C 60.6107,26.8826 60.944,26.3826 61.5,26C 66.0204,25.1864 70.3537,25.353 74.5,26.5 Z"/></g>
<g><path style="opacity:1" fill="#070707" d="M 74.5,26.5 C 103.441,35.0396 114.275,54.0396 107,83.5C 99.5606,100.759 86.3939,109.425 67.5,109.5C 53.6018,109.301 42.4351,103.634 34,92.5C 30.7434,87.2275 28.5768,81.5608 27.5,75.5C 26.2132,70.1356 26.2132,64.8023 27.5,59.5C 31.95,42.0496 42.95,31.383 60.5,27.5C 65.1031,26.6167 69.7697,26.2834 74.5,26.5 Z"/></g>
<g><path style="opacity:1" fill="#f4f4f4" d="M 87.5,59.5 C 91.1667,60.1667 94.8333,60.8333 98.5,61.5C 97.3734,62.1217 96.3734,62.955 95.5,64C 92.1182,64.1764 88.7848,64.6764 85.5,65.5C 84.4229,67.7294 83.7563,70.0628 83.5,72.5C 81.1667,72.5 78.8333,72.5 76.5,72.5C 76.5172,70.4352 76.8505,68.4352 77.5,66.5C 78.0431,66.44 78.3764,66.1067 78.5,65.5C 72.6796,64.1843 67.0129,64.1843 61.5,65.5C 58.8342,66.8421 56.5008,68.6755 54.5,71C 50.9613,72.5039 47.2946,72.8372 43.5,72C 45.9957,70.3335 48.329,68.5002 50.5,66.5C 51.2891,66.2172 51.9558,65.7172 52.5,65C 46.3193,64.8276 40.3193,64.3276 34.5,63.5C 39.5051,59.3328 44.6718,55.3328 50,51.5C 49.6406,54.1123 49.1406,56.779 48.5,59.5C 52.5138,59.6655 56.5138,59.4988 60.5,59C 68.5,52.6667 76.5,46.3333 84.5,40C 87.3508,38.7114 90.3508,38.2114 93.5,38.5C 91.9057,45.6162 89.9057,52.6162 87.5,59.5 Z"/></g>
<g><path style="opacity:1" fill="#0e0e0e" d="M 79.5,59.5 C 75.9581,59.8128 72.6248,59.4794 69.5,58.5C 74.0595,55.2977 78.5595,51.9644 83,48.5C 82.5345,52.3962 81.3678,56.0629 79.5,59.5 Z"/></g>
<g><path style="opacity:1" fill="#777777" d="M 69.5,58.5 C 72.6248,59.4794 75.9581,59.8128 79.5,59.5C 75.9813,60.8077 72.3147,60.8077 68.5,59.5C 68.6236,58.8933 68.9569,58.56 69.5,58.5 Z"/></g>
<g><path style="opacity:1" fill="#7c7c7c" d="M 87.5,59.5 C 91.5546,59.1758 95.5546,59.5091 99.5,60.5C 99.3764,61.1067 99.0431,61.44 98.5,61.5C 94.8333,60.8333 91.1667,60.1667 87.5,59.5 Z"/></g>
<g><path style="opacity:1" fill="#464646" d="M 34.5,63.5 C 40.3193,64.3276 46.3193,64.8276 52.5,65C 51.9558,65.7172 51.2891,66.2172 50.5,66.5C 44.9861,65.8335 39.3195,65.1668 33.5,64.5C 33.6236,63.8933 33.9569,63.56 34.5,63.5 Z"/></g>
<g><path style="opacity:1" fill="#454545" d="M 61.5,65.5 C 67.0129,64.1843 72.6796,64.1843 78.5,65.5C 78.3764,66.1067 78.0431,66.44 77.5,66.5C 72.3595,65.5119 67.0262,65.1786 61.5,65.5 Z"/></g>
<g><path style="opacity:1" fill="#adadad" d="M 27.5,59.5 C 26.2132,64.8023 26.2132,70.1356 27.5,75.5C 26.8826,75.3893 26.3826,75.056 26,74.5C 25.8333,72 25.6667,69.5 25.5,67C 25.5248,64.0706 26.1914,61.5706 27.5,59.5 Z"/></g>
<g><path style="opacity:1" fill="#cecece" d="M 57.5,78.5 C 60.5184,78.3354 63.5184,78.502 66.5,79C 66.9574,79.414 67.2907,79.914 67.5,80.5C 64.6124,81.8444 61.6124,83.1777 58.5,84.5C 57.5344,82.604 57.2011,80.604 57.5,78.5 Z"/></g>
<g><path style="opacity:1" fill="#d6d6d6" d="M 99.5,80.5 C 97.6309,81.1646 95.6309,81.8313 93.5,82.5C 95.6309,83.1687 97.6309,83.8354 99.5,84.5C 97.1667,84.5 94.8333,84.5 92.5,84.5C 92.5,82.5 92.5,80.5 92.5,78.5C 94.8568,78.3367 97.1902,78.5034 99.5,79C 91.5272,79.8263 91.5272,80.3263 99.5,80.5 Z"/></g>
<g><path style="opacity:1" fill="#454545" d="M 59.5,79.5 C 61.5273,79.3379 63.5273,79.5045 65.5,80C 63.1209,82.1422 61.1209,81.9755 59.5,79.5 Z"/></g>
<g><path style="opacity:1" fill="#cacaca" d="M 77.5,78.5 C 80.2646,78.7976 82.7646,79.7976 85,81.5C 85.2492,80.376 85.7492,79.376 86.5,78.5C 87.8333,80.5 87.8333,82.5 86.5,84.5C 84.417,83.0413 82.2503,81.7079 80,80.5C 79.7811,81.938 79.2811,83.2713 78.5,84.5C 77.5344,82.604 77.2011,80.604 77.5,78.5 Z"/></g>
<g><path style="opacity:1" fill="#565656" d="M 99.5,80.5 C 100.833,81.8333 100.833,83.1667 99.5,84.5C 97.6309,83.8354 95.6309,83.1687 93.5,82.5C 95.6309,81.8313 97.6309,81.1646 99.5,80.5 Z"/></g>
<g><path style="opacity:1" fill="#b2b2b2" d="M 37.5,78.5 C 39.6899,79.8022 41.6899,81.4689 43.5,83.5C 40.4116,83.3518 37.245,83.6852 34,84.5C 33.3333,83.8333 33.3333,83.1667 34,82.5C 35.3756,81.2949 36.5423,79.9616 37.5,78.5 Z"/></g>
<g><path style="opacity:1" fill="#b1b1b1" d="M 46.5,78.5 C 48.1765,79.1834 48.8432,80.5168 48.5,82.5C 50.604,82.2011 52.604,82.5344 54.5,83.5C 51.9135,84.48 49.2469,84.8134 46.5,84.5C 46.5,82.5 46.5,80.5 46.5,78.5 Z"/></g>
<g><path style="opacity:1" fill="#8f8f8f" d="M 63.5,89.5 C 64.2506,88.4265 65.2506,88.2599 66.5,89C 65.8095,90.0674 65.3095,91.2341 65,92.5C 64.7679,91.2625 64.2679,90.2625 63.5,89.5 Z"/></g>
<g><path style="opacity:1" fill="#878787" d="M 50.5,88.5 C 51.5,88.5 52.5,88.5 53.5,88.5C 53.5391,90.3588 52.7058,91.6921 51,92.5C 50.51,91.2068 50.3433,89.8734 50.5,88.5 Z"/></g>
<g><path style="opacity:1" fill="#8a8a8a" d="M 73.5,88.5 C 75.1207,88.7869 76.1207,89.7869 76.5,91.5C 75.1667,92.8333 73.8333,92.8333 72.5,91.5C 73.1272,90.5832 73.4606,89.5832 73.5,88.5 Z"/></g>
<g><path style="opacity:1" fill="#828282" d="M 77.5,88.5 C 78.7498,88.5774 79.5831,89.244 80,90.5C 82.159,88.0437 82.9923,88.7104 82.5,92.5C 80.8333,92.5 79.1667,92.5 77.5,92.5C 77.5,91.1667 77.5,89.8333 77.5,88.5 Z"/></g>
<g><path style="opacity:1" fill="#797979" d="M 68.5,88.5 C 69.6491,88.7911 70.3158,89.6244 70.5,91C 70.1667,91.8333 69.8333,92.6667 69.5,93.5C 68.5481,91.9547 68.2148,90.288 68.5,88.5 Z"/></g>
<g><path style="opacity:1" fill="#a0a1a1" d="M 65.5,98.5 C 66.1667,98.5 66.8333,98.5 67.5,98.5C 67.5,99.1667 67.5,99.8333 67.5,100.5C 66.8333,100.5 66.1667,100.5 65.5,100.5C 65.5,99.8333 65.5,99.1667 65.5,98.5 Z"/></g>
<g><path style="opacity:1" fill="#094e84" d="M 65.5,98.5 C 65.5,99.1667 65.5,99.8333 65.5,100.5C 58.8333,99.8333 58.8333,99.1667 65.5,98.5 Z"/></g>
<g><path style="opacity:1" fill="#8f1a13" d="M 67.5,98.5 C 74.1667,99.1667 74.1667,99.8333 67.5,100.5C 67.5,99.8333 67.5,99.1667 67.5,98.5 Z"/></g>
</svg>
