<?xml version="1.0" encoding="UTF-8"?>
<!DOCTYPE svg PUBLIC "-//W3C//DTD SVG 1.1//EN" "http://www.w3.org/Graphics/SVG/1.1/DTD/svg11.dtd">
<svg xmlns="http://www.w3.org/2000/svg" version="1.1" width="135px" height="135px" style="shape-rendering:geometricPrecision; text-rendering:geometricPrecision; image-rendering:optimizeQuality; fill-rule:evenodd; clip-rule:evenodd" xmlns:xlink="http://www.w3.org/1999/xlink">
<g><path style="opacity:0.962" fill="#40a740" d="M 23.5,-0.5 C 52.8333,-0.5 82.1667,-0.5 111.5,-0.5C 122.02,3.35223 129.686,10.3522 134.5,20.5C 134.5,51.8333 134.5,83.1667 134.5,114.5C 130.082,123.919 123.082,130.585 113.5,134.5C 82.8333,134.5 52.1667,134.5 21.5,134.5C 10.7699,130.103 3.4366,122.436 -0.5,111.5C -0.5,82.1667 -0.5,52.8333 -0.5,23.5C 3.83333,11.8333 11.8333,3.83333 23.5,-0.5 Z"/></g>
<g><path style="opacity:1" fill="#fcfdfc" d="M 25.5,3.5 C 53.1687,3.33336 80.8353,3.50002 108.5,4C 119.573,7.40588 127.073,14.5726 131,25.5C 131.667,52.8333 131.667,80.1667 131,107.5C 127.613,120.887 119.113,128.721 105.5,131C 79.5,131.667 53.5,131.667 27.5,131C 15,127.833 7.16667,120 4,107.5C 3.33333,80.1667 3.33333,52.8333 4,25.5C 8.01926,14.9818 15.1859,7.64848 25.5,3.5 Z"/></g>
<g><path style="opacity:1" fill="#020302" d="M 55.5,25.5 C 81.4528,21.4005 99.2861,31.4005 109,55.5C 113.51,81.9338 103.343,99.7672 78.5,109C 51.8619,113.44 34.3619,102.94 26,77.5C 22.1263,52.2352 31.9596,34.9019 55.5,25.5 Z"/></g>
<g><path style="opacity:1" fill="#4ada4a" d="M 76.5,49.5 C 74.8208,55.193 72.3208,60.5264 69,65.5C 68.3292,66.2524 67.4959,66.5858 66.5,66.5C 64.0235,62.2215 61.5235,57.8882 59,53.5C 58.51,52.2068 58.3433,50.8734 58.5,49.5C 61.3548,42.4836 66.3548,40.6502 73.5,44C 74.7577,45.7409 75.7577,47.5742 76.5,49.5 Z"/></g>
<g><path style="opacity:1" fill="#37a137" d="M 58.5,49.5 C 58.3433,50.8734 58.51,52.2068 59,53.5C 61.5235,57.8882 64.0235,62.2215 66.5,66.5C 66.5,67.1667 66.5,67.8333 66.5,68.5C 63.138,75.3902 59.138,81.8902 54.5,88C 46.0393,90.5428 41.8726,87.3762 42,78.5C 47.0073,68.4776 52.5073,58.811 58.5,49.5 Z"/></g>
<g><path style="opacity:1" fill="#256c25" d="M 76.5,49.5 C 82.4927,58.811 87.9927,68.4776 93,78.5C 93.2201,87.0038 89.0534,90.1704 80.5,88C 76.0405,82.253 72.2072,76.0863 69,69.5C 68.3292,68.7476 67.4959,68.4142 66.5,68.5C 66.5,67.8333 66.5,67.1667 66.5,66.5C 67.4959,66.5858 68.3292,66.2524 69,65.5C 72.3208,60.5264 74.8208,55.193 76.5,49.5 Z"/></g>
</svg>
