<?xml version="1.0" encoding="UTF-8"?>
<!DOCTYPE svg PUBLIC "-//W3C//DTD SVG 1.1//EN" "http://www.w3.org/Graphics/SVG/1.1/DTD/svg11.dtd">
<svg xmlns="http://www.w3.org/2000/svg" version="1.1" width="135px" height="135px" style="shape-rendering:geometricPrecision; text-rendering:geometricPrecision; image-rendering:optimizeQuality; fill-rule:evenodd; clip-rule:evenodd" xmlns:xlink="http://www.w3.org/1999/xlink">
<g><path style="opacity:0.945" fill="#0f44bf" d="M 22.5,-0.5 C 52.5,-0.5 82.5,-0.5 112.5,-0.5C 122.356,3.42208 129.689,10.0887 134.5,19.5C 134.5,51.1667 134.5,82.8333 134.5,114.5C 130.192,123.475 123.525,130.141 114.5,134.5C 83.1667,134.5 51.8333,134.5 20.5,134.5C 10.7495,129.75 3.74951,122.417 -0.5,112.5C -0.5,82.5 -0.5,52.5 -0.5,22.5C 1.64385,17.4989 4.47719,12.8322 8,8.5C 12.496,4.8131 17.3294,1.8131 22.5,-0.5 Z"/></g>
<g><path style="opacity:1" fill="#fbfcfe" d="M 29.5,2.5 C 54.8355,2.33336 80.1689,2.50003 105.5,3C 120.342,5.84234 129.176,14.6757 132,29.5C 132.667,54.5 132.667,79.5 132,104.5C 129.286,118.881 120.786,127.715 106.5,131C 79.8333,131.667 53.1667,131.667 26.5,131C 13.3384,126.841 5.50503,118.008 3,104.5C 2.33333,79.5 2.33333,54.5 3,29.5C 6.0137,14.6539 14.847,5.6539 29.5,2.5 Z"/></g>
<g><path style="opacity:1" fill="#3472f0" d="M 59.5,29.5 C 64.3691,28.2492 69.3691,28.2492 74.5,29.5C 72.337,30.4691 70.0037,31.3024 67.5,32C 60.7129,32.126 54.0463,32.9593 47.5,34.5C 50.7403,32.049 54.4069,30.3824 58.5,29.5C 61.333,31.8572 64.333,32.0238 67.5,30C 64.854,29.5026 62.1873,29.3359 59.5,29.5 Z"/></g>
<g><path style="opacity:1" fill="#0650f1" d="M 58.5,29.5 C 58.8333,29.5 59.1667,29.5 59.5,29.5C 62.1873,29.3359 64.854,29.5026 67.5,30C 64.333,32.0238 61.333,31.8572 58.5,29.5 Z"/></g>
<g><path style="opacity:1" fill="#2969e7" d="M 80.5,30.5 C 83.3171,31.0951 85.6505,32.4284 87.5,34.5C 79.4681,32.8866 71.6348,33.5533 64,36.5C 56.9186,34.8052 50.752,36.4719 45.5,41.5C 45.5106,39.9826 46.1772,38.8159 47.5,38C 52.6028,34.5441 58.1028,33.7108 64,35.5C 69.5069,33.4583 75.0069,31.7916 80.5,30.5 Z"/></g>
<g><path style="opacity:1" fill="#0b4be3" d="M 39.5,40.5 C 40.0967,40.7352 40.4301,41.2352 40.5,42C 38.9344,45.3634 37.7678,48.8634 37,52.5C 34.9022,58.648 32.0689,64.3147 28.5,69.5C 28.5,67.8333 28.5,66.1667 28.5,64.5C 29.7899,63.9423 30.6232,62.9423 31,61.5C 33.4653,55.577 35.632,49.577 37.5,43.5C 37.427,41.9731 38.0937,40.9731 39.5,40.5 Z"/></g>
<g><path style="opacity:1" fill="#0549df" d="M 74.5,29.5 C 76.5,29.8333 78.5,30.1667 80.5,30.5C 75.0069,31.7916 69.5069,33.4583 64,35.5C 58.1028,33.7108 52.6028,34.5441 47.5,38C 46.1772,38.8159 45.5106,39.9826 45.5,41.5C 42.7585,44.534 41.2585,48.2007 41,52.5C 37.6652,61.1631 33.8318,69.4964 29.5,77.5C 29.5,76.5 29.5,75.5 29.5,74.5C 33.6292,64.6815 37.4625,54.6815 41,44.5C 42.4305,40.6262 44.5972,37.2928 47.5,34.5C 54.0463,32.9593 60.7129,32.126 67.5,32C 70.0037,31.3024 72.337,30.4691 74.5,29.5 Z"/></g>
<g><path style="opacity:1" fill="#356fee" d="M 37.5,43.5 C 35.632,49.577 33.4653,55.577 31,61.5C 30.6232,62.9423 29.7899,63.9423 28.5,64.5C 29.0706,56.369 32.0706,49.369 37.5,43.5 Z"/></g>
<g><path style="opacity:1" fill="#2c6ae7" d="M 47.5,34.5 C 44.5972,37.2928 42.4305,40.6262 41,44.5C 37.4625,54.6815 33.6292,64.6815 29.5,74.5C 28.5489,73.0813 28.2155,71.4147 28.5,69.5C 32.0689,64.3147 34.9022,58.648 37,52.5C 37.7678,48.8634 38.9344,45.3634 40.5,42C 40.4301,41.2352 40.0967,40.7352 39.5,40.5C 41.8003,38.016 44.4669,36.016 47.5,34.5 Z"/></g>
<g><path style="opacity:1" fill="#235ed4" d="M 40.5,91.5 C 38.8639,90.2511 37.6972,88.5844 37,86.5C 36.51,87.7932 36.3433,89.1266 36.5,90.5C 35.0937,90.0269 34.427,89.0269 34.5,87.5C 36.81,85.8552 36.9766,83.8552 35,81.5C 33.3007,75.0831 34.9674,69.7498 40,65.5C 42.1747,59.3054 44.1747,52.9721 46,46.5C 49.9184,38.1213 56.085,35.788 64.5,39.5C 71.8839,35.3561 79.5506,34.5227 87.5,37C 79.5621,36.8031 71.8954,37.9698 64.5,40.5C 58.6989,38.4931 53.5323,39.4931 49,43.5C 45.0652,54.9878 40.5652,66.1545 35.5,77C 36.6765,82.0305 38.3432,86.8638 40.5,91.5 Z"/></g>
<g><path style="opacity:1" fill="#2a64da" d="M 45.5,41.5 C 43.766,49.4431 41.266,57.1098 38,64.5C 32.0673,71.3735 30.9006,79.0402 34.5,87.5C 32.0865,84.6271 30.4199,81.2937 29.5,77.5C 33.8318,69.4964 37.6652,61.1631 41,52.5C 41.2585,48.2007 42.7585,44.534 45.5,41.5 Z"/></g>
<g><path style="opacity:1" fill="#1a4dd6" d="M 87.5,34.5 C 96.9634,39.3818 103.13,47.0484 106,57.5C 109.476,81.3912 99.976,97.5579 77.5,106C 64.5825,108.465 52.9158,105.798 42.5,98C 39.9061,95.9135 37.9061,93.4135 36.5,90.5C 36.3433,89.1266 36.51,87.7932 37,86.5C 37.6972,88.5844 38.8639,90.2511 40.5,91.5C 38.3432,86.8638 36.6765,82.0305 35.5,77C 40.5652,66.1545 45.0652,54.9878 49,43.5C 53.5323,39.4931 58.6989,38.4931 64.5,40.5C 71.8954,37.9698 79.5621,36.8031 87.5,37C 79.5506,34.5227 71.8839,35.3561 64.5,39.5C 56.085,35.788 49.9184,38.1213 46,46.5C 44.1747,52.9721 42.1747,59.3054 40,65.5C 34.9674,69.7498 33.3007,75.0831 35,81.5C 36.9766,83.8552 36.81,85.8552 34.5,87.5C 30.9006,79.0402 32.0673,71.3735 38,64.5C 41.266,57.1098 43.766,49.4431 45.5,41.5C 50.752,36.4719 56.9186,34.8052 64,36.5C 71.6348,33.5533 79.4681,32.8866 87.5,34.5 Z"/></g>
<g><path style="opacity:1" fill="#1643bd" d="M 71.5,42.5 C 71.5,43.1667 71.8333,43.5 72.5,43.5C 72.5,44.1667 72.1667,44.5 71.5,44.5C 70.6618,44.8417 70.3284,45.5084 70.5,46.5C 65.142,46.2623 59.8086,46.0957 54.5,46C 52.799,49.6368 51.799,53.4702 51.5,57.5C 50.5714,58.9361 49.4048,60.2695 48,61.5C 47.6053,63.1786 47.772,64.8453 48.5,66.5C 47.9076,68.4225 46.9076,70.0892 45.5,71.5C 44.2628,73.7741 42.9295,76.1074 41.5,78.5C 41.6236,79.1067 41.9569,79.44 42.5,79.5C 42.5,80.8333 43.1667,81.5 44.5,81.5C 44.5,81.8333 44.5,82.1667 44.5,82.5C 44.1083,86.1856 45.775,89.0189 49.5,91C 55.1667,91.6667 60.8333,91.6667 66.5,91C 70.3125,89.7378 74.3125,89.0712 78.5,89C 80.1233,86.9205 81.6233,84.7538 83,82.5C 83.2917,78.118 83.7917,73.7847 84.5,69.5C 86.5439,68.478 88.5439,67.478 90.5,66.5C 93.2116,62.3053 94.545,57.6386 94.5,52.5C 98.8338,61.7588 98.3338,70.4255 93,78.5C 92.7342,89.0925 87.5676,95.9259 77.5,99C 66.656,101.277 55.9894,100.61 45.5,97C 42.921,95.9243 41.2543,94.091 40.5,91.5C 44.5983,95.8764 49.5983,97.3764 55.5,96C 50.0793,95.7517 45.746,93.585 42.5,89.5C 43.0431,89.44 43.3764,89.1067 43.5,88.5C 37.665,80.9364 38.165,73.9364 45,67.5C 47.0331,60.4261 49.3664,53.4261 52,46.5C 55.7527,42.1262 60.0861,41.4595 65,44.5C 67.2261,43.9671 69.3927,43.3004 71.5,42.5 Z"/></g>
<g><path style="opacity:1" fill="#b7c4e4" d="M 53.5,76.5 C 54.1834,78.1765 55.5168,78.8432 57.5,78.5C 57.762,79.9778 57.4287,81.3112 56.5,82.5C 55.8076,81.9747 55.3076,81.3081 55,80.5C 54.51,81.7932 54.3433,83.1266 54.5,84.5C 53.5,84.5 52.5,84.5 51.5,84.5C 52.0522,82.6693 52.0522,81.0026 51.5,79.5C 50.9954,81.7695 49.6621,83.1028 47.5,83.5C 47.238,82.0222 47.5713,80.6888 48.5,79.5C 49.6951,77.703 51.3618,76.703 53.5,76.5 Z"/></g>
<g><path style="opacity:1" fill="#a3b8e6" d="M 44.5,81.5 C 43.1667,81.5 42.5,80.8333 42.5,79.5C 43.3132,78.3473 44.3132,78.3473 45.5,79.5C 46.8734,81.8084 46.5401,82.4751 44.5,81.5 Z"/></g>
<g><path style="opacity:1" fill="#6a82cc" d="M 45.5,71.5 C 48.1667,73.1667 50.8333,74.8333 53.5,76.5C 51.3618,76.703 49.6951,77.703 48.5,79.5C 47.5713,80.6888 47.238,82.0222 47.5,83.5C 46.209,83.7373 45.209,83.404 44.5,82.5C 44.5,82.1667 44.5,81.8333 44.5,81.5C 46.5401,82.4751 46.8734,81.8084 45.5,79.5C 44.3132,78.3473 43.3132,78.3473 42.5,79.5C 41.9569,79.44 41.6236,79.1067 41.5,78.5C 42.9295,76.1074 44.2628,73.7741 45.5,71.5 Z"/></g>
<g><path style="opacity:1" fill="#eaedf7" d="M 84.5,69.5 C 83.7917,73.7847 83.2917,78.118 83,82.5C 81.6233,84.7538 80.1233,86.9205 78.5,89C 74.3125,89.0712 70.3125,89.7378 66.5,91C 60.8333,91.6667 55.1667,91.6667 49.5,91C 45.775,89.0189 44.1083,86.1856 44.5,82.5C 45.209,83.404 46.209,83.7373 47.5,83.5C 47.8807,84.9311 48.8807,85.7645 50.5,86C 58.6303,87.2952 65.9636,85.2952 72.5,80C 74.6079,79.6401 76.6079,78.9734 78.5,78C 79.2546,75.8252 80.088,73.6585 81,71.5C 81.8159,70.1772 82.9826,69.5106 84.5,69.5 Z"/></g>
<g><path style="opacity:1" fill="#245ac9" d="M 71.5,42.5 C 69.3927,43.3004 67.2261,43.9671 65,44.5C 60.0861,41.4595 55.7527,42.1262 52,46.5C 49.3664,53.4261 47.0331,60.4261 45,67.5C 38.165,73.9364 37.665,80.9364 43.5,88.5C 43.3764,89.1067 43.0431,89.44 42.5,89.5C 40.1495,85.6287 38.4829,81.462 37.5,77C 39.1774,72.8105 41.5107,68.9771 44.5,65.5C 44.1667,64.8333 43.8333,64.1667 43.5,63.5C 46.6932,57.4167 49.1932,51.0834 51,44.5C 55.2103,40.925 59.7103,40.5916 64.5,43.5C 71.6744,38.8971 79.3411,37.7305 87.5,40C 88.9597,40.8113 89.293,41.6446 88.5,42.5C 85.7062,41.0141 82.7062,40.3474 79.5,40.5C 76.4733,40.2865 73.8066,40.9532 71.5,42.5 Z"/></g>
<g><path style="opacity:1" fill="#6a7ebc" d="M 71.5,44.5 C 74.7926,45.4096 77.2926,47.4096 79,50.5C 79.3333,54.8333 79.6667,59.1667 80,63.5C 83.375,64.9375 86.875,65.9375 90.5,66.5C 88.5439,67.478 86.5439,68.478 84.5,69.5C 82.9826,69.5106 81.8159,70.1772 81,71.5C 80.088,73.6585 79.2546,75.8252 78.5,78C 76.6079,78.9734 74.6079,79.6401 72.5,80C 65.9636,85.2952 58.6303,87.2952 50.5,86C 48.8807,85.7645 47.8807,84.9311 47.5,83.5C 49.6621,83.1028 50.9954,81.7695 51.5,79.5C 52.0522,81.0026 52.0522,82.6693 51.5,84.5C 52.5,84.5 53.5,84.5 54.5,84.5C 54.3433,83.1266 54.51,81.7932 55,80.5C 55.3076,81.3081 55.8076,81.9747 56.5,82.5C 57.4287,81.3112 57.762,79.9778 57.5,78.5C 55.5168,78.8432 54.1834,78.1765 53.5,76.5C 59.1667,76.5 64.8333,76.5 70.5,76.5C 71.6872,70.4808 75.3538,66.9808 81.5,66C 80.0692,65.5348 78.9025,64.7014 78,63.5C 77.502,60.5184 77.3354,57.5184 77.5,54.5C 77.4879,49.8121 75.1545,47.1454 70.5,46.5C 70.3284,45.5084 70.6618,44.8417 71.5,44.5 Z"/></g>
<g><path style="opacity:1" fill="#e9edf6" d="M 76.5,68.5 C 77.9778,68.238 79.3112,68.5713 80.5,69.5C 78.9848,71.5473 78.1515,73.8807 78,76.5C 76.3005,77.4061 74.4672,77.7394 72.5,77.5C 72.3433,76.1266 72.51,74.7932 73,73.5C 74.6692,72.1537 75.8358,70.487 76.5,68.5 Z"/></g>
<g><path style="opacity:1" fill="#4a60ac" d="M 67.5,53.5 C 67.298,55.9496 67.6314,58.283 68.5,60.5C 65.715,61.0838 64.0483,60.0838 63.5,57.5C 63.2148,55.712 63.5481,54.0453 64.5,52.5C 65.3078,54.4233 65.8078,56.4233 66,58.5C 66.1981,56.6183 66.6981,54.9516 67.5,53.5 Z"/></g>
<g><path style="opacity:1" fill="#edf0f8" d="M 77.5,54.5 C 77.3354,57.5184 77.502,60.5184 78,63.5C 78.9025,64.7014 80.0692,65.5348 81.5,66C 75.3538,66.9808 71.6872,70.4808 70.5,76.5C 64.8333,76.5 59.1667,76.5 53.5,76.5C 50.8333,74.8333 48.1667,73.1667 45.5,71.5C 46.9076,70.0892 47.9076,68.4225 48.5,66.5C 47.772,64.8453 47.6053,63.1786 48,61.5C 49.4048,60.2695 50.5714,58.9361 51.5,57.5C 51.8333,57.5 52.1667,57.5 52.5,57.5C 53.1667,57.8333 53.8333,58.1667 54.5,58.5C 57.0786,58.6061 59.412,57.9395 61.5,56.5C 62.1667,56.8333 62.8333,57.1667 63.5,57.5C 64.0483,60.0838 65.715,61.0838 68.5,60.5C 71.3176,60.3426 73.3176,59.0092 74.5,56.5C 75.2223,55.4489 76.2223,54.7822 77.5,54.5 Z"/></g>
<g><path style="opacity:1" fill="#5770bb" d="M 57.5,62.5 C 55.8762,62.3601 54.7096,63.0267 54,64.5C 53.5,66 53,67.5 52.5,69C 52.8361,70.0299 53.5028,70.5299 54.5,70.5C 52.5801,71.9405 50.9134,71.6071 49.5,69.5C 50.4822,66.9044 51.1489,64.2377 51.5,61.5C 53.7354,61.2053 55.7354,61.5386 57.5,62.5 Z"/></g>
<g><path style="opacity:1" fill="#153294" d="M 57.5,62.5 C 59.2726,63.3143 59.7726,64.6476 59,66.5C 57.6288,68.0414 56.1288,69.3747 54.5,70.5C 53.5028,70.5299 52.8361,70.0299 52.5,69C 53,67.5 53.5,66 54,64.5C 54.7096,63.0267 55.8762,62.3601 57.5,62.5 Z"/></g>
<g><path style="opacity:1" fill="#627ecc" d="M 56.5,49.5 C 57.3764,49.3691 58.0431,49.7025 58.5,50.5C 57.3463,53.3196 56.013,55.9862 54.5,58.5C 53.8333,58.1667 53.1667,57.8333 52.5,57.5C 53.3257,54.5152 54.659,51.8485 56.5,49.5 Z"/></g>
<g><path style="opacity:1" fill="#1339a2" d="M 74.5,56.5 C 73.3176,59.0092 71.3176,60.3426 68.5,60.5C 67.6314,58.283 67.298,55.9496 67.5,53.5C 68.0718,51.7768 68.0718,50.2768 67.5,49C 73.3339,48.0036 75.6673,50.5036 74.5,56.5 Z"/></g>
<g><path style="opacity:1" fill="#2140ae" d="M 61.5,56.5 C 59.412,57.9395 57.0786,58.6061 54.5,58.5C 56.013,55.9862 57.3463,53.3196 58.5,50.5C 58.0431,49.7025 57.3764,49.3691 56.5,49.5C 57.5849,47.4178 59.0849,47.0844 61,48.5C 61.4974,51.146 61.6641,53.8127 61.5,56.5 Z"/></g>
<g><path style="opacity:1" fill="#d1d9f1" d="M 70.5,46.5 C 75.1545,47.1454 77.4879,49.8121 77.5,54.5C 76.2223,54.7822 75.2223,55.4489 74.5,56.5C 75.6673,50.5036 73.3339,48.0036 67.5,49C 68.0718,50.2768 68.0718,51.7768 67.5,53.5C 66.6981,54.9516 66.1981,56.6183 66,58.5C 65.8078,56.4233 65.3078,54.4233 64.5,52.5C 63.5481,54.0453 63.2148,55.712 63.5,57.5C 62.8333,57.1667 62.1667,56.8333 61.5,56.5C 61.6641,53.8127 61.4974,51.146 61,48.5C 59.0849,47.0844 57.5849,47.4178 56.5,49.5C 54.659,51.8485 53.3257,54.5152 52.5,57.5C 52.1667,57.5 51.8333,57.5 51.5,57.5C 51.799,53.4702 52.799,49.6368 54.5,46C 59.8086,46.0957 65.142,46.2623 70.5,46.5 Z"/></g>
<g><path style="opacity:1" fill="#f4f6fc" d="M 94.5,52.5 C 94.545,57.6386 93.2116,62.3053 90.5,66.5C 86.875,65.9375 83.375,64.9375 80,63.5C 79.6667,59.1667 79.3333,54.8333 79,50.5C 77.2926,47.4096 74.7926,45.4096 71.5,44.5C 72.1667,44.5 72.5,44.1667 72.5,43.5C 82.0652,40.9468 89.3985,43.9468 94.5,52.5 Z"/></g>
</svg>
