<?xml version="1.0" encoding="UTF-8"?>
<!DOCTYPE svg PUBLIC "-//W3C//DTD SVG 1.1//EN" "http://www.w3.org/Graphics/SVG/1.1/DTD/svg11.dtd">
<svg xmlns="http://www.w3.org/2000/svg" version="1.1" width="135px" height="135px" style="shape-rendering:geometricPrecision; text-rendering:geometricPrecision; image-rendering:optimizeQuality; fill-rule:evenodd; clip-rule:evenodd" xmlns:xlink="http://www.w3.org/1999/xlink">
<g><path style="opacity:0.939" fill="#464646" d="M 23.5,-0.5 C 52.8333,-0.5 82.1667,-0.5 111.5,-0.5C 122.02,3.35223 129.686,10.3522 134.5,20.5C 134.5,51.8333 134.5,83.1667 134.5,114.5C 130.082,123.919 123.082,130.585 113.5,134.5C 82.8333,134.5 52.1667,134.5 21.5,134.5C 16.1241,132.053 11.2907,128.72 7,124.5C 3.9539,120.398 1.4539,116.065 -0.5,111.5C -0.5,82.1667 -0.5,52.8333 -0.5,23.5C 3.83333,11.8333 11.8333,3.83333 23.5,-0.5 Z"/></g>
<g><path style="opacity:1" fill="#fefefe" d="M 25.5,3.5 C 53.1687,3.33336 80.8353,3.50002 108.5,4C 119.573,7.40588 127.073,14.5726 131,25.5C 131.667,53.1667 131.667,80.8333 131,108.5C 127.18,121.32 118.68,128.82 105.5,131C 79.5,131.667 53.5,131.667 27.5,131C 15,127.833 7.16667,120 4,107.5C 3.33333,80.1667 3.33333,52.8333 4,25.5C 8.01926,14.9818 15.1859,7.64848 25.5,3.5 Z"/></g>
<g><path style="opacity:1" fill="#474847" d="M 72.5,34.5 C 72.472,36.5824 73.1387,38.4157 74.5,40C 72.6821,43.8072 70.6821,47.4739 68.5,51C 71.7275,54.3525 71.0608,57.3525 66.5,60C 71.4137,63.2774 76.0803,66.7774 80.5,70.5C 78.2646,70.2053 76.2646,70.5386 74.5,71.5C 72.3792,71.3253 70.3792,71.6586 68.5,72.5C 65.9174,71.7761 63.2507,70.9428 60.5,70C 61.1667,69.3333 61.8333,68.6667 62.5,68C 61.6948,66.0283 60.3615,64.5283 58.5,63.5C 60.5251,60.7835 60.5251,58.2835 58.5,56C 59.4049,52.6858 60.7382,49.5192 62.5,46.5C 61.4787,44.812 60.1454,43.4787 58.5,42.5C 60.6569,36.8512 63.8235,31.8512 68,27.5C 70.5076,29.181 72.0076,31.5143 72.5,34.5 Z"/></g>
<g><path style="opacity:1" fill="#303030" d="M 58.5,42.5 C 60.1454,43.4787 61.4787,44.812 62.5,46.5C 60.7382,49.5192 59.4049,52.6858 58.5,56C 60.5251,58.2835 60.5251,60.7835 58.5,63.5C 60.3615,64.5283 61.6948,66.0283 62.5,68C 61.8333,68.6667 61.1667,69.3333 60.5,70C 63.2507,70.9428 65.9174,71.7761 68.5,72.5C 65.5,73.1667 62.5,73.8333 59.5,74.5C 57.6583,72.8102 56.325,70.8102 55.5,68.5C 54.2012,60.7788 54.5345,53.1121 56.5,45.5C 56.427,43.9731 57.0937,42.9731 58.5,42.5 Z"/></g>
<g><path style="opacity:1" fill="#5d5e5d" d="M 72.5,34.5 C 82.5239,49.8765 91.5239,65.8765 99.5,82.5C 93.9778,77.2376 87.6445,73.2376 80.5,70.5C 76.0803,66.7774 71.4137,63.2774 66.5,60C 71.0608,57.3525 71.7275,54.3525 68.5,51C 70.6821,47.4739 72.6821,43.8072 74.5,40C 73.1387,38.4157 72.472,36.5824 72.5,34.5 Z"/></g>
<g><path style="opacity:1" fill="#f2f2f2" d="M 74.5,71.5 C 73.7659,72.7079 73.4326,74.0413 73.5,75.5C 72.087,78.2186 71.4203,81.2186 71.5,84.5C 70.8333,84.5 70.1667,84.5 69.5,84.5C 68.8333,83.1667 67.8333,82.1667 66.5,81.5C 63.8605,79.5272 61.5272,77.1939 59.5,74.5C 62.5,73.8333 65.5,73.1667 68.5,72.5C 70.3792,71.6586 72.3792,71.3253 74.5,71.5 Z"/></g>
<g><path style="opacity:1" fill="#2f3030" d="M 80.5,70.5 C 87.6445,73.2376 93.9778,77.2376 99.5,82.5C 100.401,83.2905 101.068,84.2905 101.5,85.5C 99.7986,87.4233 97.7986,87.7567 95.5,86.5C 93.7384,82.4032 90.7384,79.7365 86.5,78.5C 85.5,77.1667 84.5,75.8333 83.5,74.5C 81.1658,75.8408 79.4991,75.1741 78.5,72.5C 76.8076,74.3586 75.3076,76.3586 74,78.5C 73.5172,77.552 73.3505,76.552 73.5,75.5C 73.4326,74.0413 73.7659,72.7079 74.5,71.5C 76.2646,70.5386 78.2646,70.2053 80.5,70.5 Z"/></g>
<g><path style="opacity:1" fill="#444544" d="M 101.5,85.5 C 104.737,90.2985 107.737,95.2985 110.5,100.5C 108.5,100.5 106.5,100.5 104.5,100.5C 102.614,96.6009 100.281,92.9343 97.5,89.5C 94.8929,88.6816 92.2263,88.1816 89.5,88C 86.7003,81.6813 82.7003,80.848 77.5,85.5C 77.1667,84.1667 76.8333,82.8333 76.5,81.5C 75.0603,82.9524 73.3936,83.9524 71.5,84.5C 71.4203,81.2186 72.087,78.2186 73.5,75.5C 73.3505,76.552 73.5172,77.552 74,78.5C 75.3076,76.3586 76.8076,74.3586 78.5,72.5C 79.4991,75.1741 81.1658,75.8408 83.5,74.5C 84.5,75.8333 85.5,77.1667 86.5,78.5C 90.7384,79.7365 93.7384,82.4032 95.5,86.5C 97.7986,87.7567 99.7986,87.4233 101.5,85.5 Z"/></g>
<g><path style="opacity:1" fill="#5c5d5c" d="M 56.5,45.5 C 54.5345,53.1121 54.2012,60.7788 55.5,68.5C 55.8288,74.2055 55.4954,79.8722 54.5,85.5C 52.329,85.2735 50.1623,84.9402 48,84.5C 46.2188,87.2741 44.8855,90.2741 44,93.5C 39.8821,92.2023 35.7154,92.2023 31.5,93.5C 30.4756,95.9456 28.8089,97.6123 26.5,98.5C 36.5686,80.7913 46.5686,63.1246 56.5,45.5 Z"/></g>
<g><path style="opacity:1" fill="#2f302f" d="M 66.5,81.5 C 67.8333,82.1667 68.8333,83.1667 69.5,84.5C 70.5009,85.7887 70.3342,87.1221 69,88.5C 65.7011,91.551 62.2011,94.2177 58.5,96.5C 53.7657,98.6304 48.7657,99.9637 43.5,100.5C 43.3118,98.8967 43.8118,97.5634 45,96.5C 45.3333,96.8333 45.6667,97.1667 46,97.5C 48.8003,96.8747 51.6336,96.208 54.5,95.5C 55.2458,94.2638 55.5792,92.9305 55.5,91.5C 57.46,90.8617 59.2933,90.8617 61,91.5C 61.3333,89.5 61.6667,87.5 62,85.5C 63.2433,86.3363 64.4099,86.003 65.5,84.5C 62.7709,82.6329 63.1043,81.6329 66.5,81.5 Z"/></g>
<g><path style="opacity:1" fill="#525352" d="M 104.5,100.5 C 101.753,100.813 99.0865,100.48 96.5,99.5C 94.1582,96.1606 91.8249,92.8273 89.5,89.5C 79.5641,91.8688 69.7307,94.5355 60,97.5C 59.6174,96.944 59.1174,96.6107 58.5,96.5C 62.2011,94.2177 65.7011,91.551 69,88.5C 70.3342,87.1221 70.5009,85.7887 69.5,84.5C 70.1667,84.5 70.8333,84.5 71.5,84.5C 73.3936,83.9524 75.0603,82.9524 76.5,81.5C 76.8333,82.8333 77.1667,84.1667 77.5,85.5C 82.7003,80.848 86.7003,81.6813 89.5,88C 92.2263,88.1816 94.8929,88.6816 97.5,89.5C 100.281,92.9343 102.614,96.6009 104.5,100.5 Z"/></g>
<g><path style="opacity:1" fill="#6d6d6d" d="M 104.5,100.5 C 106.5,100.5 108.5,100.5 110.5,100.5C 82.1667,101.833 53.8333,101.833 25.5,100.5C 31.5,100.5 37.5,100.5 43.5,100.5C 48.7657,99.9637 53.7657,98.6304 58.5,96.5C 59.1174,96.6107 59.6174,96.944 60,97.5C 69.7307,94.5355 79.5641,91.8688 89.5,89.5C 91.8249,92.8273 94.1582,96.1606 96.5,99.5C 99.0865,100.48 101.753,100.813 104.5,100.5 Z"/></g>
<g><path style="opacity:1" fill="#464646" d="M 55.5,68.5 C 56.325,70.8102 57.6583,72.8102 59.5,74.5C 61.5272,77.1939 63.8605,79.5272 66.5,81.5C 63.1043,81.6329 62.7709,82.6329 65.5,84.5C 64.4099,86.003 63.2433,86.3363 62,85.5C 61.6667,87.5 61.3333,89.5 61,91.5C 59.2933,90.8617 57.46,90.8617 55.5,91.5C 55.5792,92.9305 55.2458,94.2638 54.5,95.5C 51.6336,96.208 48.8003,96.8747 46,97.5C 45.6667,97.1667 45.3333,96.8333 45,96.5C 43.8118,97.5634 43.3118,98.8967 43.5,100.5C 37.5,100.5 31.5,100.5 25.5,100.5C 25.8333,99.8333 26.1667,99.1667 26.5,98.5C 28.8089,97.6123 30.4756,95.9456 31.5,93.5C 35.7154,92.2023 39.8821,92.2023 44,93.5C 44.8855,90.2741 46.2188,87.2741 48,84.5C 50.1623,84.9402 52.329,85.2735 54.5,85.5C 55.4954,79.8722 55.8288,74.2055 55.5,68.5 Z"/></g>
</svg>
