<?xml version="1.0" encoding="UTF-8"?>
<!DOCTYPE svg PUBLIC "-//W3C//DTD SVG 1.1//EN" "http://www.w3.org/Graphics/SVG/1.1/DTD/svg11.dtd">
<svg xmlns="http://www.w3.org/2000/svg" version="1.1" width="135px" height="135px" style="shape-rendering:geometricPrecision; text-rendering:geometricPrecision; image-rendering:optimizeQuality; fill-rule:evenodd; clip-rule:evenodd" xmlns:xlink="http://www.w3.org/1999/xlink">
<g><path style="opacity:1" fill="#536ce9" d="M 27.5,-0.5 C 55.5,-0.5 83.5,-0.5 111.5,-0.5C 117.327,1.58087 122.327,4.9142 126.5,9.5C 127.08,11.7488 128.413,13.4154 130.5,14.5C 131.833,16.5 133.167,18.5 134.5,20.5C 134.5,51.1667 134.5,81.8333 134.5,112.5C 132.896,113.287 132.229,114.62 132.5,116.5C 132.672,117.492 132.338,118.158 131.5,118.5C 130.094,118.973 129.427,119.973 129.5,121.5C 129.5,122.167 129.167,122.5 128.5,122.5C 126.167,124.167 124.167,126.167 122.5,128.5C 122.027,129.906 121.027,130.573 119.5,130.5C 117.847,130.66 116.514,131.326 115.5,132.5C 114.833,133.167 114.167,133.833 113.5,134.5C 82.8333,134.5 52.1667,134.5 21.5,134.5C 17.8168,132.659 14.4835,130.326 11.5,127.5C 10.1667,125.5 8.5,123.833 6.5,122.5C 3.59472,120.244 1.92805,117.244 1.5,113.5C 1.19767,110.627 0.531006,107.961 -0.5,105.5C -0.5,79.5 -0.5,53.5 -0.5,27.5C 0.923808,25.4855 1.59047,23.1522 1.5,20.5C 2.0787,17.6689 3.41203,15.3356 5.5,13.5C 8.5,11.1667 11.1667,8.5 13.5,5.5C 15.3356,3.41203 17.6689,2.0787 20.5,1.5C 23.1522,1.59047 25.4855,0.923808 27.5,-0.5 Z"/></g>
<g><path style="opacity:1" fill="#4b5699" d="M 23.5,-0.5 C 24.8333,-0.5 26.1667,-0.5 27.5,-0.5C 25.4855,0.923808 23.1522,1.59047 20.5,1.5C 21.5,0.833333 22.5,0.166667 23.5,-0.5 Z"/></g>
<g><path style="opacity:1" fill="#fdfdfe" d="M 26.5,3.5 C 53.8354,3.33336 81.1687,3.50002 108.5,4C 120,7.5 127.5,15 131,26.5C 131.667,52.8333 131.667,79.1667 131,105.5C 127.873,119.294 119.373,127.794 105.5,131C 79.8333,131.667 54.1667,131.667 28.5,131C 15.1915,127.36 7.02484,118.86 4,105.5C 3.33333,79.1667 3.33333,52.8333 4,26.5C 7.68399,14.9837 15.184,7.31707 26.5,3.5 Z"/></g>
<g><path style="opacity:0.992" fill="#4b5596" d="M 13.5,5.5 C 11.1667,8.5 8.5,11.1667 5.5,13.5C 7.16667,9.83333 9.83333,7.16667 13.5,5.5 Z"/></g>
<g><path style="opacity:0.478" fill="#474c71" d="M 126.5,9.5 C 128.587,10.5846 129.92,12.2512 130.5,14.5C 128.413,13.4154 127.08,11.7488 126.5,9.5 Z"/></g>
<g><path style="opacity:0.996" fill="#4b5493" d="M 1.5,20.5 C 1.59047,23.1522 0.923808,25.4855 -0.5,27.5C -0.5,26.1667 -0.5,24.8333 -0.5,23.5C 0.166667,22.5 0.833333,21.5 1.5,20.5 Z"/></g>
<g><path style="opacity:1" fill="#516cf0" d="M 58.5,26.5 C 81.3907,23.6901 97.5573,32.6901 107,53.5C 112.815,78.3654 104.315,96.1987 81.5,107C 56.357,113.342 38.5236,104.842 28,81.5C 21.9482,58.9554 28.7815,41.7887 48.5,30C 51.8502,28.5137 55.1835,27.347 58.5,26.5 Z"/></g>
<g><path style="opacity:1" fill="#f5f6fe" d="M 64.5,42.5 C 67.1194,42.2317 69.6194,42.565 72,43.5C 74.5577,50.2823 77.3911,56.949 80.5,63.5C 83.0865,64.48 85.7531,64.8134 88.5,64.5C 88.5,65.8333 88.5,67.1667 88.5,68.5C 86.5,68.5 84.5,68.5 82.5,68.5C 82.4877,72.4459 84.4877,74.1126 88.5,73.5C 88.5,74.5 88.5,75.5 88.5,76.5C 87.325,76.281 86.325,76.6143 85.5,77.5C 86.8333,80.8333 88.1667,84.1667 89.5,87.5C 86.9659,88.7766 84.4659,88.7766 82,87.5C 80.3262,83.9793 79.1596,80.3127 78.5,76.5C 73.7863,76.8266 69.1196,76.4933 64.5,75.5C 64.7093,74.914 65.0426,74.414 65.5,74C 69.211,73.8253 72.8776,73.3253 76.5,72.5C 75.1121,68.906 72.4454,67.5727 68.5,68.5C 68.1667,65.5 69.5,64.1667 72.5,64.5C 71.3012,60.9014 70.3012,57.2347 69.5,53.5C 68.5,53.5 67.5,53.5 66.5,53.5C 62.962,65.1104 58.6287,76.4437 53.5,87.5C 51.2573,88.4742 48.924,88.8076 46.5,88.5C 51.6322,72.8949 57.6322,57.5616 64.5,42.5 Z"/></g>
<g><path style="opacity:0.737" fill="#495188" d="M -0.5,105.5 C 0.531006,107.961 1.19767,110.627 1.5,113.5C 0.833333,112.833 0.166667,112.167 -0.5,111.5C -0.5,109.5 -0.5,107.5 -0.5,105.5 Z"/></g>
<g><path style="opacity:0.592" fill="#464a6a" d="M 134.5,112.5 C 134.5,113.167 134.5,113.833 134.5,114.5C 133.833,115.167 133.167,115.833 132.5,116.5C 132.229,114.62 132.896,113.287 134.5,112.5 Z"/></g>
<g><path style="opacity:0.004" fill="#444659" d="M 131.5,118.5 C 131.573,120.027 130.906,121.027 129.5,121.5C 129.427,119.973 130.094,118.973 131.5,118.5 Z"/></g>
<g><path style="opacity:0.004" fill="#464864" d="M 6.5,122.5 C 8.5,123.833 10.1667,125.5 11.5,127.5C 8.83333,126.833 7.16667,125.167 6.5,122.5 Z"/></g>
<g><path style="opacity:0.024" fill="#444557" d="M 128.5,122.5 C 127.5,125.5 125.5,127.5 122.5,128.5C 124.167,126.167 126.167,124.167 128.5,122.5 Z"/></g>
<g><path style="opacity:0.318" fill="#454966" d="M 119.5,130.5 C 118.713,132.104 117.38,132.771 115.5,132.5C 116.514,131.326 117.847,130.66 119.5,130.5 Z"/></g>
</svg>
