<?xml version="1.0" encoding="UTF-8"?>
<!DOCTYPE svg PUBLIC "-//W3C//DTD SVG 1.1//EN" "http://www.w3.org/Graphics/SVG/1.1/DTD/svg11.dtd">
<svg xmlns="http://www.w3.org/2000/svg" version="1.1" width="135px" height="135px" style="shape-rendering:geometricPrecision; text-rendering:geometricPrecision; image-rendering:optimizeQuality; fill-rule:evenodd; clip-rule:evenodd" xmlns:xlink="http://www.w3.org/1999/xlink">
<g><path style="opacity:1" fill="#152772" d="M 23.5,-0.5 C 52.8333,-0.5 82.1667,-0.5 111.5,-0.5C 122.02,3.35223 129.686,10.3522 134.5,20.5C 134.5,51.8333 134.5,83.1667 134.5,114.5C 130.082,123.919 123.082,130.585 113.5,134.5C 82.8333,134.5 52.1667,134.5 21.5,134.5C 16.1241,132.053 11.2907,128.72 7,124.5C 3.9539,120.398 1.4539,116.065 -0.5,111.5C -0.5,82.1667 -0.5,52.8333 -0.5,23.5C 3.83333,11.8333 11.8333,3.83333 23.5,-0.5 Z"/></g>
<g><path style="opacity:1" fill="#fcfdfd" d="M 27.5,3.5 C 53.5021,3.33336 79.5021,3.50003 105.5,4C 118.995,6.48502 127.495,14.3184 131,27.5C 131.667,53.8333 131.667,80.1667 131,106.5C 127.807,119.027 119.973,126.86 107.5,130C 80.1667,130.667 52.8333,130.667 25.5,130C 14.1578,125.991 6.99115,118.158 4,106.5C 3.33333,80.1667 3.33333,53.8333 4,27.5C 5.39231,21.7863 8.05898,16.7863 12,12.5C 16.5995,8.37379 21.7662,5.37379 27.5,3.5 Z"/></g>
<g><path style="opacity:1" fill="#0b65a8" d="M 92.5,48.5 C 92.19,49.7383 91.69,49.7383 91,48.5C 90.7428,50.9065 89.5762,52.5732 87.5,53.5C 80.8644,47.1846 73.531,41.8513 65.5,37.5C 60.5474,40.7842 56.214,44.7842 52.5,49.5C 49.8333,51.5 47.5,53.8333 45.5,56.5C 44.8333,56.8333 44.1667,57.1667 43.5,57.5C 43.5654,57.0618 43.3988,56.7284 43,56.5C 42.3109,57.3567 41.4776,58.0233 40.5,58.5C 39.7174,56.7118 38.3841,55.7118 36.5,55.5C 44.8511,44.8157 54.5178,35.4824 65.5,27.5C 75.4014,33.4086 84.4014,40.4086 92.5,48.5 Z"/></g>
<g><path style="opacity:1" fill="#01c9f5" d="M 87.5,53.5 C 88.1667,53.5 88.5,53.8333 88.5,54.5C 87.5213,56.1454 86.188,57.4787 84.5,58.5C 83.5481,60.0453 83.2148,61.712 83.5,63.5C 83.1667,63.5 82.8333,63.5 82.5,63.5C 82.6633,61.1432 82.4966,58.8098 82,56.5C 80.5098,55.2721 79.0098,55.2721 77.5,56.5C 77.44,55.9569 77.1067,55.6236 76.5,55.5C 74.9411,56.0736 73.4411,56.7402 72,57.5C 70.8455,56.2567 69.5122,55.2567 68,54.5C 67.5172,53.552 67.3505,52.552 67.5,51.5C 63.5353,51.8697 59.5353,52.203 55.5,52.5C 53.484,52.4841 52.484,51.4841 52.5,49.5C 56.214,44.7842 60.5474,40.7842 65.5,37.5C 73.531,41.8513 80.8644,47.1846 87.5,53.5 Z"/></g>
<g><path style="opacity:1" fill="#0bb2f3" d="M 52.5,49.5 C 52.484,51.4841 53.484,52.4841 55.5,52.5C 59.5353,52.203 63.5353,51.8697 67.5,51.5C 67.3505,52.552 67.5172,53.552 68,54.5C 69.5122,55.2567 70.8455,56.2567 72,57.5C 73.4411,56.7402 74.9411,56.0736 76.5,55.5C 77.1067,55.6236 77.44,55.9569 77.5,56.5C 76.1667,57.5 74.8333,58.5 73.5,59.5C 70.5936,58.4537 67.7603,57.1204 65,55.5C 62.466,56.4153 60.2993,57.7487 58.5,59.5C 57.391,59.4431 56.391,59.1098 55.5,58.5C 53.6208,57.6586 51.6208,57.3253 49.5,57.5C 48.8826,57.6107 48.3826,57.944 48,58.5C 47.5161,56.8225 46.6828,56.1558 45.5,56.5C 47.5,53.8333 49.8333,51.5 52.5,49.5 Z"/></g>
<g><path style="opacity:1" fill="#26f7fe" d="M 82.5,63.5 C 81.5,63.5 80.5,63.5 79.5,63.5C 79.5824,61.7483 78.7491,60.7483 77,60.5C 75.0198,61.3147 73.5198,62.648 72.5,64.5C 70.7697,65.0256 69.4363,66.0256 68.5,67.5C 67.5,68.1667 66.5,68.8333 65.5,69.5C 65.5,68.8333 65.5,68.1667 65.5,67.5C 66.8333,66.8333 67.8333,65.8333 68.5,64.5C 70.5,63.1667 72.1667,61.5 73.5,59.5C 74.8333,58.5 76.1667,57.5 77.5,56.5C 79.0098,55.2721 80.5098,55.2721 82,56.5C 82.4966,58.8098 82.6633,61.1432 82.5,63.5 Z"/></g>
<g><path style="opacity:1" fill="#0495e9" d="M 73.5,59.5 C 72.1667,61.5 70.5,63.1667 68.5,64.5C 66.8113,63.6963 65.1446,62.6963 63.5,61.5C 62.8933,61.6236 62.56,61.9569 62.5,62.5C 61.1283,61.4884 59.795,60.4884 58.5,59.5C 60.2993,57.7487 62.466,56.4153 65,55.5C 67.7603,57.1204 70.5936,58.4537 73.5,59.5 Z"/></g>
<g><path style="opacity:1" fill="#e8f5fd" d="M 49.5,57.5 C 51.6208,57.3253 53.6208,57.6586 55.5,58.5C 55.5,59.5 55.5,60.5 55.5,61.5C 54.8826,61.6107 54.3826,61.944 54,62.5C 53.3333,66.1667 53.3333,69.8333 54,73.5C 54.9529,75.3731 56.1196,75.7065 57.5,74.5C 58.3382,74.8417 58.6716,75.5084 58.5,76.5C 53.4846,82.5213 50.818,81.5213 50.5,73.5C 50.3713,71.7839 50.038,70.1172 49.5,68.5C 49.5,64.8333 49.5,61.1667 49.5,57.5 Z"/></g>
<g><path style="opacity:1" fill="#073785" d="M 36.5,55.5 C 38.3841,55.7118 39.7174,56.7118 40.5,58.5C 41.4776,58.0233 42.3109,57.3567 43,56.5C 43.3988,56.7284 43.5654,57.0618 43.5,57.5C 42.5,58.8333 41.5,60.1667 40.5,61.5C 39.8333,62.8333 38.8333,63.8333 37.5,64.5C 35.9626,63.2022 33.9626,61.8689 31.5,60.5C 32.8333,58.5 34.5,56.8333 36.5,55.5 Z"/></g>
<g><path style="opacity:1" fill="#45f0fc" d="M 55.5,58.5 C 56.391,59.1098 57.391,59.4431 58.5,59.5C 59.795,60.4884 61.1283,61.4884 62.5,62.5C 64.4663,63.2545 64.7996,64.4212 63.5,66C 61.8739,65.8047 60.2072,65.8047 58.5,66C 57.3333,67.1667 56.1667,68.3333 55,69.5C 54.3333,68.5 54.3333,67.5 55,66.5C 57.8857,64.8298 58.0524,63.1631 55.5,61.5C 55.5,60.5 55.5,59.5 55.5,58.5 Z"/></g>
<g><path style="opacity:1" fill="#04a6f4" d="M 88.5,54.5 C 90.5248,56.1964 92.5248,57.863 94.5,59.5C 94.4606,60.5832 94.1272,61.5832 93.5,62.5C 90.5795,63.5431 88.0795,65.2097 86,67.5C 85.2303,66.4019 84.397,66.4019 83.5,67.5C 83.5,66.1667 83.5,64.8333 83.5,63.5C 83.2148,61.712 83.5481,60.0453 84.5,58.5C 86.188,57.4787 87.5213,56.1454 88.5,54.5 Z"/></g>
<g><path style="opacity:1" fill="#3a91f3" d="M 45.5,56.5 C 46.6828,56.1558 47.5161,56.8225 48,58.5C 48.3826,57.944 48.8826,57.6107 49.5,57.5C 49.5,61.1667 49.5,64.8333 49.5,68.5C 47.0202,67.758 44.6869,66.758 42.5,65.5C 42.3404,63.847 41.6737,62.5137 40.5,61.5C 41.5,60.1667 42.5,58.8333 43.5,57.5C 44.1667,57.1667 44.8333,56.8333 45.5,56.5 Z"/></g>
<g><path style="opacity:1" fill="#1fb3f1" d="M 79.5,63.5 C 80.2341,64.7079 80.5674,66.0413 80.5,67.5C 80.7845,69.4147 80.4511,71.0813 79.5,72.5C 79.5,70.5 79.5,68.5 79.5,66.5C 77.079,66.1218 74.7457,65.4552 72.5,64.5C 73.5198,62.648 75.0198,61.3147 77,60.5C 78.7491,60.7483 79.5824,61.7483 79.5,63.5 Z"/></g>
<g><path style="opacity:1" fill="#f2fbfe" d="M 79.5,63.5 C 80.5,63.5 81.5,63.5 82.5,63.5C 82.8333,63.5 83.1667,63.5 83.5,63.5C 83.5,64.8333 83.5,66.1667 83.5,67.5C 83.5,67.8333 83.5,68.1667 83.5,68.5C 82.391,68.4431 81.391,68.1098 80.5,67.5C 80.5674,66.0413 80.2341,64.7079 79.5,63.5 Z"/></g>
<g><path style="opacity:1" fill="#9c87f9" d="M 40.5,61.5 C 41.6737,62.5137 42.3404,63.847 42.5,65.5C 41.8333,66.1667 41.1667,66.8333 40.5,67.5C 38.2163,67.9752 36.2163,68.9752 34.5,70.5C 35.4706,68.5168 36.4706,66.5168 37.5,64.5C 38.8333,63.8333 39.8333,62.8333 40.5,61.5 Z"/></g>
<g><path style="opacity:1" fill="#136ce5" d="M 55.5,61.5 C 58.0524,63.1631 57.8857,64.8298 55,66.5C 54.3333,67.5 54.3333,68.5 55,69.5C 56.1667,68.3333 57.3333,67.1667 58.5,66C 60.2072,65.8047 61.8739,65.8047 63.5,66C 64.7996,64.4212 64.4663,63.2545 62.5,62.5C 62.56,61.9569 62.8933,61.6236 63.5,61.5C 65.1446,62.6963 66.8113,63.6963 68.5,64.5C 67.8333,65.8333 66.8333,66.8333 65.5,67.5C 62.808,69.8623 60.1413,72.1956 57.5,74.5C 56.1196,75.7065 54.9529,75.3731 54,73.5C 53.3333,69.8333 53.3333,66.1667 54,62.5C 54.3826,61.944 54.8826,61.6107 55.5,61.5 Z"/></g>
<g><path style="opacity:1" fill="#053683" d="M 92.5,48.5 C 98.479,53.8123 104.146,59.479 109.5,65.5C 107.057,69.4112 104.39,73.0779 101.5,76.5C 100.319,74.9328 98.6526,74.0995 96.5,74C 97.8333,72.3333 99.1667,70.6667 100.5,69C 100.272,68.6012 99.9382,68.4346 99.5,68.5C 100.706,66.563 100.373,64.8963 98.5,63.5C 97.5,61.8333 96.1667,60.5 94.5,59.5C 92.5248,57.863 90.5248,56.1964 88.5,54.5C 88.5,53.8333 88.1667,53.5 87.5,53.5C 89.5762,52.5732 90.7428,50.9065 91,48.5C 91.69,49.7383 92.19,49.7383 92.5,48.5 Z"/></g>
<g><path style="opacity:1" fill="#2a8cee" d="M 94.5,59.5 C 96.1667,60.5 97.5,61.8333 98.5,63.5C 93.6953,64.602 89.0286,66.2686 84.5,68.5C 84.7373,69.791 84.404,70.791 83.5,71.5C 83.5,70.5 83.5,69.5 83.5,68.5C 83.5,68.1667 83.5,67.8333 83.5,67.5C 84.397,66.4019 85.2303,66.4019 86,67.5C 88.0795,65.2097 90.5795,63.5431 93.5,62.5C 94.1272,61.5832 94.4606,60.5832 94.5,59.5 Z"/></g>
<g><path style="opacity:1" fill="#7866ee" d="M 40.5,67.5 C 44.3888,69.949 45.3888,73.2823 43.5,77.5C 42.8333,77.5 42.5,77.8333 42.5,78.5C 38.8333,76.8333 36.1667,74.1667 34.5,70.5C 36.2163,68.9752 38.2163,67.9752 40.5,67.5 Z"/></g>
<g><path style="opacity:1" fill="#516eed" d="M 42.5,65.5 C 44.6869,66.758 47.0202,67.758 49.5,68.5C 50.038,70.1172 50.3713,71.7839 50.5,73.5C 49.0689,73.8807 48.2355,74.8807 48,76.5C 46.9563,75.3774 46.2896,74.0441 46,72.5C 45.9005,74.6526 45.0672,76.3192 43.5,77.5C 45.3888,73.2823 44.3888,69.949 40.5,67.5C 41.1667,66.8333 41.8333,66.1667 42.5,65.5 Z"/></g>
<g><path style="opacity:1" fill="#036de0" d="M 72.5,64.5 C 74.7457,65.4552 77.079,66.1218 79.5,66.5C 79.5,68.5 79.5,70.5 79.5,72.5C 79.5,72.8333 79.5,73.1667 79.5,73.5C 77.4471,73.5979 75.7804,72.9313 74.5,71.5C 75.0431,71.44 75.3764,71.1067 75.5,70.5C 73.7539,68.1459 71.4206,67.1459 68.5,67.5C 69.4363,66.0256 70.7697,65.0256 72.5,64.5 Z"/></g>
<g><path style="opacity:1" fill="#1aaefa" d="M 65.5,67.5 C 65.5,68.1667 65.5,68.8333 65.5,69.5C 63.5,72.1667 61.1667,74.5 58.5,76.5C 58.6716,75.5084 58.3382,74.8417 57.5,74.5C 60.1413,72.1956 62.808,69.8623 65.5,67.5 Z"/></g>
<g><path style="opacity:1" fill="#17e3fe" d="M 80.5,67.5 C 81.391,68.1098 82.391,68.4431 83.5,68.5C 83.5,69.5 83.5,70.5 83.5,71.5C 83.5,72.1667 83.5,72.8333 83.5,73.5C 82.0387,74.6857 80.7054,74.6857 79.5,73.5C 79.5,73.1667 79.5,72.8333 79.5,72.5C 80.4511,71.0813 80.7845,69.4147 80.5,67.5 Z"/></g>
<g><path style="opacity:1" fill="#0c4fde" d="M 68.5,67.5 C 71.4206,67.1459 73.7539,68.1459 75.5,70.5C 75.3764,71.1067 75.0431,71.44 74.5,71.5C 73.1851,70.5244 71.8518,69.5244 70.5,68.5C 69.7132,69.2421 69.0465,70.0754 68.5,71C 72.4343,73.884 76.601,76.384 81,78.5C 82.301,78.3613 83.1344,77.6946 83.5,76.5C 84.0736,77.5281 84.407,78.5281 84.5,79.5C 88.5405,78.4351 90.3739,75.7685 90,71.5C 91.5501,72.5908 92.7168,73.9242 93.5,75.5C 89.1028,79.8918 85.1028,84.5584 81.5,89.5C 77.2158,92.61 73.0492,95.9434 69,99.5C 59.4151,93.4113 50.5817,86.4113 42.5,78.5C 42.5,77.8333 42.8333,77.5 43.5,77.5C 45.0672,76.3192 45.9005,74.6526 46,72.5C 46.2896,74.0441 46.9563,75.3774 48,76.5C 48.2355,74.8807 49.0689,73.8807 50.5,73.5C 50.818,81.5213 53.4846,82.5213 58.5,76.5C 61.1667,74.5 63.5,72.1667 65.5,69.5C 66.5,68.8333 67.5,68.1667 68.5,67.5 Z"/></g>
<g><path style="opacity:1" fill="#07affb" d="M 74.5,71.5 C 75.7804,72.9313 77.4471,73.5979 79.5,73.5C 80.7054,74.6857 82.0387,74.6857 83.5,73.5C 83.5,74.5 83.5,75.5 83.5,76.5C 83.1344,77.6946 82.301,78.3613 81,78.5C 76.601,76.384 72.4343,73.884 68.5,71C 69.0465,70.0754 69.7132,69.2421 70.5,68.5C 71.8518,69.5244 73.1851,70.5244 74.5,71.5 Z"/></g>
<g><path style="opacity:1" fill="#4866e9" d="M 98.5,63.5 C 100.373,64.8963 100.706,66.563 99.5,68.5C 97.5293,70.8082 95.5293,73.1415 93.5,75.5C 92.7168,73.9242 91.5501,72.5908 90,71.5C 90.3739,75.7685 88.5405,78.4351 84.5,79.5C 84.407,78.5281 84.0736,77.5281 83.5,76.5C 83.5,75.5 83.5,74.5 83.5,73.5C 83.5,72.8333 83.5,72.1667 83.5,71.5C 84.404,70.791 84.7373,69.791 84.5,68.5C 89.0286,66.2686 93.6953,64.602 98.5,63.5 Z"/></g>
<g><path style="opacity:1" fill="#09226e" d="M 99.5,68.5 C 99.9382,68.4346 100.272,68.6012 100.5,69C 99.1667,70.6667 97.8333,72.3333 96.5,74C 98.6526,74.0995 100.319,74.9328 101.5,76.5C 96.8431,82.489 91.8431,88.1557 86.5,93.5C 86.7179,89.4635 85.0512,88.1302 81.5,89.5C 85.1028,84.5584 89.1028,79.8918 93.5,75.5C 95.5293,73.1415 97.5293,70.8082 99.5,68.5 Z"/></g>
<g><path style="opacity:1" fill="#06176a" d="M 31.5,60.5 C 33.9626,61.8689 35.9626,63.2022 37.5,64.5C 36.4706,66.5168 35.4706,68.5168 34.5,70.5C 36.1667,74.1667 38.8333,76.8333 42.5,78.5C 50.5817,86.4113 59.4151,93.4113 69,99.5C 73.0492,95.9434 77.2158,92.61 81.5,89.5C 85.0512,88.1302 86.7179,89.4635 86.5,93.5C 82.3361,98.4968 77.6694,102.997 72.5,107C 69.6967,107.755 67.0301,107.422 64.5,106C 50.7289,95.8945 37.8956,84.7279 26,72.5C 25.3333,70.8333 25.3333,69.1667 26,67.5C 27.6665,65.0043 29.4998,62.671 31.5,60.5 Z"/></g>
</svg>
