<?xml version="1.0" encoding="UTF-8"?>
<!DOCTYPE svg PUBLIC "-//W3C//DTD SVG 1.1//EN" "http://www.w3.org/Graphics/SVG/1.1/DTD/svg11.dtd">
<svg xmlns="http://www.w3.org/2000/svg" version="1.1" width="135px" height="135px" style="shape-rendering:geometricPrecision; text-rendering:geometricPrecision; image-rendering:optimizeQuality; fill-rule:evenodd; clip-rule:evenodd" xmlns:xlink="http://www.w3.org/1999/xlink">
<g><path style="opacity:0.998" fill="#eab722" d="M 22.5,-0.5 C 52.5,-0.5 82.5,-0.5 112.5,-0.5C 122.356,3.42208 129.689,10.0887 134.5,19.5C 134.5,51.1667 134.5,82.8333 134.5,114.5C 130.192,123.475 123.525,130.141 114.5,134.5C 83.1667,134.5 51.8333,134.5 20.5,134.5C 10.7495,129.75 3.74951,122.417 -0.5,112.5C -0.5,82.5 -0.5,52.5 -0.5,22.5C 1.54072,17.4306 4.37405,12.764 8,8.5C 12.3435,4.58492 17.1768,1.58492 22.5,-0.5 Z"/></g>
<g><path style="opacity:1" fill="#fefefe" d="M 25.5,3.5 C 53.1687,3.33336 80.8353,3.50002 108.5,4C 120.232,6.7322 127.732,13.8989 131,25.5C 131.667,52.8333 131.667,80.1667 131,107.5C 127.635,120.863 119.135,128.697 105.5,131C 79.8333,131.667 54.1667,131.667 28.5,131C 15.4232,128.256 7.25657,120.423 4,107.5C 3.33333,80.1667 3.33333,52.8333 4,25.5C 7.35008,14.3177 14.5167,6.98437 25.5,3.5 Z"/></g>
<g><path style="opacity:1" fill="#eab30c" d="M 58.5,26.5 C 92.0325,25.2015 108.532,41.2015 108,74.5C 104.167,93 93,104.167 74.5,108C 49.2581,110.082 33.4248,98.9154 27,74.5C 24.9097,50.113 35.4097,34.113 58.5,26.5 Z"/></g>
<g><path style="opacity:1" fill="#fefbf3" d="M 59.5,91.5 C 59.5,88.8333 59.5,86.1667 59.5,83.5C 56.8333,83.5 54.1667,83.5 51.5,83.5C 51.5,82.1667 51.5,80.8333 51.5,79.5C 52.9187,78.5489 54.5853,78.2155 56.5,78.5C 56.6663,71.1591 56.4997,63.8258 56,56.5C 55.6174,55.944 55.1174,55.6107 54.5,55.5C 53.791,54.596 52.791,54.2627 51.5,54.5C 51.5,53.5 51.5,52.5 51.5,51.5C 54.1667,51.5 56.8333,51.5 59.5,51.5C 59.5,49.1667 59.5,46.8333 59.5,44.5C 60.5,44.5 61.5,44.5 62.5,44.5C 62.2053,46.7354 62.5386,48.7354 63.5,50.5C 64.8333,50.5 66.1667,50.5 67.5,50.5C 67.5,48.1667 67.5,45.8333 67.5,43.5C 68.8333,43.5 70.1667,43.5 71.5,43.5C 71.5,46.1667 71.5,48.8333 71.5,51.5C 82.0013,51.963 84.668,56.6297 79.5,65.5C 80.8651,66.941 82.3651,68.2744 84,69.5C 85.6698,79.3317 81.5032,83.9984 71.5,83.5C 71.5,86.1667 71.5,88.8333 71.5,91.5C 70.1667,91.5 68.8333,91.5 67.5,91.5C 67.5,89.1667 67.5,86.8333 67.5,84.5C 66.1667,84.5 64.8333,84.5 63.5,84.5C 63.5,86.8333 63.5,89.1667 63.5,91.5C 62.1667,91.5 60.8333,91.5 59.5,91.5 Z"/></g>
<g><path style="opacity:1" fill="#f8e5ac" d="M 63.5,50.5 C 62.5386,48.7354 62.2053,46.7354 62.5,44.5C 61.5,44.5 60.5,44.5 59.5,44.5C 59.5,46.8333 59.5,49.1667 59.5,51.5C 56.8333,51.5 54.1667,51.5 51.5,51.5C 51.5,52.5 51.5,53.5 51.5,54.5C 52.791,54.2627 53.791,54.596 54.5,55.5C 53.1667,55.5 51.8333,55.5 50.5,55.5C 50.5,53.8333 50.5,52.1667 50.5,50.5C 53.1667,50.5 55.8333,50.5 58.5,50.5C 58.5,48.1667 58.5,45.8333 58.5,43.5C 60.1667,43.5 61.8333,43.5 63.5,43.5C 63.5,45.8333 63.5,48.1667 63.5,50.5 Z"/></g>
<g><path style="opacity:1" fill="#ebb72a" d="M 63.5,55.5 C 66.1873,55.3359 68.854,55.5026 71.5,56C 74.3988,59.1558 74.0655,61.8225 70.5,64C 68.1902,64.4966 65.8568,64.6633 63.5,64.5C 63.5,61.5 63.5,58.5 63.5,55.5 Z"/></g>
<g><path style="opacity:1" fill="#f3d173" d="M 70.5,69.5 C 68.5,69.5 66.5,69.5 64.5,69.5C 64.5,72.5 64.5,75.5 64.5,78.5C 66.8333,78.5 69.1667,78.5 71.5,78.5C 69.0521,79.4731 66.3854,79.8064 63.5,79.5C 63.5,75.8333 63.5,72.1667 63.5,68.5C 66.0593,68.1984 68.3926,68.5318 70.5,69.5 Z"/></g>
<g><path style="opacity:1" fill="#eab314" d="M 70.5,69.5 C 77.9421,71.8089 78.2755,74.8089 71.5,78.5C 69.1667,78.5 66.8333,78.5 64.5,78.5C 64.5,75.5 64.5,72.5 64.5,69.5C 66.5,69.5 68.5,69.5 70.5,69.5 Z"/></g>
<g><path style="opacity:1" fill="#f6dd94" d="M 51.5,79.5 C 51.5,80.8333 51.5,82.1667 51.5,83.5C 54.1667,83.5 56.8333,83.5 59.5,83.5C 59.5,86.1667 59.5,88.8333 59.5,91.5C 58.5318,89.3926 58.1984,87.0593 58.5,84.5C 55.8333,84.5 53.1667,84.5 50.5,84.5C 50.2155,82.5853 50.5489,80.9187 51.5,79.5 Z"/></g>
</svg>
