<?xml version="1.0" encoding="UTF-8"?>
<!DOCTYPE svg PUBLIC "-//W3C//DTD SVG 1.1//EN" "http://www.w3.org/Graphics/SVG/1.1/DTD/svg11.dtd">
<svg xmlns="http://www.w3.org/2000/svg" version="1.1" width="135px" height="135px" style="shape-rendering:geometricPrecision; text-rendering:geometricPrecision; image-rendering:optimizeQuality; fill-rule:evenodd; clip-rule:evenodd" xmlns:xlink="http://www.w3.org/1999/xlink">
<g><path style="opacity:0.937" fill="#040404" d="M 24.5,-0.5 C 53.1667,-0.5 81.8333,-0.5 110.5,-0.5C 122.008,3.00837 130.008,10.3417 134.5,21.5C 134.5,52.1667 134.5,82.8333 134.5,113.5C 129.75,123.25 122.417,130.25 112.5,134.5C 82.5,134.5 52.5,134.5 22.5,134.5C 11.438,129.771 3.77136,121.771 -0.5,110.5C -0.5,81.8333 -0.5,53.1667 -0.5,24.5C 3.5,11.8333 11.8333,3.5 24.5,-0.5 Z"/></g>
<g><path style="opacity:1" fill="#fcfcfc" d="M 26.5,3.5 C 53.5021,3.33336 80.5021,3.50003 107.5,4C 119.568,7.06749 127.401,14.5675 131,26.5C 131.667,53.5 131.667,80.5 131,107.5C 126.985,120.181 118.485,128.014 105.5,131C 79.8333,131.667 54.1667,131.667 28.5,131C 15.1915,127.36 7.02484,118.86 4,105.5C 3.33333,79.1667 3.33333,52.8333 4,26.5C 7.68399,14.9837 15.184,7.31707 26.5,3.5 Z"/></g>
<g><path style="opacity:1" fill="#040303" d="M 59.5,26.5 C 83.758,24.3694 99.9247,34.7028 108,57.5C 111.747,81.8607 102.247,98.3607 79.5,107C 52.0557,112.035 34.5557,101.202 27,74.5C 25.1513,49.8529 35.9846,33.8529 59.5,26.5 Z"/></g>
<g><path style="opacity:1" fill="#fefdfc" d="M 61.5,46.5 C 61.9867,47.4734 62.4867,48.4734 63,49.5C 63.4994,55.1569 63.6661,60.8236 63.5,66.5C 64.3339,67.7479 65.6672,68.4146 67.5,68.5C 69.3328,68.4146 70.6661,67.7479 71.5,66.5C 74.0384,65.9573 76.3718,64.9573 78.5,63.5C 85.8329,68.7987 87.3329,75.4653 83,83.5C 81.1433,86.1998 78.6433,87.8665 75.5,88.5C 68.1667,88.5 60.8333,88.5 53.5,88.5C 53.5,75.5 53.5,62.5 53.5,49.5C 55.3914,46.8283 58.0581,45.8283 61.5,46.5 Z"/></g>
<g><path style="opacity:1" fill="#e94201" d="M 61.5,46.5 C 65.8461,46.3343 70.1794,46.501 74.5,47C 80.6961,51.3529 82.0294,56.8529 78.5,63.5C 76.3718,64.9573 74.0384,65.9573 71.5,66.5C 68.8333,66.5 66.1667,66.5 63.5,66.5C 63.6661,60.8236 63.4994,55.1569 63,49.5C 62.4867,48.4734 61.9867,47.4734 61.5,46.5 Z"/></g>
<g><path style="opacity:1" fill="#acacac" d="M 53.5,49.5 C 53.5,62.5 53.5,75.5 53.5,88.5C 60.8333,88.5 68.1667,88.5 75.5,88.5C 68.0182,89.492 60.3516,89.8254 52.5,89.5C 52.1711,75.9895 52.5044,62.6562 53.5,49.5 Z"/></g>
<g><path style="opacity:1" fill="#f38f69" d="M 63.5,66.5 C 66.1667,66.5 68.8333,66.5 71.5,66.5C 70.6661,67.7479 69.3328,68.4146 67.5,68.5C 65.6672,68.4146 64.3339,67.7479 63.5,66.5 Z"/></g>
</svg>
