<?xml version="1.0" encoding="UTF-8"?>
<!DOCTYPE svg PUBLIC "-//W3C//DTD SVG 1.1//EN" "http://www.w3.org/Graphics/SVG/1.1/DTD/svg11.dtd">
<svg xmlns="http://www.w3.org/2000/svg" version="1.1" width="135px" height="135px" style="shape-rendering:geometricPrecision; text-rendering:geometricPrecision; image-rendering:optimizeQuality; fill-rule:evenodd; clip-rule:evenodd" xmlns:xlink="http://www.w3.org/1999/xlink">
<g><path style="opacity:1" fill="#d2a916" d="M 24.5,-0.5 C 53.1667,-0.5 81.8333,-0.5 110.5,-0.5C 115.718,1.11172 120.385,3.77838 124.5,7.5C 124.738,9.40435 125.738,10.7377 127.5,11.5C 129.262,12.2623 130.262,13.5956 130.5,15.5C 130.427,17.0269 131.094,18.0269 132.5,18.5C 133.167,19.5 133.833,20.5 134.5,21.5C 134.5,52.1667 134.5,82.8333 134.5,113.5C 129.75,123.25 122.417,130.25 112.5,134.5C 83.8333,134.5 55.1667,134.5 26.5,134.5C 23.855,132.69 20.855,131.69 17.5,131.5C 17.0269,130.094 16.0269,129.427 14.5,129.5C 13.4154,127.413 11.7488,126.08 9.5,125.5C 4.63487,121.099 1.30154,115.765 -0.5,109.5C -0.5,81.1667 -0.5,52.8333 -0.5,24.5C 0.5,22.5 1.5,20.5 2.5,18.5C 3.90632,18.0269 4.57298,17.0269 4.5,15.5C 4.73758,13.5956 5.73758,12.2623 7.5,11.5C 9.16667,10.5 10.5,9.16667 11.5,7.5C 15.0628,3.55331 19.3961,0.886641 24.5,-0.5 Z"/></g>
<g><path style="opacity:1" fill="#fefdfc" d="M 28.5,3.5 C 53.8355,3.33336 79.1689,3.50003 104.5,4C 118.447,6.61243 127.28,14.7791 131,28.5C 131.667,53.8333 131.667,79.1667 131,104.5C 128.721,118.113 120.887,126.613 107.5,130C 80.5,130.667 53.5,130.667 26.5,130C 13.6703,126.172 6.17026,117.672 4,104.5C 3.33333,79.1667 3.33333,53.8333 4,28.5C 7.68291,15.6514 15.8496,7.31807 28.5,3.5 Z"/></g>
<g><path style="opacity:0.839" fill="#4b3c0a" d="M 11.5,7.5 C 10.5,9.16667 9.16667,10.5 7.5,11.5C 7.83333,9.16667 9.16667,7.83333 11.5,7.5 Z"/></g>
<g><path style="opacity:0.839" fill="#3e320b" d="M 124.5,7.5 C 126.262,8.26231 127.262,9.59565 127.5,11.5C 125.738,10.7377 124.738,9.40435 124.5,7.5 Z"/></g>
<g><path style="opacity:0.514" fill="#3e3208" d="M 4.5,15.5 C 4.57298,17.0269 3.90632,18.0269 2.5,18.5C 2.42702,16.9731 3.09368,15.9731 4.5,15.5 Z"/></g>
<g><path style="opacity:0.514" fill="#3e3208" d="M 130.5,15.5 C 131.906,15.9731 132.573,16.9731 132.5,18.5C 131.094,18.0269 130.427,17.0269 130.5,15.5 Z"/></g>
<g><path style="opacity:1" fill="#f0c50e" d="M 66.5,31.5 C 65.1474,32.8671 65.4807,33.8671 67.5,34.5C 69.3497,33.7582 70.0164,32.7582 69.5,31.5C 70.8333,32.1667 72.1667,32.8333 73.5,33.5C 75.89,35.8878 77.89,38.5545 79.5,41.5C 72.7609,40.7611 66.0942,40.7611 59.5,41.5C 59.1667,41.5 58.8333,41.5 58.5,41.5C 57.3263,42.5137 56.6596,43.847 56.5,45.5C 55.3939,42.9228 53.3939,41.2561 50.5,40.5C 48.9776,38.8437 49.311,37.677 51.5,37C 50.6919,36.6924 50.0253,36.1924 49.5,35.5C 54.6378,32.1454 60.3044,30.8121 66.5,31.5 Z"/></g>
<g><path style="opacity:1" fill="#9e791a" d="M 81.5,30.5 C 97.3526,35.8619 106.353,46.8619 108.5,63.5C 107.552,69.0686 106.386,74.7353 105,80.5C 103.974,83.2387 102.474,85.572 100.5,87.5C 103.595,81.5473 105.262,75.214 105.5,68.5C 105.458,57.5846 101.458,48.4179 93.5,41C 88.7957,37.6544 84.129,34.3211 79.5,31C 80.0944,30.5357 80.7611,30.369 81.5,30.5 Z"/></g>
<g><path style="opacity:1" fill="#e0b11e" d="M 67.5,27.5 C 66.0484,28.3019 64.3817,28.8019 62.5,29C 63.8333,29.3333 65.1667,29.6667 66.5,30C 67.7383,30.69 67.7383,31.19 66.5,31.5C 60.3044,30.8121 54.6378,32.1454 49.5,35.5C 50.0253,36.1924 50.6919,36.6924 51.5,37C 49.311,37.677 48.9776,38.8437 50.5,40.5C 53.3939,41.2561 55.3939,42.9228 56.5,45.5C 55.962,47.1172 55.6287,48.7839 55.5,50.5C 55.5,50.8333 55.5,51.1667 55.5,51.5C 55.5,52.1667 55.1667,52.5 54.5,52.5C 50.5621,49.0648 46.7288,45.3981 43,41.5C 43.2218,39.5436 44.0552,37.7103 45.5,36C 44.9056,35.5357 44.2389,35.369 43.5,35.5C 50.4989,30.0777 58.4989,27.4111 67.5,27.5 Z"/></g>
<g><path style="opacity:1" fill="#917e1c" d="M 79.5,41.5 C 79.5,41.8333 79.5,42.1667 79.5,42.5C 78.1667,42.5 76.8333,42.5 75.5,42.5C 75.5,43.5 75.5,44.5 75.5,45.5C 74.1779,45.33 73.0113,45.6634 72,46.5C 71.7811,45.062 71.2811,43.7287 70.5,42.5C 70.1667,42.8333 69.8333,43.1667 69.5,43.5C 69.7181,46.634 70.0515,49.9674 70.5,53.5C 72.2259,53.1854 73.8925,53.0187 75.5,53C 73.9586,54.3712 72.6253,55.8712 71.5,57.5C 70.8333,56.8333 70.1667,56.1667 69.5,55.5C 69.1661,51.7511 68.3328,47.7511 67,43.5C 66.8184,46.2263 66.3184,48.8929 65.5,51.5C 65.1667,51.1667 64.8333,50.8333 64.5,50.5C 65.3928,47.9159 65.7261,45.2492 65.5,42.5C 64.5,42.5 63.5,42.5 62.5,42.5C 62.6567,43.8734 62.49,45.2068 62,46.5C 61.6339,44.5483 60.8005,42.8816 59.5,41.5C 66.0942,40.7611 72.7609,40.7611 79.5,41.5 Z"/></g>
<g><path style="opacity:1" fill="#6c5d16" d="M 79.5,42.5 C 81.6607,42.8258 83.4941,43.8258 85,45.5C 85.5787,49.2027 85.412,52.8694 84.5,56.5C 82.8866,59.1318 81.22,61.7984 79.5,64.5C 82.0405,67.308 83.3738,70.6413 83.5,74.5C 82.5058,77.1237 81.5058,79.7903 80.5,82.5C 79.2223,82.7822 78.2223,83.4489 77.5,84.5C 77.1218,82.079 76.4552,79.7457 75.5,77.5C 75.4142,76.5041 75.7476,75.6708 76.5,75C 73.3273,73.6581 70.994,71.4915 69.5,68.5C 71.3464,68.7778 72.6798,68.1112 73.5,66.5C 71.9974,65.9478 70.3307,65.9478 68.5,66.5C 68.4208,65.0695 68.7542,63.7362 69.5,62.5C 68.7666,61.913 67.7666,61.913 66.5,62.5C 66.5,62.1667 66.5,61.8333 66.5,61.5C 67.1667,61.5 67.5,61.1667 67.5,60.5C 68.1667,60.5 68.5,60.1667 68.5,59.5C 70.0269,59.573 71.0269,58.9063 71.5,57.5C 72.6253,55.8712 73.9586,54.3712 75.5,53C 73.8925,53.0187 72.2259,53.1854 70.5,53.5C 70.0515,49.9674 69.7181,46.634 69.5,43.5C 69.8333,43.1667 70.1667,42.8333 70.5,42.5C 71.2811,43.7287 71.7811,45.062 72,46.5C 73.0113,45.6634 74.1779,45.33 75.5,45.5C 75.5,44.5 75.5,43.5 75.5,42.5C 76.8333,42.5 78.1667,42.5 79.5,42.5 Z"/></g>
<g><path style="opacity:1" fill="#4c410f" d="M 58.5,41.5 C 58.8333,41.5 59.1667,41.5 59.5,41.5C 60.8005,42.8816 61.6339,44.5483 62,46.5C 62.49,45.2068 62.6567,43.8734 62.5,42.5C 63.5,42.5 64.5,42.5 65.5,42.5C 65.7261,45.2492 65.3928,47.9159 64.5,50.5C 64.8333,50.8333 65.1667,51.1667 65.5,51.5C 66.3184,48.8929 66.8184,46.2263 67,43.5C 68.3328,47.7511 69.1661,51.7511 69.5,55.5C 69.1667,56.5 68.5,57.1667 67.5,57.5C 65.4734,54.4033 62.64,51.07 59,47.5C 59.3466,45.3901 59.1799,43.3901 58.5,41.5 Z"/></g>
<g><path style="opacity:1" fill="#cfa00c" d="M 67.5,27.5 C 72.5003,27.4983 77.167,28.4983 81.5,30.5C 80.7611,30.369 80.0944,30.5357 79.5,31C 84.129,34.3211 88.7957,37.6544 93.5,41C 101.458,48.4179 105.458,57.5846 105.5,68.5C 103.883,69.038 102.216,69.3713 100.5,69.5C 100.628,67.3453 100.128,65.3453 99,63.5C 94.6321,59.467 90.6321,55.1337 87,50.5C 86.7599,52.8516 85.9265,54.8516 84.5,56.5C 85.412,52.8694 85.5787,49.2027 85,45.5C 83.4941,43.8258 81.6607,42.8258 79.5,42.5C 79.5,42.1667 79.5,41.8333 79.5,41.5C 77.89,38.5545 75.89,35.8878 73.5,33.5C 72.1667,32.8333 70.8333,32.1667 69.5,31.5C 70.0164,32.7582 69.3497,33.7582 67.5,34.5C 65.4807,33.8671 65.1474,32.8671 66.5,31.5C 67.7383,31.19 67.7383,30.69 66.5,30C 65.1667,29.6667 63.8333,29.3333 62.5,29C 64.3817,28.8019 66.0484,28.3019 67.5,27.5 Z"/></g>
<g><path style="opacity:1" fill="#c7910d" d="M 43.5,35.5 C 44.2389,35.369 44.9056,35.5357 45.5,36C 44.0552,37.7103 43.2218,39.5436 43,41.5C 46.7288,45.3981 50.5621,49.0648 54.5,52.5C 54.1667,55.1667 53.8333,57.8333 53.5,60.5C 53.1667,61.1667 52.8333,61.8333 52.5,62.5C 51.0335,65.2583 50.3668,64.925 50.5,61.5C 44.6618,57.8279 39.9951,52.9946 36.5,47C 36.9304,45.5659 37.7638,44.3992 39,43.5C 39.765,41.9343 39.5983,40.6009 38.5,39.5C 39.5846,37.4131 41.2512,36.0798 43.5,35.5 Z"/></g>
<g><path style="opacity:1" fill="#211906" d="M 55.5,51.5 C 55.5,51.1667 55.5,50.8333 55.5,50.5C 58.5618,51.1867 59.8951,52.8534 59.5,55.5C 58.4787,53.812 57.1454,52.4787 55.5,51.5 Z"/></g>
<g><path style="opacity:1" fill="#f2c70f" d="M 105.5,68.5 C 105.262,75.214 103.595,81.5473 100.5,87.5C 99.2719,88.3065 98.2719,89.3065 97.5,90.5C 93.5823,85.9155 89.2489,81.5822 84.5,77.5C 83.6143,76.675 83.281,75.675 83.5,74.5C 83.3738,70.6413 82.0405,67.308 79.5,64.5C 81.22,61.7984 82.8866,59.1318 84.5,56.5C 85.9265,54.8516 86.7599,52.8516 87,50.5C 90.6321,55.1337 94.6321,59.467 99,63.5C 100.128,65.3453 100.628,67.3453 100.5,69.5C 102.216,69.3713 103.883,69.038 105.5,68.5 Z"/></g>
<g><path style="opacity:1" fill="#b37a0b" d="M 38.5,39.5 C 39.5983,40.6009 39.765,41.9343 39,43.5C 37.7638,44.3992 36.9304,45.5659 36.5,47C 39.9951,52.9946 44.6618,57.8279 50.5,61.5C 50.3668,64.925 51.0335,65.2583 52.5,62.5C 52.3713,64.2161 52.038,65.8828 51.5,67.5C 49.5976,68.5109 47.5976,68.6776 45.5,68C 42.9189,65.3504 40.2522,62.6838 37.5,60C 36.1667,60 34.8333,60 33.5,60C 36.2636,58.456 36.0969,57.2893 33,56.5C 32.5172,55.552 32.3505,54.552 32.5,53.5C 32.9649,50.4717 33.9649,47.6383 35.5,45C 34.9056,44.5357 34.2389,44.369 33.5,44.5C 34.8333,42.5 36.5,40.8333 38.5,39.5 Z"/></g>
<g><path style="opacity:1" fill="#71681f" d="M 58.5,41.5 C 59.1799,43.3901 59.3466,45.3901 59,47.5C 62.64,51.07 65.4734,54.4033 67.5,57.5C 66.209,57.2627 65.209,57.596 64.5,58.5C 61.7997,60.2344 59.7997,62.5677 58.5,65.5C 57.3709,63.3718 57.2042,61.0385 58,58.5C 58.3333,59.8333 58.6667,61.1667 59,62.5C 60.1223,60.5795 60.9556,58.5795 61.5,56.5C 59.7376,56.6427 58.0709,56.3094 56.5,55.5C 55.5059,60.456 55.1725,65.456 55.5,70.5C 54.8333,67.1667 54.1667,63.8333 53.5,60.5C 53.8333,57.8333 54.1667,55.1667 54.5,52.5C 55.1667,52.5 55.5,52.1667 55.5,51.5C 57.1454,52.4787 58.4787,53.812 59.5,55.5C 59.8951,52.8534 58.5618,51.1867 55.5,50.5C 55.6287,48.7839 55.962,47.1172 56.5,45.5C 56.6596,43.847 57.3263,42.5137 58.5,41.5 Z"/></g>
<g><path style="opacity:1" fill="#332c0e" d="M 58.5,65.5 C 58.2503,67.674 57.2503,69.3406 55.5,70.5C 55.1725,65.456 55.5059,60.456 56.5,55.5C 58.0709,56.3094 59.7376,56.6427 61.5,56.5C 60.9556,58.5795 60.1223,60.5795 59,62.5C 58.6667,61.1667 58.3333,59.8333 58,58.5C 57.2042,61.0385 57.3709,63.3718 58.5,65.5 Z"/></g>
<g><path style="opacity:1" fill="#160e47" d="M 69.5,55.5 C 70.1667,56.1667 70.8333,56.8333 71.5,57.5C 71.0269,58.9063 70.0269,59.573 68.5,59.5C 66.901,59.7678 65.5676,59.4345 64.5,58.5C 65.209,57.596 66.209,57.2627 67.5,57.5C 68.5,57.1667 69.1667,56.5 69.5,55.5 Z"/></g>
<g><path style="opacity:1" fill="#0d0523" d="M 67.5,60.5 C 67.5,61.1667 67.1667,61.5 66.5,61.5C 64.8828,63.1209 63.7162,65.1209 63,67.5C 60.8545,63.1093 62.3545,60.776 67.5,60.5 Z"/></g>
<g><path style="opacity:1" fill="#403438" d="M 69.5,68.5 C 67.9876,66.8086 66.9876,64.8086 66.5,62.5C 67.7666,61.913 68.7666,61.913 69.5,62.5C 68.7542,63.7362 68.4208,65.0695 68.5,66.5C 70.3307,65.9478 71.9974,65.9478 73.5,66.5C 72.6798,68.1112 71.3464,68.7778 69.5,68.5 Z"/></g>
<g><path style="opacity:1" fill="#060366" d="M 64.5,58.5 C 65.5676,59.4345 66.901,59.7678 68.5,59.5C 68.5,60.1667 68.1667,60.5 67.5,60.5C 62.3545,60.776 60.8545,63.1093 63,67.5C 63.7162,65.1209 64.8828,63.1209 66.5,61.5C 66.5,61.8333 66.5,62.1667 66.5,62.5C 66.9876,64.8086 67.9876,66.8086 69.5,68.5C 66.963,68.7912 64.2963,68.9578 61.5,69C 60.6634,70.0113 60.33,71.1779 60.5,72.5C 58.8002,72.6261 57.3002,73.2927 56,74.5C 54.9701,74.1639 54.4701,73.4972 54.5,72.5C 54.8333,71.8333 55.1667,71.1667 55.5,70.5C 57.2503,69.3406 58.2503,67.674 58.5,65.5C 59.7997,62.5677 61.7997,60.2344 64.5,58.5 Z"/></g>
<g><path style="opacity:1" fill="#1d1608" d="M 75.5,65.5 C 76.5,65.5 77.5,65.5 78.5,65.5C 78.8495,68.0448 78.0162,70.0448 76,71.5C 75.0754,70.9535 74.2421,70.2868 73.5,69.5C 74.6302,68.3777 75.2969,67.0443 75.5,65.5 Z"/></g>
<g><path style="opacity:1" fill="#a66a07" d="M 32.5,53.5 C 32.3505,54.552 32.5172,55.552 33,56.5C 36.0969,57.2893 36.2636,58.456 33.5,60C 34.8333,60 36.1667,60 37.5,60C 40.2522,62.6838 42.9189,65.3504 45.5,68C 47.5976,68.6776 49.5976,68.5109 51.5,67.5C 50.6766,70.4606 50.01,73.4606 49.5,76.5C 48.7677,77.8083 47.9344,79.1416 47,80.5C 42.6321,76.467 38.6321,72.1337 35,67.5C 34.3333,68.1667 33.6667,68.8333 33,69.5C 29.9211,64.1555 29.7544,58.8222 32.5,53.5 Z"/></g>
<g><path style="opacity:1" fill="#130d2b" d="M 69.5,68.5 C 70.994,71.4915 73.3273,73.6581 76.5,75C 75.7476,75.6708 75.4142,76.5041 75.5,77.5C 74.8485,76.9094 74.1818,76.2427 73.5,75.5C 72.6667,77.5 71.8333,79.5 71,81.5C 70,79.8333 69,78.1667 68,76.5C 67.8091,78.7078 67.3091,80.7078 66.5,82.5C 66.6653,78.8183 66.4986,75.1516 66,71.5C 65.586,71.0426 65.086,70.7093 64.5,70.5C 63.3777,71.6302 62.0443,72.2969 60.5,72.5C 60.33,71.1779 60.6634,70.0113 61.5,69C 64.2963,68.9578 66.963,68.7912 69.5,68.5 Z"/></g>
<g><path style="opacity:1" fill="#e1b82a" d="M 108.5,63.5 C 109.571,73.2249 107.238,81.8916 101.5,89.5C 100.662,89.1583 100.328,88.4916 100.5,87.5C 102.474,85.572 103.974,83.2387 105,80.5C 106.386,74.7353 107.552,69.0686 108.5,63.5 Z"/></g>
<g><path style="opacity:1" fill="#2c1d0d" d="M 54.5,72.5 C 54.4701,73.4972 54.9701,74.1639 56,74.5C 57.3002,73.2927 58.8002,72.6261 60.5,72.5C 59.145,75.5177 56.8116,76.851 53.5,76.5C 53.5,80.8333 53.5,85.1667 53.5,89.5C 53.5,90.1667 53.1667,90.5 52.5,90.5C 52.3338,84.1579 52.5005,77.8246 53,71.5C 53.3826,72.056 53.8826,72.3893 54.5,72.5 Z"/></g>
<g><path style="opacity:1" fill="#494811" d="M 66.5,82.5 C 66.3893,83.1174 66.056,83.6174 65.5,84C 66.7375,84.2321 67.7375,84.7321 68.5,85.5C 67.1667,85.5 65.8333,85.5 64.5,85.5C 65.8896,76.2299 64.5563,76.2299 60.5,85.5C 58.3021,87.0981 55.9687,88.4314 53.5,89.5C 53.5,85.1667 53.5,80.8333 53.5,76.5C 56.8116,76.851 59.145,75.5177 60.5,72.5C 62.0443,72.2969 63.3777,71.6302 64.5,70.5C 65.086,70.7093 65.586,71.0426 66,71.5C 66.4986,75.1516 66.6653,78.8183 66.5,82.5 Z"/></g>
<g><path style="opacity:1" fill="#d4a00d" d="M 83.5,74.5 C 83.281,75.675 83.6143,76.675 84.5,77.5C 89.2489,81.5822 93.5823,85.9155 97.5,90.5C 96.1667,92.5 94.5,94.1667 92.5,95.5C 87.7944,91.7042 83.7944,87.3708 80.5,82.5C 81.5058,79.7903 82.5058,77.1237 83.5,74.5 Z"/></g>
<g><path style="opacity:1" fill="#48420c" d="M 53.5,60.5 C 54.1667,63.8333 54.8333,67.1667 55.5,70.5C 55.1667,71.1667 54.8333,71.8333 54.5,72.5C 53.8826,72.3893 53.3826,72.056 53,71.5C 52.5005,77.8246 52.3338,84.1579 52.5,90.5C 50.7376,90.3573 49.0709,90.6906 47.5,91.5C 47.1667,90.6667 46.8333,89.8333 46.5,89C 47.9634,84.919 48.9634,80.7523 49.5,76.5C 50.01,73.4606 50.6766,70.4606 51.5,67.5C 52.038,65.8828 52.3713,64.2161 52.5,62.5C 52.8333,61.8333 53.1667,61.1667 53.5,60.5 Z"/></g>
<g><path style="opacity:1" fill="#06045a" d="M 75.5,77.5 C 76.4552,79.7457 77.1218,82.079 77.5,84.5C 76.8333,84.5 76.5,84.8333 76.5,85.5C 73.8333,85.5 71.1667,85.5 68.5,85.5C 67.7375,84.7321 66.7375,84.2321 65.5,84C 66.056,83.6174 66.3893,83.1174 66.5,82.5C 67.3091,80.7078 67.8091,78.7078 68,76.5C 69,78.1667 70,79.8333 71,81.5C 71.8333,79.5 72.6667,77.5 73.5,75.5C 74.1818,76.2427 74.8485,76.9094 75.5,77.5 Z"/></g>
<g><path style="opacity:1" fill="#be860a" d="M 80.5,82.5 C 83.7944,87.3708 87.7944,91.7042 92.5,95.5C 91.3065,96.2719 90.3065,97.2719 89.5,98.5C 85.6828,100.41 81.6828,101.743 77.5,102.5C 73.5,102.167 73.5,101.833 77.5,101.5C 77.5,100.5 77.5,99.5 77.5,98.5C 76.5,98.5 75.5,98.5 74.5,98.5C 74.5,97.5 74.5,96.5 74.5,95.5C 76.1012,94.4663 78.1012,94.133 80.5,94.5C 81.4519,92.9547 81.7852,91.288 81.5,89.5C 79.0799,89.2924 76.7466,89.6258 74.5,90.5C 73.3044,90.1543 73.3044,89.6543 74.5,89C 72.2852,88.8295 70.2852,88.1628 68.5,87C 71.3647,86.8171 74.0314,86.3171 76.5,85.5C 76.5,84.8333 76.8333,84.5 77.5,84.5C 78.2223,83.4489 79.2223,82.7822 80.5,82.5 Z"/></g>
<g><path style="opacity:1" fill="#b38129" d="M 68.5,85.5 C 71.1667,85.5 73.8333,85.5 76.5,85.5C 74.0314,86.3171 71.3647,86.8171 68.5,87C 70.2852,88.1628 72.2852,88.8295 74.5,89C 73.3044,89.6543 73.3044,90.1543 74.5,90.5C 76.7466,89.6258 79.0799,89.2924 81.5,89.5C 81.7852,91.288 81.4519,92.9547 80.5,94.5C 78.1012,94.133 76.1012,94.4663 74.5,95.5C 69.7787,94.8152 65.112,94.8152 60.5,95.5C 58.7175,93.9775 58.0508,91.9775 58.5,89.5C 59.675,89.719 60.675,89.3857 61.5,88.5C 60.944,87.3366 60.6107,86.3366 60.5,85.5C 64.5563,76.2299 65.8896,76.2299 64.5,85.5C 65.8333,85.5 67.1667,85.5 68.5,85.5 Z"/></g>
<g><path style="opacity:1" fill="#925808" d="M 33.5,44.5 C 34.2389,44.369 34.9056,44.5357 35.5,45C 33.9649,47.6383 32.9649,50.4717 32.5,53.5C 29.7544,58.8222 29.9211,64.1555 33,69.5C 33.6667,68.8333 34.3333,68.1667 35,67.5C 38.6321,72.1337 42.6321,76.467 47,80.5C 47.9344,79.1416 48.7677,77.8083 49.5,76.5C 48.9634,80.7523 47.9634,84.919 46.5,89C 46.8333,89.8333 47.1667,90.6667 47.5,91.5C 49.0709,90.6906 50.7376,90.3573 52.5,90.5C 53.1667,90.5 53.5,90.1667 53.5,89.5C 55.9687,88.4314 58.3021,87.0981 60.5,85.5C 60.6107,86.3366 60.944,87.3366 61.5,88.5C 60.675,89.3857 59.675,89.719 58.5,89.5C 58.0508,91.9775 58.7175,93.9775 60.5,95.5C 65.112,94.8152 69.7787,94.8152 74.5,95.5C 74.5,96.5 74.5,97.5 74.5,98.5C 75.5,98.5 76.5,98.5 77.5,98.5C 77.5,99.5 77.5,100.5 77.5,101.5C 73.5,101.833 73.5,102.167 77.5,102.5C 59.8887,106.791 45.722,101.458 35,86.5C 32.0286,79.0644 29.1953,71.7311 26.5,64.5C 26.7006,57.0019 29.0339,50.3353 33.5,44.5 Z"/></g>
<g><path style="opacity:1" fill="#a87c22" d="M 100.5,87.5 C 100.328,88.4916 100.662,89.1583 101.5,89.5C 97.1294,96.3659 91.1294,101.366 83.5,104.5C 83.3893,103.883 83.056,103.383 82.5,103C 85.2387,101.974 87.572,100.474 89.5,98.5C 90.3065,97.2719 91.3065,96.2719 92.5,95.5C 94.5,94.1667 96.1667,92.5 97.5,90.5C 98.2719,89.3065 99.2719,88.3065 100.5,87.5 Z"/></g>
<g><path style="opacity:1" fill="#603d11" d="M 26.5,64.5 C 29.1953,71.7311 32.0286,79.0644 35,86.5C 45.722,101.458 59.8887,106.791 77.5,102.5C 81.6828,101.743 85.6828,100.41 89.5,98.5C 87.572,100.474 85.2387,101.974 82.5,103C 83.056,103.383 83.3893,103.883 83.5,104.5C 59.2683,111.962 41.1016,104.628 29,82.5C 26.9401,76.678 26.1067,70.678 26.5,64.5 Z"/></g>
<g><path style="opacity:1" fill="#5d4a0c" d="M 9.5,125.5 C 11.7488,126.08 13.4154,127.413 14.5,129.5C 12.2512,128.92 10.5846,127.587 9.5,125.5 Z"/></g>
<g><path style="opacity:0.514" fill="#3b2f07" d="M 14.5,129.5 C 16.0269,129.427 17.0269,130.094 17.5,131.5C 15.9731,131.573 14.9731,130.906 14.5,129.5 Z"/></g>
<g><path style="opacity:1" fill="#68530c" d="M 17.5,131.5 C 20.855,131.69 23.855,132.69 26.5,134.5C 25.1667,134.5 23.8333,134.5 22.5,134.5C 20.7392,133.687 19.0725,132.687 17.5,131.5 Z"/></g>
</svg>
