<?xml version="1.0" encoding="UTF-8"?>
<!DOCTYPE svg PUBLIC "-//W3C//DTD SVG 1.1//EN" "http://www.w3.org/Graphics/SVG/1.1/DTD/svg11.dtd">
<svg xmlns="http://www.w3.org/2000/svg" version="1.1" width="135px" height="135px" style="shape-rendering:geometricPrecision; text-rendering:geometricPrecision; image-rendering:optimizeQuality; fill-rule:evenodd; clip-rule:evenodd" xmlns:xlink="http://www.w3.org/1999/xlink">
<g><path style="opacity:1" fill="#38606a" d="M 24.5,-0.5 C 25.8333,-0.5 27.1667,-0.5 28.5,-0.5C 24.3205,1.3415 19.9871,3.00817 15.5,4.5C 18.1896,2.27051 21.1896,0.603843 24.5,-0.5 Z"/></g>
<g><path style="opacity:1" fill="#298ee2" d="M 28.5,-0.5 C 54.1667,-0.5 79.8333,-0.5 105.5,-0.5C 107.905,0.768202 110.572,1.43487 113.5,1.5C 115.181,3.00751 117.181,4.00751 119.5,4.5C 121.404,4.73758 122.738,5.73758 123.5,7.5C 124.5,9.16667 125.833,10.5 127.5,11.5C 129.262,12.2623 130.262,13.5956 130.5,15.5C 130.75,17.674 131.75,19.3406 133.5,20.5C 133.5,21.1667 133.833,21.5 134.5,21.5C 134.5,33.5 134.5,45.5 134.5,57.5C 133.5,57.5 132.5,57.5 131.5,57.5C 131.666,47.4944 131.5,37.4944 131,27.5C 126.985,14.8189 118.485,6.98554 105.5,4C 79.5,3.33333 53.5,3.33333 27.5,4C 15.6667,7.83333 7.83333,15.6667 4,27.5C 3.50023,36.4938 3.33356,45.4938 3.5,54.5C 2.5,54.5 1.5,54.5 0.5,54.5C 0.737305,53.209 0.403972,52.209 -0.5,51.5C -0.5,43.8333 -0.5,36.1667 -0.5,28.5C 0.923808,26.4855 1.59047,24.1522 1.5,21.5C 1.5,21.1667 1.5,20.8333 1.5,20.5C 3.25027,19.3406 4.25027,17.674 4.5,15.5C 4.73758,13.5956 5.73758,12.2623 7.5,11.5C 9.16667,10.5 10.5,9.16667 11.5,7.5C 12.2623,5.73758 13.5956,4.73758 15.5,4.5C 19.9871,3.00817 24.3205,1.3415 28.5,-0.5 Z"/></g>
<g><path style="opacity:0.961" fill="#315155" d="M 105.5,-0.5 C 107.167,-0.5 108.833,-0.5 110.5,-0.5C 111.5,0.166667 112.5,0.833333 113.5,1.5C 110.572,1.43487 107.905,0.768202 105.5,-0.5 Z"/></g>
<g><path style="opacity:0.584" fill="#2f4844" d="M 113.5,1.5 C 116.089,1.46095 118.089,2.46095 119.5,4.5C 117.181,4.00751 115.181,3.00751 113.5,1.5 Z"/></g>
<g><path style="opacity:1" fill="#fdfdfe" d="M 131.5,57.5 C 131.5,64.5 131.5,71.5 131.5,78.5C 131.5,83.1667 131.5,87.8333 131.5,92.5C 133.652,111.731 125.652,124.231 107.5,130C 80.1667,130.667 52.8333,130.667 25.5,130C 9.87872,123.863 2.54539,112.363 3.5,95.5C 3.5,91.5 3.5,87.5 3.5,83.5C 3.5,80.8333 3.5,78.1667 3.5,75.5C 3.5,68.5 3.5,61.5 3.5,54.5C 3.33356,45.4938 3.50023,36.4938 4,27.5C 7.83333,15.6667 15.6667,7.83333 27.5,4C 53.5,3.33333 79.5,3.33333 105.5,4C 118.485,6.98554 126.985,14.8189 131,27.5C 131.5,37.4944 131.666,47.4944 131.5,57.5 Z"/></g>
<g><path style="opacity:0.031" fill="#243735" d="M 123.5,7.5 C 125.833,7.83333 127.167,9.16667 127.5,11.5C 125.833,10.5 124.5,9.16667 123.5,7.5 Z"/></g>
<g><path style="opacity:0.914" fill="#2e4946" d="M 11.5,7.5 C 10.5,9.16667 9.16667,10.5 7.5,11.5C 7.83333,9.16667 9.16667,7.83333 11.5,7.5 Z"/></g>
<g><path style="opacity:0.584" fill="#2d4643" d="M 4.5,15.5 C 4.25027,17.674 3.25027,19.3406 1.5,20.5C 1.74973,18.326 2.74973,16.6594 4.5,15.5 Z"/></g>
<g><path style="opacity:0.584" fill="#2d4643" d="M 130.5,15.5 C 132.25,16.6594 133.25,18.326 133.5,20.5C 131.75,19.3406 130.75,17.674 130.5,15.5 Z"/></g>
<g><path style="opacity:1" fill="#1f9aed" d="M 94.5,39.5 C 90.61,39.8931 86.61,39.3931 82.5,38C 73.1108,33.9257 63.4442,30.7591 53.5,28.5C 70.2597,22.9816 84.9264,26.4816 97.5,39C 96.552,39.4828 95.552,39.6495 94.5,39.5 Z"/></g>
<g><path style="opacity:0.914" fill="#395c5e" d="M 1.5,21.5 C 1.59047,24.1522 0.923808,26.4855 -0.5,28.5C -0.5,27.1667 -0.5,25.8333 -0.5,24.5C 0.166667,23.5 0.833333,22.5 1.5,21.5 Z"/></g>
<g><path style="opacity:1" fill="#188eed" d="M 53.5,28.5 C 63.4442,30.7591 73.1108,33.9257 82.5,38C 86.61,39.3931 90.61,39.8931 94.5,39.5C 86.9525,41.0928 79.2858,41.9262 71.5,42C 68.8474,44.1337 66.8474,46.6337 65.5,49.5C 64.5041,49.5858 63.6708,49.2524 63,48.5C 62.2152,45.5637 61.0486,43.5637 59.5,42.5C 58.6561,39.1543 56.9894,36.1543 54.5,33.5C 53.8328,36.9773 53.1661,40.3107 52.5,43.5C 52.5572,36.8476 49.2238,33.8476 42.5,34.5C 45.678,31.7417 49.3447,29.7417 53.5,28.5 Z"/></g>
<g><path style="opacity:1" fill="#f3f8fe" d="M 59.5,42.5 C 61.0409,47.3646 61.7076,52.3646 61.5,57.5C 53.0798,56.5927 50.0798,51.926 52.5,43.5C 53.1661,40.3107 53.8328,36.9773 54.5,33.5C 56.9894,36.1543 58.6561,39.1543 59.5,42.5 Z"/></g>
<g><path style="opacity:1" fill="#1f7bee" d="M 42.5,34.5 C 49.2238,33.8476 52.5572,36.8476 52.5,43.5C 50.0798,51.926 53.0798,56.5927 61.5,57.5C 61.7076,52.3646 61.0409,47.3646 59.5,42.5C 61.0486,43.5637 62.2152,45.5637 63,48.5C 63.6708,49.2524 64.5041,49.5858 65.5,49.5C 65.1145,53.3247 64.1145,56.9914 62.5,60.5C 52.3586,56.2311 42.0253,52.5644 31.5,49.5C 33.4438,43.2961 37.1105,38.2961 42.5,34.5 Z"/></g>
<g><path style="opacity:1" fill="#fcbbc6" d="M 106.5,57.5 C 107.814,59.9151 108.481,62.7485 108.5,66C 108.498,69.0208 108.164,71.8541 107.5,74.5C 107.786,68.7414 107.452,63.0748 106.5,57.5 Z"/></g>
<g><path style="opacity:1" fill="#8468a5" d="M 131.5,57.5 C 132.5,57.5 133.5,57.5 134.5,57.5C 134.5,64.5 134.5,71.5 134.5,78.5C 133.5,78.5 132.5,78.5 131.5,78.5C 131.5,71.5 131.5,64.5 131.5,57.5 Z"/></g>
<g><path style="opacity:1" fill="#1461f0" d="M 51.5,77.5 C 51.5654,77.0618 51.3988,76.7284 51,76.5C 49.907,78.3492 48.5737,80.0158 47,81.5C 42.4694,78.7631 37.6361,76.5964 32.5,75C 30.9343,74.235 29.6009,74.4017 28.5,75.5C 27.3475,69.6812 27.1808,63.6812 28,57.5C 35.2561,64.8808 43.7561,70.3808 53.5,74C 56.9066,74.4818 60.24,74.4818 63.5,74C 62.6721,74.9147 61.6721,75.5814 60.5,76C 57.4133,76.2589 54.4133,76.7589 51.5,77.5 Z"/></g>
<g><path style="opacity:1" fill="#8568a5" d="M -0.5,51.5 C 0.403972,52.209 0.737305,53.209 0.5,54.5C 1.5,54.5 2.5,54.5 3.5,54.5C 3.5,61.5 3.5,68.5 3.5,75.5C 1.80072,75.4729 0.46739,74.8062 -0.5,73.5C -0.5,66.1667 -0.5,58.8333 -0.5,51.5 Z"/></g>
<g><path style="opacity:1" fill="#1758f1" d="M 51.5,77.5 C 47.9181,83.7542 43.9181,89.7542 39.5,95.5C 33.2771,90.2679 29.6104,83.6012 28.5,75.5C 29.6009,74.4017 30.9343,74.235 32.5,75C 37.6361,76.5964 42.4694,78.7631 47,81.5C 48.5737,80.0158 49.907,78.3492 51,76.5C 51.3988,76.7284 51.5654,77.0618 51.5,77.5 Z"/></g>
<g><path style="opacity:1" fill="#a85b8d" d="M -0.5,73.5 C 0.46739,74.8062 1.80072,75.4729 3.5,75.5C 3.5,78.1667 3.5,80.8333 3.5,83.5C 2.16667,83.5 0.833333,83.5 -0.5,83.5C -0.5,80.1667 -0.5,76.8333 -0.5,73.5 Z"/></g>
<g><path style="opacity:1" fill="#f43b5c" d="M 106.5,57.5 C 107.452,63.0748 107.786,68.7414 107.5,74.5C 105.823,80.8531 102.823,86.5198 98.5,91.5C 98.38,90.4138 97.7133,89.7472 96.5,89.5C 89.1445,88.1074 81.8112,86.6074 74.5,85C 75.7383,84.31 75.7383,83.81 74.5,83.5C 76.824,80.8619 78.6574,77.8619 80,74.5C 80.3333,66.8333 80.6667,59.1667 81,51.5C 84.8587,43.9866 91.0253,40.8199 99.5,42C 103.06,46.6193 105.393,51.786 106.5,57.5 Z"/></g>
<g><path style="opacity:1" fill="#c0527f" d="M 131.5,78.5 C 132.5,78.5 133.5,78.5 134.5,78.5C 134.5,83.1667 134.5,87.8333 134.5,92.5C 133.5,92.5 132.5,92.5 131.5,92.5C 131.5,87.8333 131.5,83.1667 131.5,78.5 Z"/></g>
<g><path style="opacity:1" fill="#cb4d77" d="M -0.5,83.5 C 0.833333,83.5 2.16667,83.5 3.5,83.5C 3.5,87.5 3.5,91.5 3.5,95.5C 2.16667,95.5 0.833333,95.5 -0.5,95.5C -0.5,91.5 -0.5,87.5 -0.5,83.5 Z"/></g>
<g><path style="opacity:1" fill="#e72c4c" d="M 74.5,83.5 C 75.7383,83.81 75.7383,84.31 74.5,85C 81.8112,86.6074 89.1445,88.1074 96.5,89.5C 97.7133,89.7472 98.38,90.4138 98.5,91.5C 93.1092,98.5535 86.1092,103.22 77.5,105.5C 70.8333,106.833 64.1667,106.833 57.5,105.5C 52.2041,104.685 47.5375,102.519 43.5,99C 54.2404,94.4862 64.5737,89.3195 74.5,83.5 Z"/></g>
<g><path style="opacity:1" fill="#e6485e" d="M 131.5,92.5 C 132.5,92.5 133.5,92.5 134.5,92.5C 134.5,99.5 134.5,106.5 134.5,113.5C 129.75,123.25 122.417,130.25 112.5,134.5C 82.5,134.5 52.5,134.5 22.5,134.5C 11.0025,129.67 3.33581,121.337 -0.5,109.5C -0.5,104.833 -0.5,100.167 -0.5,95.5C 0.833333,95.5 2.16667,95.5 3.5,95.5C 2.54539,112.363 9.87872,123.863 25.5,130C 52.8333,130.667 80.1667,130.667 107.5,130C 125.652,124.231 133.652,111.731 131.5,92.5 Z"/></g>
<g><path style="opacity:1" fill="#f8b4c0" d="M 57.5,105.5 C 64.1667,106.833 70.8333,106.833 77.5,105.5C 74.7425,106.818 71.5758,107.485 68,107.5C 64.8333,107.333 61.6667,107.167 58.5,107C 57.944,106.617 57.6107,106.117 57.5,105.5 Z"/></g>
</svg>
