<svg xmlns="http://www.w3.org/2000/svg" width="32" height="32" viewBox="0 0 32 32">
  <g id="BITCOIN_-_BTC" data-name="BITCOIN - BTC" transform="translate(-578 -117)">
    <g id="Path_4197" data-name="Path 4197" transform="translate(578 117)" fill="#fff">
      <path d="M 24 31.5 L 8 31.5 C 3.864490032196045 31.5 0.5 28.1355094909668 0.5 24 L 0.5 8 C 0.5 3.864490032196045 3.864490032196045 0.5 8 0.5 L 24 0.5 C 28.1355094909668 0.5 31.5 3.864490032196045 31.5 8 L 31.5 24 C 31.5 28.1355094909668 28.1355094909668 31.5 24 31.5 Z" stroke="none"/>
      <path d="M 8 1 C 4.140190124511719 1 1 4.140190124511719 1 8 L 1 24 C 1 27.85980987548828 4.140190124511719 31 8 31 L 24 31 C 27.85980987548828 31 31 27.85980987548828 31 24 L 31 8 C 31 4.140190124511719 27.85980987548828 1 24 1 L 8 1 M 8 0 L 24 0 C 28.41827964782715 0 32 3.581720352172852 32 8 L 32 24 C 32 28.41827964782715 28.41827964782715 32 24 32 L 8 32 C 3.581720352172852 32 0 28.41827964782715 0 24 L 0 8 C 0 3.581720352172852 3.581720352172852 0 8 0 Z" stroke="none" fill="#ff9416"/>
    </g>
    <g id="Group_2952" data-name="Group 2952" transform="translate(581.895 120.628)">
      <rect id="Rectangle_353" data-name="Rectangle 353" width="24.211" height="24.211" transform="translate(0 0.533)" fill="none"/>
      <g id="Group_654" data-name="Group 654" transform="translate(9.879 0) rotate(25)">
        <g id="Group_653" data-name="Group 653" transform="translate(0)">
          <path id="Path_3720" data-name="Path 3720" d="M11.9,9.51a3.269,3.269,0,0,0,1.581-3.358c-.27-2.078-2.7-2.863-4.621-3.028V0H6.972V3.1H5.7V0H3.81V3.1H0v2H1.419c.635,0,.946.193.946.716v8.574c0,.716-.351.936-.73.936H.189v2.037H3.864v3.165H5.769V17.354h1.27v3.165H8.89V17.354H9.3c3.891,0,5.188-1.94,5.188-4.583A3.413,3.413,0,0,0,11.9,9.51ZM5.7,5.216H7.053c.946,0,2.81.165,2.81,1.734A1.932,1.932,0,0,1,8.2,9H5.7ZM7.8,15.124v-.014H5.7V10.982H8.134c.567,0,2.7.193,2.7,1.734S9.823,15.124,7.8,15.124Z" fill="#ff9416"/>
        </g>
      </g>
    </g>
  </g>
</svg>
