<?xml version="1.0" encoding="UTF-8"?>
<!DOCTYPE svg PUBLIC "-//W3C//DTD SVG 1.1//EN" "http://www.w3.org/Graphics/SVG/1.1/DTD/svg11.dtd">
<svg xmlns="http://www.w3.org/2000/svg" version="1.1" width="135px" height="135px" style="shape-rendering:geometricPrecision; text-rendering:geometricPrecision; image-rendering:optimizeQuality; fill-rule:evenodd; clip-rule:evenodd" xmlns:xlink="http://www.w3.org/1999/xlink">
<g><path style="opacity:0.913" fill="#040404" d="M 26.5,-0.5 C 53.8333,-0.5 81.1667,-0.5 108.5,-0.5C 120.906,2.90383 129.572,10.5705 134.5,22.5C 134.5,52.1667 134.5,81.8333 134.5,111.5C 129.746,122.588 121.746,130.255 110.5,134.5C 81.8333,134.5 53.1667,134.5 24.5,134.5C 11.6628,129.663 3.32948,120.663 -0.5,107.5C -0.5,80.5 -0.5,53.5 -0.5,26.5C 3.5,12.5 12.5,3.5 26.5,-0.5 Z"/></g>
<g><path style="opacity:1" fill="#fafafa" d="M 29.5,3.5 C 54.8355,3.33336 80.1689,3.50003 105.5,4C 119.342,7.17556 127.842,15.6756 131,29.5C 131.667,54.8333 131.667,80.1667 131,105.5C 128.351,118.148 120.851,126.314 108.5,130C 81.1667,130.667 53.8333,130.667 26.5,130C 14.1487,126.314 6.64871,118.148 4,105.5C 3.33333,80.1667 3.33333,54.8333 4,29.5C 7.3482,15.6528 15.8482,6.98609 29.5,3.5 Z"/></g>
<g><path style="opacity:1" fill="#060606" d="M 58.5,26.5 C 81.7395,24.5298 97.9062,34.1965 107,55.5C 112.011,79.5149 103.511,96.6816 81.5,107C 56.6111,113.801 38.7778,105.634 28,82.5C 21.7075,54.6747 31.8741,36.008 58.5,26.5 Z"/></g>
<g><path style="opacity:1" fill="#eaeaea" d="M 61.5,36.5 C 86.3477,36.5133 98.5143,48.8466 98,73.5C 89.8308,96.4477 74.3308,103.614 51.5,95C 35.5372,83.2334 32.0372,68.4001 41,50.5C 46.2568,43.4601 53.0902,38.7934 61.5,36.5 Z"/></g>
<g><path style="opacity:1" fill="#0b0b0b" d="M 61.5,40.5 C 83.6711,40.5034 94.5044,51.5034 94,73.5C 86.243,93.4567 72.4097,99.29 52.5,91C 39.9418,80.8065 37.1084,68.3065 44,53.5C 48.5813,47.4103 54.4146,43.077 61.5,40.5 Z"/></g>
<g><path style="opacity:1" fill="#f0f0f0" d="M 62.5,60.5 C 56.3034,63.5595 53.8034,68.5595 55,75.5C 55.2004,77.3197 56.0337,78.653 57.5,79.5C 59.3141,83.973 62.6474,86.6397 67.5,87.5C 71.5,88.1667 75.5,88.8333 79.5,89.5C 78.609,90.1098 77.609,90.4431 76.5,90.5C 64.3952,92.2009 55.8952,87.5343 51,76.5C 51.1707,81.3306 53.3374,85.1639 57.5,88C 60.8932,89.62 64.2265,91.12 67.5,92.5C 50.5922,91.4135 43.4255,82.4135 46,65.5C 49.6539,54.6727 57.1539,49.006 68.5,48.5C 68.5,49.8333 68.5,51.1667 68.5,52.5C 55.0991,54.3968 48.9324,62.0635 50,75.5C 50.9405,59.8853 59.1072,53.0519 74.5,55C 75.4506,55.7175 75.6172,56.5509 75,57.5C 71.2546,58.297 67.4213,58.797 63.5,59C 62.944,59.3826 62.6107,59.8826 62.5,60.5 Z"/></g>
<g><path style="opacity:1" fill="#f1f1f1" d="M 72.5,83.5 C 76.5,84.1667 80.5,84.8333 84.5,85.5C 84.0269,86.9063 83.0269,87.573 81.5,87.5C 77.1018,87.7059 72.7685,87.3726 68.5,86.5C 64.0478,85.3774 60.3811,83.0441 57.5,79.5C 54.9417,71.9491 56.6084,65.6158 62.5,60.5C 69.7776,58.3173 75.7776,60.1506 80.5,66C 79.0692,66.4652 77.9025,67.2986 77,68.5C 71.6667,61.8333 66.3333,61.8333 61,68.5C 60.0447,77.0565 63.878,82.0565 72.5,83.5 Z"/></g>
<g><path style="opacity:1" fill="#313131" d="M 62.5,60.5 C 56.6084,65.6158 54.9417,71.9491 57.5,79.5C 56.0337,78.653 55.2004,77.3197 55,75.5C 53.8034,68.5595 56.3034,63.5595 62.5,60.5 Z"/></g>
<g><path style="opacity:1" fill="#4d4d4d" d="M 76.5,90.5 C 73.7273,91.6572 70.7273,92.3239 67.5,92.5C 64.2265,91.12 60.8932,89.62 57.5,88C 53.3374,85.1639 51.1707,81.3306 51,76.5C 55.8952,87.5343 64.3952,92.2009 76.5,90.5 Z"/></g>
<g><path style="opacity:1" fill="#2c2c2c" d="M 57.5,79.5 C 60.3811,83.0441 64.0478,85.3774 68.5,86.5C 68.5,87.1667 68.1667,87.5 67.5,87.5C 62.6474,86.6397 59.3141,83.973 57.5,79.5 Z"/></g>
<g><path style="opacity:1" fill="#969696" d="M 72.5,83.5 C 77.1785,83.3342 81.8452,83.5008 86.5,84C 85.9558,84.7172 85.2891,85.2172 84.5,85.5C 80.5,84.8333 76.5,84.1667 72.5,83.5 Z"/></g>
<g><path style="opacity:1" fill="#656565" d="M 68.5,86.5 C 72.7685,87.3726 77.1018,87.7059 81.5,87.5C 81.1667,88.5 80.5,89.1667 79.5,89.5C 75.5,88.8333 71.5,88.1667 67.5,87.5C 68.1667,87.5 68.5,87.1667 68.5,86.5 Z"/></g>
</svg>
