<?xml version="1.0" encoding="UTF-8"?>
<!DOCTYPE svg PUBLIC "-//W3C//DTD SVG 1.1//EN" "http://www.w3.org/Graphics/SVG/1.1/DTD/svg11.dtd">
<svg xmlns="http://www.w3.org/2000/svg" version="1.1" width="135px" height="135px" style="shape-rendering:geometricPrecision; text-rendering:geometricPrecision; image-rendering:optimizeQuality; fill-rule:evenodd; clip-rule:evenodd" xmlns:xlink="http://www.w3.org/1999/xlink">
<g><path style="opacity:0.997" fill="#315b8b" d="M 25.5,-0.5 C 53.5,-0.5 81.5,-0.5 109.5,-0.5C 121.345,3.34471 129.678,11.0114 134.5,22.5C 134.5,52.5 134.5,82.5 134.5,112.5C 130.103,123.23 122.436,130.563 111.5,134.5C 82.1667,134.5 52.8333,134.5 23.5,134.5C 11.4067,130.074 3.40671,121.74 -0.5,109.5C -0.5,81.5 -0.5,53.5 -0.5,25.5C 3.83333,12.5 12.5,3.83333 25.5,-0.5 Z"/></g>
<g><path style="opacity:1" fill="#fcfdfd" d="M 27.5,3.5 C 53.5021,3.33336 79.5021,3.50003 105.5,4C 118.995,6.48502 127.495,14.3184 131,27.5C 131.667,53.1667 131.667,78.8333 131,104.5C 128.721,118.113 120.887,126.613 107.5,130C 80.1667,130.667 52.8333,130.667 25.5,130C 13.2698,125.77 6.10317,117.27 4,104.5C 3.33333,78.8333 3.33333,53.1667 4,27.5C 5.39231,21.7863 8.05898,16.7863 12,12.5C 16.5995,8.37379 21.7662,5.37379 27.5,3.5 Z"/></g>
<g><path style="opacity:1" fill="#2c5889" d="M 61.5,25.5 C 84.7995,24.9834 100.299,35.6501 108,57.5C 111.841,78.9961 104.341,95.1628 85.5,106C 56.8356,115.581 37.0022,106.414 26,78.5C 22.6135,50.4221 34.4469,32.7555 61.5,25.5 Z"/></g>
<g><path style="opacity:1" fill="#f6f8fa" d="M 62.5,51.5 C 66.5138,51.3345 70.5138,51.5012 74.5,52C 77.7875,52.6159 80.6208,54.1159 83,56.5C 83.6667,57.1667 83.6667,57.8333 83,58.5C 81.0266,59.6399 79.1933,60.9733 77.5,62.5C 73.2284,59.1181 68.5617,58.6181 63.5,61C 59.105,66.9069 59.7716,72.2402 65.5,77C 69.9498,78.1136 73.9498,77.2803 77.5,74.5C 79.4219,75.711 81.2552,77.0443 83,78.5C 83.5074,79.9961 83.0074,81.1627 81.5,82C 75.5822,85.3306 69.2489,86.3306 62.5,85C 51.465,78.893 48.6317,70.0597 54,58.5C 56.4412,55.5464 59.2745,53.2131 62.5,51.5 Z"/></g>
</svg>
