<?xml version="1.0" encoding="UTF-8"?>
<!DOCTYPE svg PUBLIC "-//W3C//DTD SVG 1.1//EN" "http://www.w3.org/Graphics/SVG/1.1/DTD/svg11.dtd">
<svg xmlns="http://www.w3.org/2000/svg" version="1.1" width="135px" height="135px" style="shape-rendering:geometricPrecision; text-rendering:geometricPrecision; image-rendering:optimizeQuality; fill-rule:evenodd; clip-rule:evenodd" xmlns:xlink="http://www.w3.org/1999/xlink">
<g><path style="opacity:0.895" fill="#538aef" d="M 28.5,-0.5 C 54.5,-0.5 80.5,-0.5 106.5,-0.5C 119.863,2.84136 129.196,10.8414 134.5,23.5C 134.5,52.5 134.5,81.5 134.5,110.5C 130.074,122.593 121.74,130.593 109.5,134.5C 81.5,134.5 53.5,134.5 25.5,134.5C 11.6545,129.987 2.98784,120.654 -0.5,106.5C -0.5,80.5 -0.5,54.5 -0.5,28.5C 1.80977,18.0608 7.47644,9.89413 16.5,4C 20.4324,1.9716 24.4324,0.471604 28.5,-0.5 Z"/></g>
<g><path style="opacity:1" fill="#fefefe" d="M 26.5,4.5 C 53.8354,4.33336 81.1687,4.50002 108.5,5C 119.667,8.16667 126.833,15.3333 130,26.5C 130.667,53.1667 130.667,79.8333 130,106.5C 126.635,119.863 118.135,127.697 104.5,130C 78.8333,130.667 53.1667,130.667 27.5,130C 15.5586,126.392 8.05856,118.559 5,106.5C 4.33333,79.8333 4.33333,53.1667 5,26.5C 8.35008,15.3177 15.5167,7.98437 26.5,4.5 Z"/></g>
<g><path style="opacity:1" fill="#4a84ef" d="M 63.5,53.5 C 60.9249,58.7447 57.9249,63.7447 54.5,68.5C 51.9184,75.2582 47.9184,81.0916 42.5,86C 29.371,89.207 23.2043,84.0404 24,70.5C 27.018,65.7349 30.3513,65.4016 34,69.5C 34.8952,71.8045 35.7285,74.1378 36.5,76.5C 37.8139,75.6872 38.9805,74.6872 40,73.5C 42.2463,65.1683 46.413,58.0016 52.5,52C 56.4748,51.013 60.1415,51.513 63.5,53.5 Z"/></g>
<g><path style="opacity:1" fill="#4884ee" d="M 76.5,75.5 C 78.1515,71.5258 79.8182,67.5258 81.5,63.5C 80.8108,61.556 80.3108,59.556 80,57.5C 76.9594,62.2478 74.4594,67.2478 72.5,72.5C 73.0463,80.6428 69.3797,84.1428 61.5,83C 59.5743,82.5776 58.5743,81.4109 58.5,79.5C 60.8901,71.7234 63.5568,64.0568 66.5,56.5C 69.1774,51.8107 73.1774,50.3107 78.5,52C 81.2272,54.9563 82.7272,58.4563 83,62.5C 86.5813,58.2477 90.748,54.7477 95.5,52C 99.8333,51.3333 104.167,51.3333 108.5,52C 112.298,59.2346 109.965,62.5679 101.5,62C 99.5,63 97.5,64 95.5,65C 91.8333,69.3333 88.1667,73.6667 84.5,78C 81.1827,78.9772 78.516,78.1438 76.5,75.5 Z"/></g>
<g><path style="opacity:1" fill="#417fd9" d="M 63.5,53.5 C 64.7281,54.3065 65.7281,55.3065 66.5,56.5C 63.5568,64.0568 60.8901,71.7234 58.5,79.5C 56.707,75.9905 55.3736,72.3238 54.5,68.5C 57.9249,63.7447 60.9249,58.7447 63.5,53.5 Z"/></g>
<g><path style="opacity:1" fill="#407fd9" d="M 76.5,75.5 C 75.3634,74.2112 74.0301,73.2112 72.5,72.5C 74.4594,67.2478 76.9594,62.2478 80,57.5C 80.3108,59.556 80.8108,61.556 81.5,63.5C 79.8182,67.5258 78.1515,71.5258 76.5,75.5 Z"/></g>
</svg>
