<?xml version="1.0" encoding="UTF-8"?>
<!DOCTYPE svg PUBLIC "-//W3C//DTD SVG 1.1//EN" "http://www.w3.org/Graphics/SVG/1.1/DTD/svg11.dtd">
<svg xmlns="http://www.w3.org/2000/svg" version="1.1" width="135px" height="135px" style="shape-rendering:geometricPrecision; text-rendering:geometricPrecision; image-rendering:optimizeQuality; fill-rule:evenodd; clip-rule:evenodd" xmlns:xlink="http://www.w3.org/1999/xlink">
<g><path style="opacity:0.973" fill="#3de1c6" d="M 18.5,-0.5 C 50.8333,-0.5 83.1667,-0.5 115.5,-0.5C 123.833,3.83333 130.167,10.1667 134.5,18.5C 134.5,50.5 134.5,82.5 134.5,114.5C 129.689,123.911 122.356,130.578 112.5,134.5C 82.1667,134.5 51.8333,134.5 21.5,134.5C 11.6445,130.578 4.31116,123.911 -0.5,114.5C -0.5,82.5 -0.5,50.5 -0.5,18.5C 3.83333,10.1667 10.1667,3.83333 18.5,-0.5 Z"/></g>
<g><path style="opacity:1" fill="#fefefe" d="M 27.5,5.5 C 53.8354,5.33336 80.1688,5.50003 106.5,6C 117.491,8.32612 124.658,14.8261 128,25.5C 128.667,52.5 128.667,79.5 128,106.5C 125.167,117.333 118.333,124.167 107.5,127C 80.1667,127.667 52.8333,127.667 25.5,127C 14.8169,123.649 8.31694,116.483 6,105.5C 5.33333,79.5 5.33333,53.5 6,27.5C 7.68198,21.0934 10.8486,15.5934 15.5,11C 19.71,9.39139 23.71,7.55805 27.5,5.5 Z"/></g>
<g><path style="opacity:1" fill="#3ae0c4" d="M 63.5,27.5 C 68.4819,27.9774 73.1486,29.644 77.5,32.5C 78.521,33.0016 78.6877,33.6683 78,34.5C 76.2467,35.627 74.4134,36.627 72.5,37.5C 70.5,36.5 68.5,35.5 66.5,34.5C 59.3372,38.2471 52.3372,42.2471 45.5,46.5C 54.1307,51.8191 62.7974,57.1524 71.5,62.5C 72.1667,73.1667 72.8333,83.8333 73.5,94.5C 80.5797,90.8784 87.4131,86.8784 94,82.5C 93.1313,76.9838 95.298,73.3171 100.5,71.5C 101.661,75.7953 101.828,80.1287 101,84.5C 100.535,85.9308 99.7014,87.0975 98.5,88C 87.8964,94.1315 77.2298,99.9649 66.5,105.5C 66.6666,92.4957 66.4999,79.4957 66,66.5C 54.7514,60.1262 43.5847,53.6262 32.5,47C 42.8976,40.4752 53.231,33.9752 63.5,27.5 Z"/></g>
<g><path style="opacity:1" fill="#37e0c4" d="M 96.5,70.5 C 95.8333,64.5 95.1667,58.5 94.5,52.5C 94.4894,50.9826 93.8228,49.8159 92.5,49C 87.0016,46.0852 81.6682,42.9185 76.5,39.5C 78.0294,37.8119 79.8627,36.4786 82,35.5C 88.671,39.0001 95.0043,43.0001 101,47.5C 101.667,54.1667 101.667,60.8333 101,67.5C 99.7292,68.8825 98.2292,69.8825 96.5,70.5 Z"/></g>
<g><path style="opacity:1" fill="#5de6d0" d="M 33.5,51.5 C 32.5054,62.3206 32.1721,73.3206 32.5,84.5C 31.176,73.3265 31.176,61.9931 32.5,50.5C 33.1067,50.6236 33.44,50.9569 33.5,51.5 Z"/></g>
<g><path style="opacity:1" fill="#3de0c5" d="M 33.5,51.5 C 34.8068,52.1534 36.1401,52.8201 37.5,53.5C 38.3321,63.1495 38.8321,72.8162 39,82.5C 47.0842,87.4593 55.2509,92.2926 63.5,97C 64.7766,99.4659 64.7766,101.966 63.5,104.5C 53.8333,99 44.1667,93.5 34.5,88C 33.1772,87.1841 32.5106,86.0174 32.5,84.5C 32.1721,73.3206 32.5054,62.3206 33.5,51.5 Z"/></g>
<g><path style="opacity:1" fill="#88eddd" d="M 94.5,52.5 C 95.1667,58.5 95.8333,64.5 96.5,70.5C 96.44,71.0431 96.1067,71.3764 95.5,71.5C 94.5037,65.2015 94.1703,58.8682 94.5,52.5 Z"/></g>
</svg>
