<?xml version="1.0" encoding="UTF-8"?>
<!DOCTYPE svg PUBLIC "-//W3C//DTD SVG 1.1//EN" "http://www.w3.org/Graphics/SVG/1.1/DTD/svg11.dtd">
<svg xmlns="http://www.w3.org/2000/svg" version="1.1" width="135px" height="135px" style="shape-rendering:geometricPrecision; text-rendering:geometricPrecision; image-rendering:optimizeQuality; fill-rule:evenodd; clip-rule:evenodd" xmlns:xlink="http://www.w3.org/1999/xlink">
<g><path style="opacity:0.94" fill="#2a2a2a" d="M 24.5,-0.5 C 53.1667,-0.5 81.8333,-0.5 110.5,-0.5C 122.008,3.00837 130.008,10.3417 134.5,21.5C 134.5,52.1667 134.5,82.8333 134.5,113.5C 129.75,123.25 122.417,130.25 112.5,134.5C 82.5,134.5 52.5,134.5 22.5,134.5C 11.438,129.771 3.77136,121.771 -0.5,110.5C -0.5,81.8333 -0.5,53.1667 -0.5,24.5C 3.5,11.8333 11.8333,3.5 24.5,-0.5 Z"/></g>
<g><path style="opacity:1" fill="#fcfcfc" d="M 26.5,3.5 C 53.8354,3.33336 81.1687,3.50002 108.5,4C 120,7.5 127.5,15 131,26.5C 131.667,53.5 131.667,80.5 131,107.5C 127.495,120.682 118.995,128.515 105.5,131C 79.8333,131.667 54.1667,131.667 28.5,131C 15.4396,128.228 7.27289,120.394 4,107.5C 3.33333,80.5 3.33333,53.5 4,26.5C 7.68399,14.9837 15.184,7.31707 26.5,3.5 Z"/></g>
<g><path style="opacity:1" fill="#282828" d="M 50.5,95.5 C 54.8333,94.8333 59.1667,94.1667 63.5,93.5C 64.7911,92.4583 64.7911,91.2917 63.5,90C 57.4725,89.8303 51.4725,89.3303 45.5,88.5C 44.2371,86.9713 43.2371,85.3046 42.5,83.5C 47.5,82.8333 52.5,82.1667 57.5,81.5C 58.4345,80.4324 58.7678,79.099 58.5,77.5C 52.1318,77.8297 45.7985,77.4963 39.5,76.5C 38.6279,74.5504 37.9612,72.5504 37.5,70.5C 47.8333,69.8333 58.1667,69.1667 68.5,68.5C 69.8009,67.1155 69.8009,65.6155 68.5,64C 57.505,63.5002 46.505,63.3335 35.5,63.5C 35.5,60.5 35.5,57.5 35.5,54.5C 43.1667,54.5 50.8333,54.5 58.5,54.5C 58.7135,52.8561 58.3802,51.3561 57.5,50C 49.8406,49.5003 42.1739,49.3336 34.5,49.5C 34.5,45.8333 34.5,42.1667 34.5,38.5C 41.6072,38.0456 48.6072,36.8789 55.5,35C 59.3743,32.8185 63.541,31.3185 68,30.5C 78.3606,35.0063 89.1939,37.673 100.5,38.5C 101.337,54.4758 98.8371,69.8092 93,84.5C 87.0737,94.4312 78.7404,101.431 68,105.5C 64.5098,104.018 61.0098,102.518 57.5,101C 55.5779,98.5705 53.2446,96.7372 50.5,95.5 Z"/></g>
<g><path style="opacity:1" fill="#a7a7a7" d="M 68.5,68.5 C 58.1667,69.1667 47.8333,69.8333 37.5,70.5C 36.9569,70.44 36.6236,70.1067 36.5,69.5C 47.1459,68.5013 57.8126,68.168 68.5,68.5 Z"/></g>
<g><path style="opacity:1" fill="#686868" d="M 57.5,81.5 C 52.5,82.1667 47.5,82.8333 42.5,83.5C 41.9569,83.44 41.6236,83.1067 41.5,82.5C 46.7921,81.5052 52.1254,81.1718 57.5,81.5 Z"/></g>
<g><path style="opacity:1" fill="#c1c1c1" d="M 63.5,93.5 C 59.1667,94.1667 54.8333,94.8333 50.5,95.5C 49.9569,95.44 49.6236,95.1067 49.5,94.5C 54.1196,93.5067 58.7863,93.1734 63.5,93.5 Z"/></g>
</svg>
