<?xml version="1.0" encoding="UTF-8"?>
<!DOCTYPE svg PUBLIC "-//W3C//DTD SVG 1.1//EN" "http://www.w3.org/Graphics/SVG/1.1/DTD/svg11.dtd">
<svg xmlns="http://www.w3.org/2000/svg" version="1.1" width="135px" height="135px" style="shape-rendering:geometricPrecision; text-rendering:geometricPrecision; image-rendering:optimizeQuality; fill-rule:evenodd; clip-rule:evenodd" xmlns:xlink="http://www.w3.org/1999/xlink">
<g><path style="opacity:0.947" fill="#3f3f3f" d="M 20.5,-0.5 C 51.8333,-0.5 83.1667,-0.5 114.5,-0.5C 123.114,3.78058 129.781,10.1139 134.5,18.5C 134.5,51.1667 134.5,83.8333 134.5,116.5C 130.113,124.554 123.779,130.554 115.5,134.5C 83.5,134.5 51.5,134.5 19.5,134.5C 10.0813,130.082 3.41467,123.082 -0.5,113.5C -0.5,82.5 -0.5,51.5 -0.5,20.5C 4.16667,11.1667 11.1667,4.16667 20.5,-0.5 Z"/></g>
<g><path style="opacity:1" fill="#fdfdfd" d="M 26.5,2.5 C 53.1687,2.33336 79.8354,2.50003 106.5,3C 119.485,5.98554 127.985,13.8189 132,26.5C 132.667,52.8333 132.667,79.1667 132,105.5C 129.721,119.113 121.887,127.613 108.5,131C 80.5,131.667 52.5,131.667 24.5,131C 12.2698,126.77 5.10317,118.27 3,105.5C 2.33333,79.1667 2.33333,52.8333 3,26.5C 7.01788,14.6498 14.8512,6.6498 26.5,2.5 Z"/></g>
<g><path style="opacity:1" fill="#3c3c3c" d="M 109.5,72.5 C 108.144,78.5842 106.144,84.5842 103.5,90.5C 89.387,108.699 71.387,113.865 49.5,106C 26.1507,90.2432 20.6507,69.7432 33,44.5C 48.8456,24.9196 68.0122,21.0863 90.5,33C 104.938,42.2279 111.272,55.3945 109.5,72.5 Z"/></g>
<g><path style="opacity:1" fill="#2c81e4" d="M 63.5,37.5 C 63.5,39.5 63.5,41.5 63.5,43.5C 62.1667,43.5 60.8333,43.5 59.5,43.5C 59.5,41.5 59.5,39.5 59.5,37.5C 60.8333,37.5 62.1667,37.5 63.5,37.5 Z"/></g>
<g><path style="opacity:1" fill="#f8f8f8" d="M 63.5,37.5 C 67.5,37.5 71.5,37.5 75.5,37.5C 75.5,39.5 75.5,41.5 75.5,43.5C 79.5,43.5 83.5,43.5 87.5,43.5C 87.5,45.5 87.5,47.5 87.5,49.5C 89.5,49.5 91.5,49.5 93.5,49.5C 93.5,53.5 93.5,57.5 93.5,61.5C 89.5,61.5 85.5,61.5 81.5,61.5C 81.5,59.5 81.5,57.5 81.5,55.5C 80.1667,55.5 78.8333,55.5 77.5,55.5C 76.8333,55.5 76.1667,55.5 75.5,55.5C 75.5,53.5 75.5,51.5 75.5,49.5C 74.1667,49.5 72.8333,49.5 71.5,49.5C 68.8333,49.5 66.1667,49.5 63.5,49.5C 63.5,51.5 63.5,53.5 63.5,55.5C 61.5,55.5 59.5,55.5 57.5,55.5C 57.5,63.5 57.5,71.5 57.5,79.5C 59.5,79.5 61.5,79.5 63.5,79.5C 63.5,81.5 63.5,83.5 63.5,85.5C 66.1667,85.5 68.8333,85.5 71.5,85.5C 72.8333,85.5 74.1667,85.5 75.5,85.5C 75.5,83.5 75.5,81.5 75.5,79.5C 76.1667,79.5 76.8333,79.5 77.5,79.5C 78.8333,79.5 80.1667,79.5 81.5,79.5C 81.5,77.5 81.5,75.5 81.5,73.5C 85.5,73.5 89.5,73.5 93.5,73.5C 93.5,77.5 93.5,81.5 93.5,85.5C 91.5,85.5 89.5,85.5 87.5,85.5C 87.5,87.5 87.5,89.5 87.5,91.5C 83.5,91.5 79.5,91.5 75.5,91.5C 75.5,93.5 75.5,95.5 75.5,97.5C 71.5,97.5 67.5,97.5 63.5,97.5C 63.5,95.5 63.5,93.5 63.5,91.5C 62.1667,91.5 60.8333,91.5 59.5,91.5C 56.8333,91.5 54.1667,91.5 51.5,91.5C 51.5,89.5 51.5,87.5 51.5,85.5C 50.1667,85.5 48.8333,85.5 47.5,85.5C 46.8333,85.5 46.1667,85.5 45.5,85.5C 45.5,79.5 45.5,73.5 45.5,67.5C 45.5,61.5 45.5,55.5 45.5,49.5C 46.1667,49.5 46.8333,49.5 47.5,49.5C 48.8333,49.5 50.1667,49.5 51.5,49.5C 51.5,47.5 51.5,45.5 51.5,43.5C 54.1667,43.5 56.8333,43.5 59.5,43.5C 60.8333,43.5 62.1667,43.5 63.5,43.5C 63.5,41.5 63.5,39.5 63.5,37.5 Z"/></g>
<g><path style="opacity:1" fill="#65d7a5" d="M 51.5,43.5 C 51.5,45.5 51.5,47.5 51.5,49.5C 50.1667,49.5 48.8333,49.5 47.5,49.5C 47.5,47.5 47.5,45.5 47.5,43.5C 48.8333,43.5 50.1667,43.5 51.5,43.5 Z"/></g>
<g><path style="opacity:1" fill="#3387e8" d="M 71.5,49.5 C 72.8333,49.5 74.1667,49.5 75.5,49.5C 75.5,51.5 75.5,53.5 75.5,55.5C 74.1667,55.5 72.8333,55.5 71.5,55.5C 71.5,53.5 71.5,51.5 71.5,49.5 Z"/></g>
<g><path style="opacity:1" fill="#5fd8a1" d="M 45.5,49.5 C 45.5,55.5 45.5,61.5 45.5,67.5C 44.1667,67.5 42.8333,67.5 41.5,67.5C 41.5,61.5 41.5,55.5 41.5,49.5C 42.8333,49.5 44.1667,49.5 45.5,49.5 Z"/></g>
<g><path style="opacity:1" fill="#287ddf" d="M 77.5,55.5 C 78.8333,55.5 80.1667,55.5 81.5,55.5C 81.5,57.5 81.5,59.5 81.5,61.5C 80.1667,61.5 78.8333,61.5 77.5,61.5C 77.5,59.5 77.5,57.5 77.5,55.5 Z"/></g>
<g><path style="opacity:1" fill="#f1ba3f" d="M 41.5,67.5 C 42.8333,67.5 44.1667,67.5 45.5,67.5C 45.5,73.5 45.5,79.5 45.5,85.5C 44.1667,85.5 42.8333,85.5 41.5,85.5C 41.5,79.5 41.5,73.5 41.5,67.5 Z"/></g>
<g><path style="opacity:1" fill="#e05d5c" d="M 81.5,73.5 C 81.5,75.5 81.5,77.5 81.5,79.5C 80.1667,79.5 78.8333,79.5 77.5,79.5C 77.5,77.5 77.5,75.5 77.5,73.5C 78.8333,73.5 80.1667,73.5 81.5,73.5 Z"/></g>
<g><path style="opacity:1" fill="#c5c5c5" d="M 109.5,72.5 C 110.036,79.5596 108.036,85.5596 103.5,90.5C 106.144,84.5842 108.144,78.5842 109.5,72.5 Z"/></g>
<g><path style="opacity:1" fill="#e05f5e" d="M 75.5,79.5 C 75.5,81.5 75.5,83.5 75.5,85.5C 74.1667,85.5 72.8333,85.5 71.5,85.5C 71.5,83.5 71.5,81.5 71.5,79.5C 72.8333,79.5 74.1667,79.5 75.5,79.5 Z"/></g>
<g><path style="opacity:1" fill="#efbf4f" d="M 47.5,85.5 C 48.8333,85.5 50.1667,85.5 51.5,85.5C 51.5,87.5 51.5,89.5 51.5,91.5C 50.1667,91.5 48.8333,91.5 47.5,91.5C 47.5,89.5 47.5,87.5 47.5,85.5 Z"/></g>
<g><path style="opacity:1" fill="#ee6969" d="M 59.5,91.5 C 60.8333,91.5 62.1667,91.5 63.5,91.5C 63.5,93.5 63.5,95.5 63.5,97.5C 62.1667,97.5 60.8333,97.5 59.5,97.5C 59.5,95.5 59.5,93.5 59.5,91.5 Z"/></g>
</svg>
