<?xml version="1.0" encoding="UTF-8"?>
<!DOCTYPE svg PUBLIC "-//W3C//DTD SVG 1.1//EN" "http://www.w3.org/Graphics/SVG/1.1/DTD/svg11.dtd">
<svg xmlns="http://www.w3.org/2000/svg" version="1.1" width="135px" height="135px" style="shape-rendering:geometricPrecision; text-rendering:geometricPrecision; image-rendering:optimizeQuality; fill-rule:evenodd; clip-rule:evenodd" xmlns:xlink="http://www.w3.org/1999/xlink">
<g><path style="opacity:0.945" fill="#134b83" d="M 25.5,-0.5 C 53.5,-0.5 81.5,-0.5 109.5,-0.5C 120.922,3.25164 129.256,10.585 134.5,21.5C 134.5,51.8333 134.5,82.1667 134.5,112.5C 130.103,123.23 122.436,130.563 111.5,134.5C 82.1667,134.5 52.8333,134.5 23.5,134.5C 11.4067,130.074 3.40671,121.74 -0.5,109.5C -0.5,81.5 -0.5,53.5 -0.5,25.5C 3.83333,12.5 12.5,3.83333 25.5,-0.5 Z"/></g>
<g><path style="opacity:1" fill="#fcfdfd" d="M 27.5,3.5 C 53.5021,3.33336 79.5021,3.50003 105.5,4C 118.955,6.47451 127.455,14.3078 131,27.5C 131.667,53.8333 131.667,80.1667 131,106.5C 127.798,119.035 119.965,126.869 107.5,130C 80.1667,130.667 52.8333,130.667 25.5,130C 14.1669,125.999 7.0002,118.166 4,106.5C 3.33333,80.1667 3.33333,53.8333 4,27.5C 5.39231,21.7863 8.05898,16.7863 12,12.5C 16.5995,8.37379 21.7662,5.37379 27.5,3.5 Z"/></g>
<g><path style="opacity:1" fill="#17487d" d="M 70.5,31.5 C 83.058,29.7625 94.2246,32.7625 104,40.5C 112.981,54.4746 112.315,68.1412 102,81.5C 93.4913,90.8394 82.9913,96.6728 70.5,99C 57.1667,99.6667 43.8333,99.6667 30.5,99C 34.5495,83.9673 38.2162,68.8007 41.5,53.5C 45.5138,53.6655 49.5138,53.4988 53.5,53C 54.3092,49.8033 55.3092,46.6367 56.5,43.5C 60.5,42.8333 64.5,42.1667 68.5,41.5C 69.5514,38.243 70.2181,34.9097 70.5,31.5 Z"/></g>
<g><path style="opacity:1" fill="#f2f5f8" d="M 74.5,35.5 C 88.711,34.162 98.8776,39.8287 105,52.5C 106.732,65.8752 102.232,76.7085 91.5,85C 84.6917,90.2358 77.025,93.5692 68.5,95C 57.8177,95.8324 47.1511,95.6657 36.5,94.5C 39.3782,82.868 42.2116,71.2013 45,59.5C 47.1791,57.3628 49.6791,57.0295 52.5,58.5C 50.0079,68.8014 47.6746,79.1347 45.5,89.5C 55.9457,89.9613 66.279,89.128 76.5,87C 93.7311,80.6999 99.8978,68.8666 95,51.5C 89.8126,43.9949 82.646,40.9949 73.5,42.5C 73.9926,40.1944 74.3259,37.861 74.5,35.5 Z"/></g>
<g><path style="opacity:1" fill="#f7f9fb" d="M 77.5,53.5 C 71.5,52.8333 65.5,52.1667 59.5,51.5C 59.2865,49.8561 59.6198,48.3561 60.5,47C 67.1667,46.3333 73.8333,46.3333 80.5,47C 91.6442,50.7929 95.1442,58.2929 91,69.5C 88.0892,75.9181 83.2559,79.9181 76.5,81.5C 76.1046,78.3138 75.1046,75.3138 73.5,72.5C 76.4274,70.7563 79.2608,68.7563 82,66.5C 83.4833,63.2976 83.8166,59.9643 83,56.5C 81.5123,54.84 79.679,53.84 77.5,53.5 Z"/></g>
<g><path style="opacity:1" fill="#a5b8ca" d="M 59.5,51.5 C 65.5,52.1667 71.5,52.8333 77.5,53.5C 71.1318,53.8297 64.7985,53.4963 58.5,52.5C 58.6236,51.8933 58.9569,51.56 59.5,51.5 Z"/></g>
<g><path style="opacity:1" fill="#f5f7f9" d="M 57.5,57.5 C 63.5092,57.3338 69.5092,57.5005 75.5,58C 79.6802,61.1477 79.3469,63.8143 74.5,66C 69.8333,66.3333 65.1667,66.6667 60.5,67C 59.6198,68.3561 59.2865,69.8561 59.5,71.5C 62.1873,71.3359 64.854,71.5026 67.5,72C 68.7259,75.8433 70.0592,79.6766 71.5,83.5C 64.8665,84.4967 58.1998,84.83 51.5,84.5C 53.6579,75.5349 55.6579,66.5349 57.5,57.5 Z"/></g>
</svg>
