<?xml version="1.0" encoding="UTF-8"?>
<!DOCTYPE svg PUBLIC "-//W3C//DTD SVG 1.1//EN" "http://www.w3.org/Graphics/SVG/1.1/DTD/svg11.dtd">
<svg xmlns="http://www.w3.org/2000/svg" version="1.1" width="135px" height="135px" style="shape-rendering:geometricPrecision; text-rendering:geometricPrecision; image-rendering:optimizeQuality; fill-rule:evenodd; clip-rule:evenodd" xmlns:xlink="http://www.w3.org/1999/xlink">
<g><path style="opacity:0.943" fill="#4d6fdb" d="M 25.5,-0.5 C 53.5,-0.5 81.5,-0.5 109.5,-0.5C 120.922,3.25164 129.256,10.585 134.5,21.5C 134.5,51.8333 134.5,82.1667 134.5,112.5C 130.103,123.23 122.436,130.563 111.5,134.5C 82.1667,134.5 52.8333,134.5 23.5,134.5C 11.4067,130.074 3.40671,121.74 -0.5,109.5C -0.5,81.5 -0.5,53.5 -0.5,25.5C 3.83333,12.5 12.5,3.83333 25.5,-0.5 Z"/></g>
<g><path style="opacity:1" fill="#fdfdfe" d="M 27.5,3.5 C 53.5021,3.33336 79.5021,3.50003 105.5,4C 119.113,6.27936 127.613,14.1127 131,27.5C 131.667,53.1667 131.667,78.8333 131,104.5C 128.697,118.135 120.863,126.635 107.5,130C 80.1667,130.667 52.8333,130.667 25.5,130C 13.2657,125.766 6.09903,117.266 4,104.5C 3.33333,78.8333 3.33333,53.1667 4,27.5C 7.34904,14.9853 15.1824,6.98533 27.5,3.5 Z"/></g>
<g><path style="opacity:1" fill="#486bda" d="M 26.5,76.5 C 25.2045,70.1361 25.2045,63.8027 26.5,57.5C 30.9302,40.5695 41.5968,29.7362 58.5,25C 82.3935,21.5252 99.2269,30.6919 109,52.5C 114.519,74.9589 107.686,92.4589 88.5,105C 62.6802,115.096 42.8469,108.263 29,84.5C 28.0594,81.846 27.2261,79.1794 26.5,76.5 Z"/></g>
<g><path style="opacity:1" fill="#f8f9fd" d="M 95.5,53.5 C 92.1016,53.1796 88.7683,53.513 85.5,54.5C 85.6236,55.1067 85.9569,55.44 86.5,55.5C 86.5,58.1667 86.5,60.8333 86.5,63.5C 89.8333,63.5 93.1667,63.5 96.5,63.5C 96.5,65.8333 96.5,68.1667 96.5,70.5C 93.1667,70.5 89.8333,70.5 86.5,70.5C 86.7771,73.4475 86.4438,76.2809 85.5,79C 88.8333,79.3333 92.1667,79.6667 95.5,80C 96.4061,81.6995 96.7394,83.5328 96.5,85.5C 78.1979,86.6274 59.8646,86.794 41.5,86C 39.3799,84.4773 39.0465,82.6439 40.5,80.5C 43.8333,79.8333 47.1667,79.1667 50.5,78.5C 49.6072,75.9159 49.2739,73.2492 49.5,70.5C 46.4816,70.6646 43.4816,70.498 40.5,70C 38.9797,67.4485 39.3131,65.2818 41.5,63.5C 44.5,63.5 47.5,63.5 50.5,63.5C 50.5,60.8333 50.5,58.1667 50.5,55.5C 51.0431,55.44 51.3764,55.1067 51.5,54.5C 48.2317,53.513 44.8984,53.1796 41.5,53.5C 38.8609,51.162 39.1942,48.9953 42.5,47C 59.1667,46.3333 75.8333,46.3333 92.5,47C 96.3754,47.9257 97.3754,50.0924 95.5,53.5 Z"/></g>
<g><path style="opacity:1" fill="#8ca1e8" d="M 41.5,53.5 C 44.8984,53.1796 48.2317,53.513 51.5,54.5C 51.3764,55.1067 51.0431,55.44 50.5,55.5C 47.5,54.8333 44.5,54.1667 41.5,53.5 Z"/></g>
<g><path style="opacity:1" fill="#889fe7" d="M 95.5,53.5 C 92.5,54.1667 89.5,54.8333 86.5,55.5C 85.9569,55.44 85.6236,55.1067 85.5,54.5C 88.7683,53.513 92.1016,53.1796 95.5,53.5 Z"/></g>
<g><path style="opacity:1" fill="#4d6cdb" d="M 61.5,54.5 C 65.8461,54.3343 70.1794,54.501 74.5,55C 75.4162,55.3742 76.2496,55.8742 77,56.5C 77.3108,58.556 77.8108,60.556 78.5,62.5C 71.8665,63.4967 65.1998,63.83 58.5,63.5C 57.9238,59.8875 58.9238,56.8875 61.5,54.5 Z"/></g>
<g><path style="opacity:1" fill="#99acea" d="M 50.5,55.5 C 50.5,58.1667 50.5,60.8333 50.5,63.5C 47.5,63.5 44.5,63.5 41.5,63.5C 43.9479,62.5269 46.6146,62.1936 49.5,62.5C 49.1984,59.9407 49.5318,57.6074 50.5,55.5 Z"/></g>
<g><path style="opacity:1" fill="#b2c1ef" d="M 26.5,57.5 C 25.2045,63.8027 25.2045,70.1361 26.5,76.5C 25.8826,76.3893 25.3826,76.056 25,75.5C 24.8333,72.5 24.6667,69.5 24.5,66.5C 24.517,63.0866 25.1836,60.0866 26.5,57.5 Z"/></g>
<g><path style="opacity:1" fill="#476ada" d="M 58.5,70.5 C 65.1667,70.5 71.8333,70.5 78.5,70.5C 78.1973,77.4613 74.5306,80.4613 67.5,79.5C 60.8272,80.1605 57.8272,77.1605 58.5,70.5 Z"/></g>
</svg>
