<?xml version="1.0" encoding="UTF-8"?>
<!DOCTYPE svg PUBLIC "-//W3C//DTD SVG 1.1//EN" "http://www.w3.org/Graphics/SVG/1.1/DTD/svg11.dtd">
<svg xmlns="http://www.w3.org/2000/svg" version="1.1" width="135px" height="135px" style="shape-rendering:geometricPrecision; text-rendering:geometricPrecision; image-rendering:optimizeQuality; fill-rule:evenodd; clip-rule:evenodd" xmlns:xlink="http://www.w3.org/1999/xlink">
<g><path style="opacity:0.893" fill="#1ab0f7" d="M 28.5,-0.5 C 54.5,-0.5 80.5,-0.5 106.5,-0.5C 119.798,2.79333 129.132,10.7933 134.5,23.5C 134.5,52.5 134.5,81.5 134.5,110.5C 130.074,122.593 121.74,130.593 109.5,134.5C 81.5,134.5 53.5,134.5 25.5,134.5C 11.2037,129.871 2.53705,120.204 -0.5,105.5C -0.5,79.8333 -0.5,54.1667 -0.5,28.5C 3.5,13.1667 13.1667,3.5 28.5,-0.5 Z"/></g>
<g><path style="opacity:1" fill="#fdfefe" d="M 26.5,4.5 C 53.1687,4.33336 79.8354,4.50003 106.5,5C 118.395,7.70207 126.229,14.8687 130,26.5C 130.667,53.1667 130.667,79.8333 130,106.5C 126.613,119.887 118.113,127.721 104.5,130C 78.8333,130.667 53.1667,130.667 27.5,130C 15.5586,126.392 8.05856,118.559 5,106.5C 4.33333,79.8333 4.33333,53.1667 5,26.5C 8.68463,15.6498 15.8513,8.31647 26.5,4.5 Z"/></g>
<g><path style="opacity:1" fill="#0facf5" d="M 66.5,26.5 C 72.7664,34.1813 78.433,42.348 83.5,51C 78.3954,67.9017 72.8954,84.735 67,101.5C 61.0737,84.8121 55.5737,67.9787 50.5,51C 55.7132,42.7362 61.0466,34.5695 66.5,26.5 Z"/></g>
<g><path style="opacity:1" fill="#1eacf3" d="M 84.5,59.5 C 86.3974,61.2688 87.564,63.6021 88,66.5C 89.831,75.4725 91.1644,84.4725 92,93.5C 85.3038,98.3621 78.4705,103.029 71.5,107.5C 71.1667,107 70.8333,106.5 70.5,106C 75.6814,90.6252 80.348,75.1252 84.5,59.5 Z"/></g>
<g><path style="opacity:1" fill="#1bacf4" d="M 47.5,59.5 C 49.6477,62.4026 51.1477,65.7359 52,69.5C 56.3076,82.0777 59.9743,94.7444 63,107.5C 55.728,103.226 48.728,98.5589 42,93.5C 43.116,82.0812 44.9493,70.7479 47.5,59.5 Z"/></g>
</svg>
