<?xml version="1.0" encoding="UTF-8"?>
<!DOCTYPE svg PUBLIC "-//W3C//DTD SVG 1.1//EN" "http://www.w3.org/Graphics/SVG/1.1/DTD/svg11.dtd">
<svg xmlns="http://www.w3.org/2000/svg" version="1.1" width="135px" height="135px" style="shape-rendering:geometricPrecision; text-rendering:geometricPrecision; image-rendering:optimizeQuality; fill-rule:evenodd; clip-rule:evenodd" xmlns:xlink="http://www.w3.org/1999/xlink">
<g><path style="opacity:0.942" fill="#2a99fd" d="M 24.5,-0.5 C 52.8333,-0.5 81.1667,-0.5 109.5,-0.5C 115.486,1.91489 120.986,5.24823 126,9.5C 129.661,14.4933 132.494,19.8266 134.5,25.5C 134.5,53.1667 134.5,80.8333 134.5,108.5C 132.494,114.173 129.661,119.507 126,124.5C 120.986,128.752 115.486,132.085 109.5,134.5C 81.1667,134.5 52.8333,134.5 24.5,134.5C 18.5144,132.085 13.0144,128.752 8,124.5C 4.33905,119.507 1.50572,114.173 -0.5,108.5C -0.5,80.8333 -0.5,53.1667 -0.5,25.5C 1.50572,19.8266 4.33905,14.4933 8,9.5C 13.0144,5.24823 18.5144,1.91489 24.5,-0.5 Z"/></g>
<g><path style="opacity:1" fill="#fdfefe" d="M 26.5,3.5 C 52.5021,3.33336 78.5021,3.50003 104.5,4C 117.668,6.16617 126.168,13.6662 130,26.5C 130.667,52.5 130.667,78.5 130,104.5C 127.621,118.546 119.454,127.046 105.5,130C 79.1667,130.667 52.8333,130.667 26.5,130C 13.6662,126.168 6.16617,117.668 4,104.5C 3.33333,78.5 3.33333,52.5 4,26.5C 7.68399,14.9837 15.184,7.31707 26.5,3.5 Z"/></g>
<g><path style="opacity:1" fill="#edf1f5" d="M 61.5,25.5 C 87.2192,25.2637 103.053,37.5971 109,62.5C 108.646,95.8538 91.8129,111.687 58.5,110C 33.3784,102.527 22.2117,85.6939 25,59.5C 30.5178,40.997 42.6844,29.6636 61.5,25.5 Z"/></g>
<g><path style="opacity:1" fill="#5878f5" d="M 97.5,48.5 C 99.9786,51.72 101.812,55.3867 103,59.5C 103.818,65.3487 103.652,71.0154 102.5,76.5C 102.477,74.0733 101.977,71.74 101,69.5C 97.9729,73.1938 94.6396,76.5271 91,79.5C 90.7216,78.5842 90.2216,77.9175 89.5,77.5C 92.6331,69.9039 92.1331,62.5706 88,55.5C 87.3292,54.7476 86.4959,54.4142 85.5,54.5C 84.5218,53.7029 84.8551,53.0362 86.5,52.5C 87.5,53.1667 88.5,53.8333 89.5,54.5C 91.921,52.0663 94.5877,50.0663 97.5,48.5 Z"/></g>
<g><path style="opacity:1" fill="#f0f5fe" d="M 71.5,56.5 C 73.7217,57.5361 74.8884,59.2028 75,61.5C 74.4387,62.0219 73.772,62.3552 73,62.5C 69.3811,58.2093 66.2144,58.5427 63.5,63.5C 71.3131,65.6079 70.9797,67.2746 62.5,68.5C 71.3537,69.3951 71.6871,71.0617 63.5,73.5C 63.9767,74.4776 64.6433,75.3109 65.5,76C 68.7286,76.5862 71.7286,76.0862 74.5,74.5C 75.525,74.8966 75.6917,75.5632 75,76.5C 71.9595,80.4832 68.1262,81.4832 63.5,79.5C 61.3311,77.6597 59.9977,75.3263 59.5,72.5C 53.1749,72.504 52.8415,71.1707 58.5,68.5C 57.3112,67.5713 55.9778,67.238 54.5,67.5C 55.0483,64.9162 56.715,63.9162 59.5,64.5C 60.4995,57.5181 64.4995,54.8514 71.5,56.5 Z"/></g>
<g><path style="opacity:1" fill="#f4f6fe" d="M 85.5,54.5 C 86.4959,54.4142 87.3292,54.7476 88,55.5C 92.1331,62.5706 92.6331,69.9039 89.5,77.5C 85.9153,85.4196 79.9153,90.4196 71.5,92.5C 64.159,93.2705 57.4923,91.6038 51.5,87.5C 51.5,85.5 52.5,84.5 54.5,84.5C 68.0769,92.14 78.5769,89.14 86,75.5C 87.6318,71.4076 87.7985,67.4076 86.5,63.5C 86.2761,61.2133 85.6094,59.0466 84.5,57C 84.7432,56.0979 85.0766,55.2646 85.5,54.5 Z"/></g>
<g><path style="opacity:1" fill="#beb5b5" d="M 71.5,31.5 C 69.1667,31.5 66.8333,31.5 64.5,31.5C 49.3583,33.3203 38.3583,40.987 31.5,54.5C 36.5034,40.4651 46.5034,32.2985 61.5,30C 63.1667,29.8333 64.8333,29.6667 66.5,29.5C 68.6397,29.5561 70.3064,30.2227 71.5,31.5 Z"/></g>
<g><path style="opacity:1" fill="#3394fc" d="M 74.5,49.5 C 72.1525,52.337 69.1525,54.1704 65.5,55C 67.7078,55.1909 69.7078,55.6909 71.5,56.5C 64.4995,54.8514 60.4995,57.5181 59.5,64.5C 56.715,63.9162 55.0483,64.9162 54.5,67.5C 53.0543,71.5571 51.0543,74.5571 48.5,76.5C 43.5661,62.5309 48.2328,53.0309 62.5,48C 66.6947,47.191 70.6947,47.691 74.5,49.5 Z"/></g>
<g><path style="opacity:1" fill="#eff6fe" d="M 60.5,43.5 C 67.2687,42.7507 73.602,43.9174 79.5,47C 81.1412,48.129 82.1412,49.629 82.5,51.5C 81.7354,51.9234 80.9021,52.2568 80,52.5C 78.2691,51.259 76.4358,50.259 74.5,49.5C 70.6947,47.691 66.6947,47.191 62.5,48C 48.2328,53.0309 43.5661,62.5309 48.5,76.5C 50.2905,78.909 49.7905,80.5757 47,81.5C 45.6898,80.8699 44.8565,79.8699 44.5,78.5C 39.8128,62.2099 45.1461,50.5433 60.5,43.5 Z"/></g>
<g><path style="opacity:1" fill="#4486f9" d="M 89.5,39.5 C 92.9031,41.8998 95.5698,44.8998 97.5,48.5C 94.5877,50.0663 91.921,52.0663 89.5,54.5C 88.5,53.8333 87.5,53.1667 86.5,52.5C 84.8551,53.0362 84.5218,53.7029 85.5,54.5C 85.0766,55.2646 84.7432,56.0979 84.5,57C 85.6094,59.0466 86.2761,61.2133 86.5,63.5C 83.2482,65.7441 80.2482,68.4108 77.5,71.5C 76.2054,72.0983 74.8721,72.5983 73.5,73C 74.056,73.3826 74.3893,73.8826 74.5,74.5C 71.7286,76.0862 68.7286,76.5862 65.5,76C 64.6433,75.3109 63.9767,74.4776 63.5,73.5C 71.6871,71.0617 71.3537,69.3951 62.5,68.5C 70.9797,67.2746 71.3131,65.6079 63.5,63.5C 66.2144,58.5427 69.3811,58.2093 73,62.5C 73.772,62.3552 74.4387,62.0219 75,61.5C 74.8884,59.2028 73.7217,57.5361 71.5,56.5C 69.7078,55.6909 67.7078,55.1909 65.5,55C 69.1525,54.1704 72.1525,52.337 74.5,49.5C 76.4358,50.259 78.2691,51.259 80,52.5C 80.9021,52.2568 81.7354,51.9234 82.5,51.5C 85.3642,48.8906 88.0308,46.0573 90.5,43C 90.2409,41.7387 89.5742,40.7387 88.5,40C 88.7284,39.6012 89.0618,39.4346 89.5,39.5 Z"/></g>
<g><path style="opacity:1" fill="#378efa" d="M 78.5,33.5 C 82.6553,34.7417 86.322,36.7417 89.5,39.5C 89.0618,39.4346 88.7284,39.6012 88.5,40C 89.5742,40.7387 90.2409,41.7387 90.5,43C 88.0308,46.0573 85.3642,48.8906 82.5,51.5C 82.1412,49.629 81.1412,48.129 79.5,47C 73.602,43.9174 67.2687,42.7507 60.5,43.5C 63.6414,42.6787 66.9748,42.1787 70.5,42C 72.5,39.3333 74.8333,37 77.5,35C 75.0684,33.9125 75.4017,33.4125 78.5,33.5 Z"/></g>
<g><path style="opacity:1" fill="#27a2fa" d="M 64.5,31.5 C 63.3192,33.0672 61.6526,33.9005 59.5,34C 50.6825,43.9844 41.3492,53.4844 31.5,62.5C 30.5091,66.4454 30.1758,70.4454 30.5,74.5C 29.3486,68.9845 29.3486,63.3178 30.5,57.5C 31.404,56.791 31.7373,55.791 31.5,54.5C 38.3583,40.987 49.3583,33.3203 64.5,31.5 Z"/></g>
<g><path style="opacity:1" fill="#269cfd" d="M 64.5,31.5 C 66.8333,31.5 69.1667,31.5 71.5,31.5C 72.8333,31.5 74.1667,31.5 75.5,31.5C 76.5,32.1667 77.5,32.8333 78.5,33.5C 75.4017,33.4125 75.0684,33.9125 77.5,35C 74.8333,37 72.5,39.3333 70.5,42C 66.9748,42.1787 63.6414,42.6787 60.5,43.5C 45.1461,50.5433 39.8128,62.2099 44.5,78.5C 40.9537,79.8716 38.1204,82.205 36,85.5C 35.2208,82.9028 34.7208,82.9028 34.5,85.5C 32.0103,82.3743 30.677,78.7076 30.5,74.5C 30.1758,70.4454 30.5091,66.4454 31.5,62.5C 41.3492,53.4844 50.6825,43.9844 59.5,34C 61.6526,33.9005 63.3192,33.0672 64.5,31.5 Z"/></g>
<g><path style="opacity:1" fill="#bcb9b7" d="M 75.5,31.5 C 90.9781,34.8097 100.811,44.1431 105,59.5C 107.563,83.5654 97.3962,99.0654 74.5,106C 42.1789,107.345 27.0123,91.8452 29,59.5C 29.2784,58.5842 29.7784,57.9175 30.5,57.5C 29.3486,63.3178 29.3486,68.9845 30.5,74.5C 30.677,78.7076 32.0103,82.3743 34.5,85.5C 35.4432,88.4001 37.1099,90.7334 39.5,92.5C 43.8431,98.17 49.5097,101.837 56.5,103.5C 73.4713,107.787 87.3047,102.787 98,88.5C 100.354,84.797 101.854,80.797 102.5,76.5C 103.652,71.0154 103.818,65.3487 103,59.5C 101.812,55.3867 99.9786,51.72 97.5,48.5C 95.5698,44.8998 92.9031,41.8998 89.5,39.5C 86.322,36.7417 82.6553,34.7417 78.5,33.5C 77.5,32.8333 76.5,32.1667 75.5,31.5 Z"/></g>
<g><path style="opacity:1" fill="#4b83f8" d="M 51.5,87.5 C 57.4923,91.6038 64.159,93.2705 71.5,92.5C 68.3046,93.236 64.9713,93.9027 61.5,94.5C 60.2164,97.7658 58.5498,100.766 56.5,103.5C 49.5097,101.837 43.8431,98.17 39.5,92.5C 39.4346,92.0618 39.6012,91.7284 40,91.5C 40.8373,93.0074 42.0039,93.5074 43.5,93C 46.0402,90.7953 48.2068,88.2953 50,85.5C 50.2784,86.4158 50.7784,87.0825 51.5,87.5 Z"/></g>
<g><path style="opacity:1" fill="#3d8bfa" d="M 54.5,67.5 C 55.9778,67.238 57.3112,67.5713 58.5,68.5C 52.8415,71.1707 53.1749,72.504 59.5,72.5C 59.9977,75.3263 61.3311,77.6597 63.5,79.5C 63.5971,85.329 60.9304,86.6623 55.5,83.5C 54.8933,83.6236 54.56,83.9569 54.5,84.5C 52.5,84.5 51.5,85.5 51.5,87.5C 50.7784,87.0825 50.2784,86.4158 50,85.5C 48.2068,88.2953 46.0402,90.7953 43.5,93C 42.0039,93.5074 40.8373,93.0074 40,91.5C 39.6012,91.7284 39.4346,92.0618 39.5,92.5C 37.1099,90.7334 35.4432,88.4001 34.5,85.5C 34.7208,82.9028 35.2208,82.9028 36,85.5C 38.1204,82.205 40.9537,79.8716 44.5,78.5C 44.8565,79.8699 45.6898,80.8699 47,81.5C 49.7905,80.5757 50.2905,78.909 48.5,76.5C 51.0543,74.5571 53.0543,71.5571 54.5,67.5 Z"/></g>
<g><path style="opacity:1" fill="#6170f4" d="M 102.5,76.5 C 101.854,80.797 100.354,84.797 98,88.5C 87.3047,102.787 73.4713,107.787 56.5,103.5C 58.5498,100.766 60.2164,97.7658 61.5,94.5C 64.9713,93.9027 68.3046,93.236 71.5,92.5C 79.9153,90.4196 85.9153,85.4196 89.5,77.5C 90.2216,77.9175 90.7216,78.5842 91,79.5C 94.6396,76.5271 97.9729,73.1938 101,69.5C 101.977,71.74 102.477,74.0733 102.5,76.5 Z"/></g>
<g><path style="opacity:1" fill="#4e7cf7" d="M 86.5,63.5 C 87.7985,67.4076 87.6318,71.4076 86,75.5C 78.5769,89.14 68.0769,92.14 54.5,84.5C 54.56,83.9569 54.8933,83.6236 55.5,83.5C 60.9304,86.6623 63.5971,85.329 63.5,79.5C 68.1262,81.4832 71.9595,80.4832 75,76.5C 75.6917,75.5632 75.525,74.8966 74.5,74.5C 74.3893,73.8826 74.056,73.3826 73.5,73C 74.8721,72.5983 76.2054,72.0983 77.5,71.5C 80.2482,68.4108 83.2482,65.7441 86.5,63.5 Z"/></g>
</svg>
