<?xml version="1.0" encoding="UTF-8"?>
<!DOCTYPE svg PUBLIC "-//W3C//DTD SVG 1.1//EN" "http://www.w3.org/Graphics/SVG/1.1/DTD/svg11.dtd">
<svg xmlns="http://www.w3.org/2000/svg" version="1.1" width="135px" height="135px" style="shape-rendering:geometricPrecision; text-rendering:geometricPrecision; image-rendering:optimizeQuality; fill-rule:evenodd; clip-rule:evenodd" xmlns:xlink="http://www.w3.org/1999/xlink">
<g><path style="opacity:0.942" fill="#2c61d1" d="M 24.5,-0.5 C 52.8333,-0.5 81.1667,-0.5 109.5,-0.5C 115.486,1.91489 120.986,5.24823 126,9.5C 129.661,14.4933 132.494,19.8266 134.5,25.5C 134.5,53.1667 134.5,80.8333 134.5,108.5C 132.494,114.173 129.661,119.507 126,124.5C 120.986,128.752 115.486,132.085 109.5,134.5C 81.1667,134.5 52.8333,134.5 24.5,134.5C 18.5144,132.085 13.0144,128.752 8,124.5C 4.33905,119.507 1.50572,114.173 -0.5,108.5C -0.5,80.8333 -0.5,53.1667 -0.5,25.5C 1.50572,19.8266 4.33905,14.4933 8,9.5C 13.0144,5.24823 18.5144,1.91489 24.5,-0.5 Z"/></g>
<g><path style="opacity:1" fill="#fdfdfe" d="M 26.5,3.5 C 53.1687,3.33336 79.8354,3.50003 106.5,4C 118.568,7.06749 126.401,14.5675 130,26.5C 130.667,52.8333 130.667,79.1667 130,105.5C 127.279,118.554 119.446,126.721 106.5,130C 79.8333,130.667 53.1667,130.667 26.5,130C 14.1211,126.289 6.62111,118.122 4,105.5C 3.33333,79.1667 3.33333,52.8333 4,26.5C 7.68399,14.9837 15.184,7.31707 26.5,3.5 Z"/></g>
<g><path style="opacity:1" fill="#2f62d1" d="M 59.5,27.5 C 92.1848,27.682 107.352,44.0153 105,76.5C 97.6321,98.2719 82.4654,108.105 59.5,106C 36.6967,98.8592 26.1967,83.3592 28,59.5C 32.7091,42.9586 43.2091,32.2919 59.5,27.5 Z"/></g>
<g><path style="opacity:1" fill="#f8f9fd" d="M 65.5,42.5 C 73.2098,45.5224 80.5431,49.3557 87.5,54C 88.7596,55.8138 88.7596,57.6471 87.5,59.5C 83.9564,57.2291 80.2897,55.2291 76.5,53.5C 69.7914,56.515 63.7914,60.515 58.5,65.5C 54.5,61.5 50.5,61.5 46.5,65.5C 45.3414,61.878 45.1747,58.2113 46,54.5C 52.672,50.6368 59.172,46.6368 65.5,42.5 Z"/></g>
<g><path style="opacity:1" fill="#fafbfd" d="M 74.5,59.5 C 79.5276,60.2628 84.0276,62.2628 88,65.5C 88.8289,70.533 88.6623,75.533 87.5,80.5C 84.0654,82.6334 80.5654,84.6334 77,86.5C 72.9462,84.89 69.1128,82.89 65.5,80.5C 64.1667,75.5 64.1667,70.5 65.5,65.5C 68.7376,63.7247 71.7376,61.7247 74.5,59.5 Z"/></g>
<g><path style="opacity:1" fill="#f6f8fd" d="M 51.5,67.5 C 54.0255,68.6808 56.5255,70.0142 59,71.5C 60.9883,78.1571 58.655,82.1571 52,83.5C 46.2114,81.583 44.2114,77.583 46,71.5C 48.167,70.5119 50.0003,69.1786 51.5,67.5 Z"/></g>
<g><path style="opacity:1" fill="#eaeffa" d="M 60.5,84.5 C 64.4736,85.6209 68.1403,87.4543 71.5,90C 70.0337,90.6355 68.7003,91.4688 67.5,92.5C 64.4198,91.2115 61.5864,89.5448 59,87.5C 58.7613,86.212 59.2613,85.212 60.5,84.5 Z"/></g>
</svg>
