<?xml version="1.0" encoding="UTF-8"?>
<!DOCTYPE svg PUBLIC "-//W3C//DTD SVG 1.1//EN" "http://www.w3.org/Graphics/SVG/1.1/DTD/svg11.dtd">
<svg xmlns="http://www.w3.org/2000/svg" version="1.1" width="135px" height="135px" style="shape-rendering:geometricPrecision; text-rendering:geometricPrecision; image-rendering:optimizeQuality; fill-rule:evenodd; clip-rule:evenodd" xmlns:xlink="http://www.w3.org/1999/xlink">
<g><path style="opacity:0.942" fill="#47c6ad" d="M 24.5,-0.5 C 52.8333,-0.5 81.1667,-0.5 109.5,-0.5C 115.486,1.91489 120.986,5.24823 126,9.5C 129.661,14.4933 132.494,19.8266 134.5,25.5C 134.5,53.1667 134.5,80.8333 134.5,108.5C 132.494,114.173 129.661,119.507 126,124.5C 120.986,128.752 115.486,132.085 109.5,134.5C 81.1667,134.5 52.8333,134.5 24.5,134.5C 18.5144,132.085 13.0144,128.752 8,124.5C 4.33905,119.507 1.50572,114.173 -0.5,108.5C -0.5,80.8333 -0.5,53.1667 -0.5,25.5C 1.50572,19.8266 4.33905,14.4933 8,9.5C 13.0144,5.24823 18.5144,1.91489 24.5,-0.5 Z"/></g>
<g><path style="opacity:1" fill="#fefefe" d="M 28.5,3.5 C 53.8355,3.33336 79.1689,3.50003 104.5,4C 118.109,6.27532 126.609,14.1087 130,27.5C 130.667,53.5 130.667,79.5 130,105.5C 127.046,119.454 118.546,127.621 104.5,130C 78.8333,130.667 53.1667,130.667 27.5,130C 14.0994,126.6 6.26606,118.1 4,104.5C 3.33333,79.1667 3.33333,53.8333 4,28.5C 7.01434,14.9867 15.181,6.65333 28.5,3.5 Z"/></g>
<g><path style="opacity:1" fill="#46c6ad" d="M 37.5,28.5 C 56.8362,28.3334 76.1695,28.5 95.5,29C 100.667,30.1667 103.833,33.3333 105,38.5C 105.667,57.5 105.667,76.5 105,95.5C 103.073,100.428 99.5732,103.594 94.5,105C 75.5,105.667 56.5,105.667 37.5,105C 33.6119,102.778 30.7786,99.6118 29,95.5C 28.3333,76.1667 28.3333,56.8333 29,37.5C 30.6878,33.3148 33.5212,30.3148 37.5,28.5 Z"/></g>
<g><path style="opacity:1" fill="#fcfefd" d="M 63.5,61.5 C 62.5386,63.2646 62.2053,65.2646 62.5,67.5C 68.1667,67.5 73.8333,67.5 79.5,67.5C 83.5,69.8333 83.5,72.1667 79.5,74.5C 73.8333,74.5 68.1667,74.5 62.5,74.5C 62.5,80.5 62.5,86.5 62.5,92.5C 60.7182,94.6869 58.5515,95.0203 56,93.5C 55.3333,81.5 55.3333,69.5 56,57.5C 60.9323,47.1174 69.099,42.6174 80.5,44C 83.1667,46.3333 83.1667,48.6667 80.5,51C 75.8244,50.8904 71.4911,51.8904 67.5,54C 65.4598,56.1851 64.1264,58.6851 63.5,61.5 Z"/></g>
<g><path style="opacity:1" fill="#98dfd2" d="M 63.5,61.5 C 63.5,63.1667 63.5,64.8333 63.5,66.5C 69.0262,66.1786 74.3595,66.5119 79.5,67.5C 73.8333,67.5 68.1667,67.5 62.5,67.5C 62.2053,65.2646 62.5386,63.2646 63.5,61.5 Z"/></g>
<g><path style="opacity:1" fill="#95decf" d="M 79.5,74.5 C 74.3595,75.4881 69.0262,75.8214 63.5,75.5C 63.8222,81.358 63.4889,87.0247 62.5,92.5C 62.5,86.5 62.5,80.5 62.5,74.5C 68.1667,74.5 73.8333,74.5 79.5,74.5 Z"/></g>
</svg>
