<?xml version="1.0" encoding="UTF-8"?>
<!DOCTYPE svg PUBLIC "-//W3C//DTD SVG 1.1//EN" "http://www.w3.org/Graphics/SVG/1.1/DTD/svg11.dtd">
<svg xmlns="http://www.w3.org/2000/svg" version="1.1" width="135px" height="135px" style="shape-rendering:geometricPrecision; text-rendering:geometricPrecision; image-rendering:optimizeQuality; fill-rule:evenodd; clip-rule:evenodd" xmlns:xlink="http://www.w3.org/1999/xlink">
<g><path style="opacity:0.942" fill="#eeb812" d="M 24.5,-0.5 C 52.8333,-0.5 81.1667,-0.5 109.5,-0.5C 115.486,1.91489 120.986,5.24823 126,9.5C 129.661,14.4933 132.494,19.8266 134.5,25.5C 134.5,53.1667 134.5,80.8333 134.5,108.5C 132.494,114.173 129.661,119.507 126,124.5C 120.986,128.752 115.486,132.085 109.5,134.5C 81.1667,134.5 52.8333,134.5 24.5,134.5C 18.5144,132.085 13.0144,128.752 8,124.5C 4.33905,119.507 1.50572,114.173 -0.5,108.5C -0.5,80.8333 -0.5,53.1667 -0.5,25.5C 1.50572,19.8266 4.33905,14.4933 8,9.5C 13.0144,5.24823 18.5144,1.91489 24.5,-0.5 Z"/></g>
<g><path style="opacity:1" fill="#fefefd" d="M 27.5,3.5 C 53.5021,3.33336 79.5021,3.50003 105.5,4C 118.554,6.72061 126.721,14.5539 130,27.5C 130.667,53.5 130.667,79.5 130,105.5C 127.046,119.454 118.546,127.621 104.5,130C 78.8333,130.667 53.1667,130.667 27.5,130C 14.0994,126.6 6.26606,118.1 4,104.5C 3.33333,78.8333 3.33333,53.1667 4,27.5C 7.35787,14.9766 15.1912,6.97662 27.5,3.5 Z"/></g>
<g><path style="opacity:1" fill="#f9da7c" d="M 60.5,27.5 C 64.8333,27.5 69.1667,27.5 73.5,27.5C 73.5,36.1667 73.5,44.8333 73.5,53.5C 69.1667,53.5 64.8333,53.5 60.5,53.5C 60.5,44.8333 60.5,36.1667 60.5,27.5 Z"/></g>
<g><path style="opacity:1" fill="#f0b90e" d="M 61.5,28.5 C 65.1667,28.5 68.8333,28.5 72.5,28.5C 72.5,36.5 72.5,44.5 72.5,52.5C 68.8333,52.5 65.1667,52.5 61.5,52.5C 61.5,44.5 61.5,36.5 61.5,28.5 Z"/></g>
<g><path style="opacity:1" fill="#fada76" d="M 40.5,41.5 C 44.2984,40.5166 48.2984,40.1832 52.5,40.5C 52.5,44.8333 52.5,49.1667 52.5,53.5C 48.1667,53.5 43.8333,53.5 39.5,53.5C 39.1832,49.2984 39.5166,45.2984 40.5,41.5 Z"/></g>
<g><path style="opacity:1" fill="#f0ba0e" d="M 40.5,41.5 C 44.1667,41.5 47.8333,41.5 51.5,41.5C 51.5,45.1667 51.5,48.8333 51.5,52.5C 47.8333,52.5 44.1667,52.5 40.5,52.5C 40.5,48.8333 40.5,45.1667 40.5,41.5 Z"/></g>
<g><path style="opacity:1" fill="#fad975" d="M 93.5,41.5 C 94.4834,45.2984 94.8168,49.2984 94.5,53.5C 90.1667,53.5 85.8333,53.5 81.5,53.5C 81.5,49.1667 81.5,44.8333 81.5,40.5C 85.7016,40.1832 89.7016,40.5166 93.5,41.5 Z"/></g>
<g><path style="opacity:1" fill="#f0ba0e" d="M 93.5,41.5 C 93.5,45.1667 93.5,48.8333 93.5,52.5C 89.8333,52.5 86.1667,52.5 82.5,52.5C 82.5,48.8333 82.5,45.1667 82.5,41.5C 86.1667,41.5 89.8333,41.5 93.5,41.5 Z"/></g>
<g><path style="opacity:1" fill="#f9dc82" d="M 52.5,61.5 C 44.1667,61.5 35.8333,61.5 27.5,61.5C 27.5,65.1667 27.5,68.8333 27.5,72.5C 35.8333,72.5 44.1667,72.5 52.5,72.5C 44.0161,73.493 35.3494,73.8264 26.5,73.5C 26.5,69.1667 26.5,64.8333 26.5,60.5C 35.3494,60.1736 44.0161,60.507 52.5,61.5 Z"/></g>
<g><path style="opacity:1" fill="#f0ba10" d="M 52.5,61.5 C 52.5,65.1667 52.5,68.8333 52.5,72.5C 44.1667,72.5 35.8333,72.5 27.5,72.5C 27.5,68.8333 27.5,65.1667 27.5,61.5C 35.8333,61.5 44.1667,61.5 52.5,61.5 Z"/></g>
<g><path style="opacity:1" fill="#f0ba10" d="M 81.5,61.5 C 89.8333,61.5 98.1667,61.5 106.5,61.5C 106.5,65.1667 106.5,68.8333 106.5,72.5C 98.1667,72.5 89.8333,72.5 81.5,72.5C 81.5,68.8333 81.5,65.1667 81.5,61.5 Z"/></g>
<g><path style="opacity:1" fill="#f9dc82" d="M 81.5,61.5 C 89.9839,60.507 98.6506,60.1736 107.5,60.5C 107.5,64.8333 107.5,69.1667 107.5,73.5C 98.6506,73.8264 89.9839,73.493 81.5,72.5C 89.8333,72.5 98.1667,72.5 106.5,72.5C 106.5,68.8333 106.5,65.1667 106.5,61.5C 98.1667,61.5 89.8333,61.5 81.5,61.5 Z"/></g>
<g><path style="opacity:1" fill="#f9d978" d="M 60.5,80.5 C 64.8333,80.5 69.1667,80.5 73.5,80.5C 73.5,89.1667 73.5,97.8333 73.5,106.5C 69.1667,106.5 64.8333,106.5 60.5,106.5C 60.5,97.8333 60.5,89.1667 60.5,80.5 Z"/></g>
<g><path style="opacity:1" fill="#efb90e" d="M 61.5,81.5 C 65.1667,81.5 68.8333,81.5 72.5,81.5C 72.5,89.5 72.5,97.5 72.5,105.5C 68.8333,105.5 65.1667,105.5 61.5,105.5C 61.5,97.5 61.5,89.5 61.5,81.5 Z"/></g>
<g><path style="opacity:1" fill="#f5c122" d="M 81.5,80.5 C 85.5,80.5 89.5,80.5 93.5,80.5C 93.5,84.8333 93.5,89.1667 93.5,93.5C 89.5,93.5 85.5,93.5 81.5,93.5C 81.5,89.1667 81.5,84.8333 81.5,80.5 Z"/></g>
<g><path style="opacity:1" fill="#f5c122" d="M 40.5,80.5 C 44.5,80.5 48.5,80.5 52.5,80.5C 52.5,84.8333 52.5,89.1667 52.5,93.5C 48.5,93.5 44.5,93.5 40.5,93.5C 40.5,89.1667 40.5,84.8333 40.5,80.5 Z"/></g>
</svg>
