<?xml version="1.0" encoding="UTF-8"?>
<!DOCTYPE svg PUBLIC "-//W3C//DTD SVG 1.1//EN" "http://www.w3.org/Graphics/SVG/1.1/DTD/svg11.dtd">
<svg xmlns="http://www.w3.org/2000/svg" version="1.1" width="135px" height="135px" style="shape-rendering:geometricPrecision; text-rendering:geometricPrecision; image-rendering:optimizeQuality; fill-rule:evenodd; clip-rule:evenodd" xmlns:xlink="http://www.w3.org/1999/xlink">
<g><path style="opacity:0.942" fill="#e1187c" d="M 24.5,-0.5 C 52.8333,-0.5 81.1667,-0.5 109.5,-0.5C 115.486,1.91489 120.986,5.24823 126,9.5C 129.661,14.4933 132.494,19.8266 134.5,25.5C 134.5,53.1667 134.5,80.8333 134.5,108.5C 132.494,114.173 129.661,119.507 126,124.5C 120.986,128.752 115.486,132.085 109.5,134.5C 81.1667,134.5 52.8333,134.5 24.5,134.5C 18.5144,132.085 13.0144,128.752 8,124.5C 4.33905,119.507 1.50572,114.173 -0.5,108.5C -0.5,80.8333 -0.5,53.1667 -0.5,25.5C 1.50572,19.8266 4.33905,14.4933 8,9.5C 13.0144,5.24823 18.5144,1.91489 24.5,-0.5 Z"/></g>
<g><path style="opacity:1" fill="#fefdfe" d="M 27.5,3.5 C 53.1688,3.33336 78.8355,3.50003 104.5,4C 118.1,6.26606 126.6,14.0994 130,27.5C 130.667,53.1667 130.667,78.8333 130,104.5C 127.5,119 119,127.5 104.5,130C 78.8333,130.667 53.1667,130.667 27.5,130C 14.0994,126.6 6.26606,118.1 4,104.5C 3.33333,78.8333 3.33333,53.1667 4,27.5C 7.34904,14.9853 15.1824,6.98533 27.5,3.5 Z"/></g>
<g><path style="opacity:1" fill="#59ccc9" d="M 70.5,27.5 C 91.5974,27.2677 102.597,37.6011 103.5,58.5C 84.8333,58.5 66.1667,58.5 47.5,58.5C 47.6542,42.5027 55.3208,32.1694 70.5,27.5 Z"/></g>
<g><path style="opacity:1" fill="#e7468f" d="M 34.5,63.5 C 35.8333,63.5 37.1667,63.5 38.5,63.5C 38.5,64.5 38.5,65.5 38.5,66.5C 36.0274,66.9118 34.6941,65.9118 34.5,63.5 Z"/></g>
<g><path style="opacity:1" fill="#e53f89" d="M 42.5,62.5 C 64.8358,62.3334 87.1692,62.5 109.5,63C 110.833,64 110.833,65 109.5,66C 86.8358,66.5 64.1691,66.6666 41.5,66.5C 41.4326,65.0413 41.7659,63.7079 42.5,62.5 Z"/></g>
<g><path style="opacity:1" fill="#e74b92" d="M 22.5,70.5 C 25.8606,71.2032 26.1939,72.5365 23.5,74.5C 21.3576,73.5629 21.0243,72.2296 22.5,70.5 Z"/></g>
<g><path style="opacity:1" fill="#e53c8a" d="M 28.5,70.5 C 45.17,70.3334 61.8367,70.5001 78.5,71C 79.8333,72 79.8333,73 78.5,74C 61.8333,74.6667 45.1667,74.6667 28.5,74C 27.3157,72.8545 27.3157,71.6879 28.5,70.5 Z"/></g>
<g><path style="opacity:1" fill="#e74891" d="M 35.5,78.5 C 38.8606,79.2032 39.1939,80.5365 36.5,82.5C 34.3576,81.5629 34.0243,80.2296 35.5,78.5 Z"/></g>
<g><path style="opacity:1" fill="#e43688" d="M 41.5,78.5 C 61.5028,78.3334 81.5028,78.5 101.5,79C 102.833,80 102.833,81 101.5,82C 81.5028,82.5 61.5028,82.6666 41.5,82.5C 41.5,81.1667 41.5,79.8333 41.5,78.5 Z"/></g>
<g><path style="opacity:1" fill="#e74c92" d="M 25.5,86.5 C 28.8606,87.2032 29.1939,88.5365 26.5,90.5C 24.3576,89.5629 24.0243,88.2296 25.5,86.5 Z"/></g>
<g><path style="opacity:1" fill="#e43789" d="M 31.5,86.5 C 39.84,86.3336 48.1733,86.5003 56.5,87C 57.8333,88 57.8333,89 56.5,90C 48.1733,90.4997 39.84,90.6664 31.5,90.5C 31.5,89.1667 31.5,87.8333 31.5,86.5 Z"/></g>
<g><path style="opacity:1" fill="#e5388a" d="M 61.5,86.5 C 78.17,86.3334 94.8367,86.5001 111.5,87C 112.833,88 112.833,89 111.5,90C 94.8333,90.6667 78.1667,90.6667 61.5,90C 60.3157,88.8545 60.3157,87.6879 61.5,86.5 Z"/></g>
<g><path style="opacity:1" fill="#e7498f" d="M 64.5,94.5 C 65.5,94.5 66.5,94.5 67.5,94.5C 67.762,95.9778 67.4287,97.3112 66.5,98.5C 64.8888,97.6798 64.2222,96.3464 64.5,94.5 Z"/></g>
<g><path style="opacity:1" fill="#e43789" d="M 71.5,94.5 C 81.8387,94.3335 92.172,94.5002 102.5,95C 103.833,96 103.833,97 102.5,98C 92.1667,98.6667 81.8333,98.6667 71.5,98C 70.3157,96.8545 70.3157,95.6879 71.5,94.5 Z"/></g>
<g><path style="opacity:1" fill="#e43687" d="M 46.5,102.5 C 47.5,102.5 48.5,102.5 49.5,102.5C 48.5,107.833 47.5,107.833 46.5,102.5 Z"/></g>
<g><path style="opacity:1" fill="#e43588" d="M 52.5,102.5 C 63.1719,102.333 73.8385,102.5 84.5,103C 85.8333,104 85.8333,105 84.5,106C 74.1667,106.667 63.8333,106.667 53.5,106C 52.6634,104.989 52.33,103.822 52.5,102.5 Z"/></g>
</svg>
