<?xml version="1.0" encoding="UTF-8"?>
<!DOCTYPE svg PUBLIC "-//W3C//DTD SVG 1.1//EN" "http://www.w3.org/Graphics/SVG/1.1/DTD/svg11.dtd">
<svg xmlns="http://www.w3.org/2000/svg" version="1.1" width="135px" height="135px" style="shape-rendering:geometricPrecision; text-rendering:geometricPrecision; image-rendering:optimizeQuality; fill-rule:evenodd; clip-rule:evenodd" xmlns:xlink="http://www.w3.org/1999/xlink">
<g><path style="opacity:0.942" fill="#080612" d="M 24.5,-0.5 C 52.8333,-0.5 81.1667,-0.5 109.5,-0.5C 115.486,1.91489 120.986,5.24823 126,9.5C 129.661,14.4933 132.494,19.8266 134.5,25.5C 134.5,53.1667 134.5,80.8333 134.5,108.5C 132.494,114.173 129.661,119.507 126,124.5C 120.986,128.752 115.486,132.085 109.5,134.5C 81.1667,134.5 52.8333,134.5 24.5,134.5C 18.5144,132.085 13.0144,128.752 8,124.5C 4.33905,119.507 1.50572,114.173 -0.5,108.5C -0.5,80.8333 -0.5,53.1667 -0.5,25.5C 1.50572,19.8266 4.33905,14.4933 8,9.5C 13.0144,5.24823 18.5144,1.91489 24.5,-0.5 Z"/></g>
<g><path style="opacity:1" fill="#fdfdfd" d="M 26.5,3.5 C 53.1687,3.33336 79.8354,3.50003 106.5,4C 118.568,7.06749 126.401,14.5675 130,26.5C 130.667,53.1667 130.667,79.8333 130,106.5C 126.721,119.446 118.554,127.279 105.5,130C 79.1667,130.667 52.8333,130.667 26.5,130C 14.5675,126.401 7.06749,118.568 4,106.5C 3.33333,79.8333 3.33333,53.1667 4,26.5C 7.68399,14.9837 15.184,7.31707 26.5,3.5 Z"/></g>
<g><path style="opacity:1" fill="#dcba62" d="M 87.5,31.5 C 86.2876,32.2299 85.2876,33.2299 84.5,34.5C 83.3132,33.3473 82.3132,33.3473 81.5,34.5C 74.051,31.4625 66.3844,30.7959 58.5,32.5C 56.0752,32.316 56.0752,31.6493 58.5,30.5C 57.1502,29.0499 55.4835,28.3832 53.5,28.5C 60.4599,25.6626 67.7932,24.8293 75.5,26C 79.9805,27.0779 83.9805,28.9113 87.5,31.5 Z"/></g>
<g><path style="opacity:1" fill="#c09b43" d="M 53.5,28.5 C 55.4835,28.3832 57.1502,29.0499 58.5,30.5C 56.0752,31.6493 56.0752,32.316 58.5,32.5C 34.3282,42.8491 27.3282,60.1824 37.5,84.5C 36.5354,85.7211 36.702,87.0544 38,88.5C 39.8333,90.3333 41.6667,92.1667 43.5,94C 42.3636,95.1451 41.3636,96.3117 40.5,97.5C 26.6011,83.8931 23.1011,67.8931 30,49.5C 35.1887,39.4747 43.022,32.4747 53.5,28.5 Z"/></g>
<g><path style="opacity:1" fill="#1d1a1c" d="M 81.5,34.5 C 102.888,46.8402 108.054,64.1736 97,86.5C 90.9779,94.931 82.8112,99.931 72.5,101.5C 57.2478,103.04 45.5811,97.3731 37.5,84.5C 27.3282,60.1824 34.3282,42.8491 58.5,32.5C 66.3844,30.7959 74.051,31.4625 81.5,34.5 Z"/></g>
<g><path style="opacity:1" fill="#090916" d="M 63.5,43.5 C 62.8333,55.5 62.1667,55.5 61.5,43.5C 62.1667,42.1667 62.8333,42.1667 63.5,43.5 Z"/></g>
<g><path style="opacity:1" fill="#827045" d="M 71.5,43.5 C 71.5,46.8333 71.5,50.1667 71.5,53.5C 69.1667,53.5 66.8333,53.5 64.5,53.5C 64.5,53.1667 64.5,52.8333 64.5,52.5C 66.5,52.5 68.5,52.5 70.5,52.5C 70.19,49.2869 70.5233,46.2869 71.5,43.5 Z"/></g>
<g><path style="opacity:1" fill="#cba74f" d="M 75.5,36.5 C 74.1266,36.3433 72.7932,36.51 71.5,37C 73.2705,37.5354 73.6039,38.3687 72.5,39.5C 70.9299,39.3062 69.4299,39.3062 68,39.5C 67.5017,41.5444 66.335,42.8777 64.5,43.5C 64.1667,43.5 63.8333,43.5 63.5,43.5C 62.8333,42.1667 62.1667,42.1667 61.5,43.5C 60.5233,46.2869 60.19,49.2869 60.5,52.5C 56.9581,52.1872 53.6248,52.5206 50.5,53.5C 49.5067,62.3178 49.1734,71.3178 49.5,80.5C 49.3893,81.3366 49.056,82.3366 48.5,83.5C 50.9913,84.5407 50.9913,85.3741 48.5,86C 51.9648,86.9336 52.2981,88.4336 49.5,90.5C 47.5171,89.018 45.6837,87.3513 44,85.5C 43.6012,85.7284 43.4346,86.0618 43.5,86.5C 36.8415,78.7813 34.6748,69.7813 37,59.5C 39.6612,48.6801 46.1612,41.1801 56.5,37C 62.944,35.331 69.2773,35.1643 75.5,36.5 Z"/></g>
<g><path style="opacity:1" fill="#e9cb77" d="M 75.5,36.5 C 93.4189,42.4259 101.086,54.7592 98.5,73.5C 97.5489,72.0813 97.2155,70.4147 97.5,68.5C 95.7741,68.8146 94.1075,68.9813 92.5,69C 93.6654,67.1315 93.332,65.2982 91.5,63.5C 90.5,64.1667 89.5,64.8333 88.5,65.5C 87.8331,70.3167 87.1665,74.9834 86.5,79.5C 86.8025,74.57 86.4692,69.7367 85.5,65C 78.5079,64.5004 71.5079,64.3337 64.5,64.5C 69.3165,63.6739 74.3165,63.1739 79.5,63C 80.6341,61.984 80.3008,61.3173 78.5,61C 79.4706,59.7964 80.4706,59.2964 81.5,59.5C 72.5246,58.5018 63.5246,58.1685 54.5,58.5C 54.5,64.1667 54.5,69.8333 54.5,75.5C 56.8333,75.5 59.1667,75.5 61.5,75.5C 61.5,74.5 61.5,73.5 61.5,72.5C 63.5412,72.1459 65.3745,72.1459 67,72.5C 67.5,72 68,71.5 68.5,71C 65.5495,70.0616 63.2161,69.2283 61.5,68.5C 68.5,68.5 75.5,68.5 82.5,68.5C 82.5,71.1667 82.5,73.8333 82.5,76.5C 72.8333,76.5 63.1667,76.5 53.5,76.5C 53.5,69.8333 53.5,63.1667 53.5,56.5C 64.1719,56.6665 74.8385,56.4998 85.5,56C 86.8333,55 86.8333,54 85.5,53C 81.8484,52.5014 78.1817,52.3347 74.5,52.5C 74.6646,49.4816 74.498,46.4816 74,43.5C 73.0228,42.2264 72.1894,42.2264 71.5,43.5C 70.5233,46.2869 70.19,49.2869 70.5,52.5C 68.5,52.5 66.5,52.5 64.5,52.5C 64.5,49.5 64.5,46.5 64.5,43.5C 66.335,42.8777 67.5017,41.5444 68,39.5C 69.4299,39.3062 70.9299,39.3062 72.5,39.5C 73.6039,38.3687 73.2705,37.5354 71.5,37C 72.7932,36.51 74.1266,36.3433 75.5,36.5 Z"/></g>
<g><path style="opacity:1" fill="#433a2b" d="M 61.5,43.5 C 62.1667,55.5 62.8333,55.5 63.5,43.5C 63.8333,43.5 64.1667,43.5 64.5,43.5C 64.5,46.5 64.5,49.5 64.5,52.5C 64.5,52.8333 64.5,53.1667 64.5,53.5C 60.0419,53.8085 55.3752,53.8085 50.5,53.5C 53.6248,52.5206 56.9581,52.1872 60.5,52.5C 60.19,49.2869 60.5233,46.2869 61.5,43.5 Z"/></g>
<g><path style="opacity:1" fill="#dbba66" d="M 64.5,64.5 C 61.4655,64.183 60.4655,65.183 61.5,67.5C 61.5,67.8333 61.5,68.1667 61.5,68.5C 63.2161,69.2283 65.5495,70.0616 68.5,71C 68,71.5 67.5,72 67,72.5C 65.3745,72.1459 63.5412,72.1459 61.5,72.5C 61.5,73.5 61.5,74.5 61.5,75.5C 59.1667,75.5 56.8333,75.5 54.5,75.5C 54.5,69.8333 54.5,64.1667 54.5,58.5C 63.5246,58.1685 72.5246,58.5018 81.5,59.5C 80.4706,59.2964 79.4706,59.7964 78.5,61C 80.3008,61.3173 80.6341,61.984 79.5,63C 74.3165,63.1739 69.3165,63.6739 64.5,64.5 Z"/></g>
<g><path style="opacity:1" fill="#9a8652" d="M 53.5,56.5 C 53.5,63.1667 53.5,69.8333 53.5,76.5C 63.1667,76.5 72.8333,76.5 82.5,76.5C 82.5,76.8333 82.5,77.1667 82.5,77.5C 72.5,77.5 62.5,77.5 52.5,77.5C 52.1755,70.3134 52.5088,63.3134 53.5,56.5 Z"/></g>
<g><path style="opacity:1" fill="#1d1a1c" d="M 53.5,56.5 C 52.5088,63.3134 52.1755,70.3134 52.5,77.5C 62.5,77.5 72.5,77.5 82.5,77.5C 83.236,74.3046 83.9027,70.9713 84.5,67.5C 84.1667,67.1667 83.8333,66.8333 83.5,66.5C 76.224,67.4655 68.8907,67.7988 61.5,67.5C 60.4655,65.183 61.4655,64.183 64.5,64.5C 71.5079,64.3337 78.5079,64.5004 85.5,65C 86.4692,69.7367 86.8025,74.57 86.5,79.5C 82.6002,80.4299 78.6002,80.7633 74.5,80.5C 74.5,83.8333 74.5,87.1667 74.5,90.5C 73.5,90.5 72.5,90.5 71.5,90.5C 71.5,87.1667 71.5,83.8333 71.5,80.5C 68.9407,80.1984 66.6074,80.5318 64.5,81.5C 64.5,84.5 64.5,87.5 64.5,90.5C 63.1667,90.5 61.8333,90.5 60.5,90.5C 60.5,87.1667 60.5,83.8333 60.5,80.5C 56.8333,80.5 53.1667,80.5 49.5,80.5C 49.1734,71.3178 49.5067,62.3178 50.5,53.5C 55.3752,53.8085 60.0419,53.8085 64.5,53.5C 66.8333,53.5 69.1667,53.5 71.5,53.5C 71.5,50.1667 71.5,46.8333 71.5,43.5C 72.1894,42.2264 73.0228,42.2264 74,43.5C 74.498,46.4816 74.6646,49.4816 74.5,52.5C 78.1817,52.3347 81.8484,52.5014 85.5,53C 86.8333,54 86.8333,55 85.5,56C 74.8385,56.4998 64.1719,56.6665 53.5,56.5 Z"/></g>
<g><path style="opacity:1" fill="#433b2d" d="M 82.5,77.5 C 82.5,77.1667 82.5,76.8333 82.5,76.5C 82.5,73.8333 82.5,71.1667 82.5,68.5C 75.5,68.5 68.5,68.5 61.5,68.5C 61.5,68.1667 61.5,67.8333 61.5,67.5C 68.8907,67.7988 76.224,67.4655 83.5,66.5C 83.8333,66.8333 84.1667,67.1667 84.5,67.5C 83.9027,70.9713 83.236,74.3046 82.5,77.5 Z"/></g>
<g><path style="opacity:1" fill="#968657" d="M 64.5,81.5 C 66.6074,80.5318 68.9407,80.1984 71.5,80.5C 71.5,83.8333 71.5,87.1667 71.5,90.5C 70.5233,87.7131 70.19,84.7131 70.5,81.5C 68.5,81.5 66.5,81.5 64.5,81.5 Z"/></g>
<g><path style="opacity:1" fill="#e5ce86" d="M 98.5,73.5 C 95.4827,86.5173 87.4827,94.5173 74.5,97.5C 70.1539,97.6657 65.8206,97.499 61.5,97C 64.5,96.6667 67.5,96.3333 70.5,96C 73.3323,94.0924 72.999,93.259 69.5,93.5C 69.5,89.8333 69.5,86.1667 69.5,82.5C 68.1667,82.5 66.8333,82.5 65.5,82.5C 65.8064,85.3854 65.4731,88.0521 64.5,90.5C 64.5,87.5 64.5,84.5 64.5,81.5C 66.5,81.5 68.5,81.5 70.5,81.5C 70.19,84.7131 70.5233,87.7131 71.5,90.5C 72.5,90.5 73.5,90.5 74.5,90.5C 74.5,87.1667 74.5,83.8333 74.5,80.5C 78.6002,80.7633 82.6002,80.4299 86.5,79.5C 87.1665,74.9834 87.8331,70.3167 88.5,65.5C 89.5,64.8333 90.5,64.1667 91.5,63.5C 93.332,65.2982 93.6654,67.1315 92.5,69C 94.1075,68.9813 95.7741,68.8146 97.5,68.5C 97.2155,70.4147 97.5489,72.0813 98.5,73.5 Z"/></g>
<g><path style="opacity:1" fill="#d6ba6f" d="M 49.5,80.5 C 53.1667,80.5 56.8333,80.5 60.5,80.5C 60.5,83.8333 60.5,87.1667 60.5,90.5C 61.8333,90.5 63.1667,90.5 64.5,90.5C 65.4731,88.0521 65.8064,85.3854 65.5,82.5C 66.8333,82.5 68.1667,82.5 69.5,82.5C 69.5,86.1667 69.5,89.8333 69.5,93.5C 72.999,93.259 73.3323,94.0924 70.5,96C 67.5,96.3333 64.5,96.6667 61.5,97C 65.8206,97.499 70.1539,97.6657 74.5,97.5C 61.9466,100.402 51.6132,96.7353 43.5,86.5C 43.4346,86.0618 43.6012,85.7284 44,85.5C 45.6837,87.3513 47.5171,89.018 49.5,90.5C 52.2981,88.4336 51.9648,86.9336 48.5,86C 50.9913,85.3741 50.9913,84.5407 48.5,83.5C 49.056,82.3366 49.3893,81.3366 49.5,80.5 Z"/></g>
<g><path style="opacity:1" fill="#d5b563" d="M 37.5,84.5 C 45.5811,97.3731 57.2478,103.04 72.5,101.5C 69.3586,102.321 66.0252,102.821 62.5,103C 66.1667,103.333 69.8333,103.667 73.5,104C 69.8718,107.143 65.5385,108.309 60.5,107.5C 52.6883,106.261 46.0216,102.928 40.5,97.5C 41.3636,96.3117 42.3636,95.1451 43.5,94C 41.6667,92.1667 39.8333,90.3333 38,88.5C 36.702,87.0544 36.5354,85.7211 37.5,84.5 Z"/></g>
<g><path style="opacity:1" fill="#edd387" d="M 87.5,31.5 C 91.3722,33.1931 94.8722,35.5264 98,38.5C 108.819,51.585 111.486,66.2516 106,82.5C 96.5089,101.49 81.3422,109.824 60.5,107.5C 65.5385,108.309 69.8718,107.143 73.5,104C 69.8333,103.667 66.1667,103.333 62.5,103C 66.0252,102.821 69.3586,102.321 72.5,101.5C 82.8112,99.931 90.9779,94.931 97,86.5C 108.054,64.1736 102.888,46.8402 81.5,34.5C 82.3132,33.3473 83.3132,33.3473 84.5,34.5C 85.2876,33.2299 86.2876,32.2299 87.5,31.5 Z"/></g>
</svg>
