<?xml version="1.0" encoding="UTF-8"?>
<!DOCTYPE svg PUBLIC "-//W3C//DTD SVG 1.1//EN" "http://www.w3.org/Graphics/SVG/1.1/DTD/svg11.dtd">
<svg xmlns="http://www.w3.org/2000/svg" version="1.1" width="135px" height="135px" style="shape-rendering:geometricPrecision; text-rendering:geometricPrecision; image-rendering:optimizeQuality; fill-rule:evenodd; clip-rule:evenodd" xmlns:xlink="http://www.w3.org/1999/xlink">
<g><path style="opacity:0.942" fill="#28367b" d="M 24.5,-0.5 C 52.8333,-0.5 81.1667,-0.5 109.5,-0.5C 115.486,1.91489 120.986,5.24823 126,9.5C 129.661,14.4933 132.494,19.8266 134.5,25.5C 134.5,53.1667 134.5,80.8333 134.5,108.5C 132.494,114.173 129.661,119.507 126,124.5C 120.986,128.752 115.486,132.085 109.5,134.5C 81.1667,134.5 52.8333,134.5 24.5,134.5C 18.5144,132.085 13.0144,128.752 8,124.5C 4.33905,119.507 1.50572,114.173 -0.5,108.5C -0.5,80.8333 -0.5,53.1667 -0.5,25.5C 1.50572,19.8266 4.33905,14.4933 8,9.5C 13.0144,5.24823 18.5144,1.91489 24.5,-0.5 Z"/></g>
<g><path style="opacity:1" fill="#fcfdfd" d="M 26.5,3.5 C 53.1687,3.33336 79.8354,3.50003 106.5,4C 118.568,7.06749 126.401,14.5675 130,26.5C 130.667,53.1667 130.667,79.8333 130,106.5C 126.833,119 119,126.833 106.5,130C 79.8333,130.667 53.1667,130.667 26.5,130C 14.5675,126.401 7.06749,118.568 4,106.5C 3.33333,79.8333 3.33333,53.1667 4,26.5C 7.68399,14.9837 15.184,7.31707 26.5,3.5 Z"/></g>
<g><path style="opacity:1" fill="#2c387d" d="M 63.5,25.5 C 90.1862,26.0218 104.853,39.5218 107.5,66C 105.801,93.7013 91.1339,107.701 63.5,108C 59.6327,104.582 59.6327,101.249 63.5,98C 86.3461,96.5012 97.0128,84.5012 95.5,62C 84.8333,61.3333 74.1667,61.3333 63.5,62C 59.6327,65.2488 59.6327,68.5821 63.5,72C 70.1583,72.4996 76.825,72.6663 83.5,72.5C 83.0496,76.2315 81.3829,79.3982 78.5,82C 66.4351,89.6009 56.6018,87.4343 49,75.5C 44.4469,62.7472 48.2802,53.5806 60.5,48C 65.6973,47.1332 70.6973,47.7998 75.5,50C 78.1822,53.1154 81.5155,54.1154 85.5,53C 90.0253,47.7659 89.0253,43.7659 82.5,41C 76.2431,37.5674 69.5764,35.5674 62.5,35C 59.5312,31.4303 59.8645,28.2637 63.5,25.5 Z"/></g>
<g><path style="opacity:1" fill="#298fcd" d="M 46.5,30.5 C 51.0832,29.343 53.7499,31.0096 54.5,35.5C 52.6737,40.6994 49.507,41.6994 45,38.5C 44.1093,35.5024 44.6093,32.8357 46.5,30.5 Z"/></g>
<g><path style="opacity:1" fill="#3292ce" d="M 34.5,43.5 C 41.9675,44.6744 43.3008,48.1744 38.5,54C 32.4467,54.9443 30.2801,52.4443 32,46.5C 33.045,45.6266 33.8783,44.6266 34.5,43.5 Z"/></g>
<g><path style="opacity:1" fill="#3995d0" d="M 28.5,61.5 C 34.3259,61.157 36.8259,63.8236 36,69.5C 31.3006,73.8237 27.8006,72.9903 25.5,67C 26.1242,64.9149 27.1242,63.0816 28.5,61.5 Z"/></g>
<g><path style="opacity:1" fill="#2b90cd" d="M 33.5,79.5 C 40.9905,79.3233 42.9905,82.4899 39.5,89C 31.424,89.8047 29.424,86.638 33.5,79.5 Z"/></g>
<g><path style="opacity:1" fill="#2b8fcd" d="M 46.5,93.5 C 54.8773,93.2743 56.544,96.441 51.5,103C 45.4983,103.993 43.3317,101.493 45,95.5C 45.7172,94.9558 46.2172,94.2891 46.5,93.5 Z"/></g>
</svg>
