<?xml version="1.0" encoding="UTF-8"?>
<!DOCTYPE svg PUBLIC "-//W3C//DTD SVG 1.1//EN" "http://www.w3.org/Graphics/SVG/1.1/DTD/svg11.dtd">
<svg xmlns="http://www.w3.org/2000/svg" version="1.1" width="135px" height="135px" style="shape-rendering:geometricPrecision; text-rendering:geometricPrecision; image-rendering:optimizeQuality; fill-rule:evenodd; clip-rule:evenodd" xmlns:xlink="http://www.w3.org/1999/xlink">
<g><path style="opacity:0.942" fill="#699aff" d="M 24.5,-0.5 C 52.8333,-0.5 81.1667,-0.5 109.5,-0.5C 115.486,1.91489 120.986,5.24823 126,9.5C 129.661,14.4933 132.494,19.8266 134.5,25.5C 134.5,53.1667 134.5,80.8333 134.5,108.5C 132.494,114.173 129.661,119.507 126,124.5C 120.986,128.752 115.486,132.085 109.5,134.5C 81.1667,134.5 52.8333,134.5 24.5,134.5C 18.5144,132.085 13.0144,128.752 8,124.5C 4.33905,119.507 1.50572,114.173 -0.5,108.5C -0.5,80.8333 -0.5,53.1667 -0.5,25.5C 1.50572,19.8266 4.33905,14.4933 8,9.5C 13.0144,5.24823 18.5144,1.91489 24.5,-0.5 Z"/></g>
<g><path style="opacity:1" fill="#fdfeff" d="M 26.5,3.5 C 53.1687,3.33336 79.8354,3.50003 106.5,4C 118.568,7.06749 126.401,14.5675 130,26.5C 130.667,52.5 130.667,78.5 130,104.5C 127.5,119 119,127.5 104.5,130C 78.5,130.667 52.5,130.667 26.5,130C 13.6662,126.168 6.16617,117.668 4,104.5C 3.33333,78.5 3.33333,52.5 4,26.5C 7.68399,14.9837 15.184,7.31707 26.5,3.5 Z"/></g>
<g><path style="opacity:1" fill="#6497ff" d="M 34.5,26.5 C 39.742,26.0227 44.742,26.8561 49.5,29C 55.3333,34.8333 61.1667,40.6667 67,46.5C 73.5687,39.261 80.7354,32.761 88.5,27C 104.051,25.5504 109.884,32.3838 106,47.5C 100.199,54.3025 94.0321,60.8025 87.5,67C 94.739,73.5687 101.239,80.7354 107,88.5C 108.537,103.299 102.037,109.465 87.5,107C 80.364,100.865 73.5307,94.3651 67,87.5C 61.1667,93.3333 55.3333,99.1667 49.5,105C 37.989,111.05 30.1556,107.883 26,95.5C 25.4945,91.486 26.4945,87.8194 29,84.5C 33.8333,79.6667 38.6667,74.8333 43.5,70C 46.2652,70.7203 48.5985,72.3869 50.5,75C 45.6667,79.8333 40.8333,84.6667 36,89.5C 33.5533,97.7201 36.3866,100.553 44.5,98C 50.015,92.652 55.3483,87.152 60.5,81.5C 50.1809,70.6807 39.6809,60.0141 29,49.5C 23.5352,40.0653 25.3685,32.3986 34.5,26.5 Z"/></g>
<g><path style="opacity:1" fill="#f8faff" d="M 38.5,34.5 C 40.6547,34.372 42.6547,34.872 44.5,36C 49.6667,41.1667 54.8333,46.3333 60,51.5C 58.7635,54.776 56.5968,57.6094 53.5,60C 52.8333,60.6667 52.1667,60.6667 51.5,60C 46.3333,54.8333 41.1667,49.6667 36,44.5C 33.7121,40.3178 34.5454,36.9844 38.5,34.5 Z"/></g>
<g><path style="opacity:1" fill="#f6f9ff" d="M 91.5,34.5 C 98.4632,34.7647 100.63,38.098 98,44.5C 92.8333,49.6667 87.6667,54.8333 82.5,60C 81.8333,60.6667 81.1667,60.6667 80.5,60C 76.704,54.2032 73.0373,54.3699 69.5,60.5C 78.819,70.3192 88.319,79.9859 98,89.5C 100.5,97.6667 97.6667,100.5 89.5,98C 84.3333,92.8333 79.1667,87.6667 74,82.5C 73.3333,81.8333 73.3333,81.1667 74,80.5C 75.6851,78.9825 77.1851,77.3159 78.5,75.5C 76.8509,73.3501 75.0176,71.3501 73,69.5C 71.2806,71.5571 69.2806,73.2237 67,74.5C 63.8333,72.6667 61.3333,70.1667 59.5,67C 69.6871,55.6466 80.3538,44.8132 91.5,34.5 Z"/></g>
</svg>
