<?xml version="1.0" encoding="UTF-8"?>
<!DOCTYPE svg PUBLIC "-//W3C//DTD SVG 1.1//EN" "http://www.w3.org/Graphics/SVG/1.1/DTD/svg11.dtd">
<svg xmlns="http://www.w3.org/2000/svg" version="1.1" width="135px" height="135px" style="shape-rendering:geometricPrecision; text-rendering:geometricPrecision; image-rendering:optimizeQuality; fill-rule:evenodd; clip-rule:evenodd" xmlns:xlink="http://www.w3.org/1999/xlink">
<g><path style="opacity:0.942" fill="#2e598a" d="M 24.5,-0.5 C 52.8333,-0.5 81.1667,-0.5 109.5,-0.5C 115.486,1.91489 120.986,5.24823 126,9.5C 129.661,14.4933 132.494,19.8266 134.5,25.5C 134.5,53.1667 134.5,80.8333 134.5,108.5C 132.494,114.173 129.661,119.507 126,124.5C 120.986,128.752 115.486,132.085 109.5,134.5C 81.1667,134.5 52.8333,134.5 24.5,134.5C 18.5144,132.085 13.0144,128.752 8,124.5C 4.33905,119.507 1.50572,114.173 -0.5,108.5C -0.5,80.8333 -0.5,53.1667 -0.5,25.5C 1.50572,19.8266 4.33905,14.4933 8,9.5C 13.0144,5.24823 18.5144,1.91489 24.5,-0.5 Z"/></g>
<g><path style="opacity:1" fill="#fdfdfe" d="M 26.5,3.5 C 53.1687,3.33336 79.8354,3.50003 106.5,4C 118.568,7.06749 126.401,14.5675 130,26.5C 130.667,52.8333 130.667,79.1667 130,105.5C 127.279,118.554 119.446,126.721 106.5,130C 79.8333,130.667 53.1667,130.667 26.5,130C 13.6662,126.168 6.16617,117.668 4,104.5C 3.33333,78.5 3.33333,52.5 4,26.5C 7.68399,14.9837 15.184,7.31707 26.5,3.5 Z"/></g>
<g><path style="opacity:1" fill="#2d5889" d="M 57.5,25.5 C 82.7833,22.9671 99.6166,33.6337 108,57.5C 110.858,83.3103 100.024,100.144 75.5,108C 50.1858,110.593 33.6858,99.7595 26,75.5C 23.592,50.6405 34.092,33.9739 57.5,25.5 Z"/></g>
<g><path style="opacity:1" fill="#fcfcfd" d="M 60.5,51.5 C 60.5,55.5 60.5,59.5 60.5,63.5C 64.8333,63.5 69.1667,63.5 73.5,63.5C 73.5,59.5 73.5,55.5 73.5,51.5C 76.2869,50.5233 79.2869,50.19 82.5,50.5C 82.5,61.5 82.5,72.5 82.5,83.5C 79.5,83.5 76.5,83.5 73.5,83.5C 73.5,79.1667 73.5,74.8333 73.5,70.5C 69.1667,70.5 64.8333,70.5 60.5,70.5C 60.5,74.8333 60.5,79.1667 60.5,83.5C 57.5,83.5 54.5,83.5 51.5,83.5C 51.5,72.5 51.5,61.5 51.5,50.5C 54.7131,50.19 57.7131,50.5233 60.5,51.5 Z"/></g>
<g><path style="opacity:1" fill="#587ba1" d="M 60.5,51.5 C 61.4816,54.9619 61.815,58.6286 61.5,62.5C 65.1667,62.5 68.8333,62.5 72.5,62.5C 72.185,58.6286 72.5184,54.9619 73.5,51.5C 73.5,55.5 73.5,59.5 73.5,63.5C 69.1667,63.5 64.8333,63.5 60.5,63.5C 60.5,59.5 60.5,55.5 60.5,51.5 Z"/></g>
<g><path style="opacity:1" fill="#6686a8" d="M 73.5,83.5 C 72.5166,79.7016 72.1832,75.7016 72.5,71.5C 68.8333,71.5 65.1667,71.5 61.5,71.5C 61.8168,75.7016 61.4834,79.7016 60.5,83.5C 60.5,79.1667 60.5,74.8333 60.5,70.5C 64.8333,70.5 69.1667,70.5 73.5,70.5C 73.5,74.8333 73.5,79.1667 73.5,83.5 Z"/></g>
</svg>
