<?xml version="1.0" encoding="UTF-8"?>
<!DOCTYPE svg PUBLIC "-//W3C//DTD SVG 1.1//EN" "http://www.w3.org/Graphics/SVG/1.1/DTD/svg11.dtd">
<svg xmlns="http://www.w3.org/2000/svg" version="1.1" width="135px" height="135px" style="shape-rendering:geometricPrecision; text-rendering:geometricPrecision; image-rendering:optimizeQuality; fill-rule:evenodd; clip-rule:evenodd" xmlns:xlink="http://www.w3.org/1999/xlink">
<g><path style="opacity:0.998" fill="#11c7e6" d="M 24.5,-0.5 C 52.8333,-0.5 81.1667,-0.5 109.5,-0.5C 118.979,2.64815 125.979,8.64815 130.5,17.5C 128.973,17.427 127.973,18.0937 127.5,19.5C 123.082,12.2766 116.748,7.44332 108.5,5C 94.3854,3.86798 80.2188,3.36798 66,3.5C 53.1667,3.66667 40.3333,3.83333 27.5,4C 18.9422,6.41402 12.2756,11.2474 7.5,18.5C 6.70806,16.2552 5.37473,15.9219 3.5,17.5C 8.02112,8.64815 15.0211,2.64815 24.5,-0.5 Z"/></g>
<g><path style="opacity:1" fill="#fdfefe" d="M 127.5,19.5 C 130.056,26.9321 131.056,34.5988 130.5,42.5C 130.5,48.5 130.5,54.5 130.5,60.5C 130.5,65.8333 130.5,71.1667 130.5,76.5C 130.5,84.5 130.5,92.5 130.5,100.5C 130.088,110.995 125.755,119.328 117.5,125.5C 113.789,127.683 109.789,129.183 105.5,130C 79.1667,130.667 52.8333,130.667 26.5,130C 23.0221,128.76 19.6887,127.26 16.5,125.5C 8.24546,119.328 3.91213,110.995 3.5,100.5C 3.5,96.1667 3.5,91.8333 3.5,87.5C 3.5,79.5 3.5,71.5 3.5,63.5C 3.5,56.8333 3.5,50.1667 3.5,43.5C 2.56214,34.7279 3.89548,26.3946 7.5,18.5C 12.2756,11.2474 18.9422,6.41402 27.5,4C 40.3333,3.83333 53.1667,3.66667 66,3.5C 80.2188,3.36798 94.3854,3.86798 108.5,5C 116.748,7.44332 123.082,12.2766 127.5,19.5 Z"/></g>
<g><path style="opacity:0.985" fill="#08b9e9" d="M 130.5,17.5 C 132.381,19.9296 133.715,22.5962 134.5,25.5C 134.5,31.1667 134.5,36.8333 134.5,42.5C 133.298,43.4054 131.964,43.4054 130.5,42.5C 131.056,34.5988 130.056,26.9321 127.5,19.5C 127.973,18.0937 128.973,17.427 130.5,17.5 Z"/></g>
<g><path style="opacity:0.987" fill="#06b9e9" d="M 7.5,18.5 C 3.89548,26.3946 2.56214,34.7279 3.5,43.5C 2.29764,42.5946 0.964302,42.5946 -0.5,43.5C -0.5,37.5 -0.5,31.5 -0.5,25.5C 0.285203,22.5962 1.61854,19.9296 3.5,17.5C 5.37473,15.9219 6.70806,16.2552 7.5,18.5 Z"/></g>
<g><path style="opacity:1" fill="#005ff4" d="M 35.5,28.5 C 52.8365,28.3334 70.1699,28.5001 87.5,29C 79.7586,33.7433 72.0919,38.5766 64.5,43.5C 63.8076,44.0253 63.3076,44.6919 63,45.5C 62.5026,48.146 62.3359,50.8127 62.5,53.5C 62.8333,54.1667 63.1667,54.8333 63.5,55.5C 62.8333,55.5 62.1667,55.5 61.5,55.5C 61.5,51.8333 61.5,48.1667 61.5,44.5C 57.8333,44.5 54.1667,44.5 50.5,44.5C 49.5104,50.31 49.1771,56.31 49.5,62.5C 48.8333,62.5 48.5,62.1667 48.5,61.5C 48.8076,59.076 48.4742,56.7427 47.5,54.5C 42.5233,56.8965 38.0233,59.8965 34,63.5C 33.6667,63.1667 33.3333,62.8333 33,62.5C 32.0816,64.3757 30.5816,65.3757 28.5,65.5C 28.5,55.5 28.5,45.5 28.5,35.5C 29.1667,31.5 31.5,29.1667 35.5,28.5 Z"/></g>
<g><path style="opacity:1" fill="#156ff4" d="M 35.5,28.5 C 55.9959,27.3374 76.6626,27.1707 97.5,28C 99.3197,28.2004 100.653,29.0337 101.5,30.5C 98.9353,29.6902 96.4353,29.3569 94,29.5C 92.2365,31.7193 90.2365,33.7193 88,35.5C 87.6667,35.1667 87.3333,34.8333 87,34.5C 84.9429,37.0135 82.6095,38.3468 80,38.5C 77.6804,41.1479 75.0138,43.4812 72,45.5C 71.6667,45.1667 71.3333,44.8333 71,44.5C 69.1377,47.2077 66.6377,48.8744 63.5,49.5C 63.7678,51.099 63.4345,52.4324 62.5,53.5C 62.3359,50.8127 62.5026,48.146 63,45.5C 63.3076,44.6919 63.8076,44.0253 64.5,43.5C 72.0919,38.5766 79.7586,33.7433 87.5,29C 70.1699,28.5001 52.8365,28.3334 35.5,28.5 Z"/></g>
<g><path style="opacity:1" fill="#0177f2" d="M 101.5,30.5 C 102.492,30.3284 103.158,30.6618 103.5,31.5C 103.607,33.3786 103.107,33.7119 102,32.5C 90.8161,39.3125 79.9828,46.4792 69.5,54C 70.7375,54.2321 71.7375,54.7321 72.5,55.5C 69.5,55.5 66.5,55.5 63.5,55.5C 63.1667,54.8333 62.8333,54.1667 62.5,53.5C 63.4345,52.4324 63.7678,51.099 63.5,49.5C 66.6377,48.8744 69.1377,47.2077 71,44.5C 71.3333,44.8333 71.6667,45.1667 72,45.5C 75.0138,43.4812 77.6804,41.1479 80,38.5C 82.6095,38.3468 84.9429,37.0135 87,34.5C 87.3333,34.8333 87.6667,35.1667 88,35.5C 90.2365,33.7193 92.2365,31.7193 94,29.5C 96.4353,29.3569 98.9353,29.6902 101.5,30.5 Z"/></g>
<g><path style="opacity:1" fill="#0184f0" d="M 103.5,31.5 C 105.074,33.1016 105.741,35.1016 105.5,37.5C 95.7508,44.7391 85.5841,51.4058 75,57.5C 74.502,60.4816 74.3354,63.4816 74.5,66.5C 73.8333,62.8333 73.1667,59.1667 72.5,55.5C 71.7375,54.7321 70.7375,54.2321 69.5,54C 79.9828,46.4792 90.8161,39.3125 102,32.5C 103.107,33.7119 103.607,33.3786 103.5,31.5 Z"/></g>
<g><path style="opacity:1" fill="#fbfdfd" d="M 50.5,44.5 C 54.1667,44.5 57.8333,44.5 61.5,44.5C 61.5,48.1667 61.5,51.8333 61.5,55.5C 64.9619,56.4816 68.6286,56.815 72.5,56.5C 72.5,60.1667 72.5,63.8333 72.5,67.5C 68.8333,67.5 65.1667,67.5 61.5,67.5C 60.5088,74.3134 60.1755,81.3134 60.5,88.5C 57.1667,88.5 53.8333,88.5 50.5,88.5C 50.5,73.8333 50.5,59.1667 50.5,44.5 Z"/></g>
<g><path style="opacity:1" fill="#00a5ec" d="M 3.5,43.5 C 3.5,50.1667 3.5,56.8333 3.5,63.5C 2.16667,63.5 0.833333,63.5 -0.5,63.5C -0.5,56.8333 -0.5,50.1667 -0.5,43.5C 0.964302,42.5946 2.29764,42.5946 3.5,43.5 Z"/></g>
<g><path style="opacity:1" fill="#00a6ec" d="M 130.5,42.5 C 131.964,43.4054 133.298,43.4054 134.5,42.5C 134.5,48.5 134.5,54.5 134.5,60.5C 133.036,59.5946 131.702,59.5946 130.5,60.5C 130.5,54.5 130.5,48.5 130.5,42.5 Z"/></g>
<g><path style="opacity:1" fill="#19a3ea" d="M 105.5,48.5 C 105.808,50.924 105.474,53.2573 104.5,55.5C 98.3601,59.1449 92.3601,62.9782 86.5,67C 85.8906,68.9483 85.224,70.7816 84.5,72.5C 84.7845,70.5853 84.4511,68.9187 83.5,67.5C 79.8333,67.5 76.1667,67.5 72.5,67.5C 72.5,63.8333 72.5,60.1667 72.5,56.5C 68.6286,56.815 64.9619,56.4816 61.5,55.5C 62.1667,55.5 62.8333,55.5 63.5,55.5C 66.5,55.5 69.5,55.5 72.5,55.5C 73.1667,59.1667 73.8333,62.8333 74.5,66.5C 77.5184,66.6646 80.5184,66.498 83.5,66C 82.1667,65.6667 80.8333,65.3333 79.5,65C 81.5852,63.9586 83.2519,62.4586 84.5,60.5C 91.3512,57.9131 97.3512,54.0797 102.5,49C 103.448,48.5172 104.448,48.3505 105.5,48.5 Z"/></g>
<g><path style="opacity:1" fill="#0395ee" d="M 105.5,37.5 C 106.477,40.2869 106.81,43.2869 106.5,46.5C 105.662,46.8417 105.328,47.5084 105.5,48.5C 104.448,48.3505 103.448,48.5172 102.5,49C 97.3512,54.0797 91.3512,57.9131 84.5,60.5C 83.2519,62.4586 81.5852,63.9586 79.5,65C 80.8333,65.3333 82.1667,65.6667 83.5,66C 80.5184,66.498 77.5184,66.6646 74.5,66.5C 74.3354,63.4816 74.502,60.4816 75,57.5C 85.5841,51.4058 95.7508,44.7391 105.5,37.5 Z"/></g>
<g><path style="opacity:1" fill="#006bf4" d="M 48.5,61.5 C 46.8297,61.7512 45.3297,62.4178 44,63.5C 43.6667,63.1667 43.3333,62.8333 43,62.5C 41.2198,64.0515 39.3865,65.7182 37.5,67.5C 36.914,67.2907 36.414,66.9574 36,66.5C 33.9839,69.3494 31.4839,71.6827 28.5,73.5C 28.5,70.8333 28.5,68.1667 28.5,65.5C 30.5816,65.3757 32.0816,64.3757 33,62.5C 33.3333,62.8333 33.6667,63.1667 34,63.5C 38.0233,59.8965 42.5233,56.8965 47.5,54.5C 48.4742,56.7427 48.8076,59.076 48.5,61.5 Z"/></g>
<g><path style="opacity:1" fill="#0ab1ea" d="M 106.5,46.5 C 106.5,51.1667 106.5,55.8333 106.5,60.5C 105.833,60.5 105.5,60.8333 105.5,61.5C 99.2091,65.769 93.0424,69.4357 87,72.5C 85.957,74.8329 85.1237,77.1663 84.5,79.5C 84.5,77.1667 84.5,74.8333 84.5,72.5C 85.224,70.7816 85.8906,68.9483 86.5,67C 92.3601,62.9782 98.3601,59.1449 104.5,55.5C 105.474,53.2573 105.808,50.924 105.5,48.5C 105.328,47.5084 105.662,46.8417 106.5,46.5 Z"/></g>
<g><path style="opacity:1" fill="#0074f2" d="M 48.5,61.5 C 48.5,62.1667 48.8333,62.5 49.5,62.5C 49.5,65.8333 49.5,69.1667 49.5,72.5C 48.8496,70.5533 47.683,68.8866 46,67.5C 40.8749,71.5225 35.2082,75.5225 29,79.5C 28.5045,77.5273 28.3379,75.5273 28.5,73.5C 31.4839,71.6827 33.9839,69.3494 36,66.5C 36.414,66.9574 36.914,67.2907 37.5,67.5C 39.3865,65.7182 41.2198,64.0515 43,62.5C 43.3333,62.8333 43.6667,63.1667 44,63.5C 45.3297,62.4178 46.8297,61.7512 48.5,61.5 Z"/></g>
<g><path style="opacity:1" fill="#00bbe8" d="M 105.5,61.5 C 105.938,64.8934 105.105,67.8934 103,70.5C 102,70.5 101,70.5 100,70.5C 96.4356,73.3686 92.6023,75.8686 88.5,78C 86.5125,79.3189 85.3459,81.1523 85,83.5C 84.51,82.2068 84.3433,80.8734 84.5,79.5C 85.1237,77.1663 85.957,74.8329 87,72.5C 93.0424,69.4357 99.2091,65.769 105.5,61.5 Z"/></g>
<g><path style="opacity:1" fill="#fafdfd" d="M 72.5,67.5 C 76.1667,67.5 79.8333,67.5 83.5,67.5C 83.5,74.8333 83.5,82.1667 83.5,89.5C 79.6286,89.815 75.9619,89.4816 72.5,88.5C 72.5,85.1667 72.5,81.8333 72.5,78.5C 72.5,76.1667 72.5,73.8333 72.5,71.5C 72.5,70.1667 72.5,68.8333 72.5,67.5 Z"/></g>
<g><path style="opacity:1" fill="#0297eb" d="M 61.5,67.5 C 65.1667,67.5 68.8333,67.5 72.5,67.5C 72.5,68.8333 72.5,70.1667 72.5,71.5C 71.71,72.6085 71.21,73.9419 71,75.5C 70.6667,74.8333 70.3333,74.1667 70,73.5C 68.1295,75.2189 65.9628,76.2189 63.5,76.5C 63.8432,78.4832 63.1765,79.8166 61.5,80.5C 61.5,76.1667 61.5,71.8333 61.5,67.5 Z"/></g>
<g><path style="opacity:1" fill="#0095ef" d="M 134.5,60.5 C 134.5,65.8333 134.5,71.1667 134.5,76.5C 133.036,75.5946 131.702,75.5946 130.5,76.5C 130.5,71.1667 130.5,65.8333 130.5,60.5C 131.702,59.5946 133.036,59.5946 134.5,60.5 Z"/></g>
<g><path style="opacity:1" fill="#9bd1ec" d="M 50.5,44.5 C 50.5,59.1667 50.5,73.8333 50.5,88.5C 53.8333,88.5 57.1667,88.5 60.5,88.5C 60.1755,81.3134 60.5088,74.3134 61.5,67.5C 61.5,71.8333 61.5,76.1667 61.5,80.5C 61.5,83.5 61.5,86.5 61.5,89.5C 60.8333,89.5 60.1667,89.5 59.5,89.5C 56.1667,89.5 52.8333,89.5 49.5,89.5C 49.5,87.8333 49.5,86.1667 49.5,84.5C 49.5,80.5 49.5,76.5 49.5,72.5C 49.5,69.1667 49.5,65.8333 49.5,62.5C 49.1771,56.31 49.5104,50.31 50.5,44.5 Z"/></g>
<g><path style="opacity:1" fill="#1785f1" d="M 28.5,35.5 C 28.5,45.5 28.5,55.5 28.5,65.5C 28.5,68.1667 28.5,70.8333 28.5,73.5C 28.3379,75.5273 28.5045,77.5273 29,79.5C 35.2082,75.5225 40.8749,71.5225 46,67.5C 47.683,68.8866 48.8496,70.5533 49.5,72.5C 49.5,76.5 49.5,80.5 49.5,84.5C 48.5655,83.4324 48.2322,82.099 48.5,80.5C 48.7852,78.712 48.4519,77.0453 47.5,75.5C 41.1287,79.5576 34.7953,83.5576 28.5,87.5C 28.5,86.8333 28.1667,86.5 27.5,86.5C 27.1701,69.3251 27.5034,52.3251 28.5,35.5 Z"/></g>
<g><path style="opacity:1" fill="#18c9e6" d="M 106.5,60.5 C 106.5,64.1667 106.5,67.8333 106.5,71.5C 105.869,73.4478 104.869,75.2811 103.5,77C 90.0201,86.1066 76.3534,94.94 62.5,103.5C 58.8279,104.902 55.1612,105.902 51.5,106.5C 45.9738,106.821 40.6405,106.488 35.5,105.5C 36.5,105.5 37.5,105.5 38.5,105.5C 46.2022,105.656 52.8689,102.99 58.5,97.5C 60.2141,98.6085 60.8808,97.9418 60.5,95.5C 64.9828,94.0221 68.9828,91.6888 72.5,88.5C 75.9619,89.4816 79.6286,89.815 83.5,89.5C 83.5,82.1667 83.5,74.8333 83.5,67.5C 84.4511,68.9187 84.7845,70.5853 84.5,72.5C 84.5,74.8333 84.5,77.1667 84.5,79.5C 84.3433,80.8734 84.51,82.2068 85,83.5C 85.3459,81.1523 86.5125,79.3189 88.5,78C 92.6023,75.8686 96.4356,73.3686 100,70.5C 101,70.5 102,70.5 103,70.5C 105.105,67.8934 105.938,64.8934 105.5,61.5C 105.5,60.8333 105.833,60.5 106.5,60.5 Z"/></g>
<g><path style="opacity:1" fill="#0090ef" d="M 48.5,80.5 C 45.7626,80.621 43.4293,82.121 41.5,85C 37.0858,87.0795 32.9191,89.5795 29,92.5C 28.5065,90.8659 28.3398,89.1992 28.5,87.5C 34.7953,83.5576 41.1287,79.5576 47.5,75.5C 48.4519,77.0453 48.7852,78.712 48.5,80.5 Z"/></g>
<g><path style="opacity:1" fill="#07d6e4" d="M 106.5,71.5 C 106.5,75.1667 106.5,78.8333 106.5,82.5C 93.5655,88.9692 81.2322,96.4692 69.5,105C 66.9644,105.186 64.631,105.686 62.5,106.5C 58.8333,106.5 55.1667,106.5 51.5,106.5C 55.1612,105.902 58.8279,104.902 62.5,103.5C 76.3534,94.94 90.0201,86.1066 103.5,77C 104.869,75.2811 105.869,73.4478 106.5,71.5 Z"/></g>
<g><path style="opacity:1" fill="#018df0" d="M -0.5,63.5 C 0.833333,63.5 2.16667,63.5 3.5,63.5C 3.5,71.5 3.5,79.5 3.5,87.5C 2.16667,87.5 0.833333,87.5 -0.5,87.5C -0.5,79.5 -0.5,71.5 -0.5,63.5 Z"/></g>
<g><path style="opacity:1" fill="#01acea" d="M 72.5,71.5 C 72.5,73.8333 72.5,76.1667 72.5,78.5C 71.052,83.2965 67.3854,86.9632 61.5,89.5C 61.5,86.5 61.5,83.5 61.5,80.5C 63.1765,79.8166 63.8432,78.4832 63.5,76.5C 65.9628,76.2189 68.1295,75.2189 70,73.5C 70.3333,74.1667 70.6667,74.8333 71,75.5C 71.21,73.9419 71.71,72.6085 72.5,71.5 Z"/></g>
<g><path style="opacity:1" fill="#01bae8" d="M 72.5,78.5 C 72.5,81.8333 72.5,85.1667 72.5,88.5C 68.9828,91.6888 64.9828,94.0221 60.5,95.5C 60.8808,97.9418 60.2141,98.6085 58.5,97.5C 52.8689,102.99 46.2022,105.656 38.5,105.5C 38.3691,104.624 38.7025,103.957 39.5,103.5C 47.1529,99.15 54.4862,94.4833 61.5,89.5C 67.3854,86.9632 71.052,83.2965 72.5,78.5 Z"/></g>
<g><path style="opacity:1" fill="#0de3e3" d="M 106.5,82.5 C 106.5,85.1667 106.5,87.8333 106.5,90.5C 105.883,90.3893 105.383,90.056 105,89.5C 97.081,94.5424 89.2476,99.7091 81.5,105C 82.056,105.383 82.3893,105.883 82.5,106.5C 75.8333,106.5 69.1667,106.5 62.5,106.5C 64.631,105.686 66.9644,105.186 69.5,105C 81.2322,96.4692 93.5655,88.9692 106.5,82.5 Z"/></g>
<g><path style="opacity:1" fill="#007ef2" d="M -0.5,87.5 C 0.833333,87.5 2.16667,87.5 3.5,87.5C 3.5,91.8333 3.5,96.1667 3.5,100.5C 2.60305,101.598 1.76971,101.598 1,100.5C 0.721579,101.416 0.221579,102.082 -0.5,102.5C -0.5,97.5 -0.5,92.5 -0.5,87.5 Z"/></g>
<g><path style="opacity:1" fill="#04a5ea" d="M 49.5,89.5 C 52.8333,89.5 56.1667,89.5 59.5,89.5C 56.4371,90.2014 53.2704,90.868 50,91.5C 49.6667,91.1667 49.3333,90.8333 49,90.5C 42.3681,94.7528 36.5347,99.0861 31.5,103.5C 30.5,103.167 29.8333,102.5 29.5,101.5C 34.7032,95.7873 40.8699,91.1207 48,87.5C 48.2784,88.4158 48.7784,89.0825 49.5,89.5 Z"/></g>
<g><path style="opacity:1" fill="#0182f1" d="M 134.5,76.5 C 134.5,85.1667 134.5,93.8333 134.5,102.5C 133.533,101.194 132.199,100.527 130.5,100.5C 130.5,92.5 130.5,84.5 130.5,76.5C 131.702,75.5946 133.036,75.5946 134.5,76.5 Z"/></g>
<g><path style="opacity:1" fill="#02b0ea" d="M 59.5,89.5 C 60.1667,89.5 60.8333,89.5 61.5,89.5C 54.4862,94.4833 47.1529,99.15 39.5,103.5C 38.7025,103.957 38.3691,104.624 38.5,105.5C 37.5,105.5 36.5,105.5 35.5,105.5C 33.847,105.34 32.5137,104.674 31.5,103.5C 36.5347,99.0861 42.3681,94.7528 49,90.5C 49.3333,90.8333 49.6667,91.1667 50,91.5C 53.2704,90.868 56.4371,90.2014 59.5,89.5 Z"/></g>
<g><path style="opacity:1" fill="#049aed" d="M 48.5,80.5 C 48.2322,82.099 48.5655,83.4324 49.5,84.5C 49.5,86.1667 49.5,87.8333 49.5,89.5C 48.7784,89.0825 48.2784,88.4158 48,87.5C 40.8699,91.1207 34.7032,95.7873 29.5,101.5C 27.6821,96.7291 27.0154,91.7291 27.5,86.5C 28.1667,86.5 28.5,86.8333 28.5,87.5C 28.3398,89.1992 28.5065,90.8659 29,92.5C 32.9191,89.5795 37.0858,87.0795 41.5,85C 43.4293,82.121 45.7626,80.621 48.5,80.5 Z"/></g>
<g><path style="opacity:1" fill="#15f1e0" d="M 106.5,90.5 C 107.648,96.6976 105.648,101.531 100.5,105C 94.5933,106.361 88.5933,106.861 82.5,106.5C 82.3893,105.883 82.056,105.383 81.5,105C 89.2476,99.7091 97.081,94.5424 105,89.5C 105.383,90.056 105.883,90.3893 106.5,90.5 Z"/></g>
<g><path style="opacity:0.88" fill="#0d6df4" d="M 3.5,100.5 C 3.91213,110.995 8.24546,119.328 16.5,125.5C 15.2928,126.189 13.9594,126.355 12.5,126C 13.8228,126.816 14.4894,127.983 14.5,129.5C 6.78608,124.394 1.78608,117.394 -0.5,108.5C -0.5,106.5 -0.5,104.5 -0.5,102.5C 0.221579,102.082 0.721579,101.416 1,100.5C 1.76971,101.598 2.60305,101.598 3.5,100.5 Z"/></g>
<g><path style="opacity:0.88" fill="#0d6df4" d="M 130.5,100.5 C 132.199,100.527 133.533,101.194 134.5,102.5C 134.5,104.5 134.5,106.5 134.5,108.5C 132.214,117.394 127.214,124.394 119.5,129.5C 121.148,127.128 120.481,125.794 117.5,125.5C 125.755,119.328 130.088,110.995 130.5,100.5 Z"/></g>
<g><path style="opacity:0.997" fill="#0362f4" d="M 16.5,125.5 C 19.6887,127.26 23.0221,128.76 26.5,130C 52.8333,130.667 79.1667,130.667 105.5,130C 109.789,129.183 113.789,127.683 117.5,125.5C 120.481,125.794 121.148,127.128 119.5,129.5C 116.101,131.199 112.768,132.866 109.5,134.5C 81.1667,134.5 52.8333,134.5 24.5,134.5C 21.232,132.866 17.8987,131.199 14.5,129.5C 14.4894,127.983 13.8228,126.816 12.5,126C 13.9594,126.355 15.2928,126.189 16.5,125.5 Z"/></g>
</svg>
