<?xml version="1.0" encoding="UTF-8"?>
<!DOCTYPE svg PUBLIC "-//W3C//DTD SVG 1.1//EN" "http://www.w3.org/Graphics/SVG/1.1/DTD/svg11.dtd">
<svg xmlns="http://www.w3.org/2000/svg" version="1.1" width="135px" height="135px" style="shape-rendering:geometricPrecision; text-rendering:geometricPrecision; image-rendering:optimizeQuality; fill-rule:evenodd; clip-rule:evenodd" xmlns:xlink="http://www.w3.org/1999/xlink">
<g><path style="opacity:0.942" fill="#101a26" d="M 24.5,-0.5 C 52.8333,-0.5 81.1667,-0.5 109.5,-0.5C 115.486,1.91489 120.986,5.24823 126,9.5C 129.661,14.4933 132.494,19.8266 134.5,25.5C 134.5,53.1667 134.5,80.8333 134.5,108.5C 132.494,114.173 129.661,119.507 126,124.5C 120.986,128.752 115.486,132.085 109.5,134.5C 81.1667,134.5 52.8333,134.5 24.5,134.5C 18.5144,132.085 13.0144,128.752 8,124.5C 4.33905,119.507 1.50572,114.173 -0.5,108.5C -0.5,80.8333 -0.5,53.1667 -0.5,25.5C 1.50572,19.8266 4.33905,14.4933 8,9.5C 13.0144,5.24823 18.5144,1.91489 24.5,-0.5 Z"/></g>
<g><path style="opacity:1" fill="#fdfdfd" d="M 26.5,3.5 C 52.8354,3.33336 79.1688,3.50003 105.5,4C 118.122,6.62111 126.289,14.1211 130,26.5C 130.667,53.1667 130.667,79.8333 130,106.5C 126.833,119 119,126.833 106.5,130C 79.8333,130.667 53.1667,130.667 26.5,130C 14.5675,126.401 7.06749,118.568 4,106.5C 3.33333,79.8333 3.33333,53.1667 4,26.5C 7.68399,14.9837 15.184,7.31707 26.5,3.5 Z"/></g>
<g><path style="opacity:1" fill="#101924" d="M 61.5,28.5 C 90.6994,28.865 105.199,43.5317 105,72.5C 99.51,95.3336 85.01,106.167 61.5,105C 38.8782,99.3706 28.0449,84.8706 29,61.5C 32.6991,43.3018 43.5324,32.3018 61.5,28.5 Z"/></g>
<g><path style="opacity:1" fill="#1bb6cc" d="M 76.5,47.5 C 78.288,47.2148 79.9547,47.5481 81.5,48.5C 78.1465,52.0191 74.9798,55.6858 72,59.5C 71.1667,58.6667 70.3333,57.8333 69.5,57C 72.0755,53.9372 74.4088,50.7705 76.5,47.5 Z"/></g>
<g><path style="opacity:1" fill="#21bdd4" d="M 53.5,47.5 C 56.7845,47.2693 59.2845,48.6026 61,51.5C 63.2954,54.7974 65.962,57.7974 69,60.5C 69.7828,62.3185 69.2828,63.6518 67.5,64.5C 62.1002,59.3239 57.4336,53.6572 53.5,47.5 Z"/></g>
<g><path style="opacity:1" fill="#1fbbd2" d="M 45.5,48.5 C 46.8734,48.3433 48.2068,48.51 49.5,49C 54.8902,54.7192 59.8902,60.7192 64.5,67C 59.9968,74.8291 54.1634,81.3291 47,86.5C 46.1667,86.1667 45.3333,85.8333 44.5,85.5C 50.104,79.7735 55.104,73.6068 59.5,67C 54.607,60.9489 49.9403,54.7823 45.5,48.5 Z"/></g>
<g><path style="opacity:1" fill="#25c2d9" d="M 85.5,48.5 C 89.1954,47.8738 90.0288,48.8738 88,51.5C 81.7786,58.0506 75.9453,64.884 70.5,72C 73.8027,76.7573 77.4694,81.2573 81.5,85.5C 79.8333,86.8333 78.1667,86.8333 76.5,85.5C 72.5959,81.3522 68.9292,77.0189 65.5,72.5C 71.813,64.1886 78.4797,56.1886 85.5,48.5 Z"/></g>
<g><path style="opacity:1" fill="#1db7ce" d="M 75.5,69.5 C 80.4838,74.7593 85.4838,80.0926 90.5,85.5C 88.8333,86.8333 87.1667,86.8333 85.5,85.5C 82.2357,81.3127 78.7357,77.3127 75,73.5C 74.4209,72.0715 74.5876,70.7382 75.5,69.5 Z"/></g>
<g><path style="opacity:1" fill="#1fb8cf" d="M 61.5,75.5 C 62.5,75.5 63.5,75.5 64.5,75.5C 63.414,80.4305 60.5807,84.0972 56,86.5C 55.1667,86.1667 54.3333,85.8333 53.5,85.5C 56.5703,82.4362 59.2369,79.1029 61.5,75.5 Z"/></g>
</svg>
