<?xml version="1.0" encoding="UTF-8"?>
<!DOCTYPE svg PUBLIC "-//W3C//DTD SVG 1.1//EN" "http://www.w3.org/Graphics/SVG/1.1/DTD/svg11.dtd">
<svg xmlns="http://www.w3.org/2000/svg" version="1.1" width="135px" height="135px" style="shape-rendering:geometricPrecision; text-rendering:geometricPrecision; image-rendering:optimizeQuality; fill-rule:evenodd; clip-rule:evenodd" xmlns:xlink="http://www.w3.org/1999/xlink">
<g><path style="opacity:0.951" fill="#f2716b" d="M 25.5,-0.5 C 53.1667,-0.5 80.8333,-0.5 108.5,-0.5C 121.5,3.83333 130.167,12.5 134.5,25.5C 134.5,53.1667 134.5,80.8333 134.5,108.5C 130.167,121.5 121.5,130.167 108.5,134.5C 80.8333,134.5 53.1667,134.5 25.5,134.5C 12.5,130.167 3.83333,121.5 -0.5,108.5C -0.5,80.8333 -0.5,53.1667 -0.5,25.5C 3.83333,12.5 12.5,3.83333 25.5,-0.5 Z"/></g>
<g><path style="opacity:1" fill="#fefdfd" d="M 26.5,3.5 C 52.8354,3.33336 79.1688,3.50003 105.5,4C 118.122,6.62111 126.289,14.1211 130,26.5C 130.667,53.1667 130.667,79.8333 130,106.5C 126.721,119.446 118.554,127.279 105.5,130C 79.1667,130.667 52.8333,130.667 26.5,130C 14.5675,126.401 7.06749,118.568 4,106.5C 3.33333,79.8333 3.33333,53.1667 4,26.5C 7.68399,14.9837 15.184,7.31707 26.5,3.5 Z"/></g>
<g><path style="opacity:1" fill="#f2706a" d="M 92.5,41.5 C 92.4219,43.4635 91.0886,44.9635 88.5,46C 80.9768,49.9255 73.6435,54.0922 66.5,58.5C 57.7006,52.9295 48.7006,47.5962 39.5,42.5C 48.374,36.8079 57.5406,31.4745 67,26.5C 75.7938,31.1415 84.2938,36.1415 92.5,41.5 Z"/></g>
<g><path style="opacity:1" fill="#db5952" d="M 92.5,41.5 C 93.1174,41.6107 93.6174,41.944 94,42.5C 94.1667,44.3333 94.3333,46.1667 94.5,48C 94.4535,50.2953 93.7868,52.1286 92.5,53.5C 91.8501,53.8039 91.1835,54.1373 90.5,54.5C 89.1311,52.876 87.4645,52.376 85.5,53C 80.7636,54.9198 76.7636,57.7532 73.5,61.5C 72.5655,62.5676 72.2322,63.901 72.5,65.5C 70.5439,66.4918 68.5439,67.4918 66.5,68.5C 66.5,65.1667 66.5,61.8333 66.5,58.5C 73.6435,54.0922 80.9768,49.9255 88.5,46C 91.0886,44.9635 92.4219,43.4635 92.5,41.5 Z"/></g>
<g><path style="opacity:1" fill="#a14542" d="M 39.5,42.5 C 48.7006,47.5962 57.7006,52.9295 66.5,58.5C 66.5,61.8333 66.5,65.1667 66.5,68.5C 62.4954,66.4977 58.4954,64.4977 54.5,62.5C 53.7095,61.5987 52.7095,60.9321 51.5,60.5C 47.7287,58.4409 44.062,56.1076 40.5,53.5C 39.5108,49.8927 39.1774,46.226 39.5,42.5 Z"/></g>
<g><path style="opacity:1" fill="#ed6c65" d="M 92.5,53.5 C 92.7619,55.5638 93.9286,56.8971 96,57.5C 96.7432,59.8739 96.2432,61.8739 94.5,63.5C 93.209,63.2627 92.209,63.596 91.5,64.5C 90.2905,64.9321 89.2905,65.5987 88.5,66.5C 88.1667,66.5 87.8333,66.5 87.5,66.5C 86.1667,67.1667 85.1667,68.1667 84.5,69.5C 84.1667,69.5 83.8333,69.5 83.5,69.5C 82.7611,69.631 82.0944,69.4643 81.5,69C 82.7112,68.1072 82.7112,67.2739 81.5,66.5C 78.8053,64.8224 76.1386,63.1558 73.5,61.5C 76.7636,57.7532 80.7636,54.9198 85.5,53C 87.4645,52.376 89.1311,52.876 90.5,54.5C 91.1835,54.1373 91.8501,53.8039 92.5,53.5 Z"/></g>
<g><path style="opacity:1" fill="#907361" d="M 39.5,42.5 C 39.1774,46.226 39.5108,49.8927 40.5,53.5C 44.062,56.1076 47.7287,58.4409 51.5,60.5C 51.1667,60.5 50.8333,60.5 50.5,60.5C 49.8826,66.1367 48.8826,71.8034 47.5,77.5C 44.6572,76.8283 42.1572,75.495 40,73.5C 39.8195,76.6946 39.3195,79.6946 38.5,82.5C 38.1711,68.9895 38.5044,55.6562 39.5,42.5 Z"/></g>
<g><path style="opacity:1" fill="#36232a" d="M 91.5,64.5 C 91.7163,66.6807 90.883,68.3474 89,69.5C 88.5172,68.552 88.3505,67.552 88.5,66.5C 89.2905,65.5987 90.2905,64.9321 91.5,64.5 Z"/></g>
<g><path style="opacity:1" fill="#a34a44" d="M 73.5,61.5 C 76.1386,63.1558 78.8053,64.8224 81.5,66.5C 82.7112,67.2739 82.7112,68.1072 81.5,69C 82.0944,69.4643 82.7611,69.631 83.5,69.5C 82.791,70.404 81.791,70.7373 80.5,70.5C 80.1667,70.5 79.8333,70.5 79.5,70.5C 79.1667,69.5 78.5,68.8333 77.5,68.5C 76.0351,67.2632 74.3684,66.2632 72.5,65.5C 72.2322,63.901 72.5655,62.5676 73.5,61.5 Z"/></g>
<g><path style="opacity:1" fill="#ba9480" d="M 94.5,63.5 C 94.9452,66.3646 94.2785,68.8646 92.5,71C 83.7562,75.4538 75.2562,80.2871 67,85.5C 66.6012,85.2716 66.4346,84.9382 66.5,84.5C 66.5,79.1667 66.5,73.8333 66.5,68.5C 68.5439,67.4918 70.5439,66.4918 72.5,65.5C 74.3684,66.2632 76.0351,67.2632 77.5,68.5C 74.1075,68.3753 72.7741,70.042 73.5,73.5C 73.8333,74.8333 74.1667,76.1667 74.5,77.5C 74.8333,77.3333 75.1667,77.1667 75.5,77C 76.1094,75.0517 76.776,73.2184 77.5,71.5C 77.3433,72.8734 77.51,74.2068 78,75.5C 79.8921,74.3826 80.7254,72.7159 80.5,70.5C 81.791,70.7373 82.791,70.404 83.5,69.5C 83.8333,69.5 84.1667,69.5 84.5,69.5C 84.3894,71.6477 85.056,71.981 86.5,70.5C 87.4287,69.3112 87.762,67.9778 87.5,66.5C 87.8333,66.5 88.1667,66.5 88.5,66.5C 88.3505,67.552 88.5172,68.552 89,69.5C 90.883,68.3474 91.7163,66.6807 91.5,64.5C 92.209,63.596 93.209,63.2627 94.5,63.5 Z"/></g>
<g><path style="opacity:1" fill="#faf4f1" d="M 87.5,66.5 C 87.762,67.9778 87.4287,69.3112 86.5,70.5C 85.056,71.981 84.3894,71.6477 84.5,69.5C 85.1667,68.1667 86.1667,67.1667 87.5,66.5 Z"/></g>
<g><path style="opacity:1" fill="#fafafa" d="M 77.5,68.5 C 78.5,68.8333 79.1667,69.5 79.5,70.5C 78.8333,70.8333 78.1667,71.1667 77.5,71.5C 76.776,73.2184 76.1094,75.0517 75.5,77C 75.1667,77.1667 74.8333,77.3333 74.5,77.5C 74.1667,76.1667 73.8333,74.8333 73.5,73.5C 72.7741,70.042 74.1075,68.3753 77.5,68.5 Z"/></g>
<g><path style="opacity:1" fill="#876957" d="M 54.5,62.5 C 58.4954,64.4977 62.4954,66.4977 66.5,68.5C 66.5,73.8333 66.5,79.1667 66.5,84.5C 62.532,80.3605 58.6987,76.0272 55,71.5C 54.502,68.5184 54.3354,65.5184 54.5,62.5 Z"/></g>
<g><path style="opacity:1" fill="#351821" d="M 79.5,70.5 C 79.8333,70.5 80.1667,70.5 80.5,70.5C 80.7254,72.7159 79.8921,74.3826 78,75.5C 77.51,74.2068 77.3433,72.8734 77.5,71.5C 78.1667,71.1667 78.8333,70.8333 79.5,70.5 Z"/></g>
<g><path style="opacity:1" fill="#868786" d="M 50.5,60.5 C 52.3399,71.3907 57.6733,80.3907 66.5,87.5C 66.5,88.8333 66.5,90.1667 66.5,91.5C 65.8333,91.1667 65.1667,90.8333 64.5,90.5C 62.7798,89.6923 61.1131,88.6923 59.5,87.5C 58.089,85.461 56.089,84.461 53.5,84.5C 51.424,82.4848 49.424,80.4848 47.5,78.5C 47.5,78.1667 47.5,77.8333 47.5,77.5C 48.8826,71.8034 49.8826,66.1367 50.5,60.5 Z"/></g>
<g><path style="opacity:1" fill="#d6d6d5" d="M 94.5,84.5 C 94.6633,82.1432 94.4966,79.8098 94,77.5C 90.5432,81.6156 87.0432,85.6156 83.5,89.5C 83.5,90.1667 83.1667,90.5 82.5,90.5C 79.4908,89.653 76.4908,89.9863 73.5,91.5C 71.1354,90.1783 68.8021,90.1783 66.5,91.5C 66.5,90.1667 66.5,88.8333 66.5,87.5C 76.2731,82.4449 85.9398,77.1116 95.5,71.5C 95.8333,72.1667 96.1667,72.8333 96.5,73.5C 95.9728,77.331 95.3061,80.9976 94.5,84.5 Z"/></g>
<g><path style="opacity:1" fill="#c84b59" d="M 47.5,78.5 C 49.424,80.4848 51.424,82.4848 53.5,84.5C 51.5,85.8333 49.5,87.1667 47.5,88.5C 46.9569,88.44 46.6236,88.1067 46.5,87.5C 47.376,86.7492 48.376,86.2492 49.5,86C 47.9126,84.1552 46.5792,82.1552 45.5,80C 45.8361,78.9701 46.5028,78.4701 47.5,78.5 Z"/></g>
<g><path style="opacity:1" fill="#a54754" d="M 47.5,77.5 C 47.5,77.8333 47.5,78.1667 47.5,78.5C 46.5028,78.4701 45.8361,78.9701 45.5,80C 46.5792,82.1552 47.9126,84.1552 49.5,86C 48.376,86.2492 47.376,86.7492 46.5,87.5C 46.6236,88.1067 46.9569,88.44 47.5,88.5C 46.3215,90.5065 46.8215,90.8398 49,89.5C 49.7172,90.0442 50.2172,90.7109 50.5,91.5C 50.4142,92.4959 50.7476,93.3292 51.5,94C 50.9056,94.4643 50.2389,94.631 49.5,94.5C 47.6814,93.4155 46.0147,92.0822 44.5,90.5C 43.2638,89.7542 41.9305,89.4208 40.5,89.5C 37.5152,87.9016 36.8486,85.5682 38.5,82.5C 39.3195,79.6946 39.8195,76.6946 40,73.5C 42.1572,75.495 44.6572,76.8283 47.5,77.5 Z"/></g>
<g><path style="opacity:1" fill="#d25c57" d="M 94.5,84.5 C 93.8333,84.5 93.5,84.8333 93.5,85.5C 90.1667,86.8333 86.8333,88.1667 83.5,89.5C 87.0432,85.6156 90.5432,81.6156 94,77.5C 94.4966,79.8098 94.6633,82.1432 94.5,84.5 Z"/></g>
<g><path style="opacity:1" fill="#351922" d="M 93.5,85.5 C 95.0265,86.4919 95.6932,87.9919 95.5,90C 95.4411,91.4357 95.1078,92.769 94.5,94C 86.3488,97.5729 78.6822,101.906 71.5,107C 70.5,107.667 69.5,107.667 68.5,107C 64.1118,104.477 59.7785,101.977 55.5,99.5C 56.326,97.7356 57.6593,96.4023 59.5,95.5C 61.6451,97.0753 63.9785,98.4086 66.5,99.5C 68.1705,99.3318 69.5039,98.6651 70.5,97.5C 74.5768,95.1565 78.5768,92.8232 82.5,90.5C 83.1667,90.5 83.5,90.1667 83.5,89.5C 86.8333,88.1667 90.1667,86.8333 93.5,85.5 Z"/></g>
<g><path style="opacity:1" fill="#d3615a" d="M 53.5,84.5 C 56.089,84.461 58.089,85.461 59.5,87.5C 58.4489,88.2223 57.7822,89.2223 57.5,90.5C 57.6983,93.2181 56.1983,95.2181 53,96.5C 52.3828,95.5509 52.5494,94.7175 53.5,94C 52.9221,92.583 51.9221,91.7496 50.5,91.5C 50.2172,90.7109 49.7172,90.0442 49,89.5C 46.8215,90.8398 46.3215,90.5065 47.5,88.5C 49.5,87.1667 51.5,85.8333 53.5,84.5 Z"/></g>
<g><path style="opacity:1" fill="#896957" d="M 40.5,89.5 C 41.9305,89.4208 43.2638,89.7542 44.5,90.5C 46.0147,92.0822 47.6814,93.4155 49.5,94.5C 49.3253,96.6208 49.6586,98.6208 50.5,100.5C 46.9922,99.4959 43.8255,97.8293 41,95.5C 40.5045,93.5273 40.3379,91.5273 40.5,89.5 Z"/></g>
<g><path style="opacity:1" fill="#a44753" d="M 59.5,87.5 C 61.1131,88.6923 62.7798,89.6923 64.5,90.5C 64.0618,90.4346 63.7284,90.6012 63.5,91C 64.8932,92.1711 65.7265,93.6711 66,95.5C 67.1096,97.0368 68.6096,97.7035 70.5,97.5C 69.5039,98.6651 68.1705,99.3318 66.5,99.5C 63.9785,98.4086 61.6451,97.0753 59.5,95.5C 59.0338,93.7988 59.0338,92.2988 59.5,91C 58.9056,90.5357 58.2389,90.369 57.5,90.5C 57.7822,89.2223 58.4489,88.2223 59.5,87.5 Z"/></g>
<g><path style="opacity:1" fill="#cd605b" d="M 82.5,90.5 C 78.5768,92.8232 74.5768,95.1565 70.5,97.5C 68.6096,97.7035 67.1096,97.0368 66,95.5C 65.7265,93.6711 64.8932,92.1711 63.5,91C 63.7284,90.6012 64.0618,90.4346 64.5,90.5C 65.1667,90.8333 65.8333,91.1667 66.5,91.5C 68.8021,90.1783 71.1354,90.1783 73.5,91.5C 76.4908,89.9863 79.4908,89.653 82.5,90.5 Z"/></g>
<g><path style="opacity:1" fill="#b88f7c" d="M 57.5,90.5 C 58.2389,90.369 58.9056,90.5357 59.5,91C 59.0338,92.2988 59.0338,93.7988 59.5,95.5C 57.6593,96.4023 56.326,97.7356 55.5,99.5C 53.8361,98.7769 52.1694,99.1103 50.5,100.5C 49.6586,98.6208 49.3253,96.6208 49.5,94.5C 50.2389,94.631 50.9056,94.4643 51.5,94C 50.7476,93.3292 50.4142,92.4959 50.5,91.5C 51.9221,91.7496 52.9221,92.583 53.5,94C 52.5494,94.7175 52.3828,95.5509 53,96.5C 56.1983,95.2181 57.6983,93.2181 57.5,90.5 Z"/></g>
</svg>
