<?xml version="1.0" encoding="UTF-8"?>
<!DOCTYPE svg PUBLIC "-//W3C//DTD SVG 1.1//EN" "http://www.w3.org/Graphics/SVG/1.1/DTD/svg11.dtd">
<svg xmlns="http://www.w3.org/2000/svg" version="1.1" width="135px" height="135px" style="shape-rendering:geometricPrecision; text-rendering:geometricPrecision; image-rendering:optimizeQuality; fill-rule:evenodd; clip-rule:evenodd" xmlns:xlink="http://www.w3.org/1999/xlink">
<g><path style="opacity:0.942" fill="#ed1090" d="M 24.5,-0.5 C 52.8333,-0.5 81.1667,-0.5 109.5,-0.5C 115.486,1.91489 120.986,5.24823 126,9.5C 129.661,14.4933 132.494,19.8266 134.5,25.5C 134.5,53.1667 134.5,80.8333 134.5,108.5C 132.494,114.173 129.661,119.507 126,124.5C 120.986,128.752 115.486,132.085 109.5,134.5C 81.1667,134.5 52.8333,134.5 24.5,134.5C 18.5144,132.085 13.0144,128.752 8,124.5C 4.33905,119.507 1.50572,114.173 -0.5,108.5C -0.5,80.8333 -0.5,53.1667 -0.5,25.5C 1.50572,19.8266 4.33905,14.4933 8,9.5C 13.0144,5.24823 18.5144,1.91489 24.5,-0.5 Z"/></g>
<g><path style="opacity:1" fill="#fefdfe" d="M 27.5,3.5 C 53.1688,3.33336 78.8355,3.50003 104.5,4C 118.1,6.26606 126.6,14.0994 130,27.5C 130.667,53.1667 130.667,78.8333 130,104.5C 127.5,119 119,127.5 104.5,130C 78.8333,130.667 53.1667,130.667 27.5,130C 14.0994,126.6 6.26606,118.1 4,104.5C 3.33333,78.8333 3.33333,53.1667 4,27.5C 7.34904,14.9853 15.1824,6.98533 27.5,3.5 Z"/></g>
<g><path style="opacity:1" fill="#ed0e8e" d="M 51.5,55.5 C 51.5,63.5 51.5,71.5 51.5,79.5C 51.5,88.1667 51.5,96.8333 51.5,105.5C 45.1667,105.5 38.8333,105.5 32.5,105.5C 32.5,79.5 32.5,53.5 32.5,27.5C 38.8333,27.5 45.1667,27.5 51.5,27.5C 51.5,36.8333 51.5,46.1667 51.5,55.5 Z"/></g>
<g><path style="opacity:1" fill="#cf37a1" d="M 100.5,28.5 C 95.4889,28.3341 90.4889,28.5007 85.5,29C 86.142,33.6007 86.8087,38.1007 87.5,42.5C 84.5,46.1667 81.1667,49.5 77.5,52.5C 76.8333,45.5 76.1667,38.5 75.5,31.5C 76.2899,30.2058 77.2899,29.0391 78.5,28C 86.0118,27.1782 93.3451,27.3448 100.5,28.5 Z"/></g>
<g><path style="opacity:1" fill="#e20e8e" d="M 100.5,28.5 C 96.1667,33.1667 91.8333,37.8333 87.5,42.5C 86.8087,38.1007 86.142,33.6007 85.5,29C 90.4889,28.5007 95.4889,28.3341 100.5,28.5 Z"/></g>
<g><path style="opacity:1" fill="#a844ac" d="M 75.5,31.5 C 76.1667,38.5 76.8333,45.5 77.5,52.5C 75.5,54.8333 73.5,57.1667 71.5,59.5C 71.1667,59.5 70.8333,59.5 70.5,59.5C 69.6676,58.6715 70.001,57.8382 71.5,57C 71.1777,50.8264 70.1777,44.993 68.5,39.5C 70.117,36.2157 72.4503,33.5491 75.5,31.5 Z"/></g>
<g><path style="opacity:1" fill="#8a5fba" d="M 68.5,39.5 C 70.1777,44.993 71.1777,50.8264 71.5,57C 70.001,57.8382 69.6676,58.6715 70.5,59.5C 70.5,59.8333 70.5,60.1667 70.5,60.5C 69.1667,61.5 67.8333,62.5 66.5,63.5C 66.5,56.1667 66.5,48.8333 66.5,41.5C 66.8333,40.5 67.5,39.8333 68.5,39.5 Z"/></g>
<g><path style="opacity:1" fill="#6f74c5" d="M 66.5,41.5 C 66.5,48.8333 66.5,56.1667 66.5,63.5C 65.5,65.1667 64.1667,66.5 62.5,67.5C 62.7955,60.4122 62.4621,53.4122 61.5,46.5C 62.8333,44.5 64.5,42.8333 66.5,41.5 Z"/></g>
<g><path style="opacity:1" fill="#5090d3" d="M 61.5,46.5 C 62.4621,53.4122 62.7955,60.4122 62.5,67.5C 61.1902,69.1477 59.8569,70.8144 58.5,72.5C 57.7999,65.4452 57.1332,58.4452 56.5,51.5C 57.8333,49.5 59.5,47.8333 61.5,46.5 Z"/></g>
<g><path style="opacity:1" fill="#36b0e2" d="M 56.5,51.5 C 57.1332,58.4452 57.7999,65.4452 58.5,72.5C 59.8569,70.8144 61.1902,69.1477 62.5,67.5C 64.1667,66.5 65.5,65.1667 66.5,63.5C 67.8333,62.5 69.1667,61.5 70.5,60.5C 67.3447,65.3155 64.0114,69.9821 60.5,74.5C 59.5768,73.6971 58.5768,73.5304 57.5,74C 55.6298,76.0396 53.6298,77.8729 51.5,79.5C 51.5,71.5 51.5,63.5 51.5,55.5C 53.1667,54.1667 54.8333,52.8333 56.5,51.5 Z"/></g>
<g><path style="opacity:1" fill="#a447ae" d="M 75.5,65.5 C 76.5,66.8333 77.5,68.1667 78.5,69.5C 75.2009,74.0826 72.3676,79.0826 70,84.5C 69.51,85.7932 69.3433,87.1266 69.5,88.5C 67.8079,86.7952 66.4746,84.7952 65.5,82.5C 68.0877,76.314 71.4211,70.6473 75.5,65.5 Z"/></g>
<g><path style="opacity:1" fill="#5b86ce" d="M 70.5,59.5 C 70.8333,59.5 71.1667,59.5 71.5,59.5C 71.5,59.8333 71.5,60.1667 71.5,60.5C 69.5812,67.2119 66.9146,73.5453 63.5,79.5C 62.1103,78.1007 61.1103,76.4341 60.5,74.5C 64.0114,69.9821 67.3447,65.3155 70.5,60.5C 70.5,60.1667 70.5,59.8333 70.5,59.5 Z"/></g>
<g><path style="opacity:1" fill="#796ec2" d="M 71.5,60.5 C 73.0627,61.9448 74.396,63.6115 75.5,65.5C 71.4211,70.6473 68.0877,76.314 65.5,82.5C 64.5987,81.7095 63.9321,80.7095 63.5,79.5C 66.9146,73.5453 69.5812,67.2119 71.5,60.5 Z"/></g>
<g><path style="opacity:1" fill="#ec2190" d="M 82.5,75.5 C 89.5331,85.2102 96.1997,95.2102 102.5,105.5C 95.1893,106.665 87.856,106.831 80.5,106C 77.6097,101.95 74.943,97.7832 72.5,93.5C 76.8811,88.0702 80.2144,82.0702 82.5,75.5 Z"/></g>
<g><path style="opacity:1" fill="#bf31a2" d="M 78.5,69.5 C 79.1667,70.5 79.8333,71.5 80.5,72.5C 75.9672,77.2347 73.3005,82.9013 72.5,89.5C 71.5,89.5 70.5,89.5 69.5,89.5C 69.5,89.1667 69.5,88.8333 69.5,88.5C 69.3433,87.1266 69.51,85.7932 70,84.5C 72.3676,79.0826 75.2009,74.0826 78.5,69.5 Z"/></g>
<g><path style="opacity:1" fill="#d52399" d="M 80.5,72.5 C 81.1667,73.5 81.8333,74.5 82.5,75.5C 80.2144,82.0702 76.8811,88.0702 72.5,93.5C 71.5116,92.205 70.5116,90.8717 69.5,89.5C 70.5,89.5 71.5,89.5 72.5,89.5C 73.3005,82.9013 75.9672,77.2347 80.5,72.5 Z"/></g>
</svg>
