<?xml version="1.0" encoding="UTF-8"?>
<!DOCTYPE svg PUBLIC "-//W3C//DTD SVG 1.1//EN" "http://www.w3.org/Graphics/SVG/1.1/DTD/svg11.dtd">
<svg xmlns="http://www.w3.org/2000/svg" version="1.1" width="135px" height="135px" style="shape-rendering:geometricPrecision; text-rendering:geometricPrecision; image-rendering:optimizeQuality; fill-rule:evenodd; clip-rule:evenodd" xmlns:xlink="http://www.w3.org/1999/xlink">
<g><path style="opacity:0.942" fill="#136cff" d="M 24.5,-0.5 C 52.8333,-0.5 81.1667,-0.5 109.5,-0.5C 115.486,1.91489 120.986,5.24823 126,9.5C 129.661,14.4933 132.494,19.8266 134.5,25.5C 134.5,53.1667 134.5,80.8333 134.5,108.5C 132.494,114.173 129.661,119.507 126,124.5C 120.986,128.752 115.486,132.085 109.5,134.5C 81.1667,134.5 52.8333,134.5 24.5,134.5C 18.5144,132.085 13.0144,128.752 8,124.5C 4.33905,119.507 1.50572,114.173 -0.5,108.5C -0.5,80.8333 -0.5,53.1667 -0.5,25.5C 1.50572,19.8266 4.33905,14.4933 8,9.5C 13.0144,5.24823 18.5144,1.91489 24.5,-0.5 Z"/></g>
<g><path style="opacity:1" fill="#fdfeff" d="M 26.5,3.5 C 53.1687,3.33336 79.8354,3.50003 106.5,4C 118.568,7.06749 126.401,14.5675 130,26.5C 130.667,52.8333 130.667,79.1667 130,105.5C 127.279,118.554 119.446,126.721 106.5,130C 79.8333,130.667 53.1667,130.667 26.5,130C 13.6662,126.168 6.16617,117.668 4,104.5C 3.33333,78.5 3.33333,52.5 4,26.5C 7.68399,14.9837 15.184,7.31707 26.5,3.5 Z"/></g>
<g><path style="opacity:1" fill="#569aff" d="M 64.5,32.5 C 61.409,40.5191 59.0757,48.8525 57.5,57.5C 48.3285,59.7221 39.1618,62.0554 30,64.5C 29.2352,64.4301 28.7352,64.0967 28.5,63.5C 40.4651,52.0354 52.2985,40.3687 64,28.5C 64.49,29.7932 64.6567,31.1266 64.5,32.5 Z"/></g>
<g><path style="opacity:1" fill="#76abff" d="M 69.5,30.5 C 71.0002,34.173 73.0002,37.5063 75.5,40.5C 76.0787,43.3311 77.412,45.6644 79.5,47.5C 79.762,48.9778 79.4287,50.3112 78.5,51.5C 72.9578,53.4422 67.2912,54.9422 61.5,56C 60.2617,56.69 60.2617,57.19 61.5,57.5C 61.1583,58.3382 60.4916,58.6716 59.5,58.5C 60.712,49.9851 62.712,41.6518 65.5,33.5C 65.7713,31.6883 66.438,30.0217 67.5,28.5C 68.1818,29.2427 68.8485,29.9094 69.5,30.5 Z"/></g>
<g><path style="opacity:1" fill="#e2ebfc" d="M 69.5,30.5 C 72.5023,33.1612 74.5023,36.4945 75.5,40.5C 73.0002,37.5063 71.0002,34.173 69.5,30.5 Z"/></g>
<g><path style="opacity:1" fill="#1840d7" d="M 104.5,63.5 C 95.3103,59.4111 86.977,54.0777 79.5,47.5C 78.9213,44.6689 77.588,42.3356 75.5,40.5C 74.5023,36.4945 72.5023,33.1612 69.5,30.5C 69.369,29.7611 69.5357,29.0944 70,28.5C 81.702,40.0349 93.202,51.7015 104.5,63.5 Z"/></g>
<g><path style="opacity:1" fill="#e6ecfc" d="M 75.5,40.5 C 77.588,42.3356 78.9213,44.6689 79.5,47.5C 77.412,45.6644 76.0787,43.3311 75.5,40.5 Z"/></g>
<g><path style="opacity:1" fill="#186eff" d="M 60.5,79.5 C 58.2362,80.2186 55.9029,80.552 53.5,80.5C 54.2735,72.7308 56.2735,65.3974 59.5,58.5C 60.4916,58.6716 61.1583,58.3382 61.5,57.5C 67.7417,55.7533 74.075,54.42 80.5,53.5C 78.5188,60.7586 76.8521,68.0919 75.5,75.5C 70.1906,76.0756 65.1906,77.409 60.5,79.5 Z"/></g>
<g><path style="opacity:1" fill="#3353ff" d="M 105.5,65.5 C 104.105,67.3794 102.105,68.3794 99.5,68.5C 91.8034,70.5082 84.1368,72.3415 76.5,74C 78.5,67.6667 80.5,61.3333 82.5,55C 83.8333,54.3333 85.1667,54.3333 86.5,55C 92.566,59.0319 98.8993,62.5319 105.5,65.5 Z"/></g>
<g><path style="opacity:1" fill="#3c7bff" d="M 32.5,70.5 C 30.6115,69.396 28.9448,68.0627 27.5,66.5C 37.1218,63.8429 46.7885,61.6763 56.5,60C 54.4396,66.0697 52.6063,72.2364 51,78.5C 50.6121,79.428 49.9454,80.0946 49,80.5C 43.4053,77.2876 37.9053,73.9543 32.5,70.5 Z"/></g>
<g><path style="opacity:1" fill="#172eb4" d="M 68.5,106.5 C 70.8911,96.8229 73.3911,87.1563 76,77.5C 84.174,74.5875 92.3407,71.9209 100.5,69.5C 101.93,69.5792 103.264,69.2458 104.5,68.5C 105.521,69.0016 105.688,69.6683 105,70.5C 92.9651,82.702 80.7985,94.702 68.5,106.5 Z"/></g>
<g><path style="opacity:1" fill="#d6defa" d="M 79.5,47.5 C 86.977,54.0777 95.3103,59.4111 104.5,63.5C 106.424,63.7107 106.757,64.3774 105.5,65.5C 98.8993,62.5319 92.566,59.0319 86.5,55C 85.1667,54.3333 83.8333,54.3333 82.5,55C 80.5,61.3333 78.5,67.6667 76.5,74C 84.1368,72.3415 91.8034,70.5082 99.5,68.5C 99.5,69.1667 99.8333,69.5 100.5,69.5C 92.3407,71.9209 84.174,74.5875 76,77.5C 73.3911,87.1563 70.8911,96.8229 68.5,106.5C 67.209,106.737 66.209,106.404 65.5,105.5C 66.5862,105.38 67.2528,104.713 67.5,103.5C 69.679,95.1166 72.0123,86.7833 74.5,78.5C 74,78.1667 73.5,77.8333 73,77.5C 69.4591,78.4262 65.9591,79.4262 62.5,80.5C 62.1583,79.6618 61.4916,79.3284 60.5,79.5C 65.1906,77.409 70.1906,76.0756 75.5,75.5C 76.8521,68.0919 78.5188,60.7586 80.5,53.5C 74.075,54.42 67.7417,55.7533 61.5,57.5C 60.2617,57.19 60.2617,56.69 61.5,56C 67.2912,54.9422 72.9578,53.4422 78.5,51.5C 79.4287,50.3112 79.762,48.9778 79.5,47.5 Z"/></g>
<g><path style="opacity:1" fill="#63a0ff" d="M 31.5,71.5 C 38.3738,75.5319 44.8738,80.1986 51,85.5C 55.4388,92.0546 59.6054,98.7213 63.5,105.5C 52.3658,93.533 40.6991,82.033 28.5,71C 29.5768,70.5304 30.5768,70.6971 31.5,71.5 Z"/></g>
<g><path style="opacity:1" fill="#ebf1fe" d="M 64.5,32.5 C 64.5,33.1667 64.8333,33.5 65.5,33.5C 62.712,41.6518 60.712,49.9851 59.5,58.5C 56.2735,65.3974 54.2735,72.7308 53.5,80.5C 55.9029,80.552 58.2362,80.2186 60.5,79.5C 61.4916,79.3284 62.1583,79.6618 62.5,80.5C 60.5183,80.9954 58.5183,81.4954 56.5,82C 54.8198,82.3468 53.8198,83.3468 53.5,85C 57.3102,91.4576 60.9769,97.9576 64.5,104.5C 64.5393,106.224 64.206,106.557 63.5,105.5C 59.6054,98.7213 55.4388,92.0546 51,85.5C 44.8738,80.1986 38.3738,75.5319 31.5,71.5C 32.1667,71.5 32.5,71.1667 32.5,70.5C 37.9053,73.9543 43.4053,77.2876 49,80.5C 49.9454,80.0946 50.6121,79.428 51,78.5C 52.6063,72.2364 54.4396,66.0697 56.5,60C 46.7885,61.6763 37.1218,63.8429 27.5,66.5C 27.2627,65.209 27.596,64.209 28.5,63.5C 28.7352,64.0967 29.2352,64.4301 30,64.5C 39.1618,62.0554 48.3285,59.7221 57.5,57.5C 59.0757,48.8525 61.409,40.5191 64.5,32.5 Z"/></g>
<g><path style="opacity:1" fill="#0f3bd6" d="M 65.5,105.5 C 65.5,104.833 65.1667,104.5 64.5,104.5C 60.9769,97.9576 57.3102,91.4576 53.5,85C 53.8198,83.3468 54.8198,82.3468 56.5,82C 58.5183,81.4954 60.5183,80.9954 62.5,80.5C 65.9591,79.4262 69.4591,78.4262 73,77.5C 73.5,77.8333 74,78.1667 74.5,78.5C 72.0123,86.7833 69.679,95.1166 67.5,103.5C 67.2528,104.713 66.5862,105.38 65.5,105.5 Z"/></g>
</svg>
