<?xml version="1.0" encoding="UTF-8"?>
<!DOCTYPE svg PUBLIC "-//W3C//DTD SVG 1.1//EN" "http://www.w3.org/Graphics/SVG/1.1/DTD/svg11.dtd">
<svg xmlns="http://www.w3.org/2000/svg" version="1.1" width="135px" height="135px" style="shape-rendering:geometricPrecision; text-rendering:geometricPrecision; image-rendering:optimizeQuality; fill-rule:evenodd; clip-rule:evenodd" xmlns:xlink="http://www.w3.org/1999/xlink">
<g><path style="opacity:0.942" fill="#4ec1c8" d="M 24.5,-0.5 C 52.8333,-0.5 81.1667,-0.5 109.5,-0.5C 115.486,1.91489 120.986,5.24823 126,9.5C 129.661,14.4933 132.494,19.8266 134.5,25.5C 134.5,53.1667 134.5,80.8333 134.5,108.5C 132.494,114.173 129.661,119.507 126,124.5C 120.986,128.752 115.486,132.085 109.5,134.5C 81.1667,134.5 52.8333,134.5 24.5,134.5C 18.5144,132.085 13.0144,128.752 8,124.5C 4.33905,119.507 1.50572,114.173 -0.5,108.5C -0.5,80.8333 -0.5,53.1667 -0.5,25.5C 1.50572,19.8266 4.33905,14.4933 8,9.5C 13.0144,5.24823 18.5144,1.91489 24.5,-0.5 Z"/></g>
<g><path style="opacity:1" fill="#fdfefe" d="M 28.5,3.5 C 53.8355,3.33336 79.1689,3.50003 104.5,4C 118.109,6.27532 126.609,14.1087 130,27.5C 130.667,53.1667 130.667,78.8333 130,104.5C 127.5,119 119,127.5 104.5,130C 78.8333,130.667 53.1667,130.667 27.5,130C 14.0994,126.6 6.26606,118.1 4,104.5C 3.33333,79.1667 3.33333,53.8333 4,28.5C 7.01434,14.9867 15.181,6.65333 28.5,3.5 Z"/></g>
<g><path style="opacity:1" fill="#4cbfc7" d="M 91.5,63.5 C 90.5637,64.9744 89.2303,65.9744 87.5,66.5C 73.8106,56.9815 59.9773,47.6482 46,38.5C 41.3236,41.3438 36.9903,44.6771 33,48.5C 31.7516,55.7638 34.5849,60.7638 41.5,63.5C 39.8577,64.803 38.1911,66.1363 36.5,67.5C 32.947,64.9258 30.1137,61.5925 28,57.5C 26.35,51.0744 27.85,45.5744 32.5,41C 37.0298,37.6377 41.6965,34.4711 46.5,31.5C 61.5181,42.1917 76.5181,52.8584 91.5,63.5 Z"/></g>
<g><path style="opacity:1" fill="#157e99" d="M 97.5,66.5 C 95.2048,67.4746 93.2048,68.8079 91.5,70.5C 86.1846,74.1412 80.8513,77.8079 75.5,81.5C 74.5,80.8333 73.5,80.1667 72.5,79.5C 71.1667,78.8333 71.1667,78.1667 72.5,77.5C 77.7452,74.0564 82.7452,70.3898 87.5,66.5C 89.2303,65.9744 90.5637,64.9744 91.5,63.5C 98.9863,61.1893 102.153,56.1893 101,48.5C 96.9049,44.5444 92.4049,41.2111 87.5,38.5C 84.0349,40.4033 80.7016,42.57 77.5,45C 74.9969,45.8736 72.9969,45.207 71.5,43C 76.6938,38.9729 82.0272,35.1395 87.5,31.5C 92.5,35 97.5,38.5 102.5,42C 108.981,51.848 107.314,60.0146 97.5,66.5 Z"/></g>
<g><path style="opacity:1" fill="#fbfdfd" d="M 87.5,66.5 C 82.7452,70.3898 77.7452,74.0564 72.5,77.5C 71.1667,78.1667 71.1667,78.8333 72.5,79.5C 73.5,80.1667 74.5,80.8333 75.5,81.5C 80.8513,77.8079 86.1846,74.1412 91.5,70.5C 99.9234,73.046 102.757,78.3794 100,86.5C 96.0982,89.8676 91.9315,92.8676 87.5,95.5C 73.5144,86.1646 59.8477,76.4979 46.5,66.5C 51.8154,62.8588 57.1487,59.1921 62.5,55.5C 60.9362,53.397 58.9362,52.5637 56.5,53C 51.6202,56.7199 46.6202,60.2199 41.5,63.5C 34.5849,60.7638 31.7516,55.7638 33,48.5C 36.9903,44.6771 41.3236,41.3438 46,38.5C 59.9773,47.6482 73.8106,56.9815 87.5,66.5 Z"/></g>
<g><path style="opacity:1" fill="#177f9a" d="M 46.5,66.5 C 44.8089,67.8637 43.1423,69.197 41.5,70.5C 31.7123,74.5474 30.0456,80.7141 36.5,89C 39.9681,90.9698 43.3015,93.1365 46.5,95.5C 50.228,92.4411 54.228,89.7744 58.5,87.5C 59.8333,88.5 61.1667,89.5 62.5,90.5C 58.1667,93.6667 53.8333,96.8333 49.5,100C 47.9556,101.187 46.2889,101.52 44.5,101C 38.0748,97.2065 32.5748,92.3731 28,86.5C 25.9757,77.8886 28.8091,71.5553 36.5,67.5C 38.1911,66.1363 39.8577,64.803 41.5,63.5C 46.6202,60.2199 51.6202,56.7199 56.5,53C 58.9362,52.5637 60.9362,53.397 62.5,55.5C 57.1487,59.1921 51.8154,62.8588 46.5,66.5 Z"/></g>
<g><path style="opacity:1" fill="#4bbfc7" d="M 46.5,66.5 C 59.8477,76.4979 73.5144,86.1646 87.5,95.5C 91.9315,92.8676 96.0982,89.8676 100,86.5C 102.757,78.3794 99.9234,73.046 91.5,70.5C 93.2048,68.8079 95.2048,67.4746 97.5,66.5C 101.189,69.0286 104.022,72.3619 106,76.5C 107.729,83.2052 105.895,88.7052 100.5,93C 96.2776,96.0657 91.9443,98.899 87.5,101.5C 72.1554,91.1504 56.822,80.817 41.5,70.5C 43.1423,69.197 44.8089,67.8637 46.5,66.5 Z"/></g>
</svg>
