<?xml version="1.0" encoding="UTF-8"?>
<!DOCTYPE svg PUBLIC "-//W3C//DTD SVG 1.1//EN" "http://www.w3.org/Graphics/SVG/1.1/DTD/svg11.dtd">
<svg xmlns="http://www.w3.org/2000/svg" version="1.1" width="135px" height="135px" style="shape-rendering:geometricPrecision; text-rendering:geometricPrecision; image-rendering:optimizeQuality; fill-rule:evenodd; clip-rule:evenodd" xmlns:xlink="http://www.w3.org/1999/xlink">
<g><path style="opacity:0.942" fill="#182952" d="M 24.5,-0.5 C 52.8333,-0.5 81.1667,-0.5 109.5,-0.5C 115.486,1.91489 120.986,5.24823 126,9.5C 129.661,14.4933 132.494,19.8266 134.5,25.5C 134.5,53.1667 134.5,80.8333 134.5,108.5C 132.494,114.173 129.661,119.507 126,124.5C 120.986,128.752 115.486,132.085 109.5,134.5C 81.1667,134.5 52.8333,134.5 24.5,134.5C 18.5144,132.085 13.0144,128.752 8,124.5C 4.33905,119.507 1.50572,114.173 -0.5,108.5C -0.5,80.8333 -0.5,53.1667 -0.5,25.5C 1.50572,19.8266 4.33905,14.4933 8,9.5C 13.0144,5.24823 18.5144,1.91489 24.5,-0.5 Z"/></g>
<g><path style="opacity:1" fill="#fdfdfd" d="M 26.5,3.5 C 53.1687,3.33336 79.8354,3.50003 106.5,4C 118.568,7.06749 126.401,14.5675 130,26.5C 130.667,52.8333 130.667,79.1667 130,105.5C 127.279,118.554 119.446,126.721 106.5,130C 79.8333,130.667 53.1667,130.667 26.5,130C 14.5675,126.401 7.06749,118.568 4,106.5C 3.33333,79.8333 3.33333,53.1667 4,26.5C 7.68399,14.9837 15.184,7.31707 26.5,3.5 Z"/></g>
<g><path style="opacity:1" fill="#1a2953" d="M 59.5,27.5 C 83.3609,26.2164 98.8609,36.8831 106,59.5C 106.504,90.9957 91.0043,106.496 59.5,106C 36.7509,98.9004 26.2509,83.4004 28,59.5C 32.7091,42.9586 43.2091,32.2919 59.5,27.5 Z"/></g>
<g><path style="opacity:1" fill="#f5d63d" d="M 89.5,62.5 C 85.9795,60.7709 82.3128,59.4375 78.5,58.5C 71.9974,56.4977 65.664,53.9977 59.5,51C 56.8333,49 56.8333,47 59.5,45C 74.825,41.826 84.825,47.6593 89.5,62.5 Z"/></g>
<g><path style="opacity:1" fill="#f9d73d" d="M 50.5,50.5 C 51.4972,50.4701 52.1639,50.9701 52.5,52C 57.9261,69.5512 69.9261,77.3845 88.5,75.5C 82.3461,87.1772 72.6795,91.6772 59.5,89C 46.8282,83.1554 41.9949,73.3221 45,59.5C 46.6618,56.3507 48.4952,53.3507 50.5,50.5 Z"/></g>
<g><path style="opacity:1" fill="#fc6f03" d="M 78.5,58.5 C 82.3128,59.4375 85.9795,60.7709 89.5,62.5C 89.6633,64.8568 89.4966,67.1902 89,69.5C 84.6215,66.6227 81.1215,62.956 78.5,58.5 Z"/></g>
</svg>
