<?xml version="1.0" encoding="UTF-8"?>
<!DOCTYPE svg PUBLIC "-//W3C//DTD SVG 1.1//EN" "http://www.w3.org/Graphics/SVG/1.1/DTD/svg11.dtd">
<svg xmlns="http://www.w3.org/2000/svg" version="1.1" width="135px" height="135px" style="shape-rendering:geometricPrecision; text-rendering:geometricPrecision; image-rendering:optimizeQuality; fill-rule:evenodd; clip-rule:evenodd" xmlns:xlink="http://www.w3.org/1999/xlink">
<g><path style="opacity:0.942" fill="#021443" d="M 24.5,-0.5 C 52.8333,-0.5 81.1667,-0.5 109.5,-0.5C 115.486,1.91489 120.986,5.24823 126,9.5C 129.661,14.4933 132.494,19.8266 134.5,25.5C 134.5,53.1667 134.5,80.8333 134.5,108.5C 132.494,114.173 129.661,119.507 126,124.5C 120.986,128.752 115.486,132.085 109.5,134.5C 81.1667,134.5 52.8333,134.5 24.5,134.5C 18.5144,132.085 13.0144,128.752 8,124.5C 4.33905,119.507 1.50572,114.173 -0.5,108.5C -0.5,80.8333 -0.5,53.1667 -0.5,25.5C 1.50572,19.8266 4.33905,14.4933 8,9.5C 13.0144,5.24823 18.5144,1.91489 24.5,-0.5 Z"/></g>
<g><path style="opacity:1" fill="#fcfcfd" d="M 26.5,3.5 C 53.1687,3.33336 79.8354,3.50003 106.5,4C 118.568,7.06749 126.401,14.5675 130,26.5C 130.667,52.8333 130.667,79.1667 130,105.5C 127.167,119 119,127.167 105.5,130C 79.1667,130.667 52.8333,130.667 26.5,130C 14.5675,126.401 7.06749,118.568 4,106.5C 3.33333,79.8333 3.33333,53.1667 4,26.5C 7.68399,14.9837 15.184,7.31707 26.5,3.5 Z"/></g>
<g><path style="opacity:1" fill="#0b194c" d="M 87.5,31.5 C 87.33,32.8221 87.6634,33.9887 88.5,35C 87.552,35.4828 86.552,35.6495 85.5,35.5C 85.6204,37.1986 85.9537,38.8653 86.5,40.5C 86.2718,42.3969 85.2718,43.7303 83.5,44.5C 85.6049,46.5916 87.2716,48.9249 88.5,51.5C 72.9943,36.5749 57.8276,36.9083 43,52.5C 42.1534,54.1932 41.3201,55.8599 40.5,57.5C 38.8227,61.5448 38.1561,65.8781 38.5,70.5C 38.5,71.5 38.5,72.5 38.5,73.5C 38.595,75.7857 39.2616,77.7857 40.5,79.5C 45.7368,91.7084 55.0702,97.375 68.5,96.5C 66.0314,97.3171 63.3647,97.8171 60.5,98C 61.0585,98.7247 61.3918,99.5581 61.5,100.5C 60.4405,102.457 59.4405,104.457 58.5,106.5C 58.8627,107.183 59.1961,107.85 59.5,108.5C 39.399,104.364 27.899,92.0305 25,71.5C 23.745,50.8418 32.5783,36.3418 51.5,28C 64.0877,23.7597 76.0877,24.9263 87.5,31.5 Z"/></g>
<g><path style="opacity:1" fill="#eeb34c" d="M 88.5,51.5 C 90.0909,54.3516 91.4242,57.3516 92.5,60.5C 85.2649,51.9254 76.5982,50.2587 66.5,55.5C 61.8683,54.3868 57.3683,53.7201 53,53.5C 49.9243,54.2883 46.7577,54.7883 43.5,55C 42.5399,56.4194 41.7065,57.9194 41,59.5C 40.5357,58.9056 40.369,58.2389 40.5,57.5C 41.3201,55.8599 42.1534,54.1932 43,52.5C 57.8276,36.9083 72.9943,36.5749 88.5,51.5 Z"/></g>
<g><path style="opacity:1" fill="#051442" d="M 87.5,31.5 C 106.971,44.0792 112.805,61.4125 105,83.5C 95.5427,102.475 80.376,110.808 59.5,108.5C 59.1961,107.85 58.8627,107.183 58.5,106.5C 59.4405,104.457 60.4405,102.457 61.5,100.5C 61.3918,99.5581 61.0585,98.7247 60.5,98C 63.3647,97.8171 66.0314,97.3171 68.5,96.5C 79.6301,95.4424 87.2968,89.7757 91.5,79.5C 92.1098,78.609 92.4431,77.609 92.5,76.5C 93.8333,71.1667 93.8333,65.8333 92.5,60.5C 91.4242,57.3516 90.0909,54.3516 88.5,51.5C 87.2716,48.9249 85.6049,46.5916 83.5,44.5C 85.2718,43.7303 86.2718,42.3969 86.5,40.5C 85.9537,38.8653 85.6204,37.1986 85.5,35.5C 86.552,35.6495 87.552,35.4828 88.5,35C 87.6634,33.9887 87.33,32.8221 87.5,31.5 Z"/></g>
<g><path style="opacity:1" fill="#f0a449" d="M 66.5,55.5 C 66.5,55.8333 66.5,56.1667 66.5,56.5C 63.2633,58.6304 61.2633,61.6304 60.5,65.5C 60.1667,65.5 59.8333,65.5 59.5,65.5C 59.5391,63.6412 58.7058,62.3079 57,61.5C 51.7461,62.4199 46.5795,62.4199 41.5,61.5C 40.914,61.7093 40.414,62.0426 40,62.5C 39.8171,65.3647 39.3171,68.0314 38.5,70.5C 38.1561,65.8781 38.8227,61.5448 40.5,57.5C 40.369,58.2389 40.5357,58.9056 41,59.5C 41.7065,57.9194 42.5399,56.4194 43.5,55C 46.7577,54.7883 49.9243,54.2883 53,53.5C 57.3683,53.7201 61.8683,54.3868 66.5,55.5 Z"/></g>
<g><path style="opacity:1" fill="#0f1446" d="M 66.5,56.5 C 70.7067,60.5953 72.3734,65.5953 71.5,71.5C 70.5023,75.5055 68.5023,78.8388 65.5,81.5C 61.4425,76.9905 59.7758,71.6572 60.5,65.5C 61.2633,61.6304 63.2633,58.6304 66.5,56.5 Z"/></g>
<g><path style="opacity:1" fill="#e36f25" d="M 92.5,60.5 C 93.8333,65.8333 93.8333,71.1667 92.5,76.5C 92.9783,73.7224 91.9783,71.7224 89.5,70.5C 83.4779,70.8547 77.4779,71.1881 71.5,71.5C 72.3734,65.5953 70.7067,60.5953 66.5,56.5C 66.5,56.1667 66.5,55.8333 66.5,55.5C 76.5982,50.2587 85.2649,51.9254 92.5,60.5 Z"/></g>
<g><path style="opacity:1" fill="#f09346" d="M 59.5,65.5 C 59.6633,67.8568 59.4966,70.1902 59,72.5C 58.6667,71.8333 58.3333,71.1667 58,70.5C 55,71.1667 52,71.8333 49,72.5C 45.6996,72.477 42.6996,72.1436 40,71.5C 39.7216,72.4158 39.2216,73.0825 38.5,73.5C 38.5,72.5 38.5,71.5 38.5,70.5C 39.3171,68.0314 39.8171,65.3647 40,62.5C 40.414,62.0426 40.914,61.7093 41.5,61.5C 46.5795,62.4199 51.7461,62.4199 57,61.5C 58.7058,62.3079 59.5391,63.6412 59.5,65.5 Z"/></g>
<g><path style="opacity:1" fill="#e97f3d" d="M 59.5,65.5 C 59.8333,65.5 60.1667,65.5 60.5,65.5C 59.7758,71.6572 61.4425,76.9905 65.5,81.5C 65.5,81.8333 65.5,82.1667 65.5,82.5C 57.4973,86.8993 49.8306,86.3993 42.5,81C 41.8742,80.2496 41.3742,79.4162 41,78.5C 40.6012,78.7284 40.4346,79.0618 40.5,79.5C 39.2616,77.7857 38.595,75.7857 38.5,73.5C 39.2216,73.0825 39.7216,72.4158 40,71.5C 42.6996,72.1436 45.6996,72.477 49,72.5C 52,71.8333 55,71.1667 58,70.5C 58.3333,71.1667 58.6667,71.8333 59,72.5C 59.4966,70.1902 59.6633,67.8568 59.5,65.5 Z"/></g>
<g><path style="opacity:1" fill="#ea8c30" d="M 92.5,76.5 C 92.4431,77.609 92.1098,78.609 91.5,79.5C 89.3136,80.8233 87.8136,82.8233 87,85.5C 80.0316,83.8175 72.865,82.8175 65.5,82.5C 65.5,82.1667 65.5,81.8333 65.5,81.5C 68.5023,78.8388 70.5023,75.5055 71.5,71.5C 77.4779,71.1881 83.4779,70.8547 89.5,70.5C 91.9783,71.7224 92.9783,73.7224 92.5,76.5 Z"/></g>
<g><path style="opacity:1" fill="#eda03f" d="M 65.5,82.5 C 72.865,82.8175 80.0316,83.8175 87,85.5C 87.8136,82.8233 89.3136,80.8233 91.5,79.5C 87.2968,89.7757 79.6301,95.4424 68.5,96.5C 55.0702,97.375 45.7368,91.7084 40.5,79.5C 40.4346,79.0618 40.6012,78.7284 41,78.5C 41.3742,79.4162 41.8742,80.2496 42.5,81C 49.8306,86.3993 57.4973,86.8993 65.5,82.5 Z"/></g>
</svg>
