<?xml version="1.0" encoding="UTF-8"?>
<!DOCTYPE svg PUBLIC "-//W3C//DTD SVG 1.1//EN" "http://www.w3.org/Graphics/SVG/1.1/DTD/svg11.dtd">
<svg xmlns="http://www.w3.org/2000/svg" version="1.1" width="135px" height="135px" style="shape-rendering:geometricPrecision; text-rendering:geometricPrecision; image-rendering:optimizeQuality; fill-rule:evenodd; clip-rule:evenodd" xmlns:xlink="http://www.w3.org/1999/xlink">
<g><path style="opacity:0.973" fill="#704de5" d="M 24.5,-0.5 C 52.8333,-0.5 81.1667,-0.5 109.5,-0.5C 115.486,1.91489 120.986,5.24823 126,9.5C 129.661,14.4933 132.494,19.8266 134.5,25.5C 134.5,36.8333 134.5,48.1667 134.5,59.5C 133.883,59.6107 133.383,59.944 133,60.5C 132.583,59.244 131.75,58.5774 130.5,58.5C 130.667,47.8281 130.5,37.1615 130,26.5C 126.168,13.6662 117.668,6.16617 104.5,4C 78.5,3.33333 52.5,3.33333 26.5,4C 15,7.5 7.5,15 4,26.5C 3.50015,37.495 3.33349,48.495 3.5,59.5C 2.29208,60.2341 0.95875,60.5674 -0.5,60.5C -0.5,48.8333 -0.5,37.1667 -0.5,25.5C 1.50572,19.8266 4.33905,14.4933 8,9.5C 13.0144,5.24823 18.5144,1.91489 24.5,-0.5 Z"/></g>
<g><path style="opacity:1" fill="#fdfdfe" d="M 130.5,58.5 C 130.667,74.5035 130.5,90.5035 130,106.5C 126.833,119 119,126.833 106.5,130C 79.8333,130.667 53.1667,130.667 26.5,130C 13.6662,126.168 6.16617,117.668 4,104.5C 3.50008,89.5037 3.33342,74.5037 3.5,59.5C 3.33349,48.495 3.50015,37.495 4,26.5C 7.5,15 15,7.5 26.5,4C 52.5,3.33333 78.5,3.33333 104.5,4C 117.668,6.16617 126.168,13.6662 130,26.5C 130.5,37.1615 130.667,47.8281 130.5,58.5 Z"/></g>
<g><path style="opacity:1" fill="#6d4ae5" d="M 48.5,46.5 C 54.7013,45.285 59.8679,46.9517 64,51.5C 63.3771,57.5256 61.2104,58.359 57.5,54C 56.2713,53.2189 54.938,52.7189 53.5,52.5C 50.4249,54.0662 47.7583,56.2329 45.5,59C 43.8333,59.6667 42.1667,59.6667 40.5,59C 39.4829,57.9505 39.3162,56.7839 40,55.5C 43.0379,52.6306 45.8712,49.6306 48.5,46.5 Z"/></g>
<g><path style="opacity:1" fill="#5d48f0" d="M 37.5,87.5 C 40.1818,85.9205 43.1818,84.7538 46.5,84C 45.7334,82.5295 45.0668,81.0295 44.5,79.5C 54.9945,68.1723 65.9945,57.339 77.5,47C 80.8333,46.3333 84.1667,46.3333 87.5,47C 90,49.5 92.5,52 95,54.5C 95.6667,55.5 95.6667,56.5 95,57.5C 93.2739,58.5762 91.4406,58.7429 89.5,58C 87.5709,55.5617 85.2376,53.7283 82.5,52.5C 81.062,52.7189 79.7287,53.2189 78.5,54C 67.8333,64.6667 57.1667,75.3333 46.5,86C 43.6074,87.1488 40.6074,87.6488 37.5,87.5 Z"/></g>
<g><path style="opacity:0.951" fill="#574df7" d="M 130.5,58.5 C 131.75,58.5774 132.583,59.244 133,60.5C 133.383,59.944 133.883,59.6107 134.5,59.5C 134.5,75.8333 134.5,92.1667 134.5,108.5C 132.494,114.173 129.661,119.507 126,124.5C 120.986,128.752 115.486,132.085 109.5,134.5C 81.1667,134.5 52.8333,134.5 24.5,134.5C 18.5144,132.085 13.0144,128.752 8,124.5C 4.33905,119.507 1.50572,114.173 -0.5,108.5C -0.5,92.5 -0.5,76.5 -0.5,60.5C 0.95875,60.5674 2.29208,60.2341 3.5,59.5C 3.33342,74.5037 3.50008,89.5037 4,104.5C 6.16617,117.668 13.6662,126.168 26.5,130C 53.1667,130.667 79.8333,130.667 106.5,130C 119,126.833 126.833,119 130,106.5C 130.5,90.5035 130.667,74.5035 130.5,58.5 Z"/></g>
<g><path style="opacity:1" fill="#714be4" d="M 44.5,79.5 C 45.0668,81.0295 45.7334,82.5295 46.5,84C 43.1818,84.7538 40.1818,85.9205 37.5,87.5C 28.1129,85.071 24.6129,79.071 27,69.5C 28.1411,67.3911 29.6411,65.5578 31.5,64C 30.6433,63.3109 29.9767,62.4776 29.5,61.5C 32.4281,60.5159 35.4281,60.1826 38.5,60.5C 38.665,63.8499 38.4983,67.1832 38,70.5C 36.1724,68.1927 34.5057,68.526 33,71.5C 32.1667,78.6667 35.3333,81.8333 42.5,81C 43.0442,80.2828 43.7109,79.7828 44.5,79.5 Z"/></g>
<g><path style="opacity:1" fill="#524bfb" d="M 96.5,59.5 C 99.5719,59.1826 102.572,59.5159 105.5,60.5C 105.023,61.4776 104.357,62.3109 103.5,63C 111.432,70.6346 111.432,78.3013 103.5,86C 98.8333,88 94.1667,88 89.5,86C 83.3185,79.9855 77.3185,73.8188 71.5,67.5C 72.5,65.8333 73.8333,64.5 75.5,63.5C 81.6521,69.1518 87.6521,74.9851 93.5,81C 100.667,81.8333 103.833,78.6667 103,71.5C 101.667,70.1667 100.333,68.8333 99,67.5C 98.3333,68.1667 97.6667,68.8333 97,69.5C 96.5017,66.1832 96.335,62.8499 96.5,59.5 Z"/></g>
</svg>
