<?xml version="1.0" encoding="UTF-8"?>
<!DOCTYPE svg PUBLIC "-//W3C//DTD SVG 1.1//EN" "http://www.w3.org/Graphics/SVG/1.1/DTD/svg11.dtd">
<svg xmlns="http://www.w3.org/2000/svg" version="1.1" width="135px" height="135px" style="shape-rendering:geometricPrecision; text-rendering:geometricPrecision; image-rendering:optimizeQuality; fill-rule:evenodd; clip-rule:evenodd" xmlns:xlink="http://www.w3.org/1999/xlink">
<g><path style="opacity:0.984" fill="#704de5" d="M 24.5,-0.5 C 52.8333,-0.5 81.1667,-0.5 109.5,-0.5C 122.27,3.93636 130.604,12.603 134.5,25.5C 134.5,37.8333 134.5,50.1667 134.5,62.5C 133.25,62.4226 132.417,61.756 132,60.5C 131.722,61.4158 131.222,62.0825 130.5,62.5C 130.943,49.4258 130.443,36.4258 129,23.5C 124.905,13.0721 117.405,6.57213 106.5,4C 78.7846,3.03439 51.1179,3.36773 23.5,5C 11.6245,9.92354 4.95785,18.7569 3.5,31.5C 2.39514,32.6005 1.06181,33.2671 -0.5,33.5C -0.5,30.8333 -0.5,28.1667 -0.5,25.5C 3.39633,12.603 11.7297,3.93636 24.5,-0.5 Z"/></g>
<g><path style="opacity:1" fill="#fdfdfe" d="M 130.5,62.5 C 130.667,77.1705 130.5,91.8371 130,106.5C 126.721,119.446 118.554,127.279 105.5,130C 79.1667,130.667 52.8333,130.667 26.5,130C 14.5675,126.401 7.06749,118.568 4,106.5C 3.50003,81.5022 3.33336,56.5022 3.5,31.5C 4.95785,18.7569 11.6245,9.92354 23.5,5C 51.1179,3.36773 78.7846,3.03439 106.5,4C 117.405,6.57213 124.905,13.0721 129,23.5C 130.443,36.4258 130.943,49.4258 130.5,62.5 Z"/></g>
<g><path style="opacity:1" fill="#222222" d="M 57.5,26.5 C 82.1844,24.0783 98.6844,34.4117 107,57.5C 110.057,83.2375 99.2241,99.7375 74.5,107C 51.6843,109.346 36.1843,99.8457 28,78.5C 23.5769,53.0074 33.4102,35.674 57.5,26.5 Z"/></g>
<g><path style="opacity:1" fill="#8f35f4" d="M 67.5,40.5 C 67.5,43.1667 67.5,45.8333 67.5,48.5C 66.1667,48.5 65.5,49.1667 65.5,50.5C 58.8333,56.8333 52.1667,63.1667 45.5,69.5C 45.3354,66.4816 45.502,63.4816 46,60.5C 52.7558,53.2389 59.9225,46.5722 67.5,40.5 Z"/></g>
<g><path style="opacity:1" fill="#5848f4" d="M 67.5,40.5 C 75.0775,46.5722 82.2442,53.2389 89,60.5C 89.498,63.4816 89.6646,66.4816 89.5,69.5C 87.1667,67.5 84.8333,65.5 82.5,63.5C 81.5,61.8333 80.1667,60.5 78.5,59.5C 75.1667,55.5 71.5,51.8333 67.5,48.5C 67.5,45.8333 67.5,43.1667 67.5,40.5 Z"/></g>
<g><path style="opacity:1" fill="#d9bffd" d="M 77.5,60.5 C 73.2899,68.06 68.6232,75.3933 63.5,82.5C 62.6431,83.4252 61.6431,84.0919 60.5,84.5C 59.0384,83.5423 57.7051,82.3756 56.5,81C 61.5845,72.2564 67.7512,64.4231 75,57.5C 76.045,58.3734 76.8783,59.3734 77.5,60.5 Z"/></g>
<g><path style="opacity:1" fill="#e9d9fd" d="M 67.5,48.5 C 71.5,51.8333 75.1667,55.5 78.5,59.5C 78.5,60.1667 78.1667,60.5 77.5,60.5C 76.8783,59.3734 76.045,58.3734 75,57.5C 67.7512,64.4231 61.5845,72.2564 56.5,81C 57.7051,82.3756 59.0384,83.5423 60.5,84.5C 60.9528,85.4584 61.6195,86.2917 62.5,87C 62.2716,87.3988 61.9382,87.5654 61.5,87.5C 57.5,84.1667 53.8333,80.5 50.5,76.5C 50.9418,75.7688 51.1085,74.7688 51,73.5C 56.0452,66.577 61.2119,59.7437 66.5,53C 65.7476,52.3292 65.4142,51.4959 65.5,50.5C 65.5,49.1667 66.1667,48.5 67.5,48.5 Z"/></g>
<g><path style="opacity:1" fill="#f6f1fd" d="M 65.5,50.5 C 65.4142,51.4959 65.7476,52.3292 66.5,53C 61.2119,59.7437 56.0452,66.577 51,73.5C 51.1085,74.7688 50.9418,75.7688 50.5,76.5C 47.6356,74.9767 45.969,72.6433 45.5,69.5C 52.1667,63.1667 58.8333,56.8333 65.5,50.5 Z"/></g>
<g><path style="opacity:1" fill="#d0affc" d="M 78.5,59.5 C 80.1667,60.5 81.5,61.8333 82.5,63.5C 76.8544,70.3807 71.6877,77.714 67,85.5C 66.0975,86.7014 64.9308,87.5348 63.5,88C 64.8228,88.8159 65.4894,89.9826 65.5,91.5C 63.8333,90.5 62.5,89.1667 61.5,87.5C 61.9382,87.5654 62.2716,87.3988 62.5,87C 61.6195,86.2917 60.9528,85.4584 60.5,84.5C 61.6431,84.0919 62.6431,83.4252 63.5,82.5C 68.6232,75.3933 73.2899,68.06 77.5,60.5C 78.1667,60.5 78.5,60.1667 78.5,59.5 Z"/></g>
<g><path style="opacity:0.971" fill="#594df7" d="M 3.5,31.5 C 3.33336,56.5022 3.50003,81.5022 4,106.5C 7.06749,118.568 14.5675,126.401 26.5,130C 52.8333,130.667 79.1667,130.667 105.5,130C 118.554,127.279 126.721,119.446 130,106.5C 130.5,91.8371 130.667,77.1705 130.5,62.5C 131.222,62.0825 131.722,61.4158 132,60.5C 132.417,61.756 133.25,62.4226 134.5,62.5C 134.5,77.8333 134.5,93.1667 134.5,108.5C 132.494,114.173 129.661,119.507 126,124.5C 120.986,128.752 115.486,132.085 109.5,134.5C 81.1667,134.5 52.8333,134.5 24.5,134.5C 18.5144,132.085 13.0144,128.752 8,124.5C 4.33905,119.507 1.50572,114.173 -0.5,108.5C -0.5,83.5 -0.5,58.5 -0.5,33.5C 1.06181,33.2671 2.39514,32.6005 3.5,31.5 Z"/></g>
<g><path style="opacity:1" fill="#c29bf9" d="M 82.5,63.5 C 84.8333,65.5 87.1667,67.5 89.5,69.5C 89.6495,70.552 89.4828,71.552 89,72.5C 82.1667,79.3333 75.3333,86.1667 68.5,93C 67.0024,93.5847 66.0024,93.0847 65.5,91.5C 65.4894,89.9826 64.8228,88.8159 63.5,88C 64.9308,87.5348 66.0975,86.7014 67,85.5C 71.6877,77.714 76.8544,70.3807 82.5,63.5 Z"/></g>
</svg>
