<?xml version="1.0" encoding="UTF-8"?>
<!DOCTYPE svg PUBLIC "-//W3C//DTD SVG 1.1//EN" "http://www.w3.org/Graphics/SVG/1.1/DTD/svg11.dtd">
<svg xmlns="http://www.w3.org/2000/svg" version="1.1" width="135px" height="135px" style="shape-rendering:geometricPrecision; text-rendering:geometricPrecision; image-rendering:optimizeQuality; fill-rule:evenodd; clip-rule:evenodd" xmlns:xlink="http://www.w3.org/1999/xlink">
<g><path style="opacity:0.942" fill="#4829ff" d="M 24.5,-0.5 C 52.8333,-0.5 81.1667,-0.5 109.5,-0.5C 115.486,1.91489 120.986,5.24823 126,9.5C 129.661,14.4933 132.494,19.8266 134.5,25.5C 134.5,53.1667 134.5,80.8333 134.5,108.5C 132.494,114.173 129.661,119.507 126,124.5C 120.986,128.752 115.486,132.085 109.5,134.5C 81.1667,134.5 52.8333,134.5 24.5,134.5C 18.5144,132.085 13.0144,128.752 8,124.5C 4.33905,119.507 1.50572,114.173 -0.5,108.5C -0.5,80.8333 -0.5,53.1667 -0.5,25.5C 1.50572,19.8266 4.33905,14.4933 8,9.5C 13.0144,5.24823 18.5144,1.91489 24.5,-0.5 Z"/></g>
<g><path style="opacity:1" fill="#fdfdfe" d="M 26.5,3.5 C 52.8354,3.33336 79.1688,3.50003 105.5,4C 118.122,6.62111 126.289,14.1211 130,26.5C 130.667,52.8333 130.667,79.1667 130,105.5C 127.046,119.454 118.546,127.621 104.5,130C 78.5,130.667 52.5,130.667 26.5,130C 13.6662,126.168 6.16617,117.668 4,104.5C 3.33333,78.5 3.33333,52.5 4,26.5C 7.68399,14.9837 15.184,7.31707 26.5,3.5 Z"/></g>
<g><path style="opacity:1" fill="#4829fc" d="M 60.5,27.5 C 82.0732,26.3588 96.9065,35.6921 105,55.5C 109.572,78.8587 101.072,95.3587 79.5,105C 55.671,110.139 38.8377,101.639 29,79.5C 24.0704,52.6343 34.5704,35.3009 60.5,27.5 Z"/></g>
<g><path style="opacity:1" fill="#f5f2fa" d="M 60.5,38.5 C 78.013,37.329 89.513,44.9957 95,61.5C 95.6292,85.2046 84.1292,96.3712 60.5,95C 44.1031,89.3919 36.9365,77.8919 39,60.5C 42.3837,49.3458 49.5504,42.0125 60.5,38.5 Z"/></g>
<g><path style="opacity:1" fill="#4b2af7" d="M 59.5,41.5 C 73.9759,39.3607 84.4759,44.694 91,57.5C 92.434,61.4065 92.7673,65.4065 92,69.5C 87.1025,48.97 74.6025,41.8033 54.5,48C 48.8251,51.3449 44.9917,56.1782 43,62.5C 44.0003,55.3578 47.5003,49.5244 53.5,45C 55.7274,44.059 57.7274,42.8923 59.5,41.5 Z"/></g>
<g><path style="opacity:1" fill="#4728fc" d="M 61.5,52.5 C 77.3595,51.9405 83.5262,59.2739 80,74.5C 75.4636,81.8438 68.9636,84.3438 60.5,82C 46.9418,71.649 47.2752,61.8156 61.5,52.5 Z"/></g>
<g><path style="opacity:1" fill="#4b2bf6" d="M 86.5,69.5 C 87.457,80.4373 82.457,87.604 71.5,91C 59.3729,92.706 51.0395,87.8726 46.5,76.5C 46.8457,75.3044 47.3457,75.3044 48,76.5C 55.1748,87.8259 65.0082,90.6592 77.5,85C 82.702,81.0941 85.702,75.9274 86.5,69.5 Z"/></g>
</svg>
