<?xml version="1.0" encoding="UTF-8"?>
<!DOCTYPE svg PUBLIC "-//W3C//DTD SVG 1.1//EN" "http://www.w3.org/Graphics/SVG/1.1/DTD/svg11.dtd">
<svg xmlns="http://www.w3.org/2000/svg" version="1.1" width="135px" height="135px" style="shape-rendering:geometricPrecision; text-rendering:geometricPrecision; image-rendering:optimizeQuality; fill-rule:evenodd; clip-rule:evenodd" xmlns:xlink="http://www.w3.org/1999/xlink">
<g><path style="opacity:0.988" fill="#fda539" d="M 25.5,-0.5 C 41.1667,-0.5 56.8333,-0.5 72.5,-0.5C 71.3995,0.60486 70.7329,1.93819 70.5,3.5C 56.1628,3.33342 41.8295,3.50009 27.5,4C 14.55,7.2829 6.71667,15.4496 4,28.5C 3.50003,53.4978 3.33336,78.4978 3.5,103.5C 2.5275,105.139 1.19416,106.473 -0.5,107.5C -0.5,80.1667 -0.5,52.8333 -0.5,25.5C 3.83333,12.5 12.5,3.83333 25.5,-0.5 Z"/></g>
<g><path style="opacity:1" fill="#e6a869" d="M 72.5,-0.5 C 77.5,-0.5 82.5,-0.5 87.5,-0.5C 86.5,0.833333 85.5,2.16667 84.5,3.5C 79.8333,3.5 75.1667,3.5 70.5,3.5C 70.7329,1.93819 71.3995,0.60486 72.5,-0.5 Z"/></g>
<g><path style="opacity:1" fill="#cda98b" d="M 87.5,-0.5 C 92.8333,-0.5 98.1667,-0.5 103.5,-0.5C 103.267,1.06181 102.6,2.39514 101.5,3.5C 95.8333,3.5 90.1667,3.5 84.5,3.5C 85.5,2.16667 86.5,0.833333 87.5,-0.5 Z"/></g>
<g><path style="opacity:1" fill="#b1aaae" d="M 103.5,-0.5 C 105.167,-0.5 106.833,-0.5 108.5,-0.5C 112.071,0.618594 115.404,2.28526 118.5,4.5C 117.167,5.16667 116.167,6.16667 115.5,7.5C 111.123,5.23831 106.456,3.90497 101.5,3.5C 102.6,2.39514 103.267,1.06181 103.5,-0.5 Z"/></g>
<g><path style="opacity:1" fill="#fefefe" d="M 70.5,3.5 C 75.1667,3.5 79.8333,3.5 84.5,3.5C 90.1667,3.5 95.8333,3.5 101.5,3.5C 106.456,3.90497 111.123,5.23831 115.5,7.5C 119.817,10.1517 123.484,13.485 126.5,17.5C 127.959,21.0457 129.126,24.7124 130,28.5C 130.667,53.8333 130.667,79.1667 130,104.5C 127.5,119 119,127.5 104.5,130C 88.1701,130.5 71.8367,130.667 55.5,130.5C 49.8333,130.5 44.1667,130.5 38.5,130.5C 32.6772,130.877 27.0105,130.21 21.5,128.5C 17.1806,125.998 13.1806,122.998 9.5,119.5C 6.9109,114.401 4.9109,109.067 3.5,103.5C 3.33336,78.4978 3.50003,53.4978 4,28.5C 6.71667,15.4496 14.55,7.2829 27.5,4C 41.8295,3.50009 56.1628,3.33342 70.5,3.5 Z"/></g>
<g><path style="opacity:1" fill="#8da7ce" d="M 118.5,4.5 C 123.167,7.16667 126.833,10.8333 129.5,15.5C 128.5,16.1667 127.5,16.8333 126.5,17.5C 123.484,13.485 119.817,10.1517 115.5,7.5C 116.167,6.16667 117.167,5.16667 118.5,4.5 Z"/></g>
<g><path style="opacity:1" fill="#fb7288" d="M 66.5,27.5 C 66.2865,29.1439 66.6198,30.6439 67.5,32C 66.5842,32.2784 65.9175,32.7784 65.5,33.5C 63.8333,33.5 62.1667,33.5 60.5,33.5C 59.5,33.5 58.5,33.5 57.5,33.5C 57.366,31.7085 57.6993,30.0418 58.5,28.5C 60.9479,27.5269 63.6146,27.1936 66.5,27.5 Z"/></g>
<g><path style="opacity:1" fill="#cc7eac" d="M 66.5,27.5 C 70.2693,27.244 73.9359,27.5773 77.5,28.5C 77.7583,30.8098 77.7583,32.8098 77.5,34.5C 73.5191,33.9791 69.5191,33.6458 65.5,33.5C 65.9175,32.7784 66.5842,32.2784 67.5,32C 66.6198,30.6439 66.2865,29.1439 66.5,27.5 Z"/></g>
<g><path style="opacity:1" fill="#fdfcfc" d="M 60.5,33.5 C 62.1667,33.5 63.8333,33.5 65.5,33.5C 69.5191,33.6458 73.5191,33.9791 77.5,34.5C 81.2601,36.2155 84.9268,38.2155 88.5,40.5C 103.761,55.6699 105.095,72.0033 92.5,89.5C 89.7861,92.2154 86.7861,94.5488 83.5,96.5C 79.7153,98.4282 75.7153,99.7616 71.5,100.5C 68.5,100.5 65.5,100.5 62.5,100.5C 59.4606,99.99 56.4606,99.3234 53.5,98.5C 52.4863,97.3263 51.153,96.6596 49.5,96.5C 43.4491,92.4126 38.7825,87.0792 35.5,80.5C 30.4857,65.9045 33.1524,52.9045 43.5,41.5C 45.8162,40.1944 48.1495,38.8611 50.5,37.5C 53.6959,35.5596 57.0292,34.2263 60.5,33.5 Z"/></g>
<g><path style="opacity:1" fill="#9a89ca" d="M 77.5,28.5 C 81.5782,29.3743 85.2449,31.041 88.5,33.5C 88.5,35.8333 88.5,38.1667 88.5,40.5C 84.9268,38.2155 81.2601,36.2155 77.5,34.5C 77.7583,32.8098 77.7583,30.8098 77.5,28.5 Z"/></g>
<g><path style="opacity:1" fill="#ff9367" d="M 48.5,31.5 C 50.3079,32.9179 50.9746,34.9179 50.5,37.5C 48.1495,38.8611 45.8162,40.1944 43.5,41.5C 42.6586,39.6208 42.3253,37.6208 42.5,35.5C 44.1475,33.6736 46.1475,32.3403 48.5,31.5 Z"/></g>
<g><path style="opacity:1" fill="#ff837b" d="M 58.5,28.5 C 57.6993,30.0418 57.366,31.7085 57.5,33.5C 58.5,33.5 59.5,33.5 60.5,33.5C 57.0292,34.2263 53.6959,35.5596 50.5,37.5C 50.9746,34.9179 50.3079,32.9179 48.5,31.5C 51.381,29.32 54.7144,28.32 58.5,28.5 Z"/></g>
<g><path style="opacity:0.989" fill="#4f9df7" d="M 129.5,15.5 C 131.715,18.5961 133.381,21.9295 134.5,25.5C 134.5,53.1667 134.5,80.8333 134.5,108.5C 130.167,121.5 121.5,130.167 108.5,134.5C 90.1667,134.5 71.8333,134.5 53.5,134.5C 54.1667,133.167 54.8333,131.833 55.5,130.5C 71.8367,130.667 88.1701,130.5 104.5,130C 119,127.5 127.5,119 130,104.5C 130.667,79.1667 130.667,53.8333 130,28.5C 129.126,24.7124 127.959,21.0457 126.5,17.5C 127.5,16.8333 128.5,16.1667 129.5,15.5 Z"/></g>
<g><path style="opacity:1" fill="#ffa84f" d="M 72.5,52.5 C 72.5,52.8333 72.5,53.1667 72.5,53.5C 70.4885,54.2283 68.4885,55.0617 66.5,56C 67.2524,56.6708 67.5858,57.5041 67.5,58.5C 66.3951,57.3995 65.0618,56.7329 63.5,56.5C 57.0799,53.9113 52.7465,55.9113 50.5,62.5C 49.6981,63.9516 49.1981,65.6183 49,67.5C 48.6924,66.6919 48.1924,66.0253 47.5,65.5C 45.6253,66.4095 44.292,67.7428 43.5,69.5C 40.6061,59.7708 43.9394,52.6041 53.5,48C 60.638,46.3831 66.9714,47.8831 72.5,52.5 Z"/></g>
<g><path style="opacity:1" fill="#569af3" d="M 88.5,33.5 C 105.158,45.0852 110.658,60.7518 105,80.5C 103.047,86.0992 99.88,90.7659 95.5,94.5C 95.6621,92.4727 95.4955,90.4727 95,88.5C 94.1618,89.999 93.3285,90.3324 92.5,89.5C 105.095,72.0033 103.761,55.6699 88.5,40.5C 88.5,38.1667 88.5,35.8333 88.5,33.5 Z"/></g>
<g><path style="opacity:1" fill="#ffaf4d" d="M 42.5,35.5 C 42.3253,37.6208 42.6586,39.6208 43.5,41.5C 33.1524,52.9045 30.4857,65.9045 35.5,80.5C 34.6944,83.8836 34.361,87.2169 34.5,90.5C 24.0961,74.9422 23.9295,59.2755 34,43.5C 36.1919,40.0785 39.0253,37.4118 42.5,35.5 Z"/></g>
<g><path style="opacity:1" fill="#fbfbfb" d="M 63.5,56.5 C 58.5805,60.9612 56.5805,66.2945 57.5,72.5C 57.5,72.8333 57.5,73.1667 57.5,73.5C 55.7162,73.1075 54.0495,72.4408 52.5,71.5C 50.8736,68.7543 50.2069,65.7543 50.5,62.5C 52.7465,55.9113 57.0799,53.9113 63.5,56.5 Z"/></g>
<g><path style="opacity:1" fill="#53b7fd" d="M 72.5,53.5 C 72.5,53.1667 72.5,52.8333 72.5,52.5C 77.5813,52.5081 81.9146,54.1748 85.5,57.5C 84.2617,57.81 84.2617,58.31 85.5,59C 83.2726,59.941 81.2726,61.1077 79.5,62.5C 78.609,61.8902 77.609,61.5569 76.5,61.5C 76.6716,60.5084 76.3382,59.8417 75.5,59.5C 75.3465,57.0301 74.3465,55.0301 72.5,53.5 Z"/></g>
<g><path style="opacity:1" fill="#fc8a6a" d="M 72.5,53.5 C 74.3465,55.0301 75.3465,57.0301 75.5,59.5C 73.2722,60.3771 71.2722,61.7104 69.5,63.5C 69.6716,62.5084 69.3382,61.8417 68.5,61.5C 67.8902,60.609 67.5569,59.609 67.5,58.5C 67.5858,57.5041 67.2524,56.6708 66.5,56C 68.4885,55.0617 70.4885,54.2283 72.5,53.5 Z"/></g>
<g><path style="opacity:1" fill="#f9f8fb" d="M 76.5,61.5 C 77.609,61.5569 78.609,61.8902 79.5,62.5C 83.0912,64.7824 84.4245,68.1157 83.5,72.5C 83.0894,76.0791 81.0894,78.2458 77.5,79C 74.9615,79.7958 72.6282,79.6291 70.5,78.5C 75.5839,73.9846 77.5839,68.318 76.5,61.5 Z"/></g>
<g><path style="opacity:1" fill="#fdeaeb" d="M 68.5,61.5 C 69.3382,61.8417 69.6716,62.5084 69.5,63.5C 69.2064,66.7541 67.873,69.4208 65.5,71.5C 65.3685,67.7794 66.3685,64.4461 68.5,61.5 Z"/></g>
<g><path style="opacity:1" fill="#3e95fe" d="M 85.5,57.5 C 89.0231,59.8733 91.0231,63.2066 91.5,67.5C 89.8523,68.8098 88.1856,70.1431 86.5,71.5C 85.7189,70.2713 85.2189,68.938 85,67.5C 84.8019,69.3817 84.3019,71.0484 83.5,72.5C 84.4245,68.1157 83.0912,64.7824 79.5,62.5C 81.2726,61.1077 83.2726,59.941 85.5,59C 84.2617,58.31 84.2617,57.81 85.5,57.5 Z"/></g>
<g><path style="opacity:1" fill="#57b5fd" d="M 63.5,56.5 C 65.0618,56.7329 66.3951,57.3995 67.5,58.5C 67.5569,59.609 67.8902,60.609 68.5,61.5C 66.3685,64.4461 65.3685,67.7794 65.5,71.5C 65.5,71.8333 65.5,72.1667 65.5,72.5C 64.6981,71.0484 64.1981,69.3817 64,67.5C 63.2734,70.9548 61.1068,72.6215 57.5,72.5C 56.5805,66.2945 58.5805,60.9612 63.5,56.5 Z"/></g>
<g><path style="opacity:1" fill="#ff6887" d="M 75.5,59.5 C 76.3382,59.8417 76.6716,60.5084 76.5,61.5C 77.5839,68.318 75.5839,73.9846 70.5,78.5C 70.1667,78.5 69.8333,78.5 69.5,78.5C 67.7745,76.7721 66.4411,74.7721 65.5,72.5C 65.5,72.1667 65.5,71.8333 65.5,71.5C 67.873,69.4208 69.2064,66.7541 69.5,63.5C 71.2722,61.7104 73.2722,60.3771 75.5,59.5 Z"/></g>
<g><path style="opacity:1" fill="#ff896b" d="M 50.5,62.5 C 50.2069,65.7543 50.8736,68.7543 52.5,71.5C 50.4204,72.1606 48.4204,73.4939 46.5,75.5C 44.461,74.089 43.461,72.089 43.5,69.5C 44.292,67.7428 45.6253,66.4095 47.5,65.5C 48.1924,66.0253 48.6924,66.6919 49,67.5C 49.1981,65.6183 49.6981,63.9516 50.5,62.5 Z"/></g>
<g><path style="opacity:1" fill="#fd6c83" d="M 52.5,71.5 C 54.0495,72.4408 55.7162,73.1075 57.5,73.5C 57.7073,76.2406 58.7073,78.5739 60.5,80.5C 60.5,80.8333 60.5,81.1667 60.5,81.5C 54.6529,82.0032 49.9863,80.0032 46.5,75.5C 48.4204,73.4939 50.4204,72.1606 52.5,71.5 Z"/></g>
<g><path style="opacity:1" fill="#438ef8" d="M 65.5,72.5 C 66.4411,74.7721 67.7745,76.7721 69.5,78.5C 67.8762,78.6399 66.7096,77.9733 66,76.5C 64.3584,78.1019 62.5251,79.4352 60.5,80.5C 58.7073,78.5739 57.7073,76.2406 57.5,73.5C 57.5,73.1667 57.5,72.8333 57.5,72.5C 61.1068,72.6215 63.2734,70.9548 64,67.5C 64.1981,69.3817 64.6981,71.0484 65.5,72.5 Z"/></g>
<g><path style="opacity:1" fill="#1c65fe" d="M 91.5,67.5 C 91.5698,82.2604 84.2365,88.7604 69.5,87C 66.171,85.6705 63.171,83.8372 60.5,81.5C 60.5,81.1667 60.5,80.8333 60.5,80.5C 62.5251,79.4352 64.3584,78.1019 66,76.5C 66.7096,77.9733 67.8762,78.6399 69.5,78.5C 69.8333,78.5 70.1667,78.5 70.5,78.5C 72.6282,79.6291 74.9615,79.7958 77.5,79C 81.0894,78.2458 83.0894,76.0791 83.5,72.5C 84.3019,71.0484 84.8019,69.3817 85,67.5C 85.2189,68.938 85.7189,70.2713 86.5,71.5C 88.1856,70.1431 89.8523,68.8098 91.5,67.5 Z"/></g>
<g><path style="opacity:1" fill="#ff9c59" d="M 35.5,80.5 C 38.7825,87.0792 43.4491,92.4126 49.5,96.5C 48.5,96.5 47.5,96.5 46.5,96.5C 46.5,98.1667 46.5,99.8333 46.5,101.5C 41.8744,98.5422 37.8744,94.8755 34.5,90.5C 34.361,87.2169 34.6944,83.8836 35.5,80.5 Z"/></g>
<g><path style="opacity:1" fill="#838fd7" d="M 95.5,94.5 C 92.7276,98.3871 89.0609,101.054 84.5,102.5C 83.5386,100.735 83.2053,98.7354 83.5,96.5C 86.7861,94.5488 89.7861,92.2154 92.5,89.5C 93.3285,90.3324 94.1618,89.999 95,88.5C 95.4955,90.4727 95.6621,92.4727 95.5,94.5 Z"/></g>
<g><path style="opacity:1" fill="#ff8874" d="M 49.5,96.5 C 51.153,96.6596 52.4863,97.3263 53.5,98.5C 53.0618,98.4346 52.7284,98.6012 52.5,99C 55.1446,100.287 56.1446,102.453 55.5,105.5C 52.0884,104.925 49.0884,103.592 46.5,101.5C 46.5,99.8333 46.5,98.1667 46.5,96.5C 47.5,96.5 48.5,96.5 49.5,96.5 Z"/></g>
<g><path style="opacity:1" fill="#fe7483" d="M 53.5,98.5 C 56.4606,99.3234 59.4606,99.99 62.5,100.5C 65.0153,102.682 65.0153,104.682 62.5,106.5C 60.0971,106.552 57.7638,106.219 55.5,105.5C 56.1446,102.453 55.1446,100.287 52.5,99C 52.7284,98.6012 53.0618,98.4346 53.5,98.5 Z"/></g>
<g><path style="opacity:1" fill="#bf7db1" d="M 83.5,96.5 C 83.2053,98.7354 83.5386,100.735 84.5,102.5C 81.0039,105.048 77.0039,106.381 72.5,106.5C 72.1667,104.5 71.8333,102.5 71.5,100.5C 75.7153,99.7616 79.7153,98.4282 83.5,96.5 Z"/></g>
<g><path style="opacity:1" fill="#e5799d" d="M 62.5,100.5 C 65.5,100.5 68.5,100.5 71.5,100.5C 71.8333,102.5 72.1667,104.5 72.5,106.5C 69.0641,107.782 65.7307,107.782 62.5,106.5C 65.0153,104.682 65.0153,102.682 62.5,100.5 Z"/></g>
<g><path style="opacity:1" fill="#dfab79" d="M 3.5,103.5 C 4.9109,109.067 6.9109,114.401 9.5,119.5C 9.57298,121.027 8.90632,122.027 7.5,122.5C 3.78922,118.41 1.12255,113.743 -0.5,108.5C -0.5,108.167 -0.5,107.833 -0.5,107.5C 1.19416,106.473 2.5275,105.139 3.5,103.5 Z"/></g>
<g><path style="opacity:1" fill="#beaa9f" d="M 9.5,119.5 C 13.1806,122.998 17.1806,125.998 21.5,128.5C 21.0679,129.71 20.4013,130.71 19.5,131.5C 14.3635,130.032 10.3635,127.032 7.5,122.5C 8.90632,122.027 9.57298,121.027 9.5,119.5 Z"/></g>
<g><path style="opacity:0.986" fill="#9ca7bf" d="M 21.5,128.5 C 27.0105,130.21 32.6772,130.877 38.5,130.5C 37.5,131.833 36.5,133.167 35.5,134.5C 32.1667,134.5 28.8333,134.5 25.5,134.5C 23.3713,133.797 21.3713,132.797 19.5,131.5C 20.4013,130.71 21.0679,129.71 21.5,128.5 Z"/></g>
<g><path style="opacity:1" fill="#78a3dc" d="M 38.5,130.5 C 44.1667,130.5 49.8333,130.5 55.5,130.5C 54.8333,131.833 54.1667,133.167 53.5,134.5C 47.5,134.5 41.5,134.5 35.5,134.5C 36.5,133.167 37.5,131.833 38.5,130.5 Z"/></g>
</svg>
