<?xml version="1.0" encoding="UTF-8"?>
<!DOCTYPE svg PUBLIC "-//W3C//DTD SVG 1.1//EN" "http://www.w3.org/Graphics/SVG/1.1/DTD/svg11.dtd">
<svg xmlns="http://www.w3.org/2000/svg" version="1.1" width="135px" height="135px" style="shape-rendering:geometricPrecision; text-rendering:geometricPrecision; image-rendering:optimizeQuality; fill-rule:evenodd; clip-rule:evenodd" xmlns:xlink="http://www.w3.org/1999/xlink">
<g><path style="opacity:0.943" fill="#020202" d="M 24.5,-0.5 C 52.8333,-0.5 81.1667,-0.5 109.5,-0.5C 115.486,1.91489 120.986,5.24823 126,9.5C 129.661,14.4933 132.494,19.8266 134.5,25.5C 134.5,53.1667 134.5,80.8333 134.5,108.5C 132.494,114.173 129.661,119.507 126,124.5C 120.986,128.752 115.486,132.085 109.5,134.5C 81.1667,134.5 52.8333,134.5 24.5,134.5C 18.5144,132.085 13.0144,128.752 8,124.5C 4.33905,119.507 1.50572,114.173 -0.5,108.5C -0.5,80.8333 -0.5,53.1667 -0.5,25.5C 1.50572,19.8266 4.33905,14.4933 8,9.5C 13.0144,5.24823 18.5144,1.91489 24.5,-0.5 Z"/></g>
<g><path style="opacity:1" fill="#fcfcfc" d="M 26.5,3.5 C 53.1687,3.33336 79.8354,3.50003 106.5,4C 118.568,7.06749 126.401,14.5675 130,26.5C 130.667,52.8333 130.667,79.1667 130,105.5C 127.279,118.554 119.446,126.721 106.5,130C 79.8333,130.667 53.1667,130.667 26.5,130C 14.5675,126.401 7.06749,118.568 4,106.5C 3.33333,79.8333 3.33333,53.1667 4,26.5C 7.68399,14.9837 15.184,7.31707 26.5,3.5 Z"/></g>
<g><path style="opacity:1" fill="#0d0d0d" d="M 65.5,21.5 C 69.1608,23.7598 71.6608,27.0931 73,31.5C 74.4965,35.8125 75.4965,40.1458 76,44.5C 72.9845,41.3172 69.8178,38.3172 66.5,35.5C 63.1458,38.0205 60.3124,41.0205 58,44.5C 57.3333,42.1667 57.3333,39.8333 58,37.5C 59.7247,31.7214 62.2247,26.3881 65.5,21.5 Z"/></g>
<g><path style="opacity:1" fill="#181818" d="M 51.5,34.5 C 53.2252,34.8425 53.7252,35.8425 53,37.5C 32.9557,50.6203 29.2891,67.287 42,87.5C 46.8095,92.8201 52.6428,96.4867 59.5,98.5C 60.8793,99.8626 60.7126,100.863 59,101.5C 36.8601,93.3222 28.5268,77.6556 34,54.5C 37.923,46.0823 43.7564,39.4157 51.5,34.5 Z"/></g>
<g><path style="opacity:1" fill="#171717" d="M 79.5,34.5 C 101.941,46.9978 107.107,64.6645 95,87.5C 90.2223,94.449 83.7223,98.7823 75.5,100.5C 73.4311,100.176 73.0977,99.3425 74.5,98C 92.5991,91.6638 100.432,78.8304 98,59.5C 95.2587,49.6725 89.4253,42.3392 80.5,37.5C 79.8728,36.5832 79.5394,35.5832 79.5,34.5 Z"/></g>
<g><path style="opacity:1" fill="#0a0a0a" d="M 65.5,38.5 C 66.2389,38.369 66.9056,38.5357 67.5,39C 70.3159,42.7835 73.4826,46.2835 77,49.5C 76.3745,58.6738 78.0412,67.3405 82,75.5C 82.4988,79.4862 82.6655,83.4862 82.5,87.5C 77.3621,86.7676 74.0288,83.9342 72.5,79C 65.7233,75.251 61.0566,77.0843 58.5,84.5C 56.2011,85.6351 54.0344,86.9684 52,88.5C 50.6224,81.0967 51.6224,74.0967 55,67.5C 55.3333,62.1667 55.6667,56.8333 56,51.5C 59.0546,46.9662 62.2212,42.6329 65.5,38.5 Z"/></g>
<g><path style="opacity:1" fill="#f0f0f0" d="M 62.5,49.5 C 70.8246,47.9934 74.3246,51.3267 73,59.5C 66.6531,65.4549 62.1531,64.2883 59.5,56C 59.8402,53.4887 60.8402,51.322 62.5,49.5 Z"/></g>
<g><path style="opacity:1" fill="#0b0b0b" d="M 65.5,79.5 C 68.6421,79.7993 70.8088,81.4659 72,84.5C 72.7773,93.6144 71.1106,102.281 67,110.5C 62.3932,102.022 60.7265,93.022 62,83.5C 63.3756,82.2949 64.5423,80.9616 65.5,79.5 Z"/></g>
</svg>
