<?xml version="1.0" encoding="UTF-8"?>
<!DOCTYPE svg PUBLIC "-//W3C//DTD SVG 1.1//EN" "http://www.w3.org/Graphics/SVG/1.1/DTD/svg11.dtd">
<svg xmlns="http://www.w3.org/2000/svg" version="1.1" width="135px" height="135px" style="shape-rendering:geometricPrecision; text-rendering:geometricPrecision; image-rendering:optimizeQuality; fill-rule:evenodd; clip-rule:evenodd" xmlns:xlink="http://www.w3.org/1999/xlink">
<g><path style="opacity:0.942" fill="#53b94a" d="M 24.5,-0.5 C 52.8333,-0.5 81.1667,-0.5 109.5,-0.5C 115.486,1.91489 120.986,5.24823 126,9.5C 129.661,14.4933 132.494,19.8266 134.5,25.5C 134.5,53.1667 134.5,80.8333 134.5,108.5C 132.494,114.173 129.661,119.507 126,124.5C 120.986,128.752 115.486,132.085 109.5,134.5C 81.1667,134.5 52.8333,134.5 24.5,134.5C 18.5144,132.085 13.0144,128.752 8,124.5C 4.33905,119.507 1.50572,114.173 -0.5,108.5C -0.5,80.8333 -0.5,53.1667 -0.5,25.5C 1.50572,19.8266 4.33905,14.4933 8,9.5C 13.0144,5.24823 18.5144,1.91489 24.5,-0.5 Z"/></g>
<g><path style="opacity:1" fill="#fdfefd" d="M 26.5,3.5 C 52.5021,3.33336 78.5021,3.50003 104.5,4C 117.668,6.16617 126.168,13.6662 130,26.5C 130.667,52.5 130.667,78.5 130,104.5C 127.5,119 119,127.5 104.5,130C 78.5,130.667 52.5,130.667 26.5,130C 13.6662,126.168 6.16617,117.668 4,104.5C 3.33333,78.5 3.33333,52.5 4,26.5C 7.68399,14.9837 15.184,7.31707 26.5,3.5 Z"/></g>
<g><path style="opacity:1" fill="#ede918" d="M 106.5,57.5 C 100.85,48.1813 92.8496,41.848 82.5,38.5C 80.9724,37.6908 79.3057,37.0241 77.5,36.5C 69.764,32.4836 61.4306,30.4836 52.5,30.5C 57.1717,24.8515 63.1717,23.0181 70.5,25C 73.8333,27 77.1667,29 80.5,31C 88.1358,33.127 95.8025,35.127 103.5,37C 105.552,37.9299 107.052,39.4299 108,41.5C 108.923,47.1055 108.423,52.4388 106.5,57.5 Z"/></g>
<g><path style="opacity:1" fill="#b6d33b" d="M 51.5,30.5 C 37.4896,43.857 31.3229,60.1903 33,79.5C 33.2401,81.8516 34.0735,83.8516 35.5,85.5C 37.5643,89.961 39.8977,94.2943 42.5,98.5C 28.5135,97.0232 22.0135,89.3565 23,75.5C 27.7814,62.6991 31.7814,49.6991 35,36.5C 39.2916,31.2745 44.7916,29.2745 51.5,30.5 Z"/></g>
<g><path style="opacity:1" fill="#51b849" d="M 51.5,30.5 C 51.8333,30.5 52.1667,30.5 52.5,30.5C 61.4306,30.4836 69.764,32.4836 77.5,36.5C 55.2225,35.7214 41.0558,46.0548 35,67.5C 34.3029,73.5368 34.4696,79.5368 35.5,85.5C 34.0735,83.8516 33.2401,81.8516 33,79.5C 31.3229,60.1903 37.4896,43.857 51.5,30.5 Z"/></g>
<g><path style="opacity:1" fill="#055323" d="M 77.5,36.5 C 79.3057,37.0241 80.9724,37.6908 82.5,38.5C 93.0319,46.5625 96.8652,57.2292 94,70.5C 92.6967,75.7583 90.8634,80.7583 88.5,85.5C 76.0133,98.1023 61.0133,102.436 43.5,98.5C 43.1667,98.5 42.8333,98.5 42.5,98.5C 39.8977,94.2943 37.5643,89.961 35.5,85.5C 34.4696,79.5368 34.3029,73.5368 35,67.5C 41.0558,46.0548 55.2225,35.7214 77.5,36.5 Z"/></g>
<g><path style="opacity:1" fill="#fbfcfc" d="M 60.5,42.5 C 74.6647,40.6648 83.498,46.6648 87,60.5C 89.6739,74.9914 84.1739,84.8247 70.5,90C 56.2499,92.1262 47.0832,86.2929 43,72.5C 41.3639,58.1015 47.1972,48.1015 60.5,42.5 Z"/></g>
<g><path style="opacity:1" fill="#05835d" d="M 82.5,38.5 C 92.8496,41.848 100.85,48.1813 106.5,57.5C 106.5,57.8333 106.5,58.1667 106.5,58.5C 102.729,69.0572 96.7294,78.0572 88.5,85.5C 90.8634,80.7583 92.6967,75.7583 94,70.5C 96.8652,57.2292 93.0319,46.5625 82.5,38.5 Z"/></g>
<g><path style="opacity:1" fill="#1397da" d="M 106.5,58.5 C 114.759,73.8313 110.425,83.998 93.5,89C 85.8333,95.3333 78.1667,101.667 70.5,108C 59.2301,111.022 50.2301,107.855 43.5,98.5C 61.0133,102.436 76.0133,98.1023 88.5,85.5C 96.7294,78.0572 102.729,69.0572 106.5,58.5 Z"/></g>
</svg>
