<?xml version="1.0" encoding="UTF-8"?>
<!DOCTYPE svg PUBLIC "-//W3C//DTD SVG 1.1//EN" "http://www.w3.org/Graphics/SVG/1.1/DTD/svg11.dtd">
<svg xmlns="http://www.w3.org/2000/svg" version="1.1" width="135px" height="135px" style="shape-rendering:geometricPrecision; text-rendering:geometricPrecision; image-rendering:optimizeQuality; fill-rule:evenodd; clip-rule:evenodd" xmlns:xlink="http://www.w3.org/1999/xlink">
<g><path style="opacity:0.951" fill="#8c7729" d="M 25.5,-0.5 C 53.1667,-0.5 80.8333,-0.5 108.5,-0.5C 121.5,3.83333 130.167,12.5 134.5,25.5C 134.5,53.1667 134.5,80.8333 134.5,108.5C 130.167,121.5 121.5,130.167 108.5,134.5C 80.8333,134.5 53.1667,134.5 25.5,134.5C 12.5,130.167 3.83333,121.5 -0.5,108.5C -0.5,80.8333 -0.5,53.1667 -0.5,25.5C 3.83333,12.5 12.5,3.83333 25.5,-0.5 Z"/></g>
<g><path style="opacity:1" fill="#fdfdfd" d="M 26.5,3.5 C 52.5021,3.33336 78.5021,3.50003 104.5,4C 117.668,6.16617 126.168,13.6662 130,26.5C 130.667,53.1667 130.667,79.8333 130,106.5C 126.6,119.901 118.1,127.734 104.5,130C 78.5,130.667 52.5,130.667 26.5,130C 14.5675,126.401 7.06749,118.568 4,106.5C 3.33333,79.8333 3.33333,53.1667 4,26.5C 7.68399,14.9837 15.184,7.31707 26.5,3.5 Z"/></g>
<g><path style="opacity:1" fill="#584034" d="M 78.5,26.5 C 80.9674,26.7549 82.9674,27.7549 84.5,29.5C 84.5,30.5 84.5,31.5 84.5,32.5C 82.1667,30.8333 80.1667,28.8333 78.5,26.5 Z"/></g>
<g><path style="opacity:1" fill="#55331b" d="M 47.5,29.5 C 48.441,34.0704 48.7744,38.737 48.5,43.5C 43.1667,43.5 37.8333,43.5 32.5,43.5C 32.5,42.8333 32.8333,42.5 33.5,42.5C 37.8333,42.5 42.1667,42.5 46.5,42.5C 46.7633,38.3998 46.4299,34.3998 45.5,30.5C 46.1667,30.1667 46.8333,29.8333 47.5,29.5 Z"/></g>
<g><path style="opacity:1" fill="#dfcb76" d="M 61.5,29.5 C 61.8039,30.1499 62.1373,30.8165 62.5,31.5C 61.4636,34.8596 60.7969,38.0262 60.5,41C 61.5285,43.9662 62.5285,46.7995 63.5,49.5C 61.5,49.8333 59.5,50.1667 57.5,50.5C 57.2045,43.4122 57.5379,36.4122 58.5,29.5C 59.5,28.1667 60.5,28.1667 61.5,29.5 Z"/></g>
<g><path style="opacity:1" fill="#ddc4a2" d="M 71.5,31.5 C 75.5014,31.2104 78.5014,32.7104 80.5,36C 79.9056,36.4643 79.2389,36.631 78.5,36.5C 76.368,36.5544 75.0347,37.5544 74.5,39.5C 73.5489,40.9187 73.2155,42.5853 73.5,44.5C 74.8333,44.5 76.1667,44.5 77.5,44.5C 77.7148,46.1788 77.0481,47.1788 75.5,47.5C 75.6107,46.8826 75.944,46.3826 76.5,46C 75.2068,45.51 73.8734,45.3433 72.5,45.5C 72.7947,47.7354 72.4614,49.7354 71.5,51.5C 70.6109,49.264 69.2776,47.264 67.5,45.5C 68.973,43.6053 70.6397,41.9387 72.5,40.5C 70.9547,39.5481 69.288,39.2148 67.5,39.5C 67.5172,37.4352 67.8505,35.4352 68.5,33.5C 69.2905,32.5987 70.2905,31.9321 71.5,31.5 Z"/></g>
<g><path style="opacity:1" fill="#dbd292" d="M 84.5,29.5 C 87.7598,30.7738 90.7598,32.4405 93.5,34.5C 93.8312,40.731 91.1645,45.0643 85.5,47.5C 85.4013,44.7628 85.7347,42.0961 86.5,39.5C 86.8294,36.7718 86.1628,34.4385 84.5,32.5C 84.5,31.5 84.5,30.5 84.5,29.5 Z"/></g>
<g><path style="opacity:1" fill="#83643a" d="M 56.5,26.5 C 59.1667,26.5 61.8333,26.5 64.5,26.5C 64.5,27.5 64.5,28.5 64.5,29.5C 63.5,28.1667 62.5,28.1667 61.5,29.5C 60.5,28.1667 59.5,28.1667 58.5,29.5C 56.5367,36.4238 55.8701,43.7572 56.5,51.5C 58.8333,51.5 61.1667,51.5 63.5,51.5C 61.4606,52.5783 59.294,53.5783 57,54.5C 56.2274,56.3524 56.7274,57.6857 58.5,58.5C 59.8333,59.5 59.8333,60.5 58.5,61.5C 57.609,60.8902 56.609,60.5569 55.5,60.5C 53.7537,58.4658 53.4204,56.2991 54.5,54C 53.2625,53.7679 52.2625,53.2679 51.5,52.5C 52.8333,52.5 54.1667,52.5 55.5,52.5C 55.1968,43.7489 55.5301,35.0823 56.5,26.5 Z"/></g>
<g><path style="opacity:1" fill="#2b1911" d="M 64.5,26.5 C 69.1667,26.5 73.8333,26.5 78.5,26.5C 80.1667,28.8333 82.1667,30.8333 84.5,32.5C 86.1628,34.4385 86.8294,36.7718 86.5,39.5C 85.8501,39.8039 85.1835,40.1373 84.5,40.5C 83.2154,37.429 81.5487,34.5957 79.5,32C 76.7732,30.3643 74.1066,30.1976 71.5,31.5C 70.2905,31.9321 69.2905,32.5987 68.5,33.5C 64.8276,35.5988 64.4943,38.2654 67.5,41.5C 66.6431,42.4252 65.6431,43.0919 64.5,43.5C 63.2216,38.8648 63.2216,34.1982 64.5,29.5C 64.5,28.5 64.5,27.5 64.5,26.5 Z"/></g>
<g><path style="opacity:1" fill="#78563b" d="M 78.5,36.5 C 78.4142,37.4959 78.7476,38.3292 79.5,39C 78.2917,39.9207 76.9584,40.4207 75.5,40.5C 74.8333,40.5 74.5,40.1667 74.5,39.5C 75.0347,37.5544 76.368,36.5544 78.5,36.5 Z"/></g>
<g><path style="opacity:1" fill="#7c634b" d="M 94.5,35.5 C 96.5,36.8333 98.1667,38.5 99.5,40.5C 98.2379,43.0708 96.9045,43.0708 95.5,40.5C 94.5481,38.9547 94.2148,37.288 94.5,35.5 Z"/></g>
<g><path style="opacity:1" fill="#be9960" d="M 45.5,30.5 C 46.4299,34.3998 46.7633,38.3998 46.5,42.5C 42.1667,42.5 37.8333,42.5 33.5,42.5C 34.1237,40.246 35.457,38.5794 37.5,37.5C 39.5491,34.4503 42.2157,32.117 45.5,30.5 Z"/></g>
<g><path style="opacity:1" fill="#dab25f" d="M 37.5,37.5 C 39.736,36.6109 41.736,35.2776 43.5,33.5C 44.641,35.4213 44.8077,37.4213 44,39.5C 43.1072,38.2888 42.2739,38.2888 41.5,39.5C 41.7093,40.086 42.0426,40.586 42.5,41C 40.4213,41.8077 38.4213,41.641 36.5,40.5C 37.1272,39.5832 37.4606,38.5832 37.5,37.5 Z"/></g>
<g><path style="opacity:1" fill="#eddec0" d="M 74.5,39.5 C 74.5,40.1667 74.8333,40.5 75.5,40.5C 77.3234,41.2273 79.1568,41.5606 81,41.5C 81.3947,43.1786 81.228,44.8453 80.5,46.5C 80.2528,47.7133 79.5862,48.38 78.5,48.5C 77.209,48.7373 76.209,48.404 75.5,47.5C 77.0481,47.1788 77.7148,46.1788 77.5,44.5C 76.1667,44.5 74.8333,44.5 73.5,44.5C 73.2155,42.5853 73.5489,40.9187 74.5,39.5 Z"/></g>
<g><path style="opacity:1" fill="#361e13" d="M 52.5,27.5 C 52.6663,34.5079 52.4996,41.5079 52,48.5C 51.6667,42.5 51.3333,36.5 51,30.5C 50.5006,35.8229 50.334,41.1563 50.5,46.5C 43.9779,46.8235 37.6446,46.4902 31.5,45.5C 31.8333,44.8333 32.1667,44.1667 32.5,43.5C 37.8333,43.5 43.1667,43.5 48.5,43.5C 48.7744,38.737 48.441,34.0704 47.5,29.5C 49.0495,28.5592 50.7162,27.8925 52.5,27.5 Z"/></g>
<g><path style="opacity:1" fill="#4b2d1d" d="M 68.5,33.5 C 67.8505,35.4352 67.5172,37.4352 67.5,39.5C 69.288,39.2148 70.9547,39.5481 72.5,40.5C 70.6397,41.9387 68.973,43.6053 67.5,45.5C 69.2776,47.264 70.6109,49.264 71.5,51.5C 69.0968,51.607 67.2635,50.607 66,48.5C 65.6174,49.056 65.1174,49.3893 64.5,49.5C 64.5,47.5 64.5,45.5 64.5,43.5C 65.6431,43.0919 66.6431,42.4252 67.5,41.5C 64.4943,38.2654 64.8276,35.5988 68.5,33.5 Z"/></g>
<g><path style="opacity:1" fill="#caa882" d="M 71.5,31.5 C 74.1066,30.1976 76.7732,30.3643 79.5,32C 81.5487,34.5957 83.2154,37.429 84.5,40.5C 85.1835,40.1373 85.8501,39.8039 86.5,39.5C 85.7347,42.0961 85.4013,44.7628 85.5,47.5C 82.7584,49.7427 80.0917,52.2427 77.5,55C 76.552,55.4828 75.552,55.6495 74.5,55.5C 75.9361,54.5714 77.2695,53.4048 78.5,52C 76.8739,52.1953 75.2072,52.1953 73.5,52C 75.4308,51.0978 77.0975,49.9312 78.5,48.5C 79.5862,48.38 80.2528,47.7133 80.5,46.5C 81.228,44.8453 81.3947,43.1786 81,41.5C 79.1568,41.5606 77.3234,41.2273 75.5,40.5C 76.9584,40.4207 78.2917,39.9207 79.5,39C 78.7476,38.3292 78.4142,37.4959 78.5,36.5C 79.2389,36.631 79.9056,36.4643 80.5,36C 78.5014,32.7104 75.5014,31.2104 71.5,31.5 Z"/></g>
<g><path style="opacity:1" fill="#c8ab6e" d="M 64.5,29.5 C 63.2216,34.1982 63.2216,38.8648 64.5,43.5C 64.5,45.5 64.5,47.5 64.5,49.5C 64.1667,50.1667 63.8333,50.8333 63.5,51.5C 61.1667,51.5 58.8333,51.5 56.5,51.5C 55.8701,43.7572 56.5367,36.4238 58.5,29.5C 57.5379,36.4122 57.2045,43.4122 57.5,50.5C 59.5,50.1667 61.5,49.8333 63.5,49.5C 62.5285,46.7995 61.5285,43.9662 60.5,41C 60.7969,38.0262 61.4636,34.8596 62.5,31.5C 62.1373,30.8165 61.8039,30.1499 61.5,29.5C 62.5,28.1667 63.5,28.1667 64.5,29.5 Z"/></g>
<g><path style="opacity:1" fill="#8e7d70" d="M 102.5,45.5 C 103.931,46.7804 104.598,48.4471 104.5,50.5C 102.212,49.2853 101.545,47.6187 102.5,45.5 Z"/></g>
<g><path style="opacity:1" fill="#8f7962" d="M 54.5,26.5 C 54.5,34.5 54.5,42.5 54.5,50.5C 45.8333,50.5 37.1667,50.5 28.5,50.5C 29.2632,48.6316 30.2632,46.9649 31.5,45.5C 37.6446,46.4902 43.9779,46.8235 50.5,46.5C 50.334,41.1563 50.5006,35.8229 51,30.5C 51.3333,36.5 51.6667,42.5 52,48.5C 52.4996,41.5079 52.6663,34.5079 52.5,27.5C 52.8417,26.6618 53.5084,26.3284 54.5,26.5 Z"/></g>
<g><path style="opacity:1" fill="#301f13" d="M 93.5,34.5 C 93.5,35.1667 93.8333,35.5 94.5,35.5C 94.2148,37.288 94.5481,38.9547 95.5,40.5C 96.9045,43.0708 98.2379,43.0708 99.5,40.5C 100.752,42.0009 101.752,43.6675 102.5,45.5C 101.545,47.6187 102.212,49.2853 104.5,50.5C 106.655,52.6174 107.655,55.284 107.5,58.5C 103.831,54.4908 100.165,50.4908 96.5,46.5C 93.5438,48.096 90.5438,49.596 87.5,51C 86.6195,51.7083 85.9528,52.5416 85.5,53.5C 82.1897,55.4821 79.1897,57.8154 76.5,60.5C 73.5,63.8333 70.5,67.1667 67.5,70.5C 64.5,73.1667 61.5,75.8333 58.5,78.5C 57.8333,78.5 57.1667,78.5 56.5,78.5C 56.369,77.7611 56.5357,77.0944 57,76.5C 59.1373,75.5214 60.9706,74.1881 62.5,72.5C 61.8973,71.3652 61.5639,70.3652 61.5,69.5C 60.3777,70.6302 59.0443,71.2969 57.5,71.5C 57.5,71.1667 57.5,70.8333 57.5,70.5C 58.8799,70.0377 59.5466,69.0377 59.5,67.5C 58.8444,65.5466 58.5111,63.5466 58.5,61.5C 59.9892,63.1161 60.9892,65.1161 61.5,67.5C 63.608,68.4795 65.608,68.1462 67.5,66.5C 68.2615,62.6355 70.2615,59.6355 73.5,57.5C 71.1963,55.5007 68.863,53.5007 66.5,51.5C 64.2052,53.4799 61.5385,54.6466 58.5,55C 59.1712,55.9862 59.1712,57.1529 58.5,58.5C 56.7274,57.6857 56.2274,56.3524 57,54.5C 59.294,53.5783 61.4606,52.5783 63.5,51.5C 63.8333,50.8333 64.1667,50.1667 64.5,49.5C 65.1174,49.3893 65.6174,49.056 66,48.5C 67.2635,50.607 69.0968,51.607 71.5,51.5C 72.0256,53.2303 73.0256,54.5637 74.5,55.5C 75.552,55.6495 76.552,55.4828 77.5,55C 80.0917,52.2427 82.7584,49.7427 85.5,47.5C 91.1645,45.0643 93.8312,40.731 93.5,34.5 Z"/></g>
<g><path style="opacity:1" fill="#2b1b0c" d="M 54.5,26.5 C 55.1667,26.5 55.8333,26.5 56.5,26.5C 55.5301,35.0823 55.1968,43.7489 55.5,52.5C 54.1667,52.5 52.8333,52.5 51.5,52.5C 43.6484,52.8254 35.9818,52.492 28.5,51.5C 28.5,51.1667 28.5,50.8333 28.5,50.5C 37.1667,50.5 45.8333,50.5 54.5,50.5C 54.5,42.5 54.5,34.5 54.5,26.5 Z"/></g>
<g><path style="opacity:1" fill="#6c532e" d="M 107.5,58.5 C 107.5,60.5 107.5,62.5 107.5,64.5C 106.728,63.3065 105.728,62.3065 104.5,61.5C 104.5,60.8333 104.167,60.5 103.5,60.5C 104.026,57.1922 102.693,55.0255 99.5,54C 94.7872,52.7722 90.1206,52.6056 85.5,53.5C 85.9528,52.5416 86.6195,51.7083 87.5,51C 90.5438,49.596 93.5438,48.096 96.5,46.5C 100.165,50.4908 103.831,54.4908 107.5,58.5 Z"/></g>
<g><path style="opacity:1" fill="#865b3f" d="M 75.5,47.5 C 76.209,48.404 77.209,48.7373 78.5,48.5C 77.0975,49.9312 75.4308,51.0978 73.5,52C 75.2072,52.1953 76.8739,52.1953 78.5,52C 77.2695,53.4048 75.9361,54.5714 74.5,55.5C 73.0256,54.5637 72.0256,53.2303 71.5,51.5C 72.4614,49.7354 72.7947,47.7354 72.5,45.5C 73.8734,45.3433 75.2068,45.51 76.5,46C 75.944,46.3826 75.6107,46.8826 75.5,47.5 Z"/></g>
<g><path style="opacity:1" fill="#1b1412" d="M 58.5,61.5 C 59.8333,60.5 59.8333,59.5 58.5,58.5C 59.1712,57.1529 59.1712,55.9862 58.5,55C 61.5385,54.6466 64.2052,53.4799 66.5,51.5C 68.863,53.5007 71.1963,55.5007 73.5,57.5C 70.2615,59.6355 68.2615,62.6355 67.5,66.5C 65.608,68.1462 63.608,68.4795 61.5,67.5C 60.9892,65.1161 59.9892,63.1161 58.5,61.5 Z"/></g>
<g><path style="opacity:1" fill="#e0d698" d="M 28.5,51.5 C 35.9818,52.492 43.6484,52.8254 51.5,52.5C 52.2625,53.2679 53.2625,53.7679 54.5,54C 53.4204,56.2991 53.7537,58.4658 55.5,60.5C 45.8333,60.5 36.1667,60.5 26.5,60.5C 26.2153,57.1709 26.8819,54.1709 28.5,51.5 Z"/></g>
<g><path style="opacity:1" fill="#92723f" d="M 103.5,60.5 C 102.5,60.5 101.5,60.5 100.5,60.5C 99.1667,60.5 97.8333,60.5 96.5,60.5C 96.67,59.1779 96.3366,58.0113 95.5,57C 93.8988,56.7266 92.3988,56.2266 91,55.5C 90.5172,56.448 90.3505,57.448 90.5,58.5C 89.0695,58.4208 87.7362,58.7542 86.5,59.5C 85.7492,58.624 85.2492,57.624 85,56.5C 82.5817,59.4704 79.7483,60.8038 76.5,60.5C 79.1897,57.8154 82.1897,55.4821 85.5,53.5C 90.1206,52.6056 94.7872,52.7722 99.5,54C 102.693,55.0255 104.026,57.1922 103.5,60.5 Z"/></g>
<g><path style="opacity:1" fill="#654a26" d="M 26.5,60.5 C 36.1667,60.5 45.8333,60.5 55.5,60.5C 56.0965,63.9412 56.7632,67.2746 57.5,70.5C 57.5,70.8333 57.5,71.1667 57.5,71.5C 56.391,71.5569 55.391,71.8902 54.5,72.5C 54.5,68.8333 54.5,65.1667 54.5,61.5C 44.985,61.8269 35.6517,61.4936 26.5,60.5 Z"/></g>
<g><path style="opacity:1" fill="#b3a088" d="M 26.5,60.5 C 35.6517,61.4936 44.985,61.8269 54.5,61.5C 54.5,65.1667 54.5,68.8333 54.5,72.5C 53.5233,69.7131 53.19,66.7131 53.5,63.5C 51.5,63.5 49.5,63.5 47.5,63.5C 40.5,63.5 33.5,63.5 26.5,63.5C 26.5,67.5 26.5,71.5 26.5,75.5C 25.1667,70.5 25.1667,65.5 26.5,60.5 Z"/></g>
<g><path style="opacity:1" fill="#593d2a" d="M 47.5,63.5 C 49.5,63.5 51.5,63.5 53.5,63.5C 53.19,66.7131 53.5233,69.7131 54.5,72.5C 51.8717,74.4884 49.205,76.4884 46.5,78.5C 46.5,75.8333 46.5,73.1667 46.5,70.5C 46.5,70.1667 46.5,69.8333 46.5,69.5C 47.2891,69.2172 47.9558,68.7172 48.5,68C 41.5079,67.5004 34.5079,67.3337 27.5,67.5C 33.9874,66.6717 40.654,66.1717 47.5,66C 46.5,65.6667 45.5,65.3333 44.5,65C 45.7375,64.7679 46.7375,64.2679 47.5,63.5 Z"/></g>
<g><path style="opacity:1" fill="#b99c69" d="M 100.5,60.5 C 97.2519,61.9048 93.9186,63.4048 90.5,65C 89.5,66 88.5,67 87.5,68C 88.1667,68.3333 88.8333,68.6667 89.5,69C 87.3744,72.4689 84.3744,74.6355 80.5,75.5C 82.8821,72.2271 82.0487,69.5604 78,67.5C 74.5271,68.3042 71.5271,69.9709 69,72.5C 67.9701,72.1639 67.4701,71.4972 67.5,70.5C 70.5,67.1667 73.5,63.8333 76.5,60.5C 79.7483,60.8038 82.5817,59.4704 85,56.5C 85.2492,57.624 85.7492,58.624 86.5,59.5C 87.7362,58.7542 89.0695,58.4208 90.5,58.5C 90.3505,57.448 90.5172,56.448 91,55.5C 92.3988,56.2266 93.8988,56.7266 95.5,57C 96.3366,58.0113 96.67,59.1779 96.5,60.5C 97.8333,60.5 99.1667,60.5 100.5,60.5 Z"/></g>
<g><path style="opacity:1" fill="#381f15" d="M 47.5,63.5 C 46.7375,64.2679 45.7375,64.7679 44.5,65C 45.5,65.3333 46.5,65.6667 47.5,66C 40.654,66.1717 33.9874,66.6717 27.5,67.5C 27.8333,68.5 28.5,69.1667 29.5,69.5C 29.8205,74.6946 29.4872,79.6946 28.5,84.5C 27.0712,81.6916 26.4045,78.6916 26.5,75.5C 26.5,71.5 26.5,67.5 26.5,63.5C 33.5,63.5 40.5,63.5 47.5,63.5 Z"/></g>
<g><path style="opacity:1" fill="#c5a873" d="M 55.5,60.5 C 56.609,60.5569 57.609,60.8902 58.5,61.5C 58.5111,63.5466 58.8444,65.5466 59.5,67.5C 59.5466,69.0377 58.8799,70.0377 57.5,70.5C 56.7632,67.2746 56.0965,63.9412 55.5,60.5 Z"/></g>
<g><path style="opacity:1" fill="#e2cd97" d="M 27.5,67.5 C 34.5079,67.3337 41.5079,67.5004 48.5,68C 47.9558,68.7172 47.2891,69.2172 46.5,69.5C 40.8333,68.1667 35.1667,68.1667 29.5,69.5C 28.5,69.1667 27.8333,68.5 27.5,67.5 Z"/></g>
<g><path style="opacity:1" fill="#9b7b47" d="M 80.5,75.5 C 76.3828,78.0684 72.3828,80.9017 68.5,84C 65.6123,83.4401 63.279,84.6068 61.5,87.5C 59.1065,88.3491 56.7731,89.3491 54.5,90.5C 53.7579,92.1082 53.5913,93.7749 54,95.5C 51.4798,97.9749 48.9798,100.308 46.5,102.5C 43.6298,101.567 41.2964,99.9 39.5,97.5C 42.9613,94.2133 46.6279,91.0467 50.5,88C 51.4491,87.3828 52.2825,87.5494 53,88.5C 52.1669,85.1724 53.6669,83.8391 57.5,84.5C 57.2267,82.549 57.8934,81.049 59.5,80C 58.944,79.6174 58.6107,79.1174 58.5,78.5C 61.5,75.8333 64.5,73.1667 67.5,70.5C 67.4701,71.4972 67.9701,72.1639 69,72.5C 71.5271,69.9709 74.5271,68.3042 78,67.5C 82.0487,69.5604 82.8821,72.2271 80.5,75.5 Z"/></g>
<g><path style="opacity:1" fill="#a7834e" d="M 46.5,70.5 C 46.5,73.1667 46.5,75.8333 46.5,78.5C 44.1997,80.984 41.5331,82.984 38.5,84.5C 41.7432,81.7296 44.0766,78.2296 45.5,74C 43.8947,72.078 44.228,70.9114 46.5,70.5 Z"/></g>
<g><path style="opacity:1" fill="#dfcf96" d="M 100.5,60.5 C 101.5,60.5 102.5,60.5 103.5,60.5C 104.167,60.5 104.5,60.8333 104.5,61.5C 103.291,64.264 101.625,66.764 99.5,69C 100.833,69.6667 100.833,70.3333 99.5,71C 101.167,72 102.833,73 104.5,74C 102.342,75.3117 102.009,76.9783 103.5,79C 102.004,79.5074 100.837,79.0074 100,77.5C 99.3058,78.8176 98.4725,79.6509 97.5,80C 98.0069,82.3413 99.1735,82.8413 101,81.5C 101.122,83.437 101.955,84.7703 103.5,85.5C 101.384,87.6 99.7169,89.9333 98.5,92.5C 98.3143,90.9921 97.6476,89.3254 96.5,87.5C 95.5213,85.8546 94.188,84.5213 92.5,83.5C 91.5713,82.3112 91.238,80.9778 91.5,79.5C 90.209,79.7373 89.209,79.404 88.5,78.5C 89.8221,78.67 90.9887,78.3366 92,77.5C 92.4955,75.5273 92.6621,73.5273 92.5,71.5C 88.1667,71.1667 86.1667,73.1667 86.5,77.5C 83.4307,80.5771 80.0974,83.2437 76.5,85.5C 71.1179,90.2167 65.4513,94.55 59.5,98.5C 58.596,97.791 58.2627,96.791 58.5,95.5C 59.675,95.719 60.675,95.3857 61.5,94.5C 60.3192,92.802 60.3192,91.1353 61.5,89.5C 64.0684,87.2828 67.0684,86.1161 70.5,86C 71.8513,84.3829 73.518,83.2162 75.5,82.5C 76.0831,80.9984 76.9164,79.6651 78,78.5C 79.073,79.2797 80.2396,79.113 81.5,78C 80.7476,77.3292 80.4142,76.4959 80.5,75.5C 84.3744,74.6355 87.3744,72.4689 89.5,69C 88.8333,68.6667 88.1667,68.3333 87.5,68C 88.5,67 89.5,66 90.5,65C 93.9186,63.4048 97.2519,61.9048 100.5,60.5 Z"/></g>
<g><path style="opacity:1" fill="#eae3cd" d="M 88.5,78.5 C 87.8333,78.1667 87.1667,77.8333 86.5,77.5C 86.1667,73.1667 88.1667,71.1667 92.5,71.5C 92.6621,73.5273 92.4955,75.5273 92,77.5C 90.9887,78.3366 89.8221,78.67 88.5,78.5 Z"/></g>
<g><path style="opacity:1" fill="#d7bf80" d="M 104.5,61.5 C 105.728,62.3065 106.728,63.3065 107.5,64.5C 108.3,71.9567 106.967,78.9567 103.5,85.5C 101.955,84.7703 101.122,83.437 101,81.5C 99.1735,82.8413 98.0069,82.3413 97.5,80C 98.4725,79.6509 99.3058,78.8176 100,77.5C 100.837,79.0074 102.004,79.5074 103.5,79C 102.009,76.9783 102.342,75.3117 104.5,74C 102.833,73 101.167,72 99.5,71C 100.833,70.3333 100.833,69.6667 99.5,69C 101.625,66.764 103.291,64.264 104.5,61.5 Z"/></g>
<g><path style="opacity:1" fill="#c1944a" d="M 46.5,69.5 C 46.5,69.8333 46.5,70.1667 46.5,70.5C 44.228,70.9114 43.8947,72.078 45.5,74C 44.0766,78.2296 41.7432,81.7296 38.5,84.5C 38.3893,85.1174 38.056,85.6174 37.5,86C 35.1902,86.4966 32.8568,86.6633 30.5,86.5C 29.5,86.1667 28.8333,85.5 28.5,84.5C 29.4872,79.6946 29.8205,74.6946 29.5,69.5C 35.1667,68.1667 40.8333,68.1667 46.5,69.5 Z"/></g>
<g><path style="opacity:1" fill="#1f1713" d="M 56.5,78.5 C 50.4459,84.8874 43.7793,90.5541 36.5,95.5C 33.7454,92.9873 31.7454,89.9873 30.5,86.5C 32.8568,86.6633 35.1902,86.4966 37.5,86C 38.056,85.6174 38.3893,85.1174 38.5,84.5C 41.5331,82.984 44.1997,80.984 46.5,78.5C 49.205,76.4884 51.8717,74.4884 54.5,72.5C 55.391,71.8902 56.391,71.5569 57.5,71.5C 59.0443,71.2969 60.3777,70.6302 61.5,69.5C 61.5639,70.3652 61.8973,71.3652 62.5,72.5C 60.9706,74.1881 59.1373,75.5214 57,76.5C 56.5357,77.0944 56.369,77.7611 56.5,78.5 Z"/></g>
<g><path style="opacity:1" fill="#ddc684" d="M 96.5,87.5 C 97.6476,89.3254 98.3143,90.9921 98.5,92.5C 96.7367,96.0525 94.07,98.7191 90.5,100.5C 89.7494,99.4265 88.7494,99.2599 87.5,100C 83.8568,104.283 82.3568,104.117 83,99.5C 82.6667,99.8333 82.3333,100.167 82,100.5C 80.6012,99.7734 79.1012,99.2734 77.5,99C 79.8912,97.6914 79.8912,96.6914 77.5,96C 79.0456,94.5604 79.879,92.7271 80,90.5C 81.2051,89.9288 82.3717,89.2621 83.5,88.5C 82.4179,88.2514 81.0846,88.0848 79.5,88C 80.9969,85.793 82.9969,85.1264 85.5,86C 85.5,87.3333 85.5,88.6667 85.5,90C 88.7698,91.3207 92.1031,91.9874 95.5,92C 94.2568,90.184 94.5901,88.684 96.5,87.5 Z"/></g>
<g><path style="opacity:1" fill="#9c7943" d="M 76.5,85.5 C 77.5862,85.62 78.2528,86.2867 78.5,87.5C 77.9537,89.1347 77.6204,90.8014 77.5,92.5C 76.1779,92.67 75.0113,92.3366 74,91.5C 73.1275,96.0701 70.6275,98.2367 66.5,98C 67.5523,99.7165 66.8856,100.716 64.5,101C 65.3081,101.308 65.9747,101.808 66.5,102.5C 64.5764,103.965 64.2431,105.632 65.5,107.5C 62.1501,107.665 58.8168,107.498 55.5,107C 54.2625,106.768 53.2625,106.268 52.5,105.5C 54.6397,102.939 56.973,100.605 59.5,98.5C 65.4513,94.55 71.1179,90.2167 76.5,85.5 Z"/></g>
<g><path style="opacity:1" fill="#65472f" d="M 56.5,78.5 C 57.1667,78.5 57.8333,78.5 58.5,78.5C 58.6107,79.1174 58.944,79.6174 59.5,80C 57.8934,81.049 57.2267,82.549 57.5,84.5C 53.6669,83.8391 52.1669,85.1724 53,88.5C 52.2825,87.5494 51.4491,87.3828 50.5,88C 46.6279,91.0467 42.9613,94.2133 39.5,97.5C 37.9731,97.573 36.9731,96.9063 36.5,95.5C 43.7793,90.5541 50.4459,84.8874 56.5,78.5 Z"/></g>
<g><path style="opacity:1" fill="#cdab6c" d="M 86.5,77.5 C 87.1667,77.8333 87.8333,78.1667 88.5,78.5C 89.209,79.404 90.209,79.7373 91.5,79.5C 91.238,80.9778 91.5713,82.3112 92.5,83.5C 94.188,84.5213 95.5213,85.8546 96.5,87.5C 94.5901,88.684 94.2568,90.184 95.5,92C 92.1031,91.9874 88.7698,91.3207 85.5,90C 85.5,88.6667 85.5,87.3333 85.5,86C 82.9969,85.1264 80.9969,85.793 79.5,88C 81.0846,88.0848 82.4179,88.2514 83.5,88.5C 82.3717,89.2621 81.2051,89.9288 80,90.5C 79.879,92.7271 79.0456,94.5604 77.5,96C 79.8912,96.6914 79.8912,97.6914 77.5,99C 79.1012,99.2734 80.6012,99.7734 82,100.5C 82.3333,100.167 82.6667,99.8333 83,99.5C 82.3568,104.117 83.8568,104.283 87.5,100C 88.7494,99.2599 89.7494,99.4265 90.5,100.5C 83.1309,106.003 74.7976,108.337 65.5,107.5C 64.2431,105.632 64.5764,103.965 66.5,102.5C 65.9747,101.808 65.3081,101.308 64.5,101C 66.8856,100.716 67.5523,99.7165 66.5,98C 70.6275,98.2367 73.1275,96.0701 74,91.5C 75.0113,92.3366 76.1779,92.67 77.5,92.5C 77.6204,90.8014 77.9537,89.1347 78.5,87.5C 78.2528,86.2867 77.5862,85.62 76.5,85.5C 80.0974,83.2437 83.4307,80.5771 86.5,77.5 Z"/></g>
<g><path style="opacity:1" fill="#cbae78" d="M 80.5,75.5 C 80.4142,76.4959 80.7476,77.3292 81.5,78C 80.2396,79.113 79.073,79.2797 78,78.5C 76.9164,79.6651 76.0831,80.9984 75.5,82.5C 73.518,83.2162 71.8513,84.3829 70.5,86C 67.0684,86.1161 64.0684,87.2828 61.5,89.5C 60.3192,91.1353 60.3192,92.802 61.5,94.5C 60.675,95.3857 59.675,95.719 58.5,95.5C 58.2627,96.791 58.596,97.791 59.5,98.5C 56.973,100.605 54.6397,102.939 52.5,105.5C 50.1815,105.008 48.1815,104.008 46.5,102.5C 48.9798,100.308 51.4798,97.9749 54,95.5C 53.5913,93.7749 53.7579,92.1082 54.5,90.5C 56.7731,89.3491 59.1065,88.3491 61.5,87.5C 63.279,84.6068 65.6123,83.4401 68.5,84C 72.3828,80.9017 76.3828,78.0684 80.5,75.5 Z"/></g>
</svg>
