<?xml version="1.0" encoding="UTF-8"?>
<!DOCTYPE svg PUBLIC "-//W3C//DTD SVG 1.1//EN" "http://www.w3.org/Graphics/SVG/1.1/DTD/svg11.dtd">
<svg xmlns="http://www.w3.org/2000/svg" version="1.1" width="135px" height="135px" style="shape-rendering:geometricPrecision; text-rendering:geometricPrecision; image-rendering:optimizeQuality; fill-rule:evenodd; clip-rule:evenodd" xmlns:xlink="http://www.w3.org/1999/xlink">
<g><path style="opacity:0.942" fill="#ee4724" d="M 24.5,-0.5 C 52.8333,-0.5 81.1667,-0.5 109.5,-0.5C 115.486,1.91489 120.986,5.24823 126,9.5C 129.661,14.4933 132.494,19.8266 134.5,25.5C 134.5,53.1667 134.5,80.8333 134.5,108.5C 132.494,114.173 129.661,119.507 126,124.5C 120.986,128.752 115.486,132.085 109.5,134.5C 81.1667,134.5 52.8333,134.5 24.5,134.5C 18.5144,132.085 13.0144,128.752 8,124.5C 4.33905,119.507 1.50572,114.173 -0.5,108.5C -0.5,80.8333 -0.5,53.1667 -0.5,25.5C 1.50572,19.8266 4.33905,14.4933 8,9.5C 13.0144,5.24823 18.5144,1.91489 24.5,-0.5 Z"/></g>
<g><path style="opacity:1" fill="#fefdfd" d="M 26.5,3.5 C 53.1687,3.33336 79.8354,3.50003 106.5,4C 118.568,7.06749 126.401,14.5675 130,26.5C 130.667,53.1667 130.667,79.8333 130,106.5C 126.721,119.446 118.554,127.279 105.5,130C 79.1667,130.667 52.8333,130.667 26.5,130C 14.5675,126.401 7.06749,118.568 4,106.5C 3.33333,79.8333 3.33333,53.1667 4,26.5C 7.68399,14.9837 15.184,7.31707 26.5,3.5 Z"/></g>
<g><path style="opacity:1" fill="#f45a2a" d="M 107.5,49.5 C 97.3937,54.7216 87.3937,60.2216 77.5,66C 76.5632,66.6917 75.8966,66.525 75.5,65.5C 88.2945,55.5 101.461,45.8333 115,36.5C 115.003,42.3675 112.503,46.7008 107.5,49.5 Z"/></g>
<g><path style="opacity:1" fill="#fee3de" d="M 107.5,49.5 C 107.5,50.1667 107.833,50.5 108.5,50.5C 97.6949,56.7381 86.6949,62.7381 75.5,68.5C 74.375,67.3478 74.375,66.3478 75.5,65.5C 75.8966,66.525 76.5632,66.6917 77.5,66C 87.3937,60.2216 97.3937,54.7216 107.5,49.5 Z"/></g>
<g><path style="opacity:1" fill="#f4572d" d="M 18.5,36.5 C 32.5657,45.4074 45.899,55.2407 58.5,66C 46.3625,60.2608 34.3625,53.9274 22.5,47C 20.6738,43.6882 19.3405,40.1882 18.5,36.5 Z"/></g>
<g><path style="opacity:1" fill="#f34a2d" d="M 62.5,72.5 C 62.44,73.0431 62.1067,73.3764 61.5,73.5C 50.6273,68.4345 39.6273,63.7679 28.5,59.5C 26.1152,57.4447 24.4485,54.778 23.5,51.5C 23.8333,51.1667 24.1667,50.8333 24.5,50.5C 36.1667,56.6667 47.8333,62.8333 59.5,69C 60.7101,70.0391 61.7101,71.2058 62.5,72.5 Z"/></g>
<g><path style="opacity:1" fill="#f3482d" d="M 108.5,50.5 C 109.376,50.3691 110.043,50.7025 110.5,51.5C 109.898,55.4332 107.898,58.0999 104.5,59.5C 93.7748,63.9665 83.1081,68.6332 72.5,73.5C 71.8933,73.3764 71.56,73.0431 71.5,72.5C 72.4725,70.8608 73.8058,69.5274 75.5,68.5C 86.6949,62.7381 97.6949,56.7381 108.5,50.5 Z"/></g>
<g><path style="opacity:1" fill="#fde1df" d="M 27.5,60.5 C 27.5,59.8333 27.8333,59.5 28.5,59.5C 39.6273,63.7679 50.6273,68.4345 61.5,73.5C 62.1067,73.3764 62.44,73.0431 62.5,72.5C 63.1667,72.5 63.5,72.1667 63.5,71.5C 64.8923,73.2726 66.059,75.2726 67,77.5C 67.941,75.2726 69.1077,73.2726 70.5,71.5C 70.5,72.1667 70.8333,72.5 71.5,72.5C 71.56,73.0431 71.8933,73.3764 72.5,73.5C 83.1081,68.6332 93.7748,63.9665 104.5,59.5C 104.5,60.1667 104.833,60.5 105.5,60.5C 93.9233,65.6163 82.2566,70.783 70.5,76C 69.0702,77.9074 68.4035,80.0741 68.5,82.5C 68.837,85.1764 69.1703,87.843 69.5,90.5C 68.5655,91.5676 68.2322,92.901 68.5,94.5C 67.6805,91.6946 67.1805,88.6946 67,85.5C 66.8171,88.3647 66.3171,91.0314 65.5,93.5C 65.6716,92.5084 65.3382,91.8417 64.5,91.5C 64.8436,87.7717 65.5102,84.1051 66.5,80.5C 65.8721,78.7419 64.8721,77.2419 63.5,76C 51.4297,70.9236 39.4297,65.7569 27.5,60.5 Z"/></g>
<g><path style="opacity:1" fill="#f7553c" d="M 66.5,62.5 C 68.9725,63.7487 69.1391,65.4153 67,67.5C 65.4807,65.8608 65.314,64.1942 66.5,62.5 Z"/></g>
<g><path style="opacity:1" fill="#f33d33" d="M 27.5,60.5 C 39.4297,65.7569 51.4297,70.9236 63.5,76C 64.8721,77.2419 65.8721,78.7419 66.5,80.5C 65.5102,84.1051 64.8436,87.7717 64.5,91.5C 64.373,95.2618 63.7063,98.9285 62.5,102.5C 61.1195,102 60.4528,101 60.5,99.5C 62.3908,92.835 63.3908,86.1683 63.5,79.5C 52.2064,74.9021 40.8731,70.4021 29.5,66C 28.1387,64.4157 27.472,62.5824 27.5,60.5 Z"/></g>
<g><path style="opacity:1" fill="#f43b30" d="M 70.5,71.5 C 69.1077,73.2726 67.941,75.2726 67,77.5C 66.059,75.2726 64.8923,73.2726 63.5,71.5C 63.5605,66.678 64.7272,66.3447 67,70.5C 69.2728,66.3447 70.4395,66.678 70.5,71.5 Z"/></g>
<g><path style="opacity:1" fill="#f33b31" d="M 105.5,60.5 C 106.239,60.369 106.906,60.5357 107.5,61C 106.5,62.6667 105.5,64.3333 104.5,66C 93.1269,70.4021 81.7936,74.9021 70.5,79.5C 70.1667,80.3333 69.8333,81.1667 69.5,82C 71.1485,87.4055 72.4818,92.9055 73.5,98.5C 72.6203,103.295 71.6203,103.462 70.5,99C 69.9695,96.1834 69.6361,93.35 69.5,90.5C 69.1703,87.843 68.837,85.1764 68.5,82.5C 68.4035,80.0741 69.0702,77.9074 70.5,76C 82.2566,70.783 93.9233,65.6163 105.5,60.5 Z"/></g>
<g><path style="opacity:1" fill="#f32d30" d="M 68.5,94.5 C 68.9239,98.7032 68.4239,102.703 67,106.5C 65.5692,102.365 65.0692,98.032 65.5,93.5C 66.3171,91.0314 66.8171,88.3647 67,85.5C 67.1805,88.6946 67.6805,91.6946 68.5,94.5 Z"/></g>
</svg>
