<?xml version="1.0" encoding="UTF-8"?>
<!DOCTYPE svg PUBLIC "-//W3C//DTD SVG 1.1//EN" "http://www.w3.org/Graphics/SVG/1.1/DTD/svg11.dtd">
<svg xmlns="http://www.w3.org/2000/svg" version="1.1" width="135px" height="135px" style="shape-rendering:geometricPrecision; text-rendering:geometricPrecision; image-rendering:optimizeQuality; fill-rule:evenodd; clip-rule:evenodd" xmlns:xlink="http://www.w3.org/1999/xlink">
<g><path style="opacity:0.96" fill="#e4462b" d="M 24.5,-0.5 C 53.1667,-0.5 81.8333,-0.5 110.5,-0.5C 121.356,3.68834 129.356,11.0217 134.5,21.5C 134.5,52.1667 134.5,82.8333 134.5,113.5C 129.833,122.833 122.833,129.833 113.5,134.5C 82.8333,134.5 52.1667,134.5 21.5,134.5C 11.0217,129.356 3.68834,121.356 -0.5,110.5C -0.5,81.8333 -0.5,53.1667 -0.5,24.5C 4.16667,12.5 12.5,4.16667 24.5,-0.5 Z"/></g>
<g><path style="opacity:1" fill="#fefdfc" d="M 27.5,4.5 C 54.1687,4.33336 80.8354,4.50003 107.5,5C 119,8.5 126.5,16 130,27.5C 130.667,54.1667 130.667,80.8333 130,107.5C 126.5,119 119,126.5 107.5,130C 80.8333,130.667 54.1667,130.667 27.5,130C 16,126.5 8.5,119 5,107.5C 4.33333,80.8333 4.33333,54.1667 5,27.5C 8.68399,15.9837 16.184,8.31707 27.5,4.5 Z"/></g>
<g><path style="opacity:1" fill="#e34126" d="M 61.5,23.5 C 65.1667,23.5 68.8333,23.5 72.5,23.5C 73.9899,25.2798 75.9899,25.9465 78.5,25.5C 90.1394,28.4976 99.1394,35.1643 105.5,45.5C 105.755,47.9674 106.755,49.9674 108.5,51.5C 113.775,66.8043 111.775,81.1377 102.5,94.5C 99.5,96.8333 96.8333,99.5 94.5,102.5C 88.7431,106.374 82.4098,109.207 75.5,111C 67.143,112.265 59.143,111.431 51.5,108.5C 49.9674,106.755 47.9674,105.755 45.5,105.5C 35.1643,99.1394 28.4976,90.1394 25.5,78.5C 25.9465,75.9899 25.2798,73.9899 23.5,72.5C 23.5,68.8333 23.5,65.1667 23.5,61.5C 24.1174,61.3893 24.6174,61.056 25,60.5C 25.3951,57.7934 25.8951,55.1267 26.5,52.5C 26.5,52.1667 26.5,51.8333 26.5,51.5C 30.5527,47.0855 33.886,42.0855 36.5,36.5C 40.8931,31.6381 46.2264,28.3048 52.5,26.5C 55.7458,25.9459 58.7458,24.9459 61.5,23.5 Z"/></g>
<g><path style="opacity:1" fill="#e39c8f" d="M 61.5,23.5 C 58.7458,24.9459 55.7458,25.9459 52.5,26.5C 52.7911,25.3509 53.6244,24.6842 55,24.5C 57.137,23.9233 59.3037,23.59 61.5,23.5 Z"/></g>
<g><path style="opacity:1" fill="#ed7e6b" d="M 72.5,23.5 C 74.8984,23.2594 76.8984,23.9261 78.5,25.5C 75.9899,25.9465 73.9899,25.2798 72.5,23.5 Z"/></g>
<g><path style="opacity:1" fill="#e8644c" d="M 36.5,36.5 C 33.886,42.0855 30.5527,47.0855 26.5,51.5C 28.5839,45.6651 31.9172,40.6651 36.5,36.5 Z"/></g>
<g><path style="opacity:1" fill="#ec7d6b" d="M 54.5,51.5 C 52.5168,51.1568 51.1834,51.8235 50.5,53.5C 49.1667,53.5 47.8333,53.5 46.5,53.5C 45.6661,52.2521 44.3328,51.5854 42.5,51.5C 40.6672,51.5854 39.3339,52.2521 38.5,53.5C 37.596,52.791 37.2627,51.791 37.5,50.5C 43.358,50.1778 49.0247,50.5111 54.5,51.5 Z"/></g>
<g><path style="opacity:1" fill="#e98574" d="M 105.5,45.5 C 107.245,47.0326 108.245,49.0326 108.5,51.5C 106.755,49.9674 105.755,47.9674 105.5,45.5 Z"/></g>
<g><path style="opacity:1" fill="#fce6e2" d="M 67.5,53.5 C 71.9699,59.884 75.3033,66.884 77.5,74.5C 78.4577,77.1247 79.6243,77.1247 81,74.5C 81.4643,75.0944 81.631,75.7611 81.5,76.5C 81.114,78.9366 79.9473,80.9366 78,82.5C 74.9582,75.8356 71.4582,69.5022 67.5,63.5C 67.3146,61.8042 66.4813,60.4709 65,59.5C 64.8333,63.1667 64.6667,66.8333 64.5,70.5C 64.5112,74.5652 65.1778,78.2319 66.5,81.5C 67.1667,81.5 67.8333,81.5 68.5,81.5C 67.1286,82.7868 65.2953,83.4535 63,83.5C 60.7047,83.4535 58.8714,82.7868 57.5,81.5C 58.8333,81.5 60.1667,81.5 61.5,81.5C 62.1667,81.5 62.5,81.1667 62.5,80.5C 63.4936,71.3483 63.8269,62.015 63.5,52.5C 64.9587,52.4326 66.2921,52.7659 67.5,53.5 Z"/></g>
<g><path style="opacity:1" fill="#fdf4f2" d="M 95.5,53.5 C 95.5,63.1667 95.5,72.8333 95.5,82.5C 93.901,82.7678 92.5676,82.4345 91.5,81.5C 91.5,74.1667 91.5,66.8333 91.5,59.5C 90.9094,58.8485 90.2427,58.1818 89.5,57.5C 90.1272,56.5832 90.4606,55.5832 90.5,54.5C 90.5,54.1667 90.5,53.8333 90.5,53.5C 92.3344,52.506 94.0011,52.506 95.5,53.5 Z"/></g>
<g><path style="opacity:1" fill="#f7c0b6" d="M 96.5,53.5 C 96.1667,53.5 95.8333,53.5 95.5,53.5C 94.0011,52.506 92.3344,52.506 90.5,53.5C 90.8039,52.8501 91.1373,52.1835 91.5,51.5C 94.0865,50.52 96.7531,50.1866 99.5,50.5C 99.5,51.5 99.5,52.5 99.5,53.5C 98.5,53.5 97.5,53.5 96.5,53.5 Z"/></g>
<g><path style="opacity:1" fill="#f6bbb2" d="M 46.5,53.5 C 46.5,58.1667 46.5,62.8333 46.5,67.5C 44.8333,67.5 43.1667,67.5 41.5,67.5C 41.5,62.8333 41.5,58.1667 41.5,53.5C 40.5,53.5 39.5,53.5 38.5,53.5C 39.3339,52.2521 40.6672,51.5854 42.5,51.5C 44.3328,51.5854 45.6661,52.2521 46.5,53.5 Z"/></g>
<g><path style="opacity:1" fill="#fefefe" d="M 42.5,52.5 C 43.8048,54.3972 44.4714,56.7305 44.5,59.5C 44.1667,61.8333 43.8333,64.1667 43.5,66.5C 42.5067,61.8804 42.1734,57.2137 42.5,52.5 Z"/></g>
<g><path style="opacity:1" fill="#fce7e4" d="M 54.5,51.5 C 57.9709,52.6332 59.9709,54.9666 60.5,58.5C 60.5,59.8333 60.5,61.1667 60.5,62.5C 59.5272,64.1494 58.5272,65.816 57.5,67.5C 55.3469,68.5729 53.3469,68.5729 51.5,67.5C 52.5,66.8333 53.5,66.1667 54.5,65.5C 55.1174,65.3893 55.6174,65.056 56,64.5C 56.6667,61.8333 56.6667,59.1667 56,56.5C 55.6174,55.944 55.1174,55.6107 54.5,55.5C 53.713,53.8958 52.3797,53.2291 50.5,53.5C 51.1834,51.8235 52.5168,51.1568 54.5,51.5 Z"/></g>
<g><path style="opacity:1" fill="#f5b6ab" d="M 67.5,53.5 C 66.2921,52.7659 64.9587,52.4326 63.5,52.5C 63.8269,62.015 63.4936,71.3483 62.5,80.5C 62.8266,71.3178 62.4933,62.3178 61.5,53.5C 60.596,52.791 60.2627,51.791 60.5,50.5C 62.5273,50.3379 64.5273,50.5045 66.5,51C 67.2524,51.6708 67.5858,52.5041 67.5,53.5 Z"/></g>
<g><path style="opacity:1" fill="#e98776" d="M 26.5,52.5 C 25.8951,55.1267 25.3951,57.7934 25,60.5C 24.6174,61.056 24.1174,61.3893 23.5,61.5C 23.59,59.3037 23.9233,57.137 24.5,55C 24.6842,53.6244 25.3509,52.7911 26.5,52.5 Z"/></g>
<g><path style="opacity:1" fill="#ef907f" d="M 54.5,55.5 C 55.1174,55.6107 55.6174,55.944 56,56.5C 56.6667,59.1667 56.6667,61.8333 56,64.5C 55.6174,65.056 55.1174,65.3893 54.5,65.5C 55.8333,62.1667 55.8333,58.8333 54.5,55.5 Z"/></g>
<g><path style="opacity:1" fill="#ea735f" d="M 67.5,63.5 C 66.8826,63.3893 66.3826,63.056 66,62.5C 65.2098,68.9147 65.3765,75.248 66.5,81.5C 65.1778,78.2319 64.5112,74.5652 64.5,70.5C 64.6667,66.8333 64.8333,63.1667 65,59.5C 66.4813,60.4709 67.3146,61.8042 67.5,63.5 Z"/></g>
<g><path style="opacity:1" fill="#eb7663" d="M 61.5,53.5 C 62.4933,62.3178 62.8266,71.3178 62.5,80.5C 62.5,81.1667 62.1667,81.5 61.5,81.5C 61.8235,74.9779 61.4902,68.6446 60.5,62.5C 60.5,61.1667 60.5,59.8333 60.5,58.5C 61.4511,57.0813 61.7845,55.4147 61.5,53.5 Z"/></g>
<g><path style="opacity:1" fill="#ee8877" d="M 51.5,67.5 C 53.3469,68.5729 55.3469,68.5729 57.5,67.5C 57.3893,68.1174 57.056,68.6174 56.5,69C 53.2072,69.8256 49.8738,70.3256 46.5,70.5C 46.5,74.1667 46.5,77.8333 46.5,81.5C 45.5206,78.3752 45.1872,75.0419 45.5,71.5C 44.1667,71.5 42.8333,71.5 41.5,71.5C 41.8128,75.0419 41.4794,78.3752 40.5,81.5C 40.7935,77.5633 40.4601,73.73 39.5,70C 43.3326,68.6823 47.3326,67.849 51.5,67.5 Z"/></g>
<g><path style="opacity:1" fill="#fad9d4" d="M 46.5,81.5 C 47.1667,81.5 47.8333,81.5 48.5,81.5C 47.3064,82.7773 45.6397,83.4439 43.5,83.5C 41.3603,83.4439 39.6936,82.7773 38.5,81.5C 39.1667,81.5 39.8333,81.5 40.5,81.5C 41.4794,78.3752 41.8128,75.0419 41.5,71.5C 42.8333,71.5 44.1667,71.5 45.5,71.5C 45.1872,75.0419 45.5206,78.3752 46.5,81.5 Z"/></g>
<g><path style="opacity:1" fill="#f9c7bf" d="M 90.5,54.5 C 90.4606,55.5832 90.1272,56.5832 89.5,57.5C 90.2427,58.1818 90.9094,58.8485 91.5,59.5C 88.1988,65.1465 84.8655,70.8132 81.5,76.5C 81.631,75.7611 81.4643,75.0944 81,74.5C 79.6243,77.1247 78.4577,77.1247 77.5,74.5C 79.2569,73.9157 80.5902,72.749 81.5,71C 84.451,65.2825 87.451,59.7825 90.5,54.5 Z"/></g>
<g><path style="opacity:1" fill="#ed7e6b" d="M 23.5,72.5 C 25.2798,73.9899 25.9465,75.9899 25.5,78.5C 23.9261,76.8984 23.2594,74.8984 23.5,72.5 Z"/></g>
<g><path style="opacity:1" fill="#f4a99c" d="M 95.5,53.5 C 95.8333,53.5 96.1667,53.5 96.5,53.5C 96.5,62.8333 96.5,72.1667 96.5,81.5C 97.675,81.281 98.675,81.6143 99.5,82.5C 95.5,83.8333 91.5,83.8333 87.5,82.5C 88.6888,81.5713 90.0222,81.238 91.5,81.5C 92.5676,82.4345 93.901,82.7678 95.5,82.5C 95.5,72.8333 95.5,63.1667 95.5,53.5 Z"/></g>
<g><path style="opacity:1" fill="#ed8574" d="M 38.5,81.5 C 39.6936,82.7773 41.3603,83.4439 43.5,83.5C 45.6397,83.4439 47.3064,82.7773 48.5,81.5C 50.0481,81.8212 50.7148,82.8212 50.5,84.5C 46.1667,84.5 41.8333,84.5 37.5,84.5C 37.2627,83.209 37.596,82.209 38.5,81.5 Z"/></g>
<g><path style="opacity:1" fill="#ee8b7a" d="M 57.5,81.5 C 58.8714,82.7868 60.7047,83.4535 63,83.5C 65.2953,83.4535 67.1286,82.7868 68.5,81.5C 69.404,82.209 69.7373,83.209 69.5,84.5C 65.1667,84.5 60.8333,84.5 56.5,84.5C 56.2627,83.209 56.596,82.209 57.5,81.5 Z"/></g>
<g><path style="opacity:1" fill="#e8bbb3" d="M 102.5,94.5 C 100.833,98.1667 98.1667,100.833 94.5,102.5C 96.8333,99.5 99.5,96.8333 102.5,94.5 Z"/></g>
<g><path style="opacity:1" fill="#e98574" d="M 45.5,105.5 C 47.9674,105.755 49.9674,106.755 51.5,108.5C 49.0326,108.245 47.0326,107.245 45.5,105.5 Z"/></g>
</svg>
