<?xml version="1.0" encoding="UTF-8"?>
<!DOCTYPE svg PUBLIC "-//W3C//DTD SVG 1.1//EN" "http://www.w3.org/Graphics/SVG/1.1/DTD/svg11.dtd">
<svg xmlns="http://www.w3.org/2000/svg" version="1.1" width="135px" height="135px" style="shape-rendering:geometricPrecision; text-rendering:geometricPrecision; image-rendering:optimizeQuality; fill-rule:evenodd; clip-rule:evenodd" xmlns:xlink="http://www.w3.org/1999/xlink">
<g><path style="opacity:0.943" fill="#272727" d="M 24.5,-0.5 C 52.8333,-0.5 81.1667,-0.5 109.5,-0.5C 115.486,1.91489 120.986,5.24823 126,9.5C 129.661,14.4933 132.494,19.8266 134.5,25.5C 134.5,53.1667 134.5,80.8333 134.5,108.5C 132.494,114.173 129.661,119.507 126,124.5C 120.986,128.752 115.486,132.085 109.5,134.5C 81.1667,134.5 52.8333,134.5 24.5,134.5C 18.5144,132.085 13.0144,128.752 8,124.5C 4.33905,119.507 1.50572,114.173 -0.5,108.5C -0.5,80.8333 -0.5,53.1667 -0.5,25.5C 1.50572,19.8266 4.33905,14.4933 8,9.5C 13.0144,5.24823 18.5144,1.91489 24.5,-0.5 Z"/></g>
<g><path style="opacity:1" fill="#fdfdfd" d="M 26.5,3.5 C 52.8354,3.33336 79.1688,3.50003 105.5,4C 118.122,6.62111 126.289,14.1211 130,26.5C 130.667,52.8333 130.667,79.1667 130,105.5C 127.279,118.554 119.446,126.721 106.5,130C 79.8333,130.667 53.1667,130.667 26.5,130C 13.6662,126.168 6.16617,117.668 4,104.5C 3.33333,78.5 3.33333,52.5 4,26.5C 7.68399,14.9837 15.184,7.31707 26.5,3.5 Z"/></g>
<g><path style="opacity:1" fill="#3e3e3e" d="M 93.5,26.5 C 93.1667,26.5 92.8333,26.5 92.5,26.5C 87.1254,26.1718 81.7921,26.5052 76.5,27.5C 75.8679,31.5894 74.8679,35.5894 73.5,39.5C 71.3052,40.7691 69.1385,40.7691 67,39.5C 65.0517,40.1094 63.2184,40.776 61.5,41.5C 48.7017,46.3255 42.7017,55.6588 43.5,69.5C 42.6829,67.0314 42.1829,64.3647 42,61.5C 41.5045,63.4727 41.3379,65.4727 41.5,67.5C 38.3035,67.9728 35.1368,68.6394 32,69.5C 30.4411,68.9706 28.9411,68.304 27.5,67.5C 26.8313,69.6309 26.1646,71.6309 25.5,73.5C 25.3335,61.8286 25.5001,50.1619 26,38.5C 28.1667,32.3333 32.3333,28.1667 38.5,26C 57.0046,25.1712 75.338,25.3379 93.5,26.5 Z"/></g>
<g><path style="opacity:1" fill="#282828" d="M 92.5,26.5 C 90.9064,33.8883 89.0731,41.555 87,49.5C 85.5,48 84,46.5 82.5,45C 81.5632,44.3083 80.8966,44.475 80.5,45.5C 74.6294,42.1426 68.2961,40.8092 61.5,41.5C 63.2184,40.776 65.0517,40.1094 67,39.5C 69.1385,40.7691 71.3052,40.7691 73.5,39.5C 74.8679,35.5894 75.8679,31.5894 76.5,27.5C 81.7921,26.5052 87.1254,26.1718 92.5,26.5 Z"/></g>
<g><path style="opacity:1" fill="#181818" d="M 92.5,26.5 C 92.8333,26.5 93.1667,26.5 93.5,26.5C 100.972,27.8014 105.805,32.1348 108,39.5C 108.829,57.0049 108.662,74.3382 107.5,91.5C 107.667,80.495 107.5,69.495 107,58.5C 105.632,59.9931 105.465,61.4931 106.5,63C 102.87,66.4166 100.37,70.5833 99,75.5C 94.1638,79.892 90.3304,84.892 87.5,90.5C 87.5,89.5 87.5,88.5 87.5,87.5C 85.1579,87.4959 83.1579,86.6625 81.5,85C 95.108,71.3802 94.7747,58.2135 80.5,45.5C 80.8966,44.475 81.5632,44.3083 82.5,45C 84,46.5 85.5,48 87,49.5C 89.0731,41.555 90.9064,33.8883 92.5,26.5 Z"/></g>
<g><path style="opacity:1" fill="#f3f3f3" d="M 61.5,41.5 C 68.2961,40.8092 74.6294,42.1426 80.5,45.5C 94.7747,58.2135 95.108,71.3802 81.5,85C 83.1579,86.6625 85.1579,87.4959 87.5,87.5C 87.5,88.5 87.5,89.5 87.5,90.5C 83.396,90.4656 79.396,89.7989 75.5,88.5C 67.7013,90.4904 60.368,89.4904 53.5,85.5C 49.5506,82.293 46.5506,78.293 44.5,73.5C 44.1667,72.1667 43.8333,70.8333 43.5,69.5C 42.7017,55.6588 48.7017,46.3255 61.5,41.5 Z"/></g>
<g><path style="opacity:1" fill="#323232" d="M 73.5,52.5 C 67.6299,60.1867 60.2966,66.3534 51.5,71C 50.2068,71.49 48.8734,71.6567 47.5,71.5C 47.3781,67.1617 47.0447,66.8284 46.5,70.5C 44.2286,58.8778 48.5619,50.3778 59.5,45C 66.3065,43.6487 70.9732,46.1487 73.5,52.5 Z"/></g>
<g><path style="opacity:1" fill="#ededed" d="M 61.5,52.5 C 66.5867,52.2845 67.5867,54.1178 64.5,58C 60.5369,58.1177 59.5369,56.2843 61.5,52.5 Z"/></g>
<g><path style="opacity:1" fill="#111111" d="M 107.5,91.5 C 106.443,101.058 101.109,106.558 91.5,108C 74.1667,108.667 56.8333,108.667 39.5,108C 34.7879,106.447 31.1213,103.614 28.5,99.5C 33.1265,98.4411 37.9598,98.4411 43,99.5C 44.8908,97.3467 47.0574,96.68 49.5,97.5C 51.9585,96.081 54.6251,95.081 57.5,94.5C 57.8076,93.6919 58.3076,93.0253 59,92.5C 60.8803,93.9295 62.3803,93.5962 63.5,91.5C 60.0533,90.2771 56.7199,88.7771 53.5,87C 52.2617,86.31 52.2617,85.81 53.5,85.5C 60.368,89.4904 67.7013,90.4904 75.5,88.5C 79.396,89.7989 83.396,90.4656 87.5,90.5C 90.3304,84.892 94.1638,79.892 99,75.5C 100.37,70.5833 102.87,66.4166 106.5,63C 105.465,61.4931 105.632,59.9931 107,58.5C 107.5,69.495 107.667,80.495 107.5,91.5 Z"/></g>
<g><path style="opacity:1" fill="#212121" d="M 73.5,52.5 C 74.5365,59.2681 71.8698,63.7681 65.5,66C 60.9191,69.4384 59.4191,73.9384 61,79.5C 62.4055,82.4086 64.5722,84.4086 67.5,85.5C 66.0813,86.4511 64.4147,86.7845 62.5,86.5C 54.176,84.176 48.8427,78.8427 46.5,70.5C 47.0447,66.8284 47.3781,67.1617 47.5,71.5C 48.8734,71.6567 50.2068,71.49 51.5,71C 60.2966,66.3534 67.6299,60.1867 73.5,52.5 Z"/></g>
<g><path style="opacity:1" fill="#2a2a2a" d="M 43.5,69.5 C 43.8333,70.8333 44.1667,72.1667 44.5,73.5C 44.3773,75.2079 44.0439,77.0412 43.5,79C 38.1645,80.4665 32.8311,80.6332 27.5,79.5C 26.5067,84.1196 26.1734,88.7863 26.5,93.5C 25.5093,87.021 25.176,80.3543 25.5,73.5C 26.1646,71.6309 26.8313,69.6309 27.5,67.5C 28.9411,68.304 30.4411,68.9706 32,69.5C 35.1368,68.6394 38.3035,67.9728 41.5,67.5C 41.3379,65.4727 41.5045,63.4727 42,61.5C 42.1829,64.3647 42.6829,67.0314 43.5,69.5 Z"/></g>
<g><path style="opacity:1" fill="#191919" d="M 69.5,72.5 C 74.0408,72.8152 75.0408,74.6485 72.5,78C 68.5369,78.1177 67.5369,76.2843 69.5,72.5 Z"/></g>
<g><path style="opacity:1" fill="#1d1d1d" d="M 44.5,73.5 C 46.5506,78.293 49.5506,82.293 53.5,85.5C 52.2617,85.81 52.2617,86.31 53.5,87C 56.7199,88.7771 60.0533,90.2771 63.5,91.5C 62.3803,93.5962 60.8803,93.9295 59,92.5C 58.3076,93.0253 57.8076,93.6919 57.5,94.5C 54.6251,95.081 51.9585,96.081 49.5,97.5C 47.0574,96.68 44.8908,97.3467 43,99.5C 37.9598,98.4411 33.1265,98.4411 28.5,99.5C 26.9261,97.8984 26.2594,95.8984 26.5,93.5C 26.1734,88.7863 26.5067,84.1196 27.5,79.5C 32.8311,80.6332 38.1645,80.4665 43.5,79C 44.0439,77.0412 44.3773,75.2079 44.5,73.5 Z"/></g>
<g><path style="opacity:1" fill="#7a7a7a" d="M 67.5,85.5 C 68.3764,85.3691 69.0431,85.7025 69.5,86.5C 67.0268,87.7969 64.6934,87.7969 62.5,86.5C 64.4147,86.7845 66.0813,86.4511 67.5,85.5 Z"/></g>
</svg>
