<?xml version="1.0" encoding="UTF-8"?>
<!DOCTYPE svg PUBLIC "-//W3C//DTD SVG 1.1//EN" "http://www.w3.org/Graphics/SVG/1.1/DTD/svg11.dtd">
<svg xmlns="http://www.w3.org/2000/svg" version="1.1" width="135px" height="135px" style="shape-rendering:geometricPrecision; text-rendering:geometricPrecision; image-rendering:optimizeQuality; fill-rule:evenodd; clip-rule:evenodd" xmlns:xlink="http://www.w3.org/1999/xlink">
<g><path style="opacity:0.943" fill="#54db54" d="M 24.5,-0.5 C 52.8333,-0.5 81.1667,-0.5 109.5,-0.5C 115.486,1.91489 120.986,5.24823 126,9.5C 129.661,14.4933 132.494,19.8266 134.5,25.5C 134.5,53.1667 134.5,80.8333 134.5,108.5C 132.494,114.173 129.661,119.507 126,124.5C 120.986,128.752 115.486,132.085 109.5,134.5C 81.1667,134.5 52.8333,134.5 24.5,134.5C 18.5144,132.085 13.0144,128.752 8,124.5C 4.33905,119.507 1.50572,114.173 -0.5,108.5C -0.5,80.8333 -0.5,53.1667 -0.5,25.5C 1.50572,19.8266 4.33905,14.4933 8,9.5C 13.0144,5.24823 18.5144,1.91489 24.5,-0.5 Z"/></g>
<g><path style="opacity:1" fill="#fefefe" d="M 26.5,3.5 C 52.5021,3.33336 78.5021,3.50003 104.5,4C 117.668,6.16617 126.168,13.6662 130,26.5C 130.667,52.8333 130.667,79.1667 130,105.5C 127.046,119.454 118.546,127.621 104.5,130C 78.5,130.667 52.5,130.667 26.5,130C 14.5675,126.401 7.06749,118.568 4,106.5C 3.33333,79.8333 3.33333,53.1667 4,26.5C 7.68399,14.9837 15.184,7.31707 26.5,3.5 Z"/></g>
<g><path style="opacity:1" fill="#5adc59" d="M 97.5,30.5 C 100.167,30.5 102.833,30.5 105.5,30.5C 105.082,38.5042 103.249,46.1708 100,53.5C 93.5564,59.9354 85.7231,63.6021 76.5,64.5C 74.329,67.5054 72.829,70.8388 72,74.5C 71.6836,85.1776 71.6836,95.8443 72,106.5C 68.2596,109.413 64.9263,109.08 62,105.5C 62.3228,98.5194 62.8228,91.5194 63.5,84.5C 64.6919,78.0734 62.8585,72.7401 58,68.5C 52.6363,75.4092 46.4696,76.2425 39.5,71C 36.0194,66.685 32.3527,62.5184 28.5,58.5C 46.0127,54.3968 58.846,60.3968 67,76.5C 70.8573,65.123 75.524,54.123 81,43.5C 85.5119,37.8113 91.0119,33.4779 97.5,30.5 Z"/></g>
</svg>
