<?xml version="1.0" encoding="UTF-8"?>
<!DOCTYPE svg PUBLIC "-//W3C//DTD SVG 1.1//EN" "http://www.w3.org/Graphics/SVG/1.1/DTD/svg11.dtd">
<svg xmlns="http://www.w3.org/2000/svg" version="1.1" width="135px" height="135px" style="shape-rendering:geometricPrecision; text-rendering:geometricPrecision; image-rendering:optimizeQuality; fill-rule:evenodd; clip-rule:evenodd" xmlns:xlink="http://www.w3.org/1999/xlink">
<g><path style="opacity:0.942" fill="#9b13fc" d="M 24.5,-0.5 C 52.8333,-0.5 81.1667,-0.5 109.5,-0.5C 115.486,1.91489 120.986,5.24823 126,9.5C 129.661,14.4933 132.494,19.8266 134.5,25.5C 134.5,53.1667 134.5,80.8333 134.5,108.5C 132.494,114.173 129.661,119.507 126,124.5C 120.986,128.752 115.486,132.085 109.5,134.5C 81.1667,134.5 52.8333,134.5 24.5,134.5C 18.5144,132.085 13.0144,128.752 8,124.5C 4.33905,119.507 1.50572,114.173 -0.5,108.5C -0.5,80.8333 -0.5,53.1667 -0.5,25.5C 1.50572,19.8266 4.33905,14.4933 8,9.5C 13.0144,5.24823 18.5144,1.91489 24.5,-0.5 Z"/></g>
<g><path style="opacity:1" fill="#fefdfe" d="M 27.5,3.5 C 53.1688,3.33336 78.8355,3.50003 104.5,4C 118.1,6.26606 126.6,14.0994 130,27.5C 130.667,53.1667 130.667,78.8333 130,104.5C 127.621,118.546 119.454,127.046 105.5,130C 79.5,130.667 53.5,130.667 27.5,130C 14.0994,126.6 6.26606,118.1 4,104.5C 3.33333,78.8333 3.33333,53.1667 4,27.5C 7.34904,14.9853 15.1824,6.98533 27.5,3.5 Z"/></g>
<g><path style="opacity:1" fill="#8c32fc" d="M 61.5,37.5 C 59.9731,37.573 58.9731,36.9063 58.5,35.5C 61.8056,33.5113 65.1389,31.5113 68.5,29.5C 77.665,34.5814 86.665,39.9148 95.5,45.5C 94.6721,46.4147 93.6721,47.0814 92.5,47.5C 84.5,42.8333 76.5,38.1667 68.5,33.5C 66.3021,35.0981 63.9687,36.4314 61.5,37.5 Z"/></g>
<g><path style="opacity:1" fill="#4176f9" d="M 58.5,35.5 C 58.9731,36.9063 59.9731,37.573 61.5,37.5C 55.1623,41.6708 48.4956,45.3375 41.5,48.5C 40.8333,47.8333 40.1667,47.1667 39.5,46.5C 45.6697,42.5808 52.0031,38.9141 58.5,35.5 Z"/></g>
<g><path style="opacity:1" fill="#b11afb" d="M 98.5,47.5 C 103.185,47.9425 104.518,50.2758 102.5,54.5C 99.4708,56.102 97.4708,55.2686 96.5,52C 96.5186,50.167 97.1852,48.667 98.5,47.5 Z"/></g>
<g><path style="opacity:1" fill="#4c5efe" d="M 75.5,53.5 C 75.0742,54.5279 75.0742,55.8612 75.5,57.5C 78.2476,57.4017 78.9143,58.4017 77.5,60.5C 76.3734,59.8783 75.3734,59.045 74.5,58C 67.8417,57.5004 61.175,57.3337 54.5,57.5C 54.5,55.8333 54.5,54.1667 54.5,52.5C 61.6866,52.1755 68.6866,52.5088 75.5,53.5 Z"/></g>
<g><path style="opacity:1" fill="#4aa5e0" d="M 39.5,46.5 C 40.1667,47.1667 40.8333,47.8333 41.5,48.5C 40.6851,49.8366 39.5185,50.8366 38,51.5C 37.5006,56.8229 37.334,62.1563 37.5,67.5C 36.3802,64.635 35.0469,61.9684 33.5,59.5C 33.335,56.1501 33.5017,52.8168 34,49.5C 35.7804,48.3606 37.6137,47.3606 39.5,46.5 Z"/></g>
<g><path style="opacity:1" fill="#6448fd" d="M 75.5,53.5 C 83.6462,56.8358 85.6462,62.5025 81.5,70.5C 80.71,69.3915 80.21,68.0581 80,66.5C 79.31,67.7383 78.81,67.7383 78.5,66.5C 78.6747,64.3792 78.3414,62.3792 77.5,60.5C 78.9143,58.4017 78.2476,57.4017 75.5,57.5C 75.0742,55.8612 75.0742,54.5279 75.5,53.5 Z"/></g>
<g><path style="opacity:1" fill="#3d8ced" d="M 65.5,70.5 C 67.0603,72.1294 66.727,73.296 64.5,74C 65.7375,74.2321 66.7375,74.7321 67.5,75.5C 65.1667,75.5 62.8333,75.5 60.5,75.5C 59.6773,78.977 59.1773,82.6437 59,86.5C 55.9409,81.6448 54.7743,76.3115 55.5,70.5C 58.8333,70.5 62.1667,70.5 65.5,70.5 Z"/></g>
<g><path style="opacity:1" fill="#4467fe" d="M 78.5,66.5 C 78.81,67.7383 79.31,67.7383 80,66.5C 80.21,68.0581 80.71,69.3915 81.5,70.5C 77.8013,74.5134 73.1346,76.1801 67.5,75.5C 66.7375,74.7321 65.7375,74.2321 64.5,74C 66.727,73.296 67.0603,72.1294 65.5,70.5C 68.7131,70.81 71.7131,70.4767 74.5,69.5C 76.1405,68.853 77.4739,67.853 78.5,66.5 Z"/></g>
<g><path style="opacity:1" fill="#7ab2ef" d="M 74.5,69.5 C 71.7131,70.4767 68.7131,70.81 65.5,70.5C 62.1667,70.5 58.8333,70.5 55.5,70.5C 54.7743,76.3115 55.9409,81.6448 59,86.5C 59.1773,82.6437 59.6773,78.977 60.5,75.5C 60.5,79.5 60.5,83.5 60.5,87.5C 58.5,87.5 56.5,87.5 54.5,87.5C 54.5,81.5 54.5,75.5 54.5,69.5C 61.1667,69.5 67.8333,69.5 74.5,69.5 Z"/></g>
<g><path style="opacity:1" fill="#50c1cd" d="M 33.5,59.5 C 35.0469,61.9684 36.3802,64.635 37.5,67.5C 37.1697,74.5316 37.503,81.5316 38.5,88.5C 41.2308,90.1916 43.8975,91.8583 46.5,93.5C 46.7373,94.791 46.404,95.791 45.5,96.5C 41.8503,94.5283 38.1836,92.5283 34.5,90.5C 33.5014,80.1881 33.1681,69.8548 33.5,59.5 Z"/></g>
<g><path style="opacity:1" fill="#913bfd" d="M 97.5,92.5 C 96.5,92.1667 95.8333,91.5 95.5,90.5C 96.4822,89.8592 97.4822,89.1925 98.5,88.5C 99.3321,78.8505 99.8321,69.1838 100,59.5C 101,58.8333 102,58.1667 103,57.5C 103.832,68.5151 103.666,79.5151 102.5,90.5C 100.925,91.4565 99.258,92.1231 97.5,92.5 Z"/></g>
<g><path style="opacity:1" fill="#3c67fe" d="M 75.5,78.5 C 76.8221,78.33 77.9887,78.6634 79,79.5C 80.1227,82.2487 81.6227,84.7487 83.5,87C 81.2305,87.7581 79.0639,87.5914 77,86.5C 75.6338,84.6297 74.4672,82.6297 73.5,80.5C 74.2427,79.8182 74.9094,79.1515 75.5,78.5 Z"/></g>
<g><path style="opacity:1" fill="#4464fe" d="M 95.5,90.5 C 95.8333,91.5 96.5,92.1667 97.5,92.5C 93.3699,95.4032 89.0366,98.0699 84.5,100.5C 83.5,100.167 82.8333,99.5 82.5,98.5C 86.6301,95.5968 90.9634,92.9301 95.5,90.5 Z"/></g>
<g><path style="opacity:1" fill="#408bed" d="M 82.5,98.5 C 82.8333,99.5 83.5,100.167 84.5,100.5C 80.5355,102.818 76.5355,105.152 72.5,107.5C 70.9731,107.573 69.9731,106.906 69.5,105.5C 73.701,102.9 78.0344,100.566 82.5,98.5 Z"/></g>
<g><path style="opacity:1" fill="#48a8db" d="M 46.5,93.5 C 54.0517,97.7754 61.7184,101.775 69.5,105.5C 69.9731,106.906 70.9731,107.573 72.5,107.5C 70.8805,109.238 68.8805,109.738 66.5,109C 59.4367,104.807 52.4367,100.641 45.5,96.5C 46.404,95.791 46.7373,94.791 46.5,93.5 Z"/></g>
</svg>
