<?xml version="1.0" encoding="UTF-8"?>
<!DOCTYPE svg PUBLIC "-//W3C//DTD SVG 1.1//EN" "http://www.w3.org/Graphics/SVG/1.1/DTD/svg11.dtd">
<svg xmlns="http://www.w3.org/2000/svg" version="1.1" width="135px" height="135px" style="shape-rendering:geometricPrecision; text-rendering:geometricPrecision; image-rendering:optimizeQuality; fill-rule:evenodd; clip-rule:evenodd" xmlns:xlink="http://www.w3.org/1999/xlink">
<g><path style="opacity:0.942" fill="#0f0f22" d="M 24.5,-0.5 C 52.8333,-0.5 81.1667,-0.5 109.5,-0.5C 115.486,1.91489 120.986,5.24823 126,9.5C 129.661,14.4933 132.494,19.8266 134.5,25.5C 134.5,53.1667 134.5,80.8333 134.5,108.5C 132.494,114.173 129.661,119.507 126,124.5C 120.986,128.752 115.486,132.085 109.5,134.5C 81.1667,134.5 52.8333,134.5 24.5,134.5C 18.5144,132.085 13.0144,128.752 8,124.5C 4.33905,119.507 1.50572,114.173 -0.5,108.5C -0.5,80.8333 -0.5,53.1667 -0.5,25.5C 1.50572,19.8266 4.33905,14.4933 8,9.5C 13.0144,5.24823 18.5144,1.91489 24.5,-0.5 Z"/></g>
<g><path style="opacity:1" fill="#fdfdfd" d="M 26.5,3.5 C 53.1687,3.33336 79.8354,3.50003 106.5,4C 118.568,7.06749 126.401,14.5675 130,26.5C 130.667,52.8333 130.667,79.1667 130,105.5C 127.279,118.554 119.446,126.721 106.5,130C 79.8333,130.667 53.1667,130.667 26.5,130C 13.6662,126.168 6.16617,117.668 4,104.5C 3.33333,78.5 3.33333,52.5 4,26.5C 7.68399,14.9837 15.184,7.31707 26.5,3.5 Z"/></g>
<g><path style="opacity:1" fill="#101021" d="M 59.5,26.5 C 83.8288,24.3979 99.9954,34.7313 108,57.5C 109.831,91.0018 93.9976,107.502 60.5,107C 36.8942,99.9666 26.0609,84.1333 28,59.5C 32.2409,42.4277 42.7409,31.4277 59.5,26.5 Z"/></g>
<g><path style="opacity:1" fill="#2ae7aa" d="M 65.5,41.5 C 67.4672,41.2606 69.3005,41.5939 71,42.5C 74.6667,48.8333 78.3333,55.1667 82,61.5C 82.2735,64.694 80.9401,65.694 78,64.5C 75.1672,58.8303 71.8339,53.497 68,48.5C 64.5716,54.3663 60.9049,60.033 57,65.5C 55.7387,65.2409 54.7387,64.5742 54,63.5C 57.5188,56.1338 61.3521,48.8005 65.5,41.5 Z"/></g>
<g><path style="opacity:1" fill="#eeeef0" d="M 84.5,67.5 C 87.2994,70.1599 89.6327,73.3266 91.5,77C 83.8333,82.1667 76.1667,87.3333 68.5,92.5C 60.2723,87.8934 52.6056,82.5601 45.5,76.5C 46.8333,74.1667 48.1667,71.8333 49.5,69.5C 51.8326,67.9979 53.4993,68.4979 54.5,71C 52.9712,72.582 52.4712,74.4153 53,76.5C 58.0816,79.958 63.2483,83.2913 68.5,86.5C 73.8333,82.8333 79.1667,79.1667 84.5,75.5C 83.7515,73.6675 82.7515,72.0009 81.5,70.5C 82.7701,69.7124 83.7701,68.7124 84.5,67.5 Z"/></g>
</svg>
