<?xml version="1.0" encoding="UTF-8"?>
<!DOCTYPE svg PUBLIC "-//W3C//DTD SVG 1.1//EN" "http://www.w3.org/Graphics/SVG/1.1/DTD/svg11.dtd">
<svg xmlns="http://www.w3.org/2000/svg" version="1.1" width="135px" height="135px" style="shape-rendering:geometricPrecision; text-rendering:geometricPrecision; image-rendering:optimizeQuality; fill-rule:evenodd; clip-rule:evenodd" xmlns:xlink="http://www.w3.org/1999/xlink">
<g><path style="opacity:0.942" fill="#4f4394" d="M 24.5,-0.5 C 52.8333,-0.5 81.1667,-0.5 109.5,-0.5C 115.486,1.91489 120.986,5.24823 126,9.5C 129.661,14.4933 132.494,19.8266 134.5,25.5C 134.5,53.1667 134.5,80.8333 134.5,108.5C 132.494,114.173 129.661,119.507 126,124.5C 120.986,128.752 115.486,132.085 109.5,134.5C 81.1667,134.5 52.8333,134.5 24.5,134.5C 18.5144,132.085 13.0144,128.752 8,124.5C 4.33905,119.507 1.50572,114.173 -0.5,108.5C -0.5,80.8333 -0.5,53.1667 -0.5,25.5C 1.50572,19.8266 4.33905,14.4933 8,9.5C 13.0144,5.24823 18.5144,1.91489 24.5,-0.5 Z"/></g>
<g><path style="opacity:1" fill="#fdfdfd" d="M 26.5,3.5 C 52.8354,3.33336 79.1688,3.50003 105.5,4C 118.122,6.62111 126.289,14.1211 130,26.5C 130.667,53.1667 130.667,79.8333 130,106.5C 126.721,119.446 118.554,127.279 105.5,130C 79.1667,130.667 52.8333,130.667 26.5,130C 14.5675,126.401 7.06749,118.568 4,106.5C 3.33333,79.8333 3.33333,53.1667 4,26.5C 7.68399,14.9837 15.184,7.31707 26.5,3.5 Z"/></g>
<g><path style="opacity:1" fill="#4f4394" d="M 95.5,42.5 C 84.8333,43.1667 74.1667,43.8333 63.5,44.5C 48.2913,48.227 42.1246,57.8936 45,73.5C 46.4073,77.3115 48.574,80.6448 51.5,83.5C 45.2779,84.8087 39.1112,84.8087 33,83.5C 24.5518,57.9036 32.7185,40.0702 57.5,30C 72.4883,27.4964 85.1549,31.6631 95.5,42.5 Z"/></g>
<g><path style="opacity:1" fill="#8d85b5" d="M 95.5,42.5 C 96.0431,42.56 96.3764,42.8933 96.5,43.5C 85.5202,44.4988 74.5202,44.8321 63.5,44.5C 74.1667,43.8333 84.8333,43.1667 95.5,42.5 Z"/></g>
<g><path style="opacity:1" fill="#c5c2d4" d="M 100.5,49.5 C 94.31,49.1771 88.31,49.5104 82.5,50.5C 81.9569,50.44 81.6236,50.1067 81.5,49.5C 87.9883,48.1826 94.3217,48.1826 100.5,49.5 Z"/></g>
<g><path style="opacity:1" fill="#4f4395" d="M 82.5,50.5 C 88.31,49.5104 94.31,49.1771 100.5,49.5C 109.455,76.0902 100.788,94.2568 74.5,104C 59.4612,106.213 47.1279,101.546 37.5,90C 48.5,89.6667 59.5,89.3333 70.5,89C 87.5909,83.6508 93.0909,72.4841 87,55.5C 85.483,53.7605 83.983,52.0938 82.5,50.5 Z"/></g>
<g><path style="opacity:1" fill="#f0861b" d="M 61.5,49.5 C 76.1566,48.3306 83.6566,54.9973 84,69.5C 82.0659,78.6463 76.3993,83.6463 67,84.5C 53.7802,82.3878 48.1135,74.7211 50,61.5C 52.4234,56.0607 56.2568,52.0607 61.5,49.5 Z"/></g>
<g><path style="opacity:1" fill="#fdf5ed" d="M 58.5,58.5 C 63.1785,58.3342 67.8452,58.5008 72.5,59C 74.1243,60.1171 75.1243,61.6171 75.5,63.5C 74.3121,65.644 74.3121,67.8107 75.5,70C 75.5607,71.7106 74.8941,73.044 73.5,74C 68.6278,75.3885 63.6278,75.8885 58.5,75.5C 58.5,69.8333 58.5,64.1667 58.5,58.5 Z"/></g>
<g><path style="opacity:1" fill="#e88524" d="M 62.5,62.5 C 65.2469,62.1866 67.9135,62.52 70.5,63.5C 69.1667,63.8333 67.8333,64.1667 66.5,64.5C 64.6672,64.4146 63.3339,63.7479 62.5,62.5 Z"/></g>
<g><path style="opacity:1" fill="#f2a262" d="M 62.5,69.5 C 65.2469,69.1866 67.9135,69.52 70.5,70.5C 69.1667,70.8333 67.8333,71.1667 66.5,71.5C 64.6672,71.4146 63.3339,70.7479 62.5,69.5 Z"/></g>
</svg>
