<?xml version="1.0" encoding="UTF-8"?>
<!DOCTYPE svg PUBLIC "-//W3C//DTD SVG 1.1//EN" "http://www.w3.org/Graphics/SVG/1.1/DTD/svg11.dtd">
<svg xmlns="http://www.w3.org/2000/svg" version="1.1" width="135px" height="135px" style="shape-rendering:geometricPrecision; text-rendering:geometricPrecision; image-rendering:optimizeQuality; fill-rule:evenodd; clip-rule:evenodd" xmlns:xlink="http://www.w3.org/1999/xlink">
<g><path style="opacity:0.943" fill="#6099c9" d="M 24.5,-0.5 C 52.8333,-0.5 81.1667,-0.5 109.5,-0.5C 115.486,1.91489 120.986,5.24823 126,9.5C 129.661,14.4933 132.494,19.8266 134.5,25.5C 134.5,53.1667 134.5,80.8333 134.5,108.5C 132.494,114.173 129.661,119.507 126,124.5C 120.986,128.752 115.486,132.085 109.5,134.5C 81.1667,134.5 52.8333,134.5 24.5,134.5C 18.5144,132.085 13.0144,128.752 8,124.5C 4.33905,119.507 1.50572,114.173 -0.5,108.5C -0.5,80.8333 -0.5,53.1667 -0.5,25.5C 1.50572,19.8266 4.33905,14.4933 8,9.5C 13.0144,5.24823 18.5144,1.91489 24.5,-0.5 Z"/></g>
<g><path style="opacity:1" fill="#fdfefe" d="M 26.5,3.5 C 52.8354,3.33336 79.1688,3.50003 105.5,4C 118.122,6.62111 126.289,14.1211 130,26.5C 130.667,53.1667 130.667,79.8333 130,106.5C 126.721,119.446 118.554,127.279 105.5,130C 79.1667,130.667 52.8333,130.667 26.5,130C 14.5675,126.401 7.06749,118.568 4,106.5C 3.33333,79.8333 3.33333,53.1667 4,26.5C 7.68399,14.9837 15.184,7.31707 26.5,3.5 Z"/></g>
<g><path style="opacity:1" fill="#6596c9" d="M 76.5,43.5 C 74.1236,44.2061 72.7903,45.8727 72.5,48.5C 70.8785,46.3753 69.0451,44.3753 67,42.5C 64.93,44.9628 63.0967,47.6295 61.5,50.5C 62.1799,51.8599 62.8466,53.1932 63.5,54.5C 61.9605,56.8383 61.2938,59.5049 61.5,62.5C 58.3486,58.5039 55.3486,54.3373 52.5,50C 57.1182,43.269 61.6182,36.4357 66,29.5C 66.6667,28.1667 67.3333,28.1667 68,29.5C 71.4832,33.8067 74.3166,38.4734 76.5,43.5 Z"/></g>
<g><path style="opacity:1" fill="#6b7ebd" d="M 76.5,43.5 C 78.4793,46.0986 80.4793,48.7653 82.5,51.5C 79.8938,52.6517 77.2272,52.8184 74.5,52C 73.695,50.8873 73.0283,49.7206 72.5,48.5C 72.7903,45.8727 74.1236,44.2061 76.5,43.5 Z"/></g>
<g><path style="opacity:1" fill="#c2bfce" d="M 99.5,55.5 C 93.8333,55.5 88.1667,55.5 82.5,55.5C 77.6367,55.1805 72.97,55.5139 68.5,56.5C 67.9569,56.44 67.6236,56.1067 67.5,55.5C 78.3261,54.1765 88.9927,54.1765 99.5,55.5 Z"/></g>
<g><path style="opacity:1" fill="#7375b6" d="M 68.5,56.5 C 72.97,55.5139 77.6367,55.1805 82.5,55.5C 80.7745,57.2279 79.4411,59.2279 78.5,61.5C 73.8035,62.2287 70.4702,60.5621 68.5,56.5 Z"/></g>
<g><path style="opacity:1" fill="#8f5da3" d="M 82.5,55.5 C 88.1667,55.5 93.8333,55.5 99.5,55.5C 94.5931,63.6418 89.4264,71.6418 84,79.5C 82.5962,77.6061 81.4295,75.6061 80.5,73.5C 82.5979,69.5587 84.9313,65.7253 87.5,62C 84.5184,61.502 81.5184,61.3354 78.5,61.5C 79.4411,59.2279 80.7745,57.2279 82.5,55.5 Z"/></g>
<g><path style="opacity:1" fill="#629ccb" d="M 50.5,67.5 C 49.4676,69.3784 48.1343,71.0451 46.5,72.5C 42.2366,67.4957 38.5699,61.9957 35.5,56C 40.7988,54.8549 46.1321,54.5216 51.5,55C 52.627,56.7533 53.627,58.5866 54.5,60.5C 52.5,61.1667 50.5,61.8333 48.5,62.5C 49.4565,64.0754 50.1231,65.742 50.5,67.5 Z"/></g>
<g><path style="opacity:1" fill="#7281be" d="M 63.5,54.5 C 66.1667,58.5 68.8333,62.5 71.5,66.5C 69.461,67.911 68.461,69.911 68.5,72.5C 65.6869,69.5541 63.3535,66.2208 61.5,62.5C 61.2938,59.5049 61.9605,56.8383 63.5,54.5 Z"/></g>
<g><path style="opacity:1" fill="#6689c3" d="M 50.5,67.5 C 53.6496,71.1189 56.3163,75.1189 58.5,79.5C 57.2264,80.1894 57.2264,81.0228 58.5,82C 57.8366,83.5185 56.8366,84.6851 55.5,85.5C 52.1427,81.4654 49.1427,77.1321 46.5,72.5C 48.1343,71.0451 49.4676,69.3784 50.5,67.5 Z"/></g>
<g><path style="opacity:1" fill="#905fa4" d="M 71.5,66.5 C 74.9543,71.9053 78.2876,77.4053 81.5,83C 77.0454,90.2912 72.3788,97.4579 67.5,104.5C 66.2371,102.971 65.2371,101.305 64.5,99.5C 64.2776,95.9441 65.6109,93.2774 68.5,91.5C 69.7093,88.2794 71.376,85.2794 73.5,82.5C 72.6931,78.7053 71.0264,75.3719 68.5,72.5C 68.461,69.911 69.461,67.911 71.5,66.5 Z"/></g>
<g><path style="opacity:1" fill="#836daf" d="M 58.5,79.5 C 60.8373,82.6809 63.004,86.0142 65,89.5C 65.8159,90.8228 66.9826,91.4894 68.5,91.5C 65.6109,93.2774 64.2776,95.9441 64.5,99.5C 61.0043,95.1813 58.0043,90.5146 55.5,85.5C 56.8366,84.6851 57.8366,83.5185 58.5,82C 57.2264,81.0228 57.2264,80.1894 58.5,79.5 Z"/></g>
</svg>
