<?xml version="1.0" encoding="UTF-8"?>
<!DOCTYPE svg PUBLIC "-//W3C//DTD SVG 1.1//EN" "http://www.w3.org/Graphics/SVG/1.1/DTD/svg11.dtd">
<svg xmlns="http://www.w3.org/2000/svg" version="1.1" width="135px" height="135px" style="shape-rendering:geometricPrecision; text-rendering:geometricPrecision; image-rendering:optimizeQuality; fill-rule:evenodd; clip-rule:evenodd" xmlns:xlink="http://www.w3.org/1999/xlink">
<g><path style="opacity:0.942" fill="#77baa1" d="M 24.5,-0.5 C 52.8333,-0.5 81.1667,-0.5 109.5,-0.5C 115.486,1.91489 120.986,5.24823 126,9.5C 129.661,14.4933 132.494,19.8266 134.5,25.5C 134.5,53.1667 134.5,80.8333 134.5,108.5C 132.494,114.173 129.661,119.507 126,124.5C 120.986,128.752 115.486,132.085 109.5,134.5C 81.1667,134.5 52.8333,134.5 24.5,134.5C 18.5144,132.085 13.0144,128.752 8,124.5C 4.33905,119.507 1.50572,114.173 -0.5,108.5C -0.5,80.8333 -0.5,53.1667 -0.5,25.5C 1.50572,19.8266 4.33905,14.4933 8,9.5C 13.0144,5.24823 18.5144,1.91489 24.5,-0.5 Z"/></g>
<g><path style="opacity:1" fill="#fefefe" d="M 26.5,3.5 C 52.5021,3.33336 78.5021,3.50003 104.5,4C 117.668,6.16617 126.168,13.6662 130,26.5C 130.667,52.5 130.667,78.5 130,104.5C 127.5,119 119,127.5 104.5,130C 78.5,130.667 52.5,130.667 26.5,130C 13.6662,126.168 6.16617,117.668 4,104.5C 3.33333,78.5 3.33333,52.5 4,26.5C 7.68399,14.9837 15.184,7.31707 26.5,3.5 Z"/></g>
<g><path style="opacity:1" fill="#eeba4c" d="M 70.5,32.5 C 66.7176,34.7337 62.7176,35.067 58.5,33.5C 58.6107,32.8826 58.944,32.3826 59.5,32C 63.3575,31.1901 67.0242,31.3567 70.5,32.5 Z"/></g>
<g><path style="opacity:1" fill="#e18944" d="M 70.5,32.5 C 71.7671,35.0613 71.7671,37.728 70.5,40.5C 68.0135,43.464 65.0135,44.1307 61.5,42.5C 58.9238,40.1125 57.9238,37.1125 58.5,33.5C 62.7176,35.067 66.7176,34.7337 70.5,32.5 Z"/></g>
<g><path style="opacity:1" fill="#78bba2" d="M 59.5,43.5 C 59.0807,47.5803 60.914,49.5803 65,49.5C 70.1388,49.8583 72.3055,47.525 71.5,42.5C 73.1942,41.314 74.8608,41.4807 76.5,43C 91.3043,53.0996 97.471,66.9329 95,84.5C 91.2103,93.1526 84.7103,98.6526 75.5,101C 46.3617,104.534 34.5284,92.0339 40,63.5C 43.4821,54.533 49.3154,47.533 57.5,42.5C 58.1835,42.8627 58.8501,43.1961 59.5,43.5 Z"/></g>
<g><path style="opacity:1" fill="#88b774" d="M 70.5,40.5 C 70.3284,41.4916 70.6618,42.1583 71.5,42.5C 72.3055,47.525 70.1388,49.8583 65,49.5C 60.914,49.5803 59.0807,47.5803 59.5,43.5C 59.8417,42.6618 60.5084,42.3284 61.5,42.5C 65.0135,44.1307 68.0135,43.464 70.5,40.5 Z"/></g>
<g><path style="opacity:1" fill="#f9fbfa" d="M 54.5,60.5 C 53.1394,62.5273 51.4727,64.194 49.5,65.5C 47.7839,65.3713 46.1172,65.038 44.5,64.5C 45.1041,59.1257 47.4374,54.6257 51.5,51C 56.1004,49.4167 57.9337,50.9167 57,55.5C 56.1534,57.1932 55.3201,58.8599 54.5,60.5 Z"/></g>
<g><path style="opacity:1" fill="#f8d0d9" d="M 54.5,60.5 C 64.1724,60.3335 73.8391,60.5002 83.5,61C 86.0512,61.0023 88.0512,61.8356 89.5,63.5C 76.2883,66.5909 62.955,67.2576 49.5,65.5C 51.4727,64.194 53.1394,62.5273 54.5,60.5 Z"/></g>
<g><path style="opacity:1" fill="#f2acbb" d="M 89.5,63.5 C 90.3382,63.8417 90.6716,64.5084 90.5,65.5C 89.7649,69.293 87.7649,72.293 84.5,74.5C 80.6036,72.635 76.7703,70.635 73,68.5C 68.9887,72.0095 64.8221,75.3428 60.5,78.5C 56.7941,75.6237 52.9608,72.957 49,70.5C 46.5007,71.0831 44.5007,72.4164 43,74.5C 42.6012,74.2716 42.4346,73.9382 42.5,73.5C 42.4054,70.3033 43.0721,67.3033 44.5,64.5C 46.1172,65.038 47.7839,65.3713 49.5,65.5C 62.955,67.2576 76.2883,66.5909 89.5,63.5 Z"/></g>
<g><path style="opacity:1" fill="#f192a5" d="M 91.5,83.5 C 90.8333,84.8333 90.1667,86.1667 89.5,87.5C 83.9732,87.0238 81.6398,89.3571 82.5,94.5C 80.2543,95.4552 77.921,96.1218 75.5,96.5C 70.4373,97.9259 65.4373,97.7593 60.5,96C 56.8955,92.2992 56.5621,88.2992 59.5,84C 56.8333,81.3333 54.1667,78.6667 51.5,76C 49.5355,75.376 47.8689,75.876 46.5,77.5C 45.8933,77.3764 45.56,77.0431 45.5,76.5C 46.4756,75.1851 47.4756,73.8518 48.5,72.5C 52.8221,75.6572 56.9887,78.9905 61,82.5C 64.4336,79.0664 67.9336,75.5664 71.5,72C 72.8333,71.3333 74.1667,71.3333 75.5,72C 78.7297,74.0726 82.063,75.906 85.5,77.5C 88.0478,75.4308 89.8811,72.7641 91,69.5C 91.4992,74.1548 91.6658,78.8215 91.5,83.5 Z"/></g>
<g><path style="opacity:1" fill="#a0d6c1" d="M 90.5,65.5 C 91.3636,66.6883 92.3636,67.8549 93.5,69C 92.8563,73.9336 92.1897,78.767 91.5,83.5C 91.6658,78.8215 91.4992,74.1548 91,69.5C 89.8811,72.7641 88.0478,75.4308 85.5,77.5C 82.063,75.906 78.7297,74.0726 75.5,72C 74.1667,71.3333 72.8333,71.3333 71.5,72C 67.9336,75.5664 64.4336,79.0664 61,82.5C 56.9887,78.9905 52.8221,75.6572 48.5,72.5C 47.4756,73.8518 46.4756,75.1851 45.5,76.5C 43.2729,77.4006 42.2729,79.0672 42.5,81.5C 40.8684,81.1753 39.8684,80.1753 39.5,78.5C 40.3957,76.664 41.3957,74.9974 42.5,73.5C 42.4346,73.9382 42.6012,74.2716 43,74.5C 44.5007,72.4164 46.5007,71.0831 49,70.5C 52.9608,72.957 56.7941,75.6237 60.5,78.5C 64.8221,75.3428 68.9887,72.0095 73,68.5C 76.7703,70.635 80.6036,72.635 84.5,74.5C 87.7649,72.293 89.7649,69.293 90.5,65.5 Z"/></g>
<g><path style="opacity:1" fill="#f3acbb" d="M 75.5,96.5 C 74.7375,97.2679 73.7375,97.7679 72.5,98C 62.6957,100.379 54.1957,98.2125 47,91.5C 44.676,88.5201 43.176,85.1867 42.5,81.5C 42.2729,79.0672 43.2729,77.4006 45.5,76.5C 45.56,77.0431 45.8933,77.3764 46.5,77.5C 47.8689,75.876 49.5355,75.376 51.5,76C 54.1667,78.6667 56.8333,81.3333 59.5,84C 56.5621,88.2992 56.8955,92.2992 60.5,96C 65.4373,97.7593 70.4373,97.9259 75.5,96.5 Z"/></g>
<g><path style="opacity:1" fill="#f5f6f5" d="M 89.5,87.5 C 89.5449,92.1219 87.2116,94.4552 82.5,94.5C 81.6398,89.3571 83.9732,87.0238 89.5,87.5 Z"/></g>
</svg>
