<?xml version="1.0" encoding="UTF-8"?>
<!DOCTYPE svg PUBLIC "-//W3C//DTD SVG 1.1//EN" "http://www.w3.org/Graphics/SVG/1.1/DTD/svg11.dtd">
<svg xmlns="http://www.w3.org/2000/svg" version="1.1" width="135px" height="135px" style="shape-rendering:geometricPrecision; text-rendering:geometricPrecision; image-rendering:optimizeQuality; fill-rule:evenodd; clip-rule:evenodd" xmlns:xlink="http://www.w3.org/1999/xlink">
<g><path style="opacity:0.942" fill="#0c1d27" d="M 24.5,-0.5 C 52.8333,-0.5 81.1667,-0.5 109.5,-0.5C 115.486,1.91489 120.986,5.24823 126,9.5C 129.661,14.4933 132.494,19.8266 134.5,25.5C 134.5,53.1667 134.5,80.8333 134.5,108.5C 132.494,114.173 129.661,119.507 126,124.5C 120.986,128.752 115.486,132.085 109.5,134.5C 81.1667,134.5 52.8333,134.5 24.5,134.5C 18.5144,132.085 13.0144,128.752 8,124.5C 4.33905,119.507 1.50572,114.173 -0.5,108.5C -0.5,80.8333 -0.5,53.1667 -0.5,25.5C 1.50572,19.8266 4.33905,14.4933 8,9.5C 13.0144,5.24823 18.5144,1.91489 24.5,-0.5 Z"/></g>
<g><path style="opacity:1" fill="#fcfcfc" d="M 26.5,3.5 C 53.1687,3.33336 79.8354,3.50003 106.5,4C 118.568,7.06749 126.401,14.5675 130,26.5C 130.667,53.1667 130.667,79.8333 130,106.5C 126.833,119 119,126.833 106.5,130C 79.8333,130.667 53.1667,130.667 26.5,130C 14.5675,126.401 7.06749,118.568 4,106.5C 3.33333,79.8333 3.33333,53.1667 4,26.5C 7.68399,14.9837 15.184,7.31707 26.5,3.5 Z"/></g>
<g><path style="opacity:1" fill="#10202a" d="M 58.5,24.5 C 84.1287,22.8754 100.629,34.2087 108,58.5C 108.833,92.3333 92.3333,108.833 58.5,108C 34.0592,100.649 22.8925,84.1488 25,58.5C 29.682,40.6521 40.8487,29.3187 58.5,24.5 Z"/></g>
<g><path style="opacity:1" fill="#0d1a24" d="M 90.5,51.5 C 91.7298,53.2972 92.3964,55.2972 92.5,57.5C 91.411,67.0882 86.0777,71.2548 76.5,70C 66.8003,63.4447 66.1337,56.1114 74.5,48C 80.6832,45.429 86.0165,46.5957 90.5,51.5 Z"/></g>
<g><path style="opacity:1" fill="#6e787e" d="M 94.5,56.5 C 95.9063,56.9731 96.573,57.9731 96.5,59.5C 95.8333,60.5 95.1667,61.5 94.5,62.5C 94.5,60.5 94.5,58.5 94.5,56.5 Z"/></g>
<g><path style="opacity:1" fill="#eeefef" d="M 96.5,82.5 C 95.7784,82.0825 95.2784,81.4158 95,80.5C 94.586,80.9574 94.086,81.2907 93.5,81.5C 92.8243,80.3984 92.1577,79.3984 91.5,78.5C 90.2377,75.0361 87.9044,74.0361 84.5,75.5C 84.7822,74.2223 85.4489,73.2223 86.5,72.5C 87.5,72.5 88.5,72.5 89.5,72.5C 90.3478,73.625 91.3478,73.625 92.5,72.5C 94.0269,72.573 95.0269,71.9063 95.5,70.5C 97.6335,67.6543 97.9668,64.6543 96.5,61.5C 96.5,60.8333 96.5,60.1667 96.5,59.5C 96.573,57.9731 95.9063,56.9731 94.5,56.5C 93.8333,56.8333 93.1667,57.1667 92.5,57.5C 92.3964,55.2972 91.7298,53.2972 90.5,51.5C 90.33,50.1779 90.6634,49.0113 91.5,48C 90.9558,47.2828 90.2891,46.7828 89.5,46.5C 86.8103,43.8154 83.8103,41.4821 80.5,39.5C 79.6522,38.375 78.6522,38.375 77.5,39.5C 77.0679,38.2905 76.4013,37.2905 75.5,36.5C 74.1667,36.5 72.8333,36.5 71.5,36.5C 70.7494,35.4265 69.7494,35.2599 68.5,36C 68.8333,36.3333 69.1667,36.6667 69.5,37C 67.6183,37.1981 65.9516,37.6981 64.5,38.5C 63.1667,39.1667 62.1667,40.1667 61.5,41.5C 60.2334,42.087 59.2334,42.087 58.5,41.5C 59.6119,40.7348 60.2786,39.7348 60.5,38.5C 61.4293,37.6851 62.4293,36.8518 63.5,36C 61.2028,35.9822 58.8695,36.1489 56.5,36.5C 54.9418,37.371 53.2751,38.371 51.5,39.5C 48.5265,41.1468 45.8599,43.1468 43.5,45.5C 41.6827,46.2192 41.0161,47.2192 41.5,48.5C 40.5661,46.9052 40.5661,45.2385 41.5,43.5C 55.1599,30.5747 70.1599,29.0747 86.5,39C 100.487,51.1124 103.82,65.6124 96.5,82.5 Z"/></g>
<g><path style="opacity:1" fill="#1b1e21" d="M 80.5,39.5 C 83.8103,41.4821 86.8103,43.8154 89.5,46.5C 86.4874,44.5001 83.154,43.5001 79.5,43.5C 79.2322,41.901 79.5655,40.5676 80.5,39.5 Z"/></g>
<g><path style="opacity:1" fill="#0e1215" d="M 51.5,39.5 C 51.5872,40.4985 51.9205,41.6651 52.5,43C 49.348,43.3949 46.348,44.2282 43.5,45.5C 45.8599,43.1468 48.5265,41.1468 51.5,39.5 Z"/></g>
<g><path style="opacity:1" fill="#2c3135" d="M 60.5,38.5 C 58.5283,39.5167 57.195,38.85 56.5,36.5C 58.8695,36.1489 61.2028,35.9822 63.5,36C 62.4293,36.8518 61.4293,37.6851 60.5,38.5 Z"/></g>
<g><path style="opacity:1" fill="#060a10" d="M 96.5,59.5 C 96.5,60.1667 96.5,60.8333 96.5,61.5C 96.6633,63.8568 96.4966,66.1902 96,68.5C 94.9326,67.8095 93.7659,67.3095 92.5,67C 93.5822,65.6703 94.2488,64.1703 94.5,62.5C 95.1667,61.5 95.8333,60.5 96.5,59.5 Z"/></g>
<g><path style="opacity:1" fill="#15191c" d="M 95.5,70.5 C 95.0269,71.9063 94.0269,72.573 92.5,72.5C 91.6502,69.7386 92.6502,69.0719 95.5,70.5 Z"/></g>
<g><path style="opacity:1" fill="#e1e3e4" d="M 71.5,36.5 C 71.0618,36.4346 70.7284,36.6012 70.5,37C 72.4989,40.1682 74.1655,40.0015 75.5,36.5C 76.4013,37.2905 77.0679,38.2905 77.5,39.5C 78.6522,38.375 79.6522,38.375 80.5,39.5C 79.5655,40.5676 79.2322,41.901 79.5,43.5C 83.154,43.5001 86.4874,44.5001 89.5,46.5C 90.2891,46.7828 90.9558,47.2828 91.5,48C 90.6634,49.0113 90.33,50.1779 90.5,51.5C 86.0165,46.5957 80.6832,45.429 74.5,48C 66.1337,56.1114 66.8003,63.4447 76.5,70C 86.0777,71.2548 91.411,67.0882 92.5,57.5C 93.1667,57.1667 93.8333,56.8333 94.5,56.5C 94.5,58.5 94.5,60.5 94.5,62.5C 94.2488,64.1703 93.5822,65.6703 92.5,67C 93.7659,67.3095 94.9326,67.8095 96,68.5C 96.4966,66.1902 96.6633,63.8568 96.5,61.5C 97.9668,64.6543 97.6335,67.6543 95.5,70.5C 92.6502,69.0719 91.6502,69.7386 92.5,72.5C 91.3478,73.625 90.3478,73.625 89.5,72.5C 90.5735,71.7494 90.7401,70.7494 90,69.5C 88.4815,70.1634 87.3149,71.1634 86.5,72.5C 85.4489,73.2223 84.7822,74.2223 84.5,75.5C 81.0783,81.2558 82.745,83.7558 89.5,83C 91.0368,81.8904 91.7035,80.3904 91.5,78.5C 92.1577,79.3984 92.8243,80.3984 93.5,81.5C 94.086,81.2907 94.586,80.9574 95,80.5C 95.2784,81.4158 95.7784,82.0825 96.5,82.5C 87.8687,96.6438 75.202,102.477 58.5,100C 41.5813,94.2434 32.9147,82.4101 32.5,64.5C 32.6081,56.1509 35.6081,49.1509 41.5,43.5C 40.5661,45.2385 40.5661,46.9052 41.5,48.5C 41.0161,47.2192 41.6827,46.2192 43.5,45.5C 46.348,44.2282 49.348,43.3949 52.5,43C 51.9205,41.6651 51.5872,40.4985 51.5,39.5C 53.2751,38.371 54.9418,37.371 56.5,36.5C 57.195,38.85 58.5283,39.5167 60.5,38.5C 60.2786,39.7348 59.6119,40.7348 58.5,41.5C 59.2334,42.087 60.2334,42.087 61.5,41.5C 62.6526,47.8282 65.486,48.8282 70,44.5C 70.8334,40.1638 69.0001,38.1638 64.5,38.5C 65.9516,37.6981 67.6183,37.1981 69.5,37C 69.1667,36.6667 68.8333,36.3333 68.5,36C 69.7494,35.2599 70.7494,35.4265 71.5,36.5 Z"/></g>
<g><path style="opacity:1" fill="#868d91" d="M 54.5,74.5 C 52.8333,73.1667 51.1667,73.1667 49.5,74.5C 48.9569,74.44 48.6236,74.1067 48.5,73.5C 51.1062,72.3483 53.7728,72.1816 56.5,73C 55.9558,73.7172 55.2891,74.2172 54.5,74.5 Z"/></g>
<g><path style="opacity:1" fill="#343a3f" d="M 89.5,72.5 C 88.5,72.5 87.5,72.5 86.5,72.5C 87.3149,71.1634 88.4815,70.1634 90,69.5C 90.7401,70.7494 90.5735,71.7494 89.5,72.5 Z"/></g>
<g><path style="opacity:1" fill="#323a40" d="M 41.5,69.5 C 46.4635,71.3938 46.4635,72.3938 41.5,72.5C 41.5,71.5 41.5,70.5 41.5,69.5 Z"/></g>
<g><path style="opacity:1" fill="#13171b" d="M 36.5,69.5 C 37.5,69.5 38.5,69.5 39.5,69.5C 38.7542,73.31 37.7542,73.31 36.5,69.5 Z"/></g>
<g><path style="opacity:1" fill="#181d22" d="M 65.5,61.5 C 66.5103,64.3301 68.1769,66.8301 70.5,69C 67.5,69.6667 64.5,69.6667 61.5,69C 63.5402,66.8149 64.8736,64.3149 65.5,61.5 Z"/></g>
<g><path style="opacity:1" fill="#23282c" d="M 35.5,58.5 C 36.3779,61.4284 37.7112,64.2617 39.5,67C 37.6711,67.2735 36.1711,68.1068 35,69.5C 34.4213,65.7973 34.588,62.1306 35.5,58.5 Z"/></g>
<g><path style="opacity:1" fill="#1d2126" d="M 63.5,49.5 C 65.288,49.2148 66.9547,49.5481 68.5,50.5C 67.1936,51.9122 66.3603,53.5789 66,55.5C 65.3448,53.3716 64.5114,51.3716 63.5,49.5 Z"/></g>
<g><path style="opacity:1" fill="#0d1b24" d="M 47.5,46.5 C 60.9634,46.8068 65.4634,53.1401 61,65.5C 53.9826,72.3733 47.3159,72.0399 41,64.5C 37.8203,56.5325 39.987,50.5325 47.5,46.5 Z"/></g>
<g><path style="opacity:1" fill="#3b4348" d="M 56.5,43.5 C 58.6859,43.5106 59.5192,44.5106 59,46.5C 57.583,45.9221 56.7496,44.9221 56.5,43.5 Z"/></g>
<g><path style="opacity:1" fill="#363f45" d="M 72.5,43.5 C 76.2998,43.8194 76.4665,44.8194 73,46.5C 72.5172,45.552 72.3505,44.552 72.5,43.5 Z"/></g>
<g><path style="opacity:1" fill="#131a1f" d="M 64.5,38.5 C 69.0001,38.1638 70.8334,40.1638 70,44.5C 65.486,48.8282 62.6526,47.8282 61.5,41.5C 62.1667,40.1667 63.1667,39.1667 64.5,38.5 Z"/></g>
<g><path style="opacity:1" fill="#070c11" d="M 77.5,39.5 C 77.506,42.5476 76.506,43.0476 74.5,41C 75.2438,39.9614 76.2438,39.4614 77.5,39.5 Z"/></g>
<g><path style="opacity:1" fill="#111518" d="M 54.5,39.5 C 57.6741,39.9522 58.0075,40.9522 55.5,42.5C 53.4807,41.8671 53.1474,40.8671 54.5,39.5 Z"/></g>
<g><path style="opacity:1" fill="#1d1f22" d="M 71.5,36.5 C 72.8333,36.5 74.1667,36.5 75.5,36.5C 74.1655,40.0015 72.4989,40.1682 70.5,37C 70.7284,36.6012 71.0618,36.4346 71.5,36.5 Z"/></g>
<g><path style="opacity:1" fill="#0d1b24" d="M 62.5,71.5 C 74.3589,71.231 79.1923,76.8976 77,88.5C 73.5514,94.5438 68.3848,96.7105 61.5,95C 54.9298,91.3449 52.7632,85.8449 55,78.5C 57.0147,75.5883 59.5147,73.255 62.5,71.5 Z"/></g>
<g><path style="opacity:1" fill="#1e2326" d="M 35.5,73.5 C 38.5688,73.963 39.0688,75.2963 37,77.5C 36.2086,76.255 35.7086,74.9217 35.5,73.5 Z"/></g>
<g><path style="opacity:1" fill="#0f1318" d="M 49.5,74.5 C 51.1667,73.1667 52.8333,73.1667 54.5,74.5C 53.8783,75.6266 53.045,76.6266 52,77.5C 51.6232,76.0577 50.7899,75.0577 49.5,74.5 Z"/></g>
<g><path style="opacity:1" fill="#161b21" d="M 75.5,73.5 C 75.56,72.9569 75.8933,72.6236 76.5,72.5C 78.444,73.1892 80.444,73.6892 82.5,74C 81.1068,75.1711 80.2735,76.6711 80,78.5C 78.9509,76.3825 77.4509,74.7158 75.5,73.5 Z"/></g>
<g><path style="opacity:1" fill="#22262a" d="M 94.5,73.5 C 95.3764,73.3691 96.0431,73.7025 96.5,74.5C 95.7246,78.251 94.3912,78.4177 92.5,75C 93.4158,74.7216 94.0825,74.2216 94.5,73.5 Z"/></g>
<g><path style="opacity:1" fill="#131c24" d="M 42.5,74.5 C 48.7502,74.8821 50.4168,77.7154 47.5,83C 40.4159,83.475 38.7492,80.6417 42.5,74.5 Z"/></g>
<g><path style="opacity:1" fill="#111c24" d="M 91.5,78.5 C 91.7035,80.3904 91.0368,81.8904 89.5,83C 82.745,83.7558 81.0783,81.2558 84.5,75.5C 87.9044,74.0361 90.2377,75.0361 91.5,78.5 Z"/></g>
<g><path style="opacity:1" fill="#29343a" d="M 50.5,82.5 C 51.5983,83.6009 51.765,84.9343 51,86.5C 49.2317,85.3181 49.0651,83.9848 50.5,82.5 Z"/></g>
<g><path style="opacity:1" fill="#0f151b" d="M 80.5,83.5 C 82.7602,84.2376 82.9269,85.2376 81,86.5C 80.5172,85.552 80.3505,84.552 80.5,83.5 Z"/></g>
<g><path style="opacity:1" fill="#181c20" d="M 42.5,87.5 C 43.209,86.596 44.209,86.2627 45.5,86.5C 45.3059,90.0048 44.3059,90.3382 42.5,87.5 Z"/></g>
<g><path style="opacity:1" fill="#070b10" d="M 86.5,86.5 C 90.1331,86.443 90.2998,87.443 87,89.5C 86.5172,88.552 86.3505,87.552 86.5,86.5 Z"/></g>
<g><path style="opacity:1" fill="#040a0f" d="M 47.5,87.5 C 50.6741,87.9522 51.0075,88.9522 48.5,90.5C 47.6143,89.675 47.281,88.675 47.5,87.5 Z"/></g>
<g><path style="opacity:1" fill="#1c1f23" d="M 81.5,87.5 C 82.5,87.5 83.5,87.5 84.5,87.5C 84.5,88.5 84.5,89.5 84.5,90.5C 83.5,90.5 82.5,90.5 81.5,90.5C 81.5,89.5 81.5,88.5 81.5,87.5 Z"/></g>
<g><path style="opacity:1" fill="#0f1419" d="M 51.5,90.5 C 59.8169,97.1853 59.1503,98.0186 49.5,93C 50.3805,92.2917 51.0472,91.4584 51.5,90.5 Z"/></g>
<g><path style="opacity:1" fill="#0a0f15" d="M 78.5,90.5 C 80.1958,90.6854 81.5291,91.5187 82.5,93C 79.9417,94.6263 77.275,95.6263 74.5,96C 76.4641,94.549 77.7974,92.7157 78.5,90.5 Z"/></g>
</svg>
