<?xml version="1.0" encoding="UTF-8"?>
<!DOCTYPE svg PUBLIC "-//W3C//DTD SVG 1.1//EN" "http://www.w3.org/Graphics/SVG/1.1/DTD/svg11.dtd">
<svg xmlns="http://www.w3.org/2000/svg" version="1.1" width="135px" height="135px" style="shape-rendering:geometricPrecision; text-rendering:geometricPrecision; image-rendering:optimizeQuality; fill-rule:evenodd; clip-rule:evenodd" xmlns:xlink="http://www.w3.org/1999/xlink">
<g><path style="opacity:0.942" fill="#fb2916" d="M 24.5,-0.5 C 52.8333,-0.5 81.1667,-0.5 109.5,-0.5C 115.486,1.91489 120.986,5.24823 126,9.5C 129.661,14.4933 132.494,19.8266 134.5,25.5C 134.5,53.1667 134.5,80.8333 134.5,108.5C 132.494,114.173 129.661,119.507 126,124.5C 120.986,128.752 115.486,132.085 109.5,134.5C 81.1667,134.5 52.8333,134.5 24.5,134.5C 18.5144,132.085 13.0144,128.752 8,124.5C 4.33905,119.507 1.50572,114.173 -0.5,108.5C -0.5,80.8333 -0.5,53.1667 -0.5,25.5C 1.50572,19.8266 4.33905,14.4933 8,9.5C 13.0144,5.24823 18.5144,1.91489 24.5,-0.5 Z"/></g>
<g><path style="opacity:1" fill="#fffdfd" d="M 26.5,3.5 C 53.1687,3.33336 79.8354,3.50003 106.5,4C 118.568,7.06749 126.401,14.5675 130,26.5C 130.667,52.8333 130.667,79.1667 130,105.5C 127.046,119.454 118.546,127.621 104.5,130C 78.5,130.667 52.5,130.667 26.5,130C 13.6662,126.168 6.16617,117.668 4,104.5C 3.33333,78.5 3.33333,52.5 4,26.5C 7.68399,14.9837 15.184,7.31707 26.5,3.5 Z"/></g>
<g><path style="opacity:1" fill="#f72715" d="M 57.5,26.5 C 89.9924,24.1674 106.826,39.1674 108,71.5C 102.019,98.4495 85.1855,110.283 57.5,107C 34.2991,99.1154 24.1324,82.9487 27,58.5C 31.5789,42.4228 41.7456,31.7562 57.5,26.5 Z"/></g>
<g><path style="opacity:1" fill="#070100" d="M 61.5,31.5 C 73.095,29.539 80.2616,34.2057 83,45.5C 83.6667,57.1667 83.6667,68.8333 83,80.5C 80,87.1667 77,93.8333 74,100.5C 73.9464,88.9231 73.1131,77.4231 71.5,66C 74.4799,63.4066 77.6466,60.9066 81,58.5C 81.4828,57.552 81.6495,56.552 81.5,55.5C 77.1278,55.9363 73.2944,57.603 70,60.5C 69.447,63.3592 69.6137,66.1925 70.5,69C 70.2504,72.8689 68.4171,74.0356 65,72.5C 64.6667,68.1667 64.3333,63.8333 64,59.5C 60.906,58.0376 57.7394,56.7043 54.5,55.5C 53.1515,57.6114 53.4848,59.4447 55.5,61C 58.4171,62.2328 61.0837,63.7328 63.5,65.5C 62.846,67.1151 62.346,68.7818 62,70.5C 61.6667,80.8333 61.3333,91.1667 61,101.5C 57.6667,94.1667 54.3333,86.8333 51,79.5C 50.8333,73.8333 50.6667,68.1667 50.5,62.5C 50.393,55.7568 50.893,49.0901 52,42.5C 53.6266,37.3818 56.7933,33.7151 61.5,31.5 Z"/></g>
</svg>
