<?xml version="1.0" encoding="UTF-8"?>
<!DOCTYPE svg PUBLIC "-//W3C//DTD SVG 1.1//EN" "http://www.w3.org/Graphics/SVG/1.1/DTD/svg11.dtd">
<svg xmlns="http://www.w3.org/2000/svg" version="1.1" width="135px" height="135px" style="shape-rendering:geometricPrecision; text-rendering:geometricPrecision; image-rendering:optimizeQuality; fill-rule:evenodd; clip-rule:evenodd" xmlns:xlink="http://www.w3.org/1999/xlink">
<g><path style="opacity:0.942" fill="#27204b" d="M 24.5,-0.5 C 52.8333,-0.5 81.1667,-0.5 109.5,-0.5C 115.486,1.91489 120.986,5.24823 126,9.5C 129.661,14.4933 132.494,19.8266 134.5,25.5C 134.5,53.1667 134.5,80.8333 134.5,108.5C 132.494,114.173 129.661,119.507 126,124.5C 120.986,128.752 115.486,132.085 109.5,134.5C 81.1667,134.5 52.8333,134.5 24.5,134.5C 18.5144,132.085 13.0144,128.752 8,124.5C 4.33905,119.507 1.50572,114.173 -0.5,108.5C -0.5,80.8333 -0.5,53.1667 -0.5,25.5C 1.50572,19.8266 4.33905,14.4933 8,9.5C 13.0144,5.24823 18.5144,1.91489 24.5,-0.5 Z"/></g>
<g><path style="opacity:1" fill="#fdfdfd" d="M 26.5,3.5 C 53.1687,3.33336 79.8354,3.50003 106.5,4C 118.568,7.06749 126.401,14.5675 130,26.5C 130.667,53.1667 130.667,79.8333 130,106.5C 126.833,119 119,126.833 106.5,130C 79.8333,130.667 53.1667,130.667 26.5,130C 13.6662,126.168 6.16617,117.668 4,104.5C 3.33333,78.5 3.33333,52.5 4,26.5C 7.68399,14.9837 15.184,7.31707 26.5,3.5 Z"/></g>
<g><path style="opacity:1" fill="#7c7892" d="M 73.5,25.5 C 67.7969,25.3748 62.1302,25.7081 56.5,26.5C 59.5256,24.9814 62.8589,24.3148 66.5,24.5C 69.0254,24.5034 71.3587,24.8367 73.5,25.5 Z"/></g>
<g><path style="opacity:1" fill="#261e49" d="M 73.5,25.5 C 92.3042,29.4693 104.138,40.8027 109,59.5C 109.113,92.7202 92.6132,109.22 59.5,109C 35.0806,101.57 23.5806,85.0704 25,59.5C 29.2797,42.3904 39.7797,31.3904 56.5,26.5C 62.1302,25.7081 67.7969,25.3748 73.5,25.5 Z"/></g>
<g><path style="opacity:1" fill="#fcdb6a" d="M 49.5,59.5 C 51.4832,59.1568 52.8166,59.8235 53.5,61.5C 53.6941,64.3297 54.3608,66.9963 55.5,69.5C 54.5,69.5 53.5,69.5 52.5,69.5C 51.9759,67.6943 51.3092,66.0276 50.5,64.5C 50.4142,63.5041 50.7476,62.6708 51.5,62C 50.244,61.5831 49.5774,60.7498 49.5,59.5 Z"/></g>
<g><path style="opacity:1" fill="#966f48" d="M 50.5,64.5 C 51.3092,66.0276 51.9759,67.6943 52.5,69.5C 51.8031,73.5924 50.4698,73.2591 48.5,68.5C 48.8457,67.3044 49.3457,67.3044 50,68.5C 50.49,67.2068 50.6567,65.8734 50.5,64.5 Z"/></g>
<g><path style="opacity:1" fill="#f7f6f9" d="M 53.5,61.5 C 55.604,61.2011 57.604,61.5344 59.5,62.5C 61.2156,65.5491 63.5489,67.8824 66.5,69.5C 64.6336,70.0138 62.8003,70.6805 61,71.5C 59.1997,70.6805 57.3664,70.0138 55.5,69.5C 54.3608,66.9963 53.6941,64.3297 53.5,61.5 Z"/></g>
<g><path style="opacity:1" fill="#eace63" d="M 43.5,58.5 C 44.6491,58.7911 45.3158,59.6244 45.5,61C 45.1667,61.8333 44.8333,62.6667 44.5,63.5C 43.5481,61.9547 43.2148,60.288 43.5,58.5 Z"/></g>
<g><path style="opacity:1" fill="#5e484d" d="M 73.5,54.5 C 74.478,56.4561 75.478,58.4561 76.5,60.5C 74.6283,61.7946 72.9617,61.6279 71.5,60C 73.1922,58.5993 73.8588,56.7659 73.5,54.5 Z"/></g>
<g><path style="opacity:1" fill="#e7c764" d="M 59.5,48.5 C 64.9873,48.7676 69.654,50.7676 73.5,54.5C 73.8588,56.7659 73.1922,58.5993 71.5,60C 72.9617,61.6279 74.6283,61.7946 76.5,60.5C 76.9382,60.4346 77.2716,60.6012 77.5,61C 75.8645,62.434 74.8645,64.2674 74.5,66.5C 73.675,67.3857 72.675,67.719 71.5,67.5C 70.365,66.5255 69.365,65.3588 68.5,64C 69.7911,58.4408 67.4578,55.6075 61.5,55.5C 61.2178,54.2223 60.5511,53.2223 59.5,52.5C 61.1992,52.6602 62.8659,52.4935 64.5,52C 64,51.5 63.5,51 63,50.5C 61.9887,51.3366 60.8221,51.67 59.5,51.5C 59.5,50.5 59.5,49.5 59.5,48.5 Z"/></g>
<g><path style="opacity:1" fill="#f0edef" d="M 61.5,55.5 C 67.4578,55.6075 69.7911,58.4408 68.5,64C 69.365,65.3588 70.365,66.5255 71.5,67.5C 70.325,67.719 69.325,67.3857 68.5,66.5C 66.7906,63.4571 64.4572,61.1238 61.5,59.5C 61.5,58.1667 61.5,56.8333 61.5,55.5 Z"/></g>
<g><path style="opacity:1" fill="#7d7af9" d="M 41.5,42.5 C 46.5,42.5 51.5,42.5 56.5,42.5C 56.5207,46.2211 57.5207,49.5545 59.5,52.5C 60.5511,53.2223 61.2178,54.2223 61.5,55.5C 61.5,56.8333 61.5,58.1667 61.5,59.5C 60.6981,58.0484 60.1981,56.3817 60,54.5C 57.8797,55.6053 55.7131,55.6053 53.5,54.5C 54.0906,53.8485 54.7573,53.1818 55.5,52.5C 53.9951,51.1585 53.3285,49.4918 53.5,47.5C 51.4727,47.6621 49.4727,47.4955 47.5,47C 50.2263,46.8184 52.8929,46.3184 55.5,45.5C 51.5546,44.5091 47.5546,44.1758 43.5,44.5C 43.5,47.5 43.5,50.5 43.5,53.5C 42.5655,54.5676 42.2322,55.901 42.5,57.5C 41.5128,52.6946 41.1795,47.6946 41.5,42.5 Z"/></g>
<g><path style="opacity:1" fill="#9694f9" d="M 53.5,54.5 C 53.5,55.5 53.5,56.5 53.5,57.5C 49.694,56.9083 46.3607,55.5749 43.5,53.5C 43.5,50.5 43.5,47.5 43.5,44.5C 47.5546,44.1758 51.5546,44.5091 55.5,45.5C 52.8929,46.3184 50.2263,46.8184 47.5,47C 49.4727,47.4955 51.4727,47.6621 53.5,47.5C 53.3285,49.4918 53.9951,51.1585 55.5,52.5C 54.7573,53.1818 54.0906,53.8485 53.5,54.5 Z"/></g>
<g><path style="opacity:1" fill="#917d4e" d="M 57.5,44.5 C 60.2476,44.4017 60.9143,45.4017 59.5,47.5C 57.9519,47.1788 57.2852,46.1788 57.5,44.5 Z"/></g>
<g><path style="opacity:1" fill="#7e78c8" d="M 41.5,42.5 C 46.6405,41.5119 51.9738,41.1786 57.5,41.5C 57.5,42.5 57.5,43.5 57.5,44.5C 57.2852,46.1788 57.9519,47.1788 59.5,47.5C 59.5,47.8333 59.5,48.1667 59.5,48.5C 59.5,49.5 59.5,50.5 59.5,51.5C 60.8221,51.67 61.9887,51.3366 63,50.5C 63.5,51 64,51.5 64.5,52C 62.8659,52.4935 61.1992,52.6602 59.5,52.5C 57.5207,49.5545 56.5207,46.2211 56.5,42.5C 51.5,42.5 46.5,42.5 41.5,42.5 Z"/></g>
<g><path style="opacity:1" fill="#c09859" d="M 79.5,66.5 C 81.337,66.6395 81.6704,67.3061 80.5,68.5C 79.7025,68.0431 79.3691,67.3764 79.5,66.5 Z"/></g>
<g><path style="opacity:1" fill="#938690" d="M 75.5,72.5 C 74.1667,71.8333 73.1667,70.8333 72.5,69.5C 74.8795,68.4331 75.8795,69.4331 75.5,72.5 Z"/></g>
<g><path style="opacity:1" fill="#a07e52" d="M 48.5,73.5 C 50.337,73.6395 50.6704,74.3061 49.5,75.5C 48.7025,75.0431 48.3691,74.3764 48.5,73.5 Z"/></g>
<g><path style="opacity:1" fill="#f0ce69" d="M 55.5,69.5 C 57.3664,70.0138 59.1997,70.6805 61,71.5C 62.8003,70.6805 64.6336,70.0138 66.5,69.5C 67.5511,70.2223 68.2178,71.2223 68.5,72.5C 66.4508,72.7058 66.1175,73.5391 67.5,75C 67.0019,76.1581 66.1685,76.9915 65,77.5C 62.6198,76.1474 60.1198,74.9808 57.5,74C 56.7334,72.5295 56.0668,71.0295 55.5,69.5 Z"/></g>
<g><path style="opacity:1" fill="#605ae2" d="M 43.5,53.5 C 46.3607,55.5749 49.694,56.9083 53.5,57.5C 53.5,56.5 53.5,55.5 53.5,54.5C 55.7131,55.6053 57.8797,55.6053 60,54.5C 60.1981,56.3817 60.6981,58.0484 61.5,59.5C 64.4572,61.1238 66.7906,63.4571 68.5,66.5C 69.325,67.3857 70.325,67.719 71.5,67.5C 71.8333,68.1667 72.1667,68.8333 72.5,69.5C 73.1667,70.8333 74.1667,71.8333 75.5,72.5C 78.1395,75.8062 81.1395,78.8062 84.5,81.5C 87.4548,82.4546 89.4548,84.4546 90.5,87.5C 91.2341,88.7079 91.5674,90.0413 91.5,91.5C 88.2414,89.9116 85.2414,87.9116 82.5,85.5C 78.14,80.8056 73.4733,76.4722 68.5,72.5C 68.2178,71.2223 67.5511,70.2223 66.5,69.5C 63.5489,67.8824 61.2156,65.5491 59.5,62.5C 57.604,61.5344 55.604,61.2011 53.5,61.5C 52.8166,59.8235 51.4832,59.1568 49.5,59.5C 47.4091,58.1346 45.0758,57.4679 42.5,57.5C 42.2322,55.901 42.5655,54.5676 43.5,53.5 Z"/></g>
<g><path style="opacity:1" fill="#7471a5" d="M 75.5,72.5 C 79.8333,74.1667 82.8333,77.1667 84.5,81.5C 81.1395,78.8062 78.1395,75.8062 75.5,72.5 Z"/></g>
<g><path style="opacity:1" fill="#7977bd" d="M 82.5,85.5 C 85.2414,87.9116 88.2414,89.9116 91.5,91.5C 91.5674,90.0413 91.2341,88.7079 90.5,87.5C 92.256,88.5521 92.9227,90.2188 92.5,92.5C 87.8215,92.1639 84.4881,89.8306 82.5,85.5 Z"/></g>
</svg>
