<?xml version="1.0" encoding="UTF-8"?>
<!DOCTYPE svg PUBLIC "-//W3C//DTD SVG 1.1//EN" "http://www.w3.org/Graphics/SVG/1.1/DTD/svg11.dtd">
<svg xmlns="http://www.w3.org/2000/svg" version="1.1" width="135px" height="135px" style="shape-rendering:geometricPrecision; text-rendering:geometricPrecision; image-rendering:optimizeQuality; fill-rule:evenodd; clip-rule:evenodd" xmlns:xlink="http://www.w3.org/1999/xlink">
<g><path style="opacity:0.942" fill="#ffd60f" d="M 24.5,-0.5 C 52.8333,-0.5 81.1667,-0.5 109.5,-0.5C 115.486,1.91489 120.986,5.24823 126,9.5C 129.661,14.4933 132.494,19.8266 134.5,25.5C 134.5,53.1667 134.5,80.8333 134.5,108.5C 132.494,114.173 129.661,119.507 126,124.5C 120.986,128.752 115.486,132.085 109.5,134.5C 81.1667,134.5 52.8333,134.5 24.5,134.5C 18.5144,132.085 13.0144,128.752 8,124.5C 4.33905,119.507 1.50572,114.173 -0.5,108.5C -0.5,80.8333 -0.5,53.1667 -0.5,25.5C 1.50572,19.8266 4.33905,14.4933 8,9.5C 13.0144,5.24823 18.5144,1.91489 24.5,-0.5 Z"/></g>
<g><path style="opacity:1" fill="#fffefb" d="M 27.5,3.5 C 53.1688,3.33336 78.8355,3.50003 104.5,4C 118.1,6.26606 126.6,14.0994 130,27.5C 130.667,53.1667 130.667,78.8333 130,104.5C 127.5,119 119,127.5 104.5,130C 78.8333,130.667 53.1667,130.667 27.5,130C 14.0994,126.6 6.26606,118.1 4,104.5C 3.33333,78.8333 3.33333,53.1667 4,27.5C 7.34904,14.9853 15.1824,6.98533 27.5,3.5 Z"/></g>
<g><path style="opacity:1" fill="#ffd73e" d="M 62.5,26.5 C 63.5,26.5 64.5,26.5 65.5,26.5C 65.5,31.1667 65.5,35.8333 65.5,40.5C 64.5,40.5 63.5,40.5 62.5,40.5C 62.5,35.8333 62.5,31.1667 62.5,26.5 Z"/></g>
<g><path style="opacity:1" fill="#ffda3a" d="M 58.5,27.5 C 59.5,27.5 60.5,27.5 61.5,27.5C 61.5,32.1667 61.5,36.8333 61.5,41.5C 60.5,41.5 59.5,41.5 58.5,41.5C 58.5,36.8333 58.5,32.1667 58.5,27.5 Z"/></g>
<g><path style="opacity:1" fill="#ffd306" d="M 67.5,26.5 C 68.5,26.5 69.5,26.5 70.5,26.5C 70.5,31.1667 70.5,35.8333 70.5,40.5C 69.5,40.5 68.5,40.5 67.5,40.5C 67.5,35.8333 67.5,31.1667 67.5,26.5 Z"/></g>
<g><path style="opacity:1" fill="#ffd412" d="M 53.5,28.5 C 54.5,28.5 55.5,28.5 56.5,28.5C 56.6336,36.1753 55.6336,36.1753 53.5,28.5 Z"/></g>
<g><path style="opacity:1" fill="#ffd528" d="M 50.5,29.5 C 53.3113,33.1085 55.6446,37.1085 57.5,41.5C 56.7579,42.2868 55.9246,42.9535 55,43.5C 53.0083,39.024 51.5083,34.3573 50.5,29.5 Z"/></g>
<g><path style="opacity:1" fill="#ffdd42" d="M 76.5,27.5 C 80.1771,29.1983 80.3438,31.5317 77,34.5C 76.5034,32.1902 76.3367,29.8568 76.5,27.5 Z"/></g>
<g><path style="opacity:1" fill="#ffda47" d="M 46.5,31.5 C 47.5,31.5 48.5,31.5 49.5,31.5C 49.6646,33.8268 50.3313,35.9935 51.5,38C 49.255,37.8047 47.4216,36.6381 46,34.5C 45.5304,33.4232 45.6971,32.4232 46.5,31.5 Z"/></g>
<g><path style="opacity:1" fill="#ffd734" d="M 72.5,27.5 C 73.5,27.5 74.5,27.5 75.5,27.5C 75.3343,31.8461 75.501,36.1794 76,40.5C 77.6627,36.5036 79.8294,32.8369 82.5,29.5C 82.5329,34.2789 81.3662,38.9455 79,43.5C 76.9935,42.3313 74.8268,41.6646 72.5,41.5C 72.5,36.8333 72.5,32.1667 72.5,27.5 Z"/></g>
<g><path style="opacity:1" fill="#ffd831" d="M 84.5,31.5 C 86.1033,31.3118 87.4366,31.8118 88.5,33C 87,34.5 85.5,36 84,37.5C 83.8195,35.5116 83.9862,33.5116 84.5,31.5 Z"/></g>
<g><path style="opacity:1" fill="#ffd412" d="M 38.5,37.5 C 42.812,39.2895 46.4786,42.1228 49.5,46C 48.6667,46.8333 47.8333,47.6667 47,48.5C 43.1228,45.4786 40.2895,41.812 38.5,37.5 Z"/></g>
<g><path style="opacity:1" fill="#ffd635" d="M 42.5,34.5 C 46.4154,36.7433 49.7488,39.7433 52.5,43.5C 51.635,44.5827 50.635,44.7494 49.5,44C 46.8333,41.3333 44.1667,38.6667 41.5,36C 42.056,35.6174 42.3893,35.1174 42.5,34.5 Z"/></g>
<g><path style="opacity:1" fill="#ffd529" d="M 88.5,34.5 C 90.3547,34.272 91.1881,34.9387 91,36.5C 88.5,39 86,41.5 83.5,44C 82.365,44.7494 81.365,44.5827 80.5,43.5C 83.189,40.4802 85.8556,37.4802 88.5,34.5 Z"/></g>
<g><path style="opacity:1" fill="#ffd107" d="M 35.5,41.5 C 39.2347,43.7246 42.568,46.558 45.5,50C 45,50.5 44.5,51 44,51.5C 40.558,48.568 37.7246,45.2347 35.5,41.5 Z"/></g>
<g><path style="opacity:1" fill="#ffd734" d="M 92.5,36.5 C 94.2252,36.8425 94.7252,37.8425 94,39.5C 91.3176,42.3497 88.4843,45.0164 85.5,47.5C 84.4173,46.635 84.2506,45.635 85,44.5C 87.705,41.9638 90.205,39.2971 92.5,36.5 Z"/></g>
<g><path style="opacity:1" fill="#ffd733" d="M 95.5,39.5 C 97.6086,40.0524 98.4419,41.3858 98,43.5C 95.2807,46.9222 92.1141,49.4222 88.5,51C 87.4829,49.9505 87.3162,48.7839 88,47.5C 90.705,44.9638 93.205,42.2971 95.5,39.5 Z"/></g>
<g><path style="opacity:1" fill="#fdd513" d="M 69.5,58.5 C 62.1667,58.5 54.8333,58.5 47.5,58.5C 48.2846,63.4704 49.6179,68.3037 51.5,73C 53.6667,73.1667 55.8333,73.3333 58,73.5C 60.6103,73.4668 62.777,72.8001 64.5,71.5C 65.1314,69.0248 66.1314,66.6915 67.5,64.5C 67.3841,67.8599 67.0508,71.1933 66.5,74.5C 68.8333,74.5 71.1667,74.5 73.5,74.5C 72.6365,76.8954 72.6365,79.2287 73.5,81.5C 74.5,80.8333 75.5,80.1667 76.5,79.5C 76.8333,79.8333 77.1667,80.1667 77.5,80.5C 76.3115,82.2623 74.6449,83.2623 72.5,83.5C 71.8333,83.1667 71.1667,82.8333 70.5,82.5C 65.7155,83.1608 61.3822,82.1608 57.5,79.5C 56.1667,80.1667 56.1667,80.8333 57.5,81.5C 59.0754,82.4565 60.742,83.1231 62.5,83.5C 65.1667,84.1667 67.8333,84.8333 70.5,85.5C 69.5976,88.7068 68.5976,91.8735 67.5,95C 64.8333,95.6667 62.1667,95.6667 59.5,95C 55.996,93.7455 52.6626,92.2455 49.5,90.5C 44.6697,85.8412 41.6697,80.1745 40.5,73.5C 39.828,66.8361 40.828,60.5028 43.5,54.5C 50.3764,44.7331 59.7097,41.0664 71.5,43.5C 70.0967,48.3921 69.4301,53.3921 69.5,58.5 Z"/></g>
<g><path style="opacity:1" fill="#ffd116" d="M 42.5,52.5 C 42.719,53.675 42.3857,54.675 41.5,55.5C 40.7124,54.2299 39.7124,53.2299 38.5,52.5C 36.7059,50.2034 34.7059,48.0367 32.5,46C 33,45.5 33.5,45 34,44.5C 36.7028,47.3714 39.5361,50.0381 42.5,52.5 Z"/></g>
<g><path style="opacity:1" fill="#ffd525" d="M 92.5,55.5 C 90.9153,54.9976 90.4153,53.9976 91,52.5C 94,49.5 97,46.5 100,43.5C 100.374,44.4162 100.874,45.2496 101.5,46C 98.2956,49.0359 95.2956,52.2026 92.5,55.5 Z"/></g>
<g><path style="opacity:1" fill="#ffd733" d="M 36.5,52.5 C 34.7411,52.9539 32.7411,52.9539 30.5,52.5C 29.4908,51.0609 29.8241,49.7276 31.5,48.5C 33.1856,49.8569 34.8523,51.1902 36.5,52.5 Z"/></g>
<g><path style="opacity:1" fill="#ffd940" d="M 101.5,47.5 C 102.478,47.811 103.145,48.4777 103.5,49.5C 97.992,53.82 97.3254,53.1533 101.5,47.5 Z"/></g>
<g><path style="opacity:1" fill="#fff8da" d="M 28.5,53.5 C 28.8417,52.6618 29.5084,52.3284 30.5,52.5C 32.7411,52.9539 34.7411,52.9539 36.5,52.5C 37.1667,52.5 37.8333,52.5 38.5,52.5C 39.7124,53.2299 40.7124,54.2299 41.5,55.5C 42.3857,54.675 42.719,53.675 42.5,52.5C 43.3382,52.8417 43.6716,53.5084 43.5,54.5C 40.828,60.5028 39.828,66.8361 40.5,73.5C 39.8333,70.1667 39.1667,66.8333 38.5,63.5C 38.6107,62.8826 38.944,62.3826 39.5,62C 37.8659,61.5065 36.1992,61.3398 34.5,61.5C 35.8333,60.8333 37.1667,60.1667 38.5,59.5C 40.4646,59.0517 40.7979,58.0517 39.5,56.5C 35.9515,55.0298 32.2849,54.0298 28.5,53.5 Z"/></g>
<g><path style="opacity:1" fill="#ffd52a" d="M 92.5,55.5 C 107.665,51.2775 108.165,52.6109 94,59.5C 93.2086,58.255 92.7086,56.9217 92.5,55.5 Z"/></g>
<g><path style="opacity:1" fill="#ffd630" d="M 28.5,53.5 C 32.2849,54.0298 35.9515,55.0298 39.5,56.5C 40.7979,58.0517 40.4646,59.0517 38.5,59.5C 34.7991,57.9884 31.4658,55.9884 28.5,53.5 Z"/></g>
<g><path style="opacity:1" fill="#ffd82c" d="M 27.5,56.5 C 36.5263,58.652 36.5263,59.652 27.5,59.5C 27.5,58.5 27.5,57.5 27.5,56.5 Z"/></g>
<g><path style="opacity:1" fill="#ffda32" d="M 104.5,55.5 C 106.048,55.8212 106.715,56.8212 106.5,58.5C 104.473,58.6621 102.473,58.4955 100.5,58C 102.066,57.3918 103.4,56.5585 104.5,55.5 Z"/></g>
<g><path style="opacity:1" fill="#221a12" d="M 69.5,58.5 C 75.1764,58.3339 80.8431,58.5006 86.5,59C 87.7387,61.1176 87.4054,62.951 85.5,64.5C 85.9662,62.7988 85.9662,61.2988 85.5,60C 78.4819,59.4346 71.4819,59.6012 64.5,60.5C 64.2322,63.7396 63.5655,66.9063 62.5,70C 62.9444,71.7618 63.4444,71.5951 64,69.5C 64.4643,70.0944 64.631,70.7611 64.5,71.5C 62.777,72.8001 60.6103,73.4668 58,73.5C 55.8333,73.3333 53.6667,73.1667 51.5,73C 49.6179,68.3037 48.2846,63.4704 47.5,58.5C 54.8333,58.5 62.1667,58.5 69.5,58.5 Z"/></g>
<g><path style="opacity:1" fill="#412b12" d="M 85.5,64.5 C 85.5,65.1667 85.5,65.8333 85.5,66.5C 84.5028,66.5299 83.8361,66.0299 83.5,65C 84.1476,63.5603 84.4809,62.0603 84.5,60.5C 83.5,60.5 82.5,60.5 81.5,60.5C 80.5,60.5 79.5,60.5 78.5,60.5C 75.8806,60.2317 73.3806,60.565 71,61.5C 70.7526,64.8488 71.586,67.8488 73.5,70.5C 73.8417,71.3382 74.5084,71.6716 75.5,71.5C 77.5273,71.3379 79.5273,71.5045 81.5,72C 78.1177,72.8236 74.7844,72.657 71.5,71.5C 71.0057,69.9745 70.339,68.6412 69.5,67.5C 68.8333,66.5 68.1667,65.5 67.5,64.5C 66.1314,66.6915 65.1314,69.0248 64.5,71.5C 64.631,70.7611 64.4643,70.0944 64,69.5C 63.4444,71.5951 62.9444,71.7618 62.5,70C 63.5655,66.9063 64.2322,63.7396 64.5,60.5C 71.4819,59.6012 78.4819,59.4346 85.5,60C 85.9662,61.2988 85.9662,62.7988 85.5,64.5 Z"/></g>
<g><path style="opacity:1" fill="#ffd000" d="M 106.5,60.5 C 102.971,62.4228 98.9707,63.0894 94.5,62.5C 98.0293,60.5772 102.029,59.9106 106.5,60.5 Z"/></g>
<g><path style="opacity:1" fill="#ffdc46" d="M 34.5,61.5 C 36.1992,61.3398 37.8659,61.5065 39.5,62C 38.944,62.3826 38.6107,62.8826 38.5,63.5C 34.4454,63.8242 30.4454,63.4909 26.5,62.5C 29.0865,61.52 31.7531,61.1866 34.5,61.5 Z"/></g>
<g><path style="opacity:1" fill="#ffea82" d="M 106.5,60.5 C 107.404,61.209 107.737,62.209 107.5,63.5C 102.968,63.8182 98.6344,63.4849 94.5,62.5C 98.9707,63.0894 102.971,62.4228 106.5,60.5 Z"/></g>
<g><path style="opacity:1" fill="#575757" d="M 58.5,60.5 C 59.3764,60.3691 60.0431,60.7025 60.5,61.5C 58.5,64.8333 56.5,68.1667 54.5,71.5C 54.327,67.47 55.6603,63.8034 58.5,60.5 Z"/></g>
<g><path style="opacity:1" fill="#1f1f1e" d="M 78.5,60.5 C 76.8466,63.8068 75.1799,67.1401 73.5,70.5C 71.586,67.8488 70.7526,64.8488 71,61.5C 73.3806,60.565 75.8806,60.2317 78.5,60.5 Z"/></g>
<g><path style="opacity:1" fill="#565757" d="M 78.5,60.5 C 79.5,60.5 80.5,60.5 81.5,60.5C 79.5,64.1667 77.5,67.8333 75.5,71.5C 74.5084,71.6716 73.8417,71.3382 73.5,70.5C 75.1799,67.1401 76.8466,63.8068 78.5,60.5 Z"/></g>
<g><path style="opacity:1" fill="#ffd741" d="M 94.5,64.5 C 98.8333,64.5 103.167,64.5 107.5,64.5C 107.5,65.5 107.5,66.5 107.5,67.5C 103.486,67.6655 99.4862,67.4988 95.5,67C 94.7476,66.3292 94.4142,65.4959 94.5,64.5 Z"/></g>
<g><path style="opacity:1" fill="#ffd937" d="M 26.5,64.5 C 30.5,64.5 34.5,64.5 38.5,64.5C 38.5,65.8333 38.5,67.1667 38.5,68.5C 34.5,68.5 30.5,68.5 26.5,68.5C 26.5,67.1667 26.5,65.8333 26.5,64.5 Z"/></g>
<g><path style="opacity:1" fill="#ffea83" d="M 95.5,69.5 C 99.2984,68.5166 103.298,68.1832 107.5,68.5C 107.768,70.099 107.434,71.4324 106.5,72.5C 106.5,71.5 106.5,70.5 106.5,69.5C 102.833,69.5 99.1667,69.5 95.5,69.5 Z"/></g>
<g><path style="opacity:1" fill="#ffd200" d="M 95.5,69.5 C 99.1667,69.5 102.833,69.5 106.5,69.5C 106.5,70.5 106.5,71.5 106.5,72.5C 102.833,72.5 99.1667,72.5 95.5,72.5C 95.5,71.5 95.5,70.5 95.5,69.5 Z"/></g>
<g><path style="opacity:1" fill="#ffd313" d="M 26.5,70.5 C 30.5546,70.1758 34.5546,70.5091 38.5,71.5C 36.5,71.8333 34.5,72.1667 32.5,72.5C 30.0478,72.4609 28.0478,71.7943 26.5,70.5 Z"/></g>
<g><path style="opacity:1" fill="#1f1b18" d="M 81.5,60.5 C 82.5,60.5 83.5,60.5 84.5,60.5C 84.4809,62.0603 84.1476,63.5603 83.5,65C 83.8361,66.0299 84.5028,66.5299 85.5,66.5C 85.14,72.1909 82.14,74.5242 76.5,73.5C 71.0617,74.894 68.7284,72.894 69.5,67.5C 70.339,68.6412 71.0057,69.9745 71.5,71.5C 74.7844,72.657 78.1177,72.8236 81.5,72C 79.5273,71.5045 77.5273,71.3379 75.5,71.5C 77.5,67.8333 79.5,64.1667 81.5,60.5 Z"/></g>
<g><path style="opacity:1" fill="#ffd62a" d="M 27.5,74.5 C 31.1817,74.3347 34.8484,74.5014 38.5,75C 38.9574,75.414 39.2907,75.914 39.5,76.5C 35.5546,77.4909 31.5546,77.8242 27.5,77.5C 27.5,76.5 27.5,75.5 27.5,74.5 Z"/></g>
<g><path style="opacity:1" fill="#ffe77f" d="M 28.5,78.5 C 33.1366,78.6077 33.47,79.6077 29.5,81.5C 28.6143,80.675 28.281,79.675 28.5,78.5 Z"/></g>
<g><path style="opacity:1" fill="#ffdd42" d="M 101.5,79.5 C 102.708,78.218 104.042,78.218 105.5,79.5C 104.192,80.6256 102.858,80.6256 101.5,79.5 Z"/></g>
<g><path style="opacity:1" fill="#ffd529" d="M 37.5,78.5 C 38.5,78.5 39.5,78.5 40.5,78.5C 40.67,79.8221 40.3366,80.9887 39.5,82C 28.5489,85.5606 27.8822,84.394 37.5,78.5 Z"/></g>
<g><path style="opacity:1" fill="#ffd83d" d="M 101.5,84.5 C 99.337,83.5309 97.0037,82.6976 94.5,82C 93.7476,81.3292 93.4142,80.4959 93.5,79.5C 94.038,77.8828 94.3713,76.2161 94.5,74.5C 98.5,74.5 102.5,74.5 106.5,74.5C 106.5,75.5 106.5,76.5 106.5,77.5C 102.818,77.3347 99.1516,77.5014 95.5,78C 98.2487,79.1227 100.749,80.6227 103,82.5C 103.528,83.816 103.028,84.4827 101.5,84.5 Z"/></g>
<g><path style="opacity:1" fill="#fffdf3" d="M 70.5,82.5 C 68.0521,83.4731 65.3854,83.8064 62.5,83.5C 60.742,83.1231 59.0754,82.4565 57.5,81.5C 56.1667,80.8333 56.1667,80.1667 57.5,79.5C 61.3822,82.1608 65.7155,83.1608 70.5,82.5 Z"/></g>
<g><path style="opacity:1" fill="#fff5c5" d="M 93.5,79.5 C 93.4142,80.4959 93.7476,81.3292 94.5,82C 97.0037,82.6976 99.337,83.5309 101.5,84.5C 101.062,84.4346 100.728,84.6012 100.5,85C 101.308,85.3076 101.975,85.8076 102.5,86.5C 101.807,87.5178 101.141,88.5178 100.5,89.5C 97.7673,86.7606 94.7673,84.4273 91.5,82.5C 91.9321,81.2905 92.5987,80.2905 93.5,79.5 Z"/></g>
<g><path style="opacity:1" fill="#ffd310" d="M 40.5,82.5 C 42.2252,82.8425 42.7252,83.8425 42,85.5C 39.9362,88.2736 37.4362,90.1069 34.5,91C 34.1667,90.6667 33.8333,90.3333 33.5,90C 36.0386,87.6303 38.3719,85.1303 40.5,82.5 Z"/></g>
<g><path style="opacity:1" fill="#ffed96" d="M 70.5,82.5 C 71.1667,82.8333 71.8333,83.1667 72.5,83.5C 72.1667,84.5 71.5,85.1667 70.5,85.5C 67.8333,84.8333 65.1667,84.1667 62.5,83.5C 65.3854,83.8064 68.0521,83.4731 70.5,82.5 Z"/></g>
<g><path style="opacity:1" fill="#ffd41d" d="M 91.5,82.5 C 94.7673,84.4273 97.7673,86.7606 100.5,89.5C 99.9976,91.0847 98.9976,91.5847 97.5,91C 95.3171,88.6496 92.9837,86.483 90.5,84.5C 90.8627,83.8165 91.1961,83.1499 91.5,82.5 Z"/></g>
<g><path style="opacity:1" fill="#ffd412" d="M 43.5,86.5 C 44.6266,87.1217 45.6266,87.955 46.5,89C 44.1311,92.2258 41.1311,94.3924 37.5,95.5C 37.3505,94.448 37.5172,93.448 38,92.5C 40.0396,90.6298 41.8729,88.6298 43.5,86.5 Z"/></g>
<g><path style="opacity:1" fill="#ffd117" d="M 88.5,86.5 C 92.7467,88.2301 95.2467,91.2301 96,95.5C 92.8883,92.8991 90.3883,89.8991 88.5,86.5 Z"/></g>
<g><path style="opacity:1" fill="#ffd418" d="M 85.5,89.5 C 88.3943,90.8823 90.8943,92.8823 93,95.5C 93.5,97.6667 92.6667,98.5 90.5,98C 88.6667,96.1667 86.8333,94.3333 85,92.5C 84.5304,91.4232 84.6971,90.4232 85.5,89.5 Z"/></g>
<g><path style="opacity:1" fill="#ffd737" d="M 49.5,90.5 C 48.1177,93.3943 46.1177,95.8943 43.5,98C 42.365,98.7494 41.365,98.5827 40.5,97.5C 42.6871,93.9633 45.6871,91.63 49.5,90.5 Z"/></g>
<g><path style="opacity:1" fill="#ffd41c" d="M 49.5,93.5 C 50.9778,93.238 52.3112,93.5713 53.5,94.5C 51.5,97.1667 49.1667,99.5 46.5,101.5C 45.5,101.167 44.8333,100.5 44.5,99.5C 46.1897,97.4807 47.8564,95.4807 49.5,93.5 Z"/></g>
<g><path style="opacity:1" fill="#ffd632" d="M 81.5,92.5 C 84.3943,93.8823 86.8943,95.8823 89,98.5C 89.5628,99.7248 89.2295,100.725 88,101.5C 85.5,99 83,96.5 80.5,94C 81.056,93.6174 81.3893,93.1174 81.5,92.5 Z"/></g>
<g><path style="opacity:1" fill="#ffd522" d="M 78.5,94.5 C 80.48,96.8954 81.8133,99.7287 82.5,103C 82.1667,103.5 81.8333,104 81.5,104.5C 79.347,102.206 77.6803,99.5396 76.5,96.5C 77.2427,95.8182 77.9094,95.1515 78.5,94.5 Z"/></g>
<g><path style="opacity:1" fill="#ffd528" d="M 58.5,96.5 C 59.5,96.5 60.5,96.5 61.5,96.5C 61.5,99.8333 61.5,103.167 61.5,106.5C 60.5,106.5 59.5,106.5 58.5,106.5C 58.5,103.167 58.5,99.8333 58.5,96.5 Z"/></g>
<g><path style="opacity:1" fill="#ffd837" d="M 62.5,97.5 C 63.8333,97.5 65.1667,97.5 66.5,97.5C 66.5,100.833 66.5,104.167 66.5,107.5C 65.1667,107.5 63.8333,107.5 62.5,107.5C 62.5,104.167 62.5,100.833 62.5,97.5 Z"/></g>
<g><path style="opacity:1" fill="#ffd822" d="M 72.5,96.5 C 73.5,96.5 74.5,96.5 75.5,96.5C 75.5,99.8333 75.5,103.167 75.5,106.5C 74.5,106.5 73.5,106.5 72.5,106.5C 72.5,103.167 72.5,99.8333 72.5,96.5 Z"/></g>
<g><path style="opacity:1" fill="#ffd518" d="M 68.5,97.5 C 69.7773,98.6936 70.4439,100.36 70.5,102.5C 70.1667,104.167 69.8333,105.833 69.5,107.5C 68.513,104.232 68.1796,100.898 68.5,97.5 Z"/></g>
<g><path style="opacity:1" fill="#ffdc3c" d="M 83.5,100.5 C 85.0847,101.002 85.5847,102.002 85,103.5C 83.9614,102.756 83.4614,101.756 83.5,100.5 Z"/></g>
<g><path style="opacity:1" fill="#ffdd4e" d="M 50.5,100.5 C 51.6878,102.496 51.0211,103.329 48.5,103C 49.3805,102.292 50.0472,101.458 50.5,100.5 Z"/></g>
<g><path style="opacity:1" fill="#ffd427" d="M 54.5,95.5 C 55.5,95.5 56.5,95.5 57.5,95.5C 57.0711,99.0244 55.5711,102.024 53,104.5C 52.7488,101.406 53.2488,98.4057 54.5,95.5 Z"/></g>
</svg>
