<?xml version="1.0" encoding="UTF-8"?>
<!DOCTYPE svg PUBLIC "-//W3C//DTD SVG 1.1//EN" "http://www.w3.org/Graphics/SVG/1.1/DTD/svg11.dtd">
<svg xmlns="http://www.w3.org/2000/svg" version="1.1" width="135px" height="135px" style="shape-rendering:geometricPrecision; text-rendering:geometricPrecision; image-rendering:optimizeQuality; fill-rule:evenodd; clip-rule:evenodd" xmlns:xlink="http://www.w3.org/1999/xlink">
<g><path style="opacity:0.942" fill="#0e0730" d="M 24.5,-0.5 C 52.8333,-0.5 81.1667,-0.5 109.5,-0.5C 115.486,1.91489 120.986,5.24823 126,9.5C 129.661,14.4933 132.494,19.8266 134.5,25.5C 134.5,53.1667 134.5,80.8333 134.5,108.5C 132.494,114.173 129.661,119.507 126,124.5C 120.986,128.752 115.486,132.085 109.5,134.5C 81.1667,134.5 52.8333,134.5 24.5,134.5C 18.5144,132.085 13.0144,128.752 8,124.5C 4.33905,119.507 1.50572,114.173 -0.5,108.5C -0.5,80.8333 -0.5,53.1667 -0.5,25.5C 1.50572,19.8266 4.33905,14.4933 8,9.5C 13.0144,5.24823 18.5144,1.91489 24.5,-0.5 Z"/></g>
<g><path style="opacity:1" fill="#fdfdfd" d="M 26.5,3.5 C 53.1687,3.33336 79.8354,3.50003 106.5,4C 118.568,7.06749 126.401,14.5675 130,26.5C 130.667,53.1667 130.667,79.8333 130,106.5C 126.833,119 119,126.833 106.5,130C 79.8333,130.667 53.1667,130.667 26.5,130C 14.5675,126.401 7.06749,118.568 4,106.5C 3.33333,79.8333 3.33333,53.1667 4,26.5C 7.68399,14.9837 15.184,7.31707 26.5,3.5 Z"/></g>
<g><path style="opacity:1" fill="#1e5058" d="M 104.5,68.5 C 102.668,69.2485 101.001,70.2485 99.5,71.5C 100.094,49.2492 89.2607,36.5825 67,33.5C 57.4944,34.3389 49.3277,38.0055 42.5,44.5C 42.3077,41.1909 43.6411,38.6909 46.5,37C 46.2716,36.6012 45.9382,36.4346 45.5,36.5C 48.701,33.0626 52.701,30.8959 57.5,30C 78.9793,26.4856 94.146,34.6523 103,54.5C 104.122,59.1016 104.622,63.7682 104.5,68.5 Z"/></g>
<g><path style="opacity:1" fill="#ebecee" d="M 99.5,71.5 C 96.5785,86.754 87.5785,96.0873 72.5,99.5C 57.1985,101.015 45.5318,95.348 37.5,82.5C 35.0582,76.7626 34.0582,70.7626 34.5,64.5C 34.6323,56.7601 37.299,50.0935 42.5,44.5C 49.3277,38.0055 57.4944,34.3389 67,33.5C 89.2607,36.5825 100.094,49.2492 99.5,71.5 Z"/></g>
<g><path style="opacity:1" fill="#0e062d" d="M 58.5,39.5 C 63.8333,38.1667 69.1667,38.1667 74.5,39.5C 77.5968,41.4301 81.2635,43.5967 85.5,46C 87.7326,48.9958 90.0659,51.8292 92.5,54.5C 99.1032,70.5288 95.1032,83.3621 80.5,93C 71.8492,96.084 63.1825,96.2507 54.5,93.5C 54.5858,92.5041 54.2524,91.6708 53.5,91C 50.7336,89.5331 48.2336,87.6998 46,85.5C 43.5967,81.2635 41.4301,77.5968 39.5,74.5C 38.596,73.791 38.2627,72.791 38.5,71.5C 38.3008,55.7296 45.6342,45.2296 60.5,40C 59.9056,39.5357 59.2389,39.369 58.5,39.5 Z"/></g>
<g><path style="opacity:1" fill="#1a1928" d="M 74.5,39.5 C 83.3198,41.2274 89.3198,46.2274 92.5,54.5C 90.0659,51.8292 87.7326,48.9958 85.5,46C 81.2635,43.5967 77.5968,41.4301 74.5,39.5 Z"/></g>
<g><path style="opacity:1" fill="#ecebee" d="M 69.5,53.5 C 73.9591,54.2931 76.2924,56.9598 76.5,61.5C 73.6421,61.9717 71.6421,60.9717 70.5,58.5C 70.44,57.9569 70.1067,57.6236 69.5,57.5C 68.2031,59.9732 68.2031,62.3066 69.5,64.5C 76.6414,65.7819 78.808,69.7819 76,76.5C 73.9871,78.2482 71.8205,79.5815 69.5,80.5C 68.8423,81.3984 68.1757,82.3984 67.5,83.5C 66.8243,82.3984 66.1577,81.3984 65.5,80.5C 61.3381,79.3491 58.3381,76.6825 56.5,72.5C 57.3333,72.1667 58.1667,71.8333 59,71.5C 61.0239,72.5127 62.8572,73.846 64.5,75.5C 65.4742,73.2573 65.8076,70.924 65.5,68.5C 60.7863,68.289 58.1197,65.789 57.5,61C 58.4059,56.5934 61.0726,54.0934 65.5,53.5C 66.1577,52.6016 66.8243,51.6016 67.5,50.5C 68.1757,51.6016 68.8423,52.6016 69.5,53.5 Z"/></g>
<g><path style="opacity:1" fill="#908c9f" d="M 69.5,53.5 C 68.8423,52.6016 68.1757,51.6016 67.5,50.5C 66.8243,51.6016 66.1577,52.6016 65.5,53.5C 65.5,52.1667 65.5,50.8333 65.5,49.5C 66.8333,49.5 68.1667,49.5 69.5,49.5C 69.5,50.8333 69.5,52.1667 69.5,53.5 Z"/></g>
<g><path style="opacity:1" fill="#1b1a2b" d="M 58.5,39.5 C 59.2389,39.369 59.9056,39.5357 60.5,40C 45.6342,45.2296 38.3008,55.7296 38.5,71.5C 36.9801,61.3234 39.9801,52.49 47.5,45C 50.8526,42.4665 54.5193,40.6332 58.5,39.5 Z"/></g>
<g><path style="opacity:1" fill="#6d6980" d="M 70.5,58.5 C 69.5386,60.2646 69.2053,62.2646 69.5,64.5C 68.2031,62.3066 68.2031,59.9732 69.5,57.5C 70.1067,57.6236 70.44,57.9569 70.5,58.5 Z"/></g>
<g><path style="opacity:1" fill="#183649" d="M 45.5,36.5 C 45.9382,36.4346 46.2716,36.6012 46.5,37C 43.6411,38.6909 42.3077,41.1909 42.5,44.5C 37.299,50.0935 34.6323,56.7601 34.5,64.5C 34.02,67.1656 33.02,69.6656 31.5,72C 33.158,72.7253 33.658,73.892 33,75.5C 31.4039,76.0485 30.2373,75.3818 29.5,73.5C 27.6438,62.3348 30.1438,52.3348 37,43.5C 39.4356,40.5532 42.2689,38.2199 45.5,36.5 Z"/></g>
<g><path style="opacity:1" fill="#110e1c" d="M 64.5,57.5 C 65.4614,59.2646 65.7947,61.2646 65.5,63.5C 64.5,63.5 63.5,63.5 62.5,63.5C 62.2587,61.1137 62.9254,59.1137 64.5,57.5 Z"/></g>
<g><path style="opacity:1" fill="#252331" d="M 68.5,69.5 C 72.35,69.7007 73.35,71.5341 71.5,75C 70.552,75.4828 69.552,75.6495 68.5,75.5C 68.5,73.5 68.5,71.5 68.5,69.5 Z"/></g>
<g><path style="opacity:1" fill="#2e7f75" d="M 34.5,64.5 C 34.0582,70.7626 35.0582,76.7626 37.5,82.5C 38.0294,84.3344 37.3627,86.0011 35.5,87.5C 32.4316,83.3557 30.4316,78.689 29.5,73.5C 30.2373,75.3818 31.4039,76.0485 33,75.5C 33.658,73.892 33.158,72.7253 31.5,72C 33.02,69.6656 34.02,67.1656 34.5,64.5 Z"/></g>
<g><path style="opacity:1" fill="#1c1b2a" d="M 54.5,93.5 C 46.4017,89.648 41.4017,83.3146 39.5,74.5C 41.4301,77.5968 43.5967,81.2635 46,85.5C 48.2336,87.6998 50.7336,89.5331 53.5,91C 54.2524,91.6708 54.5858,92.5041 54.5,93.5 Z"/></g>
<g><path style="opacity:1" fill="#878297" d="M 65.5,80.5 C 66.1577,81.3984 66.8243,82.3984 67.5,83.5C 68.1757,82.3984 68.8423,81.3984 69.5,80.5C 69.5,81.8333 69.5,83.1667 69.5,84.5C 68.1667,84.5 66.8333,84.5 65.5,84.5C 65.5,83.1667 65.5,81.8333 65.5,80.5 Z"/></g>
<g><path style="opacity:1" fill="#172f42" d="M 104.5,68.5 C 102.94,88.0547 92.6062,99.7214 73.5,103.5C 70.9539,102.496 68.2872,101.663 65.5,101C 67.7695,100.242 69.9361,100.409 72,101.5C 72.4643,100.906 72.631,100.239 72.5,99.5C 87.5785,96.0873 96.5785,86.754 99.5,71.5C 101.001,70.2485 102.668,69.2485 104.5,68.5 Z"/></g>
<g><path style="opacity:1" fill="#1f4452" d="M 37.5,82.5 C 45.5318,95.348 57.1985,101.015 72.5,99.5C 72.631,100.239 72.4643,100.906 72,101.5C 69.9361,100.409 67.7695,100.242 65.5,101C 68.2872,101.663 70.9539,102.496 73.5,103.5C 57.374,106.564 44.7073,101.231 35.5,87.5C 37.3627,86.0011 38.0294,84.3344 37.5,82.5 Z"/></g>
</svg>
