<?xml version="1.0" encoding="UTF-8"?>
<!DOCTYPE svg PUBLIC "-//W3C//DTD SVG 1.1//EN" "http://www.w3.org/Graphics/SVG/1.1/DTD/svg11.dtd">
<svg xmlns="http://www.w3.org/2000/svg" version="1.1" width="135px" height="135px" style="shape-rendering:geometricPrecision; text-rendering:geometricPrecision; image-rendering:optimizeQuality; fill-rule:evenodd; clip-rule:evenodd" xmlns:xlink="http://www.w3.org/1999/xlink">
<g><path style="opacity:0.943" fill="#7e06fe" d="M 24.5,-0.5 C 52.8333,-0.5 81.1667,-0.5 109.5,-0.5C 115.486,1.91489 120.986,5.24823 126,9.5C 129.661,14.4933 132.494,19.8266 134.5,25.5C 134.5,53.1667 134.5,80.8333 134.5,108.5C 132.494,114.173 129.661,119.507 126,124.5C 120.986,128.752 115.486,132.085 109.5,134.5C 81.1667,134.5 52.8333,134.5 24.5,134.5C 18.5144,132.085 13.0144,128.752 8,124.5C 4.33905,119.507 1.50572,114.173 -0.5,108.5C -0.5,80.8333 -0.5,53.1667 -0.5,25.5C 1.50572,19.8266 4.33905,14.4933 8,9.5C 13.0144,5.24823 18.5144,1.91489 24.5,-0.5 Z"/></g>
<g><path style="opacity:1" fill="#fefdff" d="M 27.5,3.5 C 53.1688,3.33336 78.8355,3.50003 104.5,4C 118.1,6.26606 126.6,14.0994 130,27.5C 130.667,53.5 130.667,79.5 130,105.5C 127.046,119.454 118.546,127.621 104.5,130C 78.8333,130.667 53.1667,130.667 27.5,130C 14.0994,126.6 6.26606,118.1 4,104.5C 3.33333,78.8333 3.33333,53.1667 4,27.5C 7.34904,14.9853 15.1824,6.98533 27.5,3.5 Z"/></g>
<g><path style="opacity:1" fill="#7d0bfb" d="M 59.5,30.5 C 77.857,29.0921 91.357,36.4254 100,52.5C 105.722,71.133 100.889,86.2997 85.5,98C 65.3763,108.045 48.543,104.211 35,86.5C 25.3405,67.4661 28.5072,50.9661 44.5,37C 49.142,33.7399 54.142,31.5732 59.5,30.5 Z"/></g>
<g><path style="opacity:1" fill="#fefefd" d="M 35.5,53.5 C 41.8333,53.5 48.1667,53.5 54.5,53.5C 54.5,55.5 54.5,57.5 54.5,59.5C 48.1667,59.5 41.8333,59.5 35.5,59.5C 35.5,57.5 35.5,55.5 35.5,53.5 Z"/></g>
<g><path style="opacity:1" fill="#fefefe" d="M 94.5,53.5 C 94.5,55.5 94.5,57.5 94.5,59.5C 88.1667,59.5 81.8333,59.5 75.5,59.5C 75.5,57.5 75.5,55.5 75.5,53.5C 81.8333,53.5 88.1667,53.5 94.5,53.5 Z"/></g>
<g><path style="opacity:1" fill="#fcfbfb" d="M 54.5,66.5 C 54.5,68.5 54.5,70.5 54.5,72.5C 48.1667,72.5 41.8333,72.5 35.5,72.5C 35.5,70.5 35.5,68.5 35.5,66.5C 41.8333,66.5 48.1667,66.5 54.5,66.5 Z"/></g>
<g><path style="opacity:1" fill="#ae70dc" d="M 35.5,53.5 C 41.979,52.5093 48.6457,52.176 55.5,52.5C 55.5,54.8333 55.5,57.1667 55.5,59.5C 57.5,59.5 59.5,59.5 61.5,59.5C 61.2053,57.2646 61.5386,55.2646 62.5,53.5C 62.5,55.5 62.5,57.5 62.5,59.5C 62.5,60.1667 62.1667,60.5 61.5,60.5C 59.5,60.5 57.5,60.5 55.5,60.5C 55.5,62.5 55.5,64.5 55.5,66.5C 55.5,68.5 55.5,70.5 55.5,72.5C 57.5,72.5 59.5,72.5 61.5,72.5C 61.5,70.5 61.5,68.5 61.5,66.5C 61.8333,66.5 62.1667,66.5 62.5,66.5C 62.5,68.5 62.5,70.5 62.5,72.5C 64.1667,72.5 65.8333,72.5 67.5,72.5C 67.5,70.5 67.5,68.5 67.5,66.5C 67.8333,66.5 68.1667,66.5 68.5,66.5C 68.5,68.5 68.5,70.5 68.5,72.5C 70.5,72.5 72.5,72.5 74.5,72.5C 74.5,70.5 74.5,68.5 74.5,66.5C 74.5,64.5 74.5,62.5 74.5,60.5C 72.5,60.5 70.5,60.5 68.5,60.5C 68.5,60.1667 68.5,59.8333 68.5,59.5C 70.5,59.5 72.5,59.5 74.5,59.5C 74.5,57.1667 74.5,54.8333 74.5,52.5C 81.3543,52.176 88.021,52.5093 94.5,53.5C 88.1667,53.5 81.8333,53.5 75.5,53.5C 75.5,55.5 75.5,57.5 75.5,59.5C 81.8333,59.5 88.1667,59.5 94.5,59.5C 88.3554,60.4902 82.0221,60.8235 75.5,60.5C 75.5,62.5 75.5,64.5 75.5,66.5C 75.5,68.5 75.5,70.5 75.5,72.5C 81.8333,72.5 88.1667,72.5 94.5,72.5C 88.3554,73.4902 82.0221,73.8235 75.5,73.5C 75.8235,80.0221 75.4902,86.3554 74.5,92.5C 74.5,86.1667 74.5,79.8333 74.5,73.5C 72.5,73.5 70.5,73.5 68.5,73.5C 68.5,79.8333 68.5,86.1667 68.5,92.5C 67.5098,86.3554 67.1765,80.0221 67.5,73.5C 65.8333,73.5 64.1667,73.5 62.5,73.5C 62.8235,80.0221 62.4902,86.3554 61.5,92.5C 61.5,86.1667 61.5,79.8333 61.5,73.5C 59.5,73.5 57.5,73.5 55.5,73.5C 55.5,79.8333 55.5,86.1667 55.5,92.5C 54.5098,86.3554 54.1765,80.0221 54.5,73.5C 47.9779,73.8235 41.6446,73.4902 35.5,72.5C 41.8333,72.5 48.1667,72.5 54.5,72.5C 54.5,70.5 54.5,68.5 54.5,66.5C 54.5,64.5 54.5,62.5 54.5,60.5C 47.9779,60.8235 41.6446,60.4902 35.5,59.5C 41.8333,59.5 48.1667,59.5 54.5,59.5C 54.5,57.5 54.5,55.5 54.5,53.5C 48.1667,53.5 41.8333,53.5 35.5,53.5 Z"/></g>
<g><path style="opacity:1" fill="#fcfbfb" d="M 62.5,66.5 C 64.1667,66.5 65.8333,66.5 67.5,66.5C 67.5,68.5 67.5,70.5 67.5,72.5C 65.8333,72.5 64.1667,72.5 62.5,72.5C 62.5,70.5 62.5,68.5 62.5,66.5 Z"/></g>
<g><path style="opacity:1" fill="#8127df" d="M 62.5,59.5 C 64.5,59.5 66.5,59.5 68.5,59.5C 68.5,59.8333 68.5,60.1667 68.5,60.5C 68.5,62.5 68.5,64.5 68.5,66.5C 68.1667,66.5 67.8333,66.5 67.5,66.5C 65.8333,66.5 64.1667,66.5 62.5,66.5C 62.1667,66.5 61.8333,66.5 61.5,66.5C 61.5,64.5 61.5,62.5 61.5,60.5C 62.1667,60.5 62.5,60.1667 62.5,59.5 Z"/></g>
<g><path style="opacity:1" fill="#fdfbfc" d="M 68.5,60.5 C 70.5,60.5 72.5,60.5 74.5,60.5C 74.5,62.5 74.5,64.5 74.5,66.5C 72.5,66.5 70.5,66.5 68.5,66.5C 68.5,64.5 68.5,62.5 68.5,60.5 Z"/></g>
<g><path style="opacity:1" fill="#fdfbfc" d="M 61.5,60.5 C 61.5,62.5 61.5,64.5 61.5,66.5C 59.5,66.5 57.5,66.5 55.5,66.5C 55.5,64.5 55.5,62.5 55.5,60.5C 57.5,60.5 59.5,60.5 61.5,60.5 Z"/></g>
<g><path style="opacity:1" fill="#faf6fa" d="M 62.5,53.5 C 64.5,53.5 66.5,53.5 68.5,53.5C 68.5,55.5 68.5,57.5 68.5,59.5C 66.5,59.5 64.5,59.5 62.5,59.5C 62.5,57.5 62.5,55.5 62.5,53.5 Z"/></g>
<g><path style="opacity:1" fill="#fcfbfb" d="M 75.5,66.5 C 81.8333,66.5 88.1667,66.5 94.5,66.5C 94.5,68.5 94.5,70.5 94.5,72.5C 88.1667,72.5 81.8333,72.5 75.5,72.5C 75.5,70.5 75.5,68.5 75.5,66.5 Z"/></g>
<g><path style="opacity:1" fill="#6c03e3" d="M 55.5,66.5 C 57.5,66.5 59.5,66.5 61.5,66.5C 61.5,68.5 61.5,70.5 61.5,72.5C 59.5,72.5 57.5,72.5 55.5,72.5C 55.5,70.5 55.5,68.5 55.5,66.5 Z"/></g>
<g><path style="opacity:1" fill="#6a01e9" d="M 68.5,66.5 C 70.5,66.5 72.5,66.5 74.5,66.5C 74.5,68.5 74.5,70.5 74.5,72.5C 72.5,72.5 70.5,72.5 68.5,72.5C 68.5,70.5 68.5,68.5 68.5,66.5 Z"/></g>
<g><path style="opacity:1" fill="#fefefe" d="M 61.5,92.5 C 59.5,92.5 57.5,92.5 55.5,92.5C 55.5,86.1667 55.5,79.8333 55.5,73.5C 57.5,73.5 59.5,73.5 61.5,73.5C 61.5,79.8333 61.5,86.1667 61.5,92.5 Z"/></g>
<g><path style="opacity:1" fill="#fefefd" d="M 74.5,92.5 C 72.5,92.5 70.5,92.5 68.5,92.5C 68.5,86.1667 68.5,79.8333 68.5,73.5C 70.5,73.5 72.5,73.5 74.5,73.5C 74.5,79.8333 74.5,86.1667 74.5,92.5 Z"/></g>
</svg>
