<?xml version="1.0" encoding="UTF-8"?>
<!DOCTYPE svg PUBLIC "-//W3C//DTD SVG 1.1//EN" "http://www.w3.org/Graphics/SVG/1.1/DTD/svg11.dtd">
<svg xmlns="http://www.w3.org/2000/svg" version="1.1" width="135px" height="135px" style="shape-rendering:geometricPrecision; text-rendering:geometricPrecision; image-rendering:optimizeQuality; fill-rule:evenodd; clip-rule:evenodd" xmlns:xlink="http://www.w3.org/1999/xlink">
<g><path style="opacity:0.943" fill="#54c3f1" d="M 24.5,-0.5 C 52.8333,-0.5 81.1667,-0.5 109.5,-0.5C 115.486,1.91489 120.986,5.24823 126,9.5C 129.661,14.4933 132.494,19.8266 134.5,25.5C 134.5,53.1667 134.5,80.8333 134.5,108.5C 132.494,114.173 129.661,119.507 126,124.5C 120.986,128.752 115.486,132.085 109.5,134.5C 81.1667,134.5 52.8333,134.5 24.5,134.5C 18.5144,132.085 13.0144,128.752 8,124.5C 4.33905,119.507 1.50572,114.173 -0.5,108.5C -0.5,80.8333 -0.5,53.1667 -0.5,25.5C 1.50572,19.8266 4.33905,14.4933 8,9.5C 13.0144,5.24823 18.5144,1.91489 24.5,-0.5 Z"/></g>
<g><path style="opacity:1" fill="#fefefe" d="M 28.5,3.5 C 53.8355,3.33336 79.1689,3.50003 104.5,4C 118.559,6.3923 127.059,14.559 130,28.5C 130.667,53.8333 130.667,79.1667 130,104.5C 127.5,119 119,127.5 104.5,130C 78.5,130.667 52.5,130.667 26.5,130C 13.6662,126.168 6.16617,117.668 4,104.5C 3.33333,78.5 3.33333,52.5 4,26.5C 7.89933,14.0954 16.066,6.42872 28.5,3.5 Z"/></g>
<g><path style="opacity:1" fill="#54c3f1" d="M 101.5,71.5 C 96.4458,65.7528 91.6125,59.7528 87,53.5C 86.31,52.2617 85.81,52.2617 85.5,53.5C 83.8757,51.1427 81.8757,48.9761 79.5,47C 70.5,46.3333 61.5,46.3333 52.5,47C 50.6396,48.8604 48.8063,50.6937 47,52.5C 42.8382,66.6749 46.3382,78.5083 57.5,88C 60.5612,90.0347 63.8945,91.2014 67.5,91.5C 67.3893,92.1174 67.056,92.6174 66.5,93C 69.1999,95.5881 71.5332,98.4214 73.5,101.5C 57.2008,104.945 44.3674,99.6113 35,85.5C 25.2341,64.8043 29.7341,47.971 48.5,35C 71.1443,26.0773 88.311,32.2439 100,53.5C 101.074,57.9597 101.907,62.4597 102.5,67C 102.492,68.7067 102.158,70.2067 101.5,71.5 Z"/></g>
<g><path style="opacity:1" fill="#eaf6f9" d="M 85.5,53.5 C 89.6392,71.1227 83.6392,83.7893 67.5,91.5C 63.8945,91.2014 60.5612,90.0347 57.5,88C 46.3382,78.5083 42.8382,66.6749 47,52.5C 48.8063,50.6937 50.6396,48.8604 52.5,47C 61.5,46.3333 70.5,46.3333 79.5,47C 81.8757,48.9761 83.8757,51.1427 85.5,53.5 Z"/></g>
<g><path style="opacity:1" fill="#4aaccd" d="M 101.5,71.5 C 98.6932,87.6388 89.3598,97.6388 73.5,101.5C 71.5332,98.4214 69.1999,95.5881 66.5,93C 67.056,92.6174 67.3893,92.1174 67.5,91.5C 83.6392,83.7893 89.6392,71.1227 85.5,53.5C 85.81,52.2617 86.31,52.2617 87,53.5C 91.6125,59.7528 96.4458,65.7528 101.5,71.5 Z"/></g>
<g><path style="opacity:1" fill="#4289a3" d="M 53.5,48.5 C 61.8599,48.1688 70.1932,48.5021 78.5,49.5C 80.1487,50.6477 81.6487,51.981 83,53.5C 86.7824,68.0661 82.6157,79.5661 70.5,88C 68.8632,88.6012 67.1966,89.1012 65.5,89.5C 57.4986,86.331 51.9986,80.6643 49,72.5C 48.3333,66.5 48.3333,60.5 49,54.5C 50.7242,52.587 52.2242,50.587 53.5,48.5 Z"/></g>
<g><path style="opacity:1" fill="#f3b543" d="M 54.5,50.5 C 62.1739,50.3336 69.8406,50.5003 77.5,51C 81.2844,54.4353 82.951,58.7687 82.5,64C 82.2856,74.8653 77.2856,82.532 67.5,87C 58.2281,85.4014 52.3948,79.9014 50,70.5C 49.3333,66.1667 49.3333,61.8333 50,57.5C 50.9042,54.7666 52.4042,52.4333 54.5,50.5 Z"/></g>
<g><path style="opacity:1" fill="#fffaf3" d="M 63.5,57.5 C 68.2065,56.8811 70.8732,58.8811 71.5,63.5C 72.5,63.5 73.5,63.5 74.5,63.5C 74.7892,67.1064 74.4558,70.6064 73.5,74C 68.5111,74.4993 63.5111,74.6659 58.5,74.5C 57.7018,67.9992 59.3685,62.3326 63.5,57.5 Z"/></g>
<g><path style="opacity:1" fill="#f7b84f" d="M 64.5,65.5 C 65.5,65.5 66.5,65.5 67.5,65.5C 67.5,67.8333 67.5,70.1667 67.5,72.5C 66.5,72.5 65.5,72.5 64.5,72.5C 64.5,70.1667 64.5,67.8333 64.5,65.5 Z"/></g>
<g><path style="opacity:1" fill="#f5ae35" d="M 64.5,58.5 C 66.9124,58.244 68.5791,59.244 69.5,61.5C 67.1667,62.8333 64.8333,62.8333 62.5,61.5C 63.1925,60.4822 63.8592,59.4822 64.5,58.5 Z"/></g>
</svg>
