<?xml version="1.0" encoding="UTF-8"?>
<!DOCTYPE svg PUBLIC "-//W3C//DTD SVG 1.1//EN" "http://www.w3.org/Graphics/SVG/1.1/DTD/svg11.dtd">
<svg xmlns="http://www.w3.org/2000/svg" version="1.1" width="135px" height="135px" style="shape-rendering:geometricPrecision; text-rendering:geometricPrecision; image-rendering:optimizeQuality; fill-rule:evenodd; clip-rule:evenodd" xmlns:xlink="http://www.w3.org/1999/xlink">
<g><path style="opacity:0.942" fill="#2e82ff" d="M 24.5,-0.5 C 52.8333,-0.5 81.1667,-0.5 109.5,-0.5C 115.486,1.91489 120.986,5.24823 126,9.5C 129.661,14.4933 132.494,19.8266 134.5,25.5C 134.5,53.1667 134.5,80.8333 134.5,108.5C 132.494,114.173 129.661,119.507 126,124.5C 120.986,128.752 115.486,132.085 109.5,134.5C 81.1667,134.5 52.8333,134.5 24.5,134.5C 18.5144,132.085 13.0144,128.752 8,124.5C 4.33905,119.507 1.50572,114.173 -0.5,108.5C -0.5,80.8333 -0.5,53.1667 -0.5,25.5C 1.50572,19.8266 4.33905,14.4933 8,9.5C 13.0144,5.24823 18.5144,1.91489 24.5,-0.5 Z"/></g>
<g><path style="opacity:1" fill="#fdfdff" d="M 26.5,3.5 C 53.1687,3.33336 79.8354,3.50003 106.5,4C 118.568,7.06749 126.401,14.5675 130,26.5C 130.667,52.8333 130.667,79.1667 130,105.5C 127.046,119.454 118.546,127.621 104.5,130C 78.5,130.667 52.5,130.667 26.5,130C 13.6662,126.168 6.16617,117.668 4,104.5C 3.33333,78.5 3.33333,52.5 4,26.5C 7.68399,14.9837 15.184,7.31707 26.5,3.5 Z"/></g>
<g><path style="opacity:1" fill="#3d88ff" d="M 62.5,36.5 C 73.4387,35.6327 81.4387,39.966 86.5,49.5C 84.8917,50.3184 83.2251,50.9851 81.5,51.5C 72.9018,39.9783 64.0685,39.645 55,50.5C 53.9495,54.3036 53.1162,58.1369 52.5,62C 35.6612,61.1571 29.8279,68.6571 35,84.5C 37.2336,86.6998 39.7336,88.5331 42.5,90C 58.8333,90.6667 75.1667,90.6667 91.5,90C 101.142,86.8857 104.642,80.3857 102,70.5C 97.1333,62.4946 90.3,60.328 81.5,64C 76.7552,67.4896 74.4218,72.1563 74.5,78C 70.789,78.1747 67.1224,78.6747 63.5,79.5C 60.6417,84.5911 56.3084,86.4245 50.5,85C 42.2439,78.2061 42.5773,71.8728 51.5,66C 56.7801,65.0379 60.7801,66.8712 63.5,71.5C 65.396,72.4656 67.396,72.7989 69.5,72.5C 72.9731,59.7534 81.3064,54.5868 94.5,57C 103.902,59.6553 108.569,65.822 108.5,75.5C 108.63,86.5421 103.297,93.3754 92.5,96C 75.8333,96.6667 59.1667,96.6667 42.5,96C 27.2952,89.77 23.1286,79.27 30,64.5C 34.3013,58.432 40.1346,55.7653 47.5,56.5C 48.6894,46.9771 53.6894,40.3104 62.5,36.5 Z"/></g>
<g><path style="opacity:1" fill="#f8faff" d="M 52.5,71.5 C 57.9836,71.4809 59.6503,73.9809 57.5,79C 50.3691,80.2112 48.7024,77.7112 52.5,71.5 Z"/></g>
</svg>
