<?xml version="1.0" encoding="UTF-8"?>
<!DOCTYPE svg PUBLIC "-//W3C//DTD SVG 1.1//EN" "http://www.w3.org/Graphics/SVG/1.1/DTD/svg11.dtd">
<svg xmlns="http://www.w3.org/2000/svg" version="1.1" width="135px" height="135px" style="shape-rendering:geometricPrecision; text-rendering:geometricPrecision; image-rendering:optimizeQuality; fill-rule:evenodd; clip-rule:evenodd" xmlns:xlink="http://www.w3.org/1999/xlink">
<g><path style="opacity:0.942" fill="#73bb5a" d="M 24.5,-0.5 C 52.8333,-0.5 81.1667,-0.5 109.5,-0.5C 115.486,1.91489 120.986,5.24823 126,9.5C 129.661,14.4933 132.494,19.8266 134.5,25.5C 134.5,53.1667 134.5,80.8333 134.5,108.5C 132.494,114.173 129.661,119.507 126,124.5C 120.986,128.752 115.486,132.085 109.5,134.5C 81.1667,134.5 52.8333,134.5 24.5,134.5C 18.5144,132.085 13.0144,128.752 8,124.5C 4.33905,119.507 1.50572,114.173 -0.5,108.5C -0.5,80.8333 -0.5,53.1667 -0.5,25.5C 1.50572,19.8266 4.33905,14.4933 8,9.5C 13.0144,5.24823 18.5144,1.91489 24.5,-0.5 Z"/></g>
<g><path style="opacity:1" fill="#fefefd" d="M 26.5,3.5 C 52.8354,3.33336 79.1688,3.50003 105.5,4C 118.122,6.62111 126.289,14.1211 130,26.5C 130.667,52.8333 130.667,79.1667 130,105.5C 127.046,119.454 118.546,127.621 104.5,130C 78.5,130.667 52.5,130.667 26.5,130C 13.6662,126.168 6.16617,117.668 4,104.5C 3.33333,78.5 3.33333,52.5 4,26.5C 7.68399,14.9837 15.184,7.31707 26.5,3.5 Z"/></g>
<g><path style="opacity:1" fill="#75bb5b" d="M 63.5,28.5 C 88.2422,29.6924 102.242,42.5257 105.5,67C 102.785,89.3819 90.2846,102.215 68,105.5C 44.3248,103.492 31.1581,90.6585 28.5,67C 30.9326,45.5589 42.5993,32.7256 63.5,28.5 Z"/></g>
<g><path style="opacity:1" fill="#fbfdfa" d="M 47.5,44.5 C 48.9778,44.238 50.3112,44.5713 51.5,45.5C 53.0947,50.5199 55.0947,55.3533 57.5,60C 63.5276,60.8303 69.5276,60.6636 75.5,59.5C 77.0562,54.7215 78.8895,50.0548 81,45.5C 82.8803,44.0705 84.3803,44.4038 85.5,46.5C 83.6371,50.755 81.9704,55.0883 80.5,59.5C 83.0865,60.48 85.7531,60.8134 88.5,60.5C 88.5,61.8333 88.5,63.1667 88.5,64.5C 74.1667,64.5 59.8333,64.5 45.5,64.5C 45.5,63.1667 45.5,61.8333 45.5,60.5C 47.5,60.5 49.5,60.5 51.5,60.5C 49.9606,55.2157 48.6272,49.8823 47.5,44.5 Z"/></g>
<g><path style="opacity:1" fill="#fbfdfa" d="M 45.5,69.5 C 59.8333,69.5 74.1667,69.5 88.5,69.5C 88.5,70.8333 88.5,72.1667 88.5,73.5C 84.1539,73.3343 79.8206,73.501 75.5,74C 72.7394,80.0183 70.4061,86.185 68.5,92.5C 66.8561,92.7135 65.3561,92.3802 64,91.5C 61.9315,85.7943 59.7648,80.1276 57.5,74.5C 53.5546,73.5091 49.5546,73.1758 45.5,73.5C 45.5,72.1667 45.5,70.8333 45.5,69.5 Z"/></g>
<g><path style="opacity:1" fill="#a9d599" d="M 69.5,75.5 C 67.5,74.1667 65.5,74.1667 63.5,75.5C 62.9569,75.44 62.6236,75.1067 62.5,74.5C 65.1667,73.1667 67.8333,73.1667 70.5,74.5C 70.3764,75.1067 70.0431,75.44 69.5,75.5 Z"/></g>
<g><path style="opacity:1" fill="#69b64d" d="M 69.5,75.5 C 68.243,78.096 67.0764,80.7627 66,83.5C 65.0594,80.846 64.2261,78.1794 63.5,75.5C 65.5,74.1667 67.5,74.1667 69.5,75.5 Z"/></g>
</svg>
