<?xml version="1.0" encoding="UTF-8"?>
<!DOCTYPE svg PUBLIC "-//W3C//DTD SVG 1.1//EN" "http://www.w3.org/Graphics/SVG/1.1/DTD/svg11.dtd">
<svg xmlns="http://www.w3.org/2000/svg" version="1.1" width="135px" height="135px" style="shape-rendering:geometricPrecision; text-rendering:geometricPrecision; image-rendering:optimizeQuality; fill-rule:evenodd; clip-rule:evenodd" xmlns:xlink="http://www.w3.org/1999/xlink">
<g><path style="opacity:0.942" fill="#182bbd" d="M 24.5,-0.5 C 52.8333,-0.5 81.1667,-0.5 109.5,-0.5C 115.486,1.91489 120.986,5.24823 126,9.5C 129.661,14.4933 132.494,19.8266 134.5,25.5C 134.5,53.1667 134.5,80.8333 134.5,108.5C 132.494,114.173 129.661,119.507 126,124.5C 120.986,128.752 115.486,132.085 109.5,134.5C 81.1667,134.5 52.8333,134.5 24.5,134.5C 18.5144,132.085 13.0144,128.752 8,124.5C 4.33905,119.507 1.50572,114.173 -0.5,108.5C -0.5,80.8333 -0.5,53.1667 -0.5,25.5C 1.50572,19.8266 4.33905,14.4933 8,9.5C 13.0144,5.24823 18.5144,1.91489 24.5,-0.5 Z"/></g>
<g><path style="opacity:1" fill="#fdfdfe" d="M 26.5,3.5 C 53.1687,3.33336 79.8354,3.50003 106.5,4C 118.568,7.06749 126.401,14.5675 130,26.5C 130.667,52.8333 130.667,79.1667 130,105.5C 127.279,118.554 119.446,126.721 106.5,130C 79.8333,130.667 53.1667,130.667 26.5,130C 14.5675,126.401 7.06749,118.568 4,106.5C 3.33333,79.8333 3.33333,53.1667 4,26.5C 7.68399,14.9837 15.184,7.31707 26.5,3.5 Z"/></g>
<g><path style="opacity:1" fill="#e9ba23" d="M 64.5,26.5 C 66.7224,26.178 68.5557,26.8446 70,28.5C 69.5431,32.7843 69.5431,37.1177 70,41.5C 73.94,42.8708 77.7734,44.5374 81.5,46.5C 82.7112,47.2739 82.7112,48.1072 81.5,49C 76.6889,47.1135 71.6889,45.2802 66.5,43.5C 61.5586,44.9227 56.8919,46.9227 52.5,49.5C 51.269,48.3493 51.269,47.1827 52.5,46C 55.7148,44.2257 59.0482,42.7257 62.5,41.5C 64.4631,36.5511 65.1298,31.5511 64.5,26.5 Z"/></g>
<g><path style="opacity:1" fill="#3174fa" d="M 67.5,94.5 C 66.5773,98.0641 66.244,101.731 66.5,105.5C 47.7348,96.2524 40.4014,81.2524 44.5,60.5C 49.6965,55.9018 55.6965,52.9018 62.5,51.5C 61.5007,63.1504 61.334,74.817 62,86.5C 63.3733,89.6685 65.2066,92.3352 67.5,94.5 Z"/></g>
<g><path style="opacity:1" fill="#1829bb" d="M 66.5,105.5 C 66.244,101.731 66.5773,98.0641 67.5,94.5C 68.9867,91.5266 70.4867,88.5266 72,85.5C 72.1332,74.1361 72.2998,62.8027 72.5,51.5C 79.0343,53.6815 84.8676,57.0149 90,61.5C 92.2872,77.307 87.4539,90.4737 75.5,101C 72.7568,103.038 69.7568,104.538 66.5,105.5 Z"/></g>
</svg>
