<?xml version="1.0" encoding="UTF-8"?>
<!DOCTYPE svg PUBLIC "-//W3C//DTD SVG 1.1//EN" "http://www.w3.org/Graphics/SVG/1.1/DTD/svg11.dtd">
<svg xmlns="http://www.w3.org/2000/svg" version="1.1" width="135px" height="135px" style="shape-rendering:geometricPrecision; text-rendering:geometricPrecision; image-rendering:optimizeQuality; fill-rule:evenodd; clip-rule:evenodd" xmlns:xlink="http://www.w3.org/1999/xlink">
<g><path style="opacity:0.942" fill="#2e5a8a" d="M 24.5,-0.5 C 52.8333,-0.5 81.1667,-0.5 109.5,-0.5C 115.486,1.91489 120.986,5.24823 126,9.5C 129.661,14.4933 132.494,19.8266 134.5,25.5C 134.5,53.1667 134.5,80.8333 134.5,108.5C 132.494,114.173 129.661,119.507 126,124.5C 120.986,128.752 115.486,132.085 109.5,134.5C 81.1667,134.5 52.8333,134.5 24.5,134.5C 18.5144,132.085 13.0144,128.752 8,124.5C 4.33905,119.507 1.50572,114.173 -0.5,108.5C -0.5,80.8333 -0.5,53.1667 -0.5,25.5C 1.50572,19.8266 4.33905,14.4933 8,9.5C 13.0144,5.24823 18.5144,1.91489 24.5,-0.5 Z"/></g>
<g><path style="opacity:1" fill="#fdfdfe" d="M 26.5,3.5 C 53.1687,3.33336 79.8354,3.50003 106.5,4C 118.568,7.06749 126.401,14.5675 130,26.5C 130.667,52.8333 130.667,79.1667 130,105.5C 127.046,119.454 118.546,127.621 104.5,130C 78.5,130.667 52.5,130.667 26.5,130C 13.6662,126.168 6.16617,117.668 4,104.5C 3.33333,78.5 3.33333,52.5 4,26.5C 7.68399,14.9837 15.184,7.31707 26.5,3.5 Z"/></g>
<g><path style="opacity:1" fill="#2c5889" d="M 58.5,28.5 C 82.0476,26.2405 97.5476,36.2405 105,58.5C 107.63,82.5153 97.463,98.0153 74.5,105C 52.2818,107.646 37.4485,98.4797 30,77.5C 26.0952,53.3035 35.5952,36.9702 58.5,28.5 Z"/></g>
<g><path style="opacity:1" fill="#7a98b7" d="M 75.5,52.5 C 78.3553,51.1968 81.3553,51.1968 84.5,52.5C 84.3764,53.1067 84.0431,53.44 83.5,53.5C 81.0521,52.5269 78.3854,52.1936 75.5,52.5 Z"/></g>
<g><path style="opacity:1" fill="#f8f9fb" d="M 75.5,52.5 C 78.3854,52.1936 81.0521,52.5269 83.5,53.5C 79.7007,62.8913 75.7007,72.2246 71.5,81.5C 68.5,82.8333 65.5,82.8333 62.5,81.5C 58.1002,71.959 54.1002,62.2923 50.5,52.5C 53.5719,52.1826 56.5719,52.5159 59.5,53.5C 62,59.1667 64.5,64.8333 67,70.5C 70.104,64.6254 72.9373,58.6254 75.5,52.5 Z"/></g>
</svg>
