<?xml version="1.0" encoding="UTF-8"?>
<!DOCTYPE svg PUBLIC "-//W3C//DTD SVG 1.1//EN" "http://www.w3.org/Graphics/SVG/1.1/DTD/svg11.dtd">
<svg xmlns="http://www.w3.org/2000/svg" version="1.1" width="135px" height="135px" style="shape-rendering:geometricPrecision; text-rendering:geometricPrecision; image-rendering:optimizeQuality; fill-rule:evenodd; clip-rule:evenodd" xmlns:xlink="http://www.w3.org/1999/xlink">
<g><path style="opacity:0.995" fill="#43c7bd" d="M 24.5,-0.5 C 52.8333,-0.5 81.1667,-0.5 109.5,-0.5C 121.906,3.57322 129.906,11.9066 133.5,24.5C 132.292,25.2341 130.959,25.5674 129.5,25.5C 125.599,13.2113 117.265,6.04462 104.5,4C 79.1667,3.33333 53.8333,3.33333 28.5,4C 19.758,5.9298 12.758,10.4298 7.5,17.5C 6.04125,17.5674 4.70792,17.2341 3.5,16.5C 8.42168,8.24297 15.4217,2.5763 24.5,-0.5 Z"/></g>
<g><path style="opacity:1" fill="#fefefe" d="M 129.5,25.5 C 130.342,30.787 130.676,36.1203 130.5,41.5C 130.5,49.8333 130.5,58.1667 130.5,66.5C 130.5,74.1667 130.5,81.8333 130.5,89.5C 133.396,108.386 126.396,121.72 109.5,129.5C 82.1859,130.623 54.8526,130.79 27.5,130C 14.915,126.916 7.24832,119.082 4.5,106.5C 3.56322,98.555 3.22989,90.555 3.5,82.5C 3.5,74.1667 3.5,65.8333 3.5,57.5C 3.5,52.1667 3.5,46.8333 3.5,41.5C 2.75697,33.1008 4.0903,25.1008 7.5,17.5C 12.758,10.4298 19.758,5.9298 28.5,4C 53.8333,3.33333 79.1667,3.33333 104.5,4C 117.265,6.04462 125.599,13.2113 129.5,25.5 Z"/></g>
<g><path style="opacity:0.992" fill="#68b8c6" d="M 3.5,16.5 C 4.70792,17.2341 6.04125,17.5674 7.5,17.5C 4.0903,25.1008 2.75697,33.1008 3.5,41.5C 2.16667,41.5 0.833333,41.5 -0.5,41.5C -0.5,36.1667 -0.5,30.8333 -0.5,25.5C 0.51728,22.4564 1.85061,19.4564 3.5,16.5 Z"/></g>
<g><path style="opacity:1" fill="#6fb4c8" d="M 133.5,24.5 C 133.5,25.1667 133.833,25.5 134.5,25.5C 134.5,30.8333 134.5,36.1667 134.5,41.5C 133.167,41.5 131.833,41.5 130.5,41.5C 130.676,36.1203 130.342,30.787 129.5,25.5C 130.959,25.5674 132.292,25.2341 133.5,24.5 Z"/></g>
<g><path style="opacity:1" fill="#4ac4c0" d="M 45.5,40.5 C 53.6499,39.5073 61.9832,39.1739 70.5,39.5C 68.9581,40.1635 67.2914,40.8302 65.5,41.5C 72.7503,45.1376 79.7503,48.8043 86.5,52.5C 84.5,52.5 82.5,52.5 80.5,52.5C 72.476,48.9902 64.476,45.1569 56.5,41C 53.1832,40.5017 49.8499,40.335 46.5,40.5C 46.1667,40.5 45.8333,40.5 45.5,40.5 Z"/></g>
<g><path style="opacity:1" fill="#13e1ab" d="M 98.5,40.5 C 96.5,43.1667 94.1667,45.5 91.5,47.5C 90.2617,47.19 90.2617,46.69 91.5,46C 90.2341,45.6905 89.0674,45.1905 88,44.5C 87.6667,44.8333 87.3333,45.1667 87,45.5C 86.5172,44.552 86.3505,43.552 86.5,42.5C 82.4496,42.1216 78.1163,41.6216 73.5,41C 81.8267,40.5003 90.16,40.3336 98.5,40.5 Z"/></g>
<g><path style="opacity:1" fill="#649bcc" d="M 45.5,40.5 C 45.8333,40.5 46.1667,40.5 46.5,40.5C 46.3893,41.1174 46.056,41.6174 45.5,42C 47.1161,42.6152 48.4495,43.6152 49.5,45C 53.8036,47.4712 58.137,49.4712 62.5,51C 60.9419,51.21 59.6085,51.71 58.5,52.5C 50.8045,52.8308 43.1378,52.4975 35.5,51.5C 38.1453,47.1889 41.4786,43.5223 45.5,40.5 Z"/></g>
<g><path style="opacity:1" fill="#4eb0c3" d="M 46.5,40.5 C 49.8499,40.335 53.1832,40.5017 56.5,41C 64.476,45.1569 72.476,48.9902 80.5,52.5C 73.1667,52.5 65.8333,52.5 58.5,52.5C 59.6085,51.71 60.9419,51.21 62.5,51C 58.137,49.4712 53.8036,47.4712 49.5,45C 48.4495,43.6152 47.1161,42.6152 45.5,42C 46.056,41.6174 46.3893,41.1174 46.5,40.5 Z"/></g>
<g><path style="opacity:1" fill="#33d3b7" d="M 70.5,39.5 C 80.015,39.1731 89.3483,39.5064 98.5,40.5C 90.16,40.3336 81.8267,40.5003 73.5,41C 78.1163,41.6216 82.4496,42.1216 86.5,42.5C 86.3505,43.552 86.5172,44.552 87,45.5C 87.3333,45.1667 87.6667,44.8333 88,44.5C 89.0674,45.1905 90.2341,45.6905 91.5,46C 90.2617,46.69 90.2617,47.19 91.5,47.5C 90.5,49.8333 88.8333,51.5 86.5,52.5C 79.7503,48.8043 72.7503,45.1376 65.5,41.5C 67.2914,40.8302 68.9581,40.1635 70.5,39.5 Z"/></g>
<g><path style="opacity:1" fill="#84a4d0" d="M -0.5,41.5 C 0.833333,41.5 2.16667,41.5 3.5,41.5C 3.5,46.8333 3.5,52.1667 3.5,57.5C 2.0357,56.5946 0.702365,56.5946 -0.5,57.5C -0.5,52.1667 -0.5,46.8333 -0.5,41.5 Z"/></g>
<g><path style="opacity:1" fill="#5fabc8" d="M 55.5,58.5 C 66.1719,58.3335 76.8385,58.5002 87.5,59C 91,62.5 94.5,66 98,69.5C 98.5281,70.816 98.0281,71.4827 96.5,71.5C 90.3677,69.1833 84.5344,66.1833 79,62.5C 77.4435,63.2052 76.2768,62.5385 75.5,60.5C 70.2079,59.5052 64.8746,59.1718 59.5,59.5C 57.901,59.7678 56.5676,59.4345 55.5,58.5 Z"/></g>
<g><path style="opacity:1" fill="#7d8cd6" d="M 35.5,59.5 C 41.979,58.5093 48.6457,58.176 55.5,58.5C 56.5676,59.4345 57.901,59.7678 59.5,59.5C 65.6134,64.5568 72.6134,68.0568 80.5,70C 79.5842,70.2784 78.9175,70.7784 78.5,71.5C 74.1667,71.5 69.8333,71.5 65.5,71.5C 67.9686,70.6829 70.6353,70.1829 73.5,70C 70.666,69.9546 68.166,69.1213 66,67.5C 65.6667,67.8333 65.3333,68.1667 65,68.5C 61.2792,65.2984 57.1125,62.7984 52.5,61C 52.8333,60.6667 53.1667,60.3333 53.5,60C 47.5092,59.5005 41.5092,59.3338 35.5,59.5 Z"/></g>
<g><path style="opacity:1" fill="#8970dd" d="M 35.5,59.5 C 41.5092,59.3338 47.5092,59.5005 53.5,60C 53.1667,60.3333 52.8333,60.6667 52.5,61C 57.1125,62.7984 61.2792,65.2984 65,68.5C 65.3333,68.1667 65.6667,67.8333 66,67.5C 68.166,69.1213 70.666,69.9546 73.5,70C 70.6353,70.1829 67.9686,70.6829 65.5,71.5C 58.825,71.6663 52.1583,71.4996 45.5,71C 41.5615,67.5706 38.2281,63.7372 35.5,59.5 Z"/></g>
<g><path style="opacity:1" fill="#6596cd" d="M 59.5,59.5 C 64.8746,59.1718 70.2079,59.5052 75.5,60.5C 76.2768,62.5385 77.4435,63.2052 79,62.5C 84.5344,66.1833 90.3677,69.1833 96.5,71.5C 90.5,71.5 84.5,71.5 78.5,71.5C 78.9175,70.7784 79.5842,70.2784 80.5,70C 72.6134,68.0568 65.6134,64.5568 59.5,59.5 Z"/></g>
<g><path style="opacity:1" fill="#8c9dd4" d="M 130.5,41.5 C 131.833,41.5 133.167,41.5 134.5,41.5C 134.5,49.8333 134.5,58.1667 134.5,66.5C 133.167,66.5 131.833,66.5 130.5,66.5C 130.5,58.1667 130.5,49.8333 130.5,41.5 Z"/></g>
<g><path style="opacity:1" fill="#9d8adc" d="M 3.5,57.5 C 3.5,65.8333 3.5,74.1667 3.5,82.5C 2.16667,83.8333 0.833333,83.8333 -0.5,82.5C -0.5,74.1667 -0.5,65.8333 -0.5,57.5C 0.702365,56.5946 2.0357,56.5946 3.5,57.5 Z"/></g>
<g><path style="opacity:1" fill="#8e86db" d="M 45.5,78.5 C 63.0045,77.1727 80.6712,77.1727 98.5,78.5C 96.1456,81.5211 93.4789,84.1877 90.5,86.5C 86.1377,85.1497 82.1377,82.9831 78.5,80C 79.5,79.6667 80.5,79.3333 81.5,79C 77.8484,78.5014 74.1817,78.3347 70.5,78.5C 62.1667,78.5 53.8333,78.5 45.5,78.5 Z"/></g>
<g><path style="opacity:1" fill="#ac4deb" d="M 45.5,78.5 C 53.8333,78.5 62.1667,78.5 70.5,78.5C 67.6946,79.3195 64.6946,79.8195 61.5,80C 66.9675,84.0671 72.9675,87.0671 79.5,89C 76.3054,89.1805 73.3054,89.6805 70.5,90.5C 62.8333,90.5 55.1667,90.5 47.5,90.5C 50.6414,89.6787 53.9748,89.1787 57.5,89C 54.8333,88.3333 52.1667,87.6667 49.5,87C 48.0226,84.8515 46.0226,83.5182 43.5,83C 44.8228,82.1841 45.4894,81.0174 45.5,79.5C 45.5,79.1667 45.5,78.8333 45.5,78.5 Z"/></g>
<g><path style="opacity:1" fill="#9169e0" d="M 70.5,78.5 C 74.1817,78.3347 77.8484,78.5014 81.5,79C 80.5,79.3333 79.5,79.6667 78.5,80C 82.1377,82.9831 86.1377,85.1497 90.5,86.5C 90.0557,88.1132 89.0557,89.2798 87.5,90C 81.8431,90.4994 76.1764,90.6661 70.5,90.5C 73.3054,89.6805 76.3054,89.1805 79.5,89C 72.9675,87.0671 66.9675,84.0671 61.5,80C 64.6946,79.8195 67.6946,79.3195 70.5,78.5 Z"/></g>
<g><path style="opacity:1" fill="#a381e0" d="M 130.5,66.5 C 131.833,66.5 133.167,66.5 134.5,66.5C 134.5,74.1667 134.5,81.8333 134.5,89.5C 133.298,90.4054 131.964,90.4054 130.5,89.5C 130.5,81.8333 130.5,74.1667 130.5,66.5 Z"/></g>
<g><path style="opacity:1" fill="#c92af7" d="M 45.5,79.5 C 45.4894,81.0174 44.8228,82.1841 43.5,83C 46.0226,83.5182 48.0226,84.8515 49.5,87C 52.1667,87.6667 54.8333,88.3333 57.5,89C 53.9748,89.1787 50.6414,89.6787 47.5,90.5C 43.4454,90.8242 39.4454,90.4909 35.5,89.5C 38.521,85.8123 41.8544,82.4789 45.5,79.5 Z"/></g>
<g><path style="opacity:0.986" fill="#b06fe7" d="M -0.5,82.5 C 0.833333,83.8333 2.16667,83.8333 3.5,82.5C 3.22989,90.555 3.56322,98.555 4.5,106.5C 2.83333,105.833 1.16667,105.167 -0.5,104.5C -0.5,97.1667 -0.5,89.8333 -0.5,82.5 Z"/></g>
<g><path style="opacity:0.941" fill="#b85bed" d="M 130.5,89.5 C 131.964,90.4054 133.298,90.4054 134.5,89.5C 134.5,95.8333 134.5,102.167 134.5,108.5C 132.494,114.173 129.661,119.507 126,124.5C 123.198,127.146 120.032,129.146 116.5,130.5C 114.393,129.532 112.059,129.198 109.5,129.5C 126.396,121.72 133.396,108.386 130.5,89.5 Z"/></g>
<g><path style="opacity:0.991" fill="#bc47f1" d="M -0.5,104.5 C 1.16667,105.167 2.83333,105.833 4.5,106.5C 7.24832,119.082 14.915,126.916 27.5,130C 54.8526,130.79 82.1859,130.623 109.5,129.5C 112.059,129.198 114.393,129.532 116.5,130.5C 114.297,132.1 111.964,133.433 109.5,134.5C 81.1667,134.5 52.8333,134.5 24.5,134.5C 18.5144,132.085 13.0144,128.752 8,124.5C 4.33905,119.507 1.50572,114.173 -0.5,108.5C -0.5,107.167 -0.5,105.833 -0.5,104.5 Z"/></g>
</svg>
