<?xml version="1.0" encoding="UTF-8"?>
<!DOCTYPE svg PUBLIC "-//W3C//DTD SVG 1.1//EN" "http://www.w3.org/Graphics/SVG/1.1/DTD/svg11.dtd">
<svg xmlns="http://www.w3.org/2000/svg" version="1.1" width="135px" height="135px" style="shape-rendering:geometricPrecision; text-rendering:geometricPrecision; image-rendering:optimizeQuality; fill-rule:evenodd; clip-rule:evenodd" xmlns:xlink="http://www.w3.org/1999/xlink">
<g><path style="opacity:0.942" fill="#212630" d="M 24.5,-0.5 C 52.8333,-0.5 81.1667,-0.5 109.5,-0.5C 115.486,1.91489 120.986,5.24823 126,9.5C 129.661,14.4933 132.494,19.8266 134.5,25.5C 134.5,53.1667 134.5,80.8333 134.5,108.5C 132.494,114.173 129.661,119.507 126,124.5C 120.986,128.752 115.486,132.085 109.5,134.5C 81.1667,134.5 52.8333,134.5 24.5,134.5C 18.5144,132.085 13.0144,128.752 8,124.5C 4.33905,119.507 1.50572,114.173 -0.5,108.5C -0.5,80.8333 -0.5,53.1667 -0.5,25.5C 1.50572,19.8266 4.33905,14.4933 8,9.5C 13.0144,5.24823 18.5144,1.91489 24.5,-0.5 Z"/></g>
<g><path style="opacity:1" fill="#fdfdfd" d="M 26.5,3.5 C 53.1687,3.33336 79.8354,3.50003 106.5,4C 118.568,7.06749 126.401,14.5675 130,26.5C 130.667,52.8333 130.667,79.1667 130,105.5C 127.279,118.554 119.446,126.721 106.5,130C 79.8333,130.667 53.1667,130.667 26.5,130C 14.5675,126.401 7.06749,118.568 4,106.5C 3.33333,79.8333 3.33333,53.1667 4,26.5C 7.68399,14.9837 15.184,7.31707 26.5,3.5 Z"/></g>
<g><path style="opacity:1" fill="#787b81" d="M 35.5,36.5 C 30.6367,36.1805 25.97,36.5139 21.5,37.5C 20.9569,37.44 20.6236,37.1067 20.5,36.5C 25.6523,35.1863 30.6523,35.1863 35.5,36.5 Z"/></g>
<g><path style="opacity:1" fill="#222731" d="M 35.5,36.5 C 39.8656,49.2716 43.8656,62.2716 47.5,75.5C 50.8162,69.3854 53.6496,63.0521 56,56.5C 62.2861,48.8887 68.9528,48.5553 76,55.5C 78.7442,61.9095 81.5775,68.2429 84.5,74.5C 85.3589,72.0002 86.3589,69.6669 87.5,67.5C 92.3633,67.1805 97.03,67.5139 101.5,68.5C 98.8273,77.5162 95.9939,86.5162 93,95.5C 92.1667,96.3333 91.3333,97.1667 90.5,98C 86.5,98.6667 82.5,98.6667 78.5,98C 77.6667,97.1667 76.8333,96.3333 76,95.5C 72.9418,87.7166 69.6084,80.0499 66,72.5C 62.5528,81.2237 58.7194,89.7237 54.5,98C 50.1667,98.6667 45.8333,98.6667 41.5,98C 40.6667,97.1667 39.8333,96.3333 39,95.5C 33.267,76.1346 27.4337,56.8012 21.5,37.5C 25.97,36.5139 30.6367,36.1805 35.5,36.5 Z"/></g>
<g><path style="opacity:1" fill="#262b35" d="M 104.5,58.5 C 99.6367,58.8195 94.97,58.4861 90.5,57.5C 92.0322,50.3719 94.0322,43.3719 96.5,36.5C 101.456,35.5059 106.456,35.1725 111.5,35.5C 109.364,43.2404 107.031,50.9071 104.5,58.5 Z"/></g>
<g><path style="opacity:1" fill="#6c6f76" d="M 90.5,57.5 C 94.97,58.4861 99.6367,58.8195 104.5,58.5C 99.6523,59.8137 94.6523,59.8137 89.5,58.5C 89.6236,57.8933 89.9569,57.56 90.5,57.5 Z"/></g>
<g><path style="opacity:1" fill="#64676e" d="M 87.5,67.5 C 92.3477,66.1863 97.3477,66.1863 102.5,67.5C 102.376,68.1067 102.043,68.44 101.5,68.5C 97.03,67.5139 92.3633,67.1805 87.5,67.5 Z"/></g>
</svg>
