<?xml version="1.0" encoding="UTF-8"?>
<!DOCTYPE svg PUBLIC "-//W3C//DTD SVG 1.1//EN" "http://www.w3.org/Graphics/SVG/1.1/DTD/svg11.dtd">
<svg xmlns="http://www.w3.org/2000/svg" version="1.1" width="135px" height="135px" style="shape-rendering:geometricPrecision; text-rendering:geometricPrecision; image-rendering:optimizeQuality; fill-rule:evenodd; clip-rule:evenodd" xmlns:xlink="http://www.w3.org/1999/xlink">
<g><path style="opacity:0.942" fill="#ff5d02" d="M 24.5,-0.5 C 52.8333,-0.5 81.1667,-0.5 109.5,-0.5C 115.486,1.91489 120.986,5.24823 126,9.5C 129.661,14.4933 132.494,19.8266 134.5,25.5C 134.5,53.1667 134.5,80.8333 134.5,108.5C 132.494,114.173 129.661,119.507 126,124.5C 120.986,128.752 115.486,132.085 109.5,134.5C 81.1667,134.5 52.8333,134.5 24.5,134.5C 18.5144,132.085 13.0144,128.752 8,124.5C 4.33905,119.507 1.50572,114.173 -0.5,108.5C -0.5,80.8333 -0.5,53.1667 -0.5,25.5C 1.50572,19.8266 4.33905,14.4933 8,9.5C 13.0144,5.24823 18.5144,1.91489 24.5,-0.5 Z"/></g>
<g><path style="opacity:1" fill="#fffcfb" d="M 27.5,3.5 C 53.8354,3.33336 80.1688,3.50003 106.5,4C 119.009,7.17549 126.842,15.0088 130,27.5C 130.667,53.5 130.667,79.5 130,105.5C 127.046,119.454 118.546,127.621 104.5,130C 78.8333,130.667 53.1667,130.667 27.5,130C 14.1087,126.609 6.27532,118.109 4,104.5C 3.33333,78.8333 3.33333,53.1667 4,27.5C 7.34904,14.9853 15.1824,6.98533 27.5,3.5 Z"/></g>
<g><path style="opacity:1" fill="#ff6615" d="M 69.5,25.5 C 72.1667,25.5 74.8333,25.5 77.5,25.5C 77.5,27.1667 77.5,28.8333 77.5,30.5C 62.4045,32.0932 53.5712,40.4265 51,55.5C 49.6439,56.3802 48.1439,56.7135 46.5,56.5C 46.3952,47.209 49.7286,39.3756 56.5,33C 60.6017,29.9539 64.935,27.4539 69.5,25.5 Z"/></g>
<g><path style="opacity:1" fill="#ff630d" d="M 70.5,33.5 C 72.8333,33.5 75.1667,33.5 77.5,33.5C 77.6567,34.8734 77.49,36.2068 77,37.5C 66.9871,39.5129 60.9871,45.5129 59,55.5C 57.6439,56.3802 56.1439,56.7135 54.5,56.5C 54.485,48.3317 57.8184,41.8317 64.5,37C 66.7274,36.059 68.7274,34.8923 70.5,33.5 Z"/></g>
<g><path style="opacity:1" fill="#ff630d" d="M 71.5,41.5 C 73.5,41.5 75.5,41.5 77.5,41.5C 78.1258,45.3754 76.4592,47.2087 72.5,47C 69.2514,49.2343 67.2514,52.2343 66.5,56C 65.2068,56.49 63.8734,56.6567 62.5,56.5C 62.2475,53.6802 62.7475,51.0135 64,48.5C 66.3959,45.9334 68.8959,43.6 71.5,41.5 Z"/></g>
<g><path style="opacity:1" fill="#ff6615" d="M 77.5,46.5 C 96.8333,47.8333 107.167,58.1667 108.5,77.5C 106.833,77.5 105.167,77.5 103.5,77.5C 101.907,62.4045 93.5735,53.5712 78.5,51C 77.6198,49.6439 77.2865,48.1439 77.5,46.5 Z"/></g>
<g><path style="opacity:1" fill="#ff6410" d="M 77.5,54.5 C 92.1854,55.1854 99.8521,62.8521 100.5,77.5C 99.1266,77.6567 97.7932,77.49 96.5,77C 94.5,67 88.5,61 78.5,59C 77.6198,57.6439 77.2865,56.1439 77.5,54.5 Z"/></g>
<g><path style="opacity:1" fill="#ff6513" d="M 25.5,56.5 C 27.1667,56.5 28.8333,56.5 30.5,56.5C 32.1309,71.6315 40.4643,80.4648 55.5,83C 56.3802,84.3561 56.7135,85.8561 56.5,87.5C 37.1667,86.1667 26.8333,75.8333 25.5,56.5 Z"/></g>
<g><path style="opacity:1" fill="#ff630d" d="M 33.5,56.5 C 34.8734,56.3433 36.2068,56.51 37.5,57C 39.5129,67.0129 45.5129,73.0129 55.5,75C 56.3802,76.3561 56.7135,77.8561 56.5,79.5C 42.2046,78.538 34.5379,70.8713 33.5,56.5 Z"/></g>
<g><path style="opacity:1" fill="#ff630e" d="M 41.5,56.5 C 42.8734,56.3433 44.2068,56.51 45.5,57C 47.0352,62.5353 50.5352,66.0353 56,67.5C 56.49,68.7932 56.6567,70.1266 56.5,71.5C 50.5983,71.9653 46.0983,69.6319 43,64.5C 41.9207,61.9373 41.4207,59.2706 41.5,56.5 Z"/></g>
<g><path style="opacity:1" fill="#ff6513" d="M 77.5,62.5 C 87.5,62.5 92.5,67.5 92.5,77.5C 88.6246,78.1258 86.7913,76.4592 87,72.5C 84.6543,69.4955 81.6543,67.4955 78,66.5C 77.51,65.2068 77.3433,63.8734 77.5,62.5 Z"/></g>
<g><path style="opacity:1" fill="#ff6410" d="M 67.5,77.5 C 68.8333,77.5 70.1667,77.5 71.5,77.5C 71.1849,87.1484 66.1849,92.1484 56.5,92.5C 56.3433,91.1266 56.51,89.7932 57,88.5C 62.7274,86.9397 66.2274,83.273 67.5,77.5 Z"/></g>
<g><path style="opacity:1" fill="#ff630f" d="M 75.5,77.5 C 76.8333,77.5 78.1667,77.5 79.5,77.5C 78.7379,92.0513 71.0713,99.7179 56.5,100.5C 56.2865,98.8561 56.6198,97.3561 57.5,96C 67.7304,93.9364 73.7304,87.7697 75.5,77.5 Z"/></g>
<g><path style="opacity:1" fill="#ff6616" d="M 82.5,77.5 C 84.1667,77.5 85.8333,77.5 87.5,77.5C 86.1667,96.8333 75.8333,107.167 56.5,108.5C 56.5,106.833 56.5,105.167 56.5,103.5C 72.1667,101.833 80.8333,93.1667 82.5,77.5 Z"/></g>
</svg>
