<?xml version="1.0" encoding="UTF-8"?>
<!DOCTYPE svg PUBLIC "-//W3C//DTD SVG 1.1//EN" "http://www.w3.org/Graphics/SVG/1.1/DTD/svg11.dtd">
<svg xmlns="http://www.w3.org/2000/svg" version="1.1" width="135px" height="135px" style="shape-rendering:geometricPrecision; text-rendering:geometricPrecision; image-rendering:optimizeQuality; fill-rule:evenodd; clip-rule:evenodd" xmlns:xlink="http://www.w3.org/1999/xlink">
<g><path style="opacity:0.942" fill="#229ce9" d="M 24.5,-0.5 C 52.8333,-0.5 81.1667,-0.5 109.5,-0.5C 115.486,1.91489 120.986,5.24823 126,9.5C 129.661,14.4933 132.494,19.8266 134.5,25.5C 134.5,53.1667 134.5,80.8333 134.5,108.5C 132.494,114.173 129.661,119.507 126,124.5C 120.986,128.752 115.486,132.085 109.5,134.5C 81.1667,134.5 52.8333,134.5 24.5,134.5C 18.5144,132.085 13.0144,128.752 8,124.5C 4.33905,119.507 1.50572,114.173 -0.5,108.5C -0.5,80.8333 -0.5,53.1667 -0.5,25.5C 1.50572,19.8266 4.33905,14.4933 8,9.5C 13.0144,5.24823 18.5144,1.91489 24.5,-0.5 Z"/></g>
<g><path style="opacity:1" fill="#fdfefe" d="M 26.5,3.5 C 52.5021,3.33336 78.5021,3.50003 104.5,4C 117.668,6.16617 126.168,13.6662 130,26.5C 130.667,52.8333 130.667,79.1667 130,105.5C 127.046,119.454 118.546,127.621 104.5,130C 78.5,130.667 52.5,130.667 26.5,130C 13.6662,126.168 6.16617,117.668 4,104.5C 3.33333,78.5 3.33333,52.5 4,26.5C 7.68399,14.9837 15.184,7.31707 26.5,3.5 Z"/></g>
<g><path style="opacity:1" fill="#249ce9" d="M 58.5,27.5 C 92.1506,26.6497 107.984,42.9831 106,76.5C 97.7601,99.209 81.5935,109.042 57.5,106C 35.3904,97.8731 25.557,82.0398 28,58.5C 33.0172,42.9836 43.1839,32.6502 58.5,27.5 Z"/></g>
<g><path style="opacity:1" fill="#eff7fd" d="M 70.5,64.5 C 74.4425,64.8746 78.1091,65.8746 81.5,67.5C 77.774,67.1774 74.1073,67.5108 70.5,68.5C 71.624,69.914 72.624,71.414 73.5,73C 76.992,72.9296 79.992,73.7629 82.5,75.5C 80.076,75.1924 77.7427,75.5258 75.5,76.5C 75.6236,77.1067 75.9569,77.44 76.5,77.5C 79.4737,82.1491 82.4737,86.8157 85.5,91.5C 84.1667,92.8333 82.8333,92.8333 81.5,91.5C 78.5,86.8333 75.5,82.1667 72.5,77.5C 69.2156,76.343 65.8823,76.1764 62.5,77C 59.209,81.7478 56.0423,86.5812 53,91.5C 52.2753,92.0585 51.4419,92.3918 50.5,92.5C 49.0683,92.2668 48.5683,91.6001 49,90.5C 52.2897,86.0876 55.4563,81.5876 58.5,77C 56.5273,76.5045 54.5273,76.3379 52.5,76.5C 52.5,75.5 52.5,74.5 52.5,73.5C 57.691,74.7661 61.3577,73.0994 63.5,68.5C 59.8927,67.5108 56.226,67.1774 52.5,67.5C 56.0844,65.8818 60.0844,64.8818 64.5,64.5C 64.3764,63.8933 64.0431,63.56 63.5,63.5C 59.1906,56.8983 54.8573,50.2316 50.5,43.5C 51.8333,42.1667 53.1667,42.1667 54.5,43.5C 58.4755,50.1309 62.8088,56.4642 67.5,62.5C 72.1638,56.5091 76.3305,50.1758 80,43.5C 81.3876,42.4464 82.8876,42.2797 84.5,43C 79.6984,50.1098 75.0317,57.2764 70.5,64.5 Z"/></g>
<g><path style="opacity:1" fill="#addaf7" d="M 63.5,63.5 C 64.0431,63.56 64.3764,63.8933 64.5,64.5C 60.0844,64.8818 56.0844,65.8818 52.5,67.5C 51.596,66.791 51.2627,65.791 51.5,64.5C 55.7016,64.8168 59.7016,64.4834 63.5,63.5 Z"/></g>
<g><path style="opacity:1" fill="#b2dcf7" d="M 70.5,64.5 C 74.5,64.5 78.5,64.5 82.5,64.5C 82.7373,65.791 82.404,66.791 81.5,67.5C 78.1091,65.8746 74.4425,64.8746 70.5,64.5 Z"/></g>
<g><path style="opacity:1" fill="#017de2" d="M 68.5,71.5 C 67.791,72.404 66.791,72.7373 65.5,72.5C 66.1054,70.5188 67.1054,70.1854 68.5,71.5 Z"/></g>
<g><path style="opacity:1" fill="#60b6ef" d="M 68.5,71.5 C 69.0431,71.56 69.3764,71.8933 69.5,72.5C 68.6667,72.8333 67.8333,73.1667 67,73.5C 65.2082,73.519 64.7082,73.1857 65.5,72.5C 66.791,72.7373 67.791,72.404 68.5,71.5 Z"/></g>
<g><path style="opacity:1" fill="#96d0f4" d="M 82.5,75.5 C 80.5,76.1667 78.5,76.8333 76.5,77.5C 75.9569,77.44 75.6236,77.1067 75.5,76.5C 77.7427,75.5258 80.076,75.1924 82.5,75.5 Z"/></g>
</svg>
