<?xml version="1.0" encoding="UTF-8"?>
<!DOCTYPE svg PUBLIC "-//W3C//DTD SVG 1.1//EN" "http://www.w3.org/Graphics/SVG/1.1/DTD/svg11.dtd">
<svg xmlns="http://www.w3.org/2000/svg" version="1.1" width="135px" height="135px" style="shape-rendering:geometricPrecision; text-rendering:geometricPrecision; image-rendering:optimizeQuality; fill-rule:evenodd; clip-rule:evenodd" xmlns:xlink="http://www.w3.org/1999/xlink">
<g><path style="opacity:0.942" fill="#2e5a8a" d="M 24.5,-0.5 C 52.8333,-0.5 81.1667,-0.5 109.5,-0.5C 115.486,1.91489 120.986,5.24823 126,9.5C 129.661,14.4933 132.494,19.8266 134.5,25.5C 134.5,53.1667 134.5,80.8333 134.5,108.5C 132.494,114.173 129.661,119.507 126,124.5C 120.986,128.752 115.486,132.085 109.5,134.5C 81.1667,134.5 52.8333,134.5 24.5,134.5C 18.5144,132.085 13.0144,128.752 8,124.5C 4.33905,119.507 1.50572,114.173 -0.5,108.5C -0.5,80.8333 -0.5,53.1667 -0.5,25.5C 1.50572,19.8266 4.33905,14.4933 8,9.5C 13.0144,5.24823 18.5144,1.91489 24.5,-0.5 Z"/></g>
<g><path style="opacity:1" fill="#fdfdfe" d="M 26.5,3.5 C 52.8354,3.33336 79.1688,3.50003 105.5,4C 118.122,6.62111 126.289,14.1211 130,26.5C 130.667,52.8333 130.667,79.1667 130,105.5C 127.046,119.454 118.546,127.621 104.5,130C 78.5,130.667 52.5,130.667 26.5,130C 13.6662,126.168 6.16617,117.668 4,104.5C 3.33333,78.5 3.33333,52.5 4,26.5C 7.68399,14.9837 15.184,7.31707 26.5,3.5 Z"/></g>
<g><path style="opacity:1" fill="#2c5889" d="M 58.5,27.5 C 82.3917,25.5684 98.225,35.9018 106,58.5C 108.341,82.4718 98.1743,98.3051 75.5,106C 52.3621,108.847 36.8621,99.3471 29,77.5C 24.8244,52.5198 34.6577,35.8531 58.5,27.5 Z"/></g>
<g><path style="opacity:1" fill="#f3f6f8" d="M 51.5,51.5 C 54.5719,51.1826 57.5719,51.5159 60.5,52.5C 62.5836,56.3359 64.917,60.0026 67.5,63.5C 69.7078,59.5834 72.0411,55.75 74.5,52C 77.5,51.3333 80.5,51.3333 83.5,52C 79.5414,58.0827 75.7081,64.2494 72,70.5C 71.501,74.8206 71.3343,79.1539 71.5,83.5C 68.5,83.5 65.5,83.5 62.5,83.5C 62.6657,79.1539 62.499,74.8206 62,70.5C 57.9487,64.3909 54.4487,58.0575 51.5,51.5 Z"/></g>
</svg>
